<mxfile host="65bd71144e">
    <diagram id="kXqW3sBZehLH03q0KuZd" name="Page-1">
        <mxGraphModel dx="797" dy="217" grid="1" gridSize="10" guides="1" tooltips="1" connect="1" arrows="1" fold="1" page="1" pageScale="1" pageWidth="850" pageHeight="1100" math="0" shadow="0">
            <root>
                <mxCell id="0"/>
                <mxCell id="1" parent="0"/>
                <mxCell id="3" value="" style="shape=image;verticalLabelPosition=bottom;labelBackgroundColor=default;verticalAlign=top;aspect=fixed;imageAspect=0;image=data:image/png,iVBORw0KGgoAAAANSUhEUgAAAbQAAAEDCAIAAADSmWbcAAAAAXNSR0IArs4c6QAAIABJREFUeAHsvdmXJGd57rv/17POuTj7bK8zeLMZJLW6q3KKzJjneY7IzKpuzUIWAqklhISwmEdjEEgYBMbMGGPAOut5n4ivs1vC3Re6c30rV1YOEZGRkRW/eN7x+2/vXY2rI3B1BK6OwNUReN8R+G/ve+XqhasjcHUEro7A1RF47wqOV/8EV0fg6ghcHYEPOAJXcPyAg3L10tURuDoCV0fgCo5X/wNXR+DqCFwdgQ84Aldw/ICDcvXS1RG4OgJXR+AKjlf/A1dH4OoIXB2BDzgCV3D8gINy9dLVEbg6AldH4AqOV/8DV0fg6ghcHYEPOAJXcPyAg3L10tURuDoCV0fgCo5X/wNXR+C/+hH4j//4j7/85S9//vOf//3f//2Pf/zjv/3bv/3hD//6+9///ne/+91vf/vbX8n4xS9+8S//8i8///nPf/azn/30pz999913f/KTn/zTP/3Tj370o7feeuuHP/zhWzL+UcY//MM/fOc73/nWt771zW9+8+tf//oXv/jFL3/5y1+S8fdvvvn3b775xhe+8Pk33nj986+/9vrrn/3cq5958cXbL798++XbL92+/RkZL7zwwqc+9annn3/+7557/umnn33s1uNPPvnUE088+cQTT9y6devmzZsXFxfH43Ecx34Yi6ouyqooq7wos6JMszxOszBOgih2/cCw7NVG2xmmaTmGaW914+VXPvsgP/kVHB/kKF0t81/rCBAWf/rTn05g8QcFi9/85je/lDHx4p9//rOf/fNPf/qzd9/96U9+8u6Pf/zjf/rRP7399js/eOsHP/jBD9966wff//5b3/ve9//xH//xu9/97ne+851vf+vb3/rmN7/1zW+++fd//7Wvfu3LX/nKl778pS99+UtvfumLX3jz79944wuf//wbr7/++ddee/2lF2/fvv3yy6+8cvuVl2+//PJLt29/egbH888//9xzzz3zzDOXNy+ffPqpJ5568vEnn3js8cdvPf7YzcduXdy83B+P42E/jGMQxVXd1k1X1W1ZNUVR5DKSJInjOAxDTdOCILBtOwzDIAg8z4miIAz9MPSDwIuiaLvd+jJc1/V935Ph+34QBK7rBkGwXq8dGZ7nOY7De8dxbNt2Xde27cViYVmWruuO4xi25fqe5diO59quw8fL9dq0LQsru9yUbdue57mua5q2vjNWq40pS1iWbZqmNQ/DMHTTXmvbrW7ohqWb1s4wN1t9s91tdWOrG/J0d+36jfVmu9Z2m+1O2+q3X37lQf6hr+D4IEfpv/QySlZ8ICx+LeNXv/r1L3/5SyUu/vmf/1npix//+Cdvv/3OO2+/8/bb7/zwh2//4Ac/+L6M733ve9+VAV58+9tf/vKXv/GNb3z961//2te+9tWvfvUrX/kKtcabb775hS984Y03cLv90iuvvfba5z73uVdfffWzMm7fvv3SSy+9+OKLn/nMZ1544YVnn332kzIIjqeffvrZZz/59FPPPPnkU48//sStm4/dvPlYUdWXtx7bHy72x4thfxjHsWmaTkbbtk3XFlUZxnFRlVlZFFVZySjLsiiKUkZd167j53mZpWWeV3le5nlZ5FVV1kVRFTlWS5Pc98MsLYq8zjMsU+QFwJRleYpbVZTbzSZLkjjFLc0z3pIkUzegwvPjNEmyNM2zrMjjNMmyLJVBtK21TZQkfhiGcRREURjHgTxwfc/1PS/wz5crxwu8IPSDyA+BvTAMoygiCn3fJ/vkZb4VCDP9KAIqoyjUdd2yLM/zCETy0XEc13U9zwuCgNRzHMf3ffU6KUmqLhYLEg3EdIWAvud4Hr5f4FuOvdY2lmPzZts2150pHDq2u1isLNM2DMuybA7XBUYtyzJMW9vq6w34SEoKGc3NdrfZ6jvDXK43jzwKOJKM253x0u2XH+SUvoLjgxylu5YhLO4lxb/+6+9+//vf/u53v/ntb3/961//6te//uUvf/WLX/xCMEFS/Ozdn8AS+fGPf/zOOz96550fvf32O2+99YO3vv/W97///W9/+zvf/YfvfufbsES+8Y1vfO1rX/vKV77y1a9+9csiKt5884u8vf765994443XX3/98zL44LXXXnv11VdflvHKK698+tOfPuXFCy+88PzzzytkPPvsc08BFk/v98dbtx574vEnLi8vb926dXFxcZAxDPth2I/Dvm37MIibdqzqrmraqmnqtmnatq7rtu26bmjqrqkHzw3LEq/VddPg/XtG1zRdFCV5XlZVU1VNXdelrFDXdVVVvC/L0rbt+oNGVVUCpqptescOqgprcXBTBFbbtkVRJDIUxcpy+lD53LYs66pqLNstqjovK9wX2BL3Rxau6rbJitzxXLzT1FmRE4vzZ07L27YruKruwLGoQMaiyrMyz8osK1zXB8+yOsvKNM3zHJKtyPMiy/M0K7Lc2OlZkhKOYF6RZ0WeptMtz8skTj0/CONYlkmByCLnd0ySJJJxvlxESRxEYRBFgkg+DgWRYRCFy7XmuH4QxUEUh3EayPhP4BiGExYpHn3f13WdHCQcPRF0p68YhgHqiU5Ur6vFbNvebDaGYUyKz7Et17Fdl3AU/eiutY1p27xxCySjiFDPttzlci1kdGwbH0SA8kOpFlcbTTct6EfT2u6gGbWdvt0ZhmmfL1c3zhYgo7yy082Xbt++65T+K08+BDj+5S9/+fOf//ynP/3pj//+7//2xz/+4Q9/+Nc//OH3//p7wOK3v/3Nb37zq1//6le/+hWVxc9//vOf/vSnkBXv/vTdd9/9scDiR+K5ePudd3749g9/8MMffP+tt773/e/DBhHPBZXFt7/97W9+85sUF1+V8WUZX/ziF19//XXqi9dee+31118XZfG5V1559ZVXPvfiS7dfuv3yiy/d/vRnXnzy6Wee+7tPPfvc3z37yeeeefaTTz/z7FPPPPvk0888/sRTjz/x5GOPP3Hzsccfu/V43w378bAfD8BEP/Z9z9Mdp37TVCXO8CIv0yQvi6qq27ys8rIq60YI0tUNbv14aLuh7QcuVoMrXVVBozRNVxY1yNJ0hZyCTdOFQQy+VJOEqeu6KIq2bbHdecWqajzPh/wQCZPneRzH1BFJkvg+To00TT3Pi+M4iqLT+5RnZ1HUVVOWdVnWUZgUeVWWVSE7QU61LQjSNF1d40GSZEXV1m3ftH03jFVTtx3gKBzsmrpv6iGJ87Koq5KHZ4Lj9ASsBEbTJK+rpm26BgzFAHlmkvJxGIZ93+MIV5XsBohbVVWe5wLBum171wnLcuIpKHUyCLgsy5IkyfP85B2Am4e9Ejg6XlDWTVZURdXghwNAp23isFdlVuSmbUHqlUWaZ6Sn2iCPfxzjiGaQhLNynOHIw1vklW272ETe5HkF8k1wLMq8KLK8zAvHsnPZDDUj4ZhlBW9lUaVp7gdhlMRxlkZJjAfpxMY0TcMwTJJksVopMkLFAZGBHwZxmoQxHq+1reeHHmVjFFPKBQEUZBAE71eOQeCFoe/7rsjGII4j0zQp5ZQpTSrxxSAICEc+dSD7ICohMGdxp2nadrud4GhDIVJ2woh2oUg3G80C9fAG1hcRSh1q265tu+u1BuxZDsWj63iO4zl4y7Ecz7SdtbbdGYCjtoNapJUtlrWp7fTFar3WtoAjbG3zMy+++Fd4eNfL94Hj5c1bRVXffOzxw8Xl4WJ2ZEBY7Lth6Mexafu67dtuKKomTrOiKvOyaPuu6btu6JuubbqurOt+HHiDHgnjtunFlBnavuvH6V4e9N3Qt7JuWVc47eq6n0fbtsMw9H3fdR2Zxcdpmu73e9hEslF5gNO7bQY503FuV03nBaGSDGXdzDhry7qpm67p5ItALkVKaNSidNSJIacxoNY0XZ4VOA2qhg4dbKHtm25o2r4HXY/dMA77A9UKAdfKF+vaAZgQAPG+bfs0ydq2b1vQgQPndAtcNnVbFhVh6nkBz+R6HnxKpqiTnCcwF1Fv8Vu0TV+WdZ4VQRDBMMygRJSZJoICQiUMY98LTMNOsjLJijBOoiSJknhaFH/yNC3SpAzDNEtxPtOTRdTOX6Jp6qau2iROu7avqgYYFSxyAf5kvA/DkG/dA8eyBHf5iwRBUhRgGYl2+rsoOMZxfLpACfzV8ju2MJLL2vUBR1GOd8GRyC9hHFeW60yyceam+ixetyZDN/0AOFI/VlVj206SZGXRFEVNyUjlCDjmEI+O7SSxHNIsy+S9LM+5k/LTFEmcWrYdxlEE6zuNM4jHJE1j+S0gJ5NkrWmu7wkQoRb5wA8pJAMvCHaGGSXpZFYHuGQGMkJBoOd5NIrDMKSNHIk5HQRBLCMMQ9u2LcviWrwntsAweBgDy3L0nen7oRjMrmPZvusFnh94viegNAxju91yO7YMGsXy0PG9QNN2dCnasLoxlNXsur5tu6vVBs5FgaMw0XVsz7Ycy7RN8NE9X662Ojioyyu6AeejYdqGBaN7ud4s15u1Jpb1Tv/0Zz4MOHbD6AcRwCEnf9uDd1AQwq9+BAsIhbJuwjitmrqsq6Iqm64DIgHHtu3BOz6gkYWLed1Cl40DadiPMOb4WBbu6GRpsXY/DAPCUu8bXde1bZskiYImVV4r6GnbEfJNbkVVu15QNW1R1aQhJd5033Z1C+Oxabo4Tpsakq2uWxiPDSxBNYiwtu35TzwfFhyHthu6fmz7oR/2bQ/Z2PZDw6/dj7hKdEOHS8p+HA9dN+CbdSM3GMepWKbT7vOPXAC6vh+5Ytt0vsCRmquToR5zD5tm8rjzadd1tD3VuV2Iedu2vecFIC++MsTanS8o1y0cgaqJoqSqu6Yb6rYrqhpXu5ZHA7SqqrauuiTG+Sx+N+BRKVkCN03TKEpERoSO7YVhTEc73V7AcJqWZZllmed5sCyFG4Q77WXK5FJ0WRimJfx6k9oTIduLluQXafO8jKKIq8zfqKnkYoCrVFlnWeGHUZLh0laUNe6FmAC3/OI8Eq7rch/I+qIo+G/Aw5jneRRFBJpQD0b05BTMITzlVliOneb5dDmRr8lvl6YpPQCO43A7fGU+enAuxnHKm2laQRSGohlnAxyWeJRAGIZxpJsmFoCfMQzj2A9D1/dd3xc5GXqBvzPMIIz9MIJ+9OFtpHikDKTus22bT5Wc9H2fZjvV5SkcubrneaYMy3Isy9ludc8LXNcPgzBwPd/1PMcVPiJEo+u6pmmmaRoi/CzLova0LMs0Ldf1NW1nGBb56MgQbkKFmqZt2+52qwN7lmPoWJ4fCjLiNde0nZVIxw3ko21YznaHUIy20xmcgcNRQ4hmZ5i6aX3qhU+/9wDjPspx2B+9IKxbmIpN13eDsGyAviPOCMe2H+qmi5JMDBdcp0XxAAjEqIJj3w1xlCg4DnvFR2ywH0fxd41t36UFvNhEALhy9yAnh2Houi5NUwVHLt+2vQivu+Do3AeOcgFouiwrxMIFHQTtwIca5FTXQn9hAQEiaDg/GMZDP+ybrh/GA+HYNACcWOj4en0PIA7D2HW47/uhbbs0zdsWlxH1fXlJaNuu74e+H+jwi6KYe3JnMbk+DF3ft13fdq2QTp3MNFTVzjdNM45jVdVN0/q+T6HNd4kS4FguY/wFkyxV6ypsq6sFhG1d53nOZQiOGUnigMQbbV23aZoXeVVXOKRqAV7YqPiqqoqiqCxLys9sHkVRELJZmsdxalteGMS+FwZ+5HkBlFKUBKRCBAp7MOZwVtNsFATHUZiEQQSjNEoDP3Q8OOCgheM0mCxVkWRpnsIiBxVt2553AX+TJCHXCMQsyxD/iGMJ+IJbkWwHOIug76Dy0tT1vTCOKMzVPWPE3CY9IfQezltDxCVNc36vGMrR8QKYyeoWRKEfBl4w4c+wTD8KcUhC2NRe4MNWlUCHi6CHu9UNxwv8MHK9wPVgTXsygBy5atHatW07mAcXYIiGcRhd13FkZbgu4jCe59GNaOimadqatvNcH9vDp7q8hQh3I0RjmuZ2uxUUwkKnVrVk2DCkPYSkwT5Y0EQn3xWGImC9JT0NyzCs3c7Q5WYYlm2BjEzQYXiatrOQESa28HHHmMxyrWkSyP675z/1AGy8Xz/H/eHCCyKSUaRQ3wKLIyRhL9pQlGPbD1XTRnEKH1oLy1IEEyxrwShgRwk1DPs4TmklYUOHPflIhoqpDgN8PBzEGKLTCqAYxz1pIiIS3kCxrYemaZMkJXS6DpZp10HWto1YqR3s9qbrm64PowT6Tm70Q9HOpbgThTriTE7ghWf0AD5FQQA5IufztIWygAyp67qToSx6eg+aDu6CfhyoBxnl6LtREZ64p3+g67qyLNu2HcexFS/dTEaoZg6lkbk//FBq0a5ph66ns7MRP12aAmrcVHv3GIaBr3ueR1XOfSDg8K78UnXblHUVp8nda8ODSDWqwEq5pxiqdmx+BXCMVUCmhLCl+UxrWkmzOI4JR5q3FLxN01A/ij3eeG5YYQuwjuFxwdULP4dca+HQzPOS2yFz4bUUB6taK8/KIIL7J4fPEWEZbrkWpSy/Owx/13WJad6fKjtijjap4CMinZMki8I4SbIgkmBIHBmW6QbId6EEU/fUaDRviR6+EiCNxouihDffC30/3G53inSWY7sSgHY8z5Y8GNt1doZuu67lOLbnWq6jm6aNcIdj2rZhWbbraFvEJSzH1U3LsGzTsgi17Xa72+0Mw9jtdpvNZjcPvktVaNvIm3EcZ7Va6fPY7Xa6rm+32/V6jRW3+m5nrJbr7VbfbvXddrfTkC+z07bGTtfxITtN05bLpaZpGxmr1Wqz2axlaBttq+mr1Wa5XK/X2mqF19WS3L6m7RaL1Wq5WS3Xq+Xm/Hx5duN8uVitsZntcrU5X67PF6vlWltttBvni7Pz5dlief3s/PrZ4obczperhx65tlhtzhbLG2eLp55+5r0HGPdRjhc3bzleAOUoZmODIAPQ1Q3wNnbDXqEnL+swTqgcxWieDEogtYOlyVvbDVGSVg08feCHoO5wQEbFOI4DUjqxJLx14hYkswYRXDAwW1im+OD9EewZ9k3TJXE6B0/winjuINZ6waLs4dB0wwfDEW7MvRiYXV2JzEkyFVoVkYXTnI4wIcUMx7LO0jtwnEAjLlT6Cvr9CH8C3Igd9naANT0MEx/pP6Xy7fs+zxEVJVkI0HEciS0FR2pk0orO1lM4Ujl2iKiUSZI0TcONK1qpB9xgGIYUcdxzblbBsWqaQrxvaq1TSpLUdPtSMKrP4sb5Vtd1MNvFZ1rk1ex4hd6c0XlHSDKQkmUIgJCJyoUqTxEmsky3rhHXAhznfzVefvi0KCrf98lT7hiX5Lu84EVJFqcwqyUmUyOqhutwS2FbVQiFua47QXkWs7TklbZNkiQMQ9GZsKlhSOcl7/kszXPbdZI5QHSKWj5WkD2VqOKUuBOtjqNU2+6CKEwkICPWdAy3o4hTmtWGZcVpCrMaMhqhaiQoinHtePBF0iXnh5LHE8UhM3Q8BG/8OWnRsiyqSJrVwTyowaMoMgxDrgS482UoGxkeQMvZrDUHERLPF1dj4Pm+GNeumMeGYWiaZsiwbRjL9D+KPER+o66biEfrpoRfIGnVAvA5Oq6um9utbtuu5wXwc3oBH9iWA+VoIbWbaYy6aWk7gwqRF4adbq7Wm4cfvrYCdXc7w3zm2U++9wDjPnA8Xt70w0jBEdFKIV0L5xr8a4Rj3XZ5WcWzWa3gKCt2dMORenXThXHCwG4/7CmgSMZTOHbDyIAJzFgCUWAH5HXwwe33RwhPQWEUJSCmPJ3NXjAUHkOJ+CBO8lfgCOzKkmKGQ4OIbXVHOTIw0jRNL0P5HMuyTtO8rqf4Mr8IFhkhk0U2woUKIpQ1/AXjQW7Td6U2JAf7vid8SUNeMPiWcheQlVEUkVYk2n6/79uuQ35NM5vVbVVVQRAoSaugdrpi13VJkhAffJ3fjmZ1C5ugr7s2Q/IeYsekIdUil+RaVJFZllGQqo2cwBGuibpGMIQSj0TmBikeCUp63Mgg5Qa9oxzFjgj8RMGRxgcjWuRj2yDm43kefY78dpL6Qw/pdB+neRgnCMiU8D5P20FaEmP0iPacwlGhVm2WdPN9Xy5pVZEjrIwLalkDkVOYOzdsK8kyZhTMDkr4ZPlNqwp5ArZtq9ScJEE+D52YTJxMk0zXTRA2z4I4irOUaYxwPk7x68RykKgj3saA2TyQrlHoBQFlpuv7pm0zFxIJDVHkeR5Jxyxuz/M0TSMoSUxfBpchLrfbLT0VcFmG2LJhmVSplmQebrdbTzLAGUtxZUi4BjFly3IkomLpiDhPg0vakuxt27amaWQ036ZohYC1HN42W3DNtBwBqAubWrbMVB5tNyU56qZ1VxK4bui6uV5r165dF0mKJPCnn332vQcY94Hj4eIyjFOJ5AKLdYuYLIHYjwd4IUWdVY3AMc3ny3krfGwnmI77bhh7ua/bLkpShEHaDlHdccQZLiEX6Mf9YTxc9CNceGleVqJOGbsYRSTSPp1UWA//XdcNUZRQJwo6JywSl9hn8ZYqOKoAMTEHVyAxKsEjhKERwy1EvnR1PUkbAkJOfohTaNKmS5OM6SinEg9Bqq7txKbG46Yryxo+x7uV4yn7hmEgFBh0IhxPmcXHdV0HQaBQNWk98TbiV8H3EVC2bRRFiuZcV2FoUrgCR5re3I7impARcGz6LpfMZwo9boHXAKUTybgsy/hAbeQUjl3bt3IQuhZHg3pQbUGxuyxLegOoHE8/VALWSHuKo6wSxyWDJ7RNSEbJU8D2eWEgXvFZCDUh4l9XiMxUFfjl+6EEvRvJWOISyNPkrSxLyk+a/LDNJUxTyoBLUobjONS5fEpDnkmRFJiM6pCk77/n92UYiuIRGQAS0ZJ7hGXSpDAMe8r9LnLqR1AyTdKsSNI8inM/SFw/ipI0CBGTCSIEZxifcX3fC5DhZTm2xK/l3QgZPEohUjCewjGYB6PVTAjTdV3BMYhCVzybhoVaF9JttVoRdsojSVbK9kPX9TebLYIxiK5Mg8vT9WlZ1nq9pgmv4OjIUHBca1vDtHWkSyIOY5o2tarteo6HuNNmu2Oq43aHtJ+dbu4Mc6ebUJ3a7hSOH5pZHadZ1SDZjTqx68cpJjsi7AANWLd5UaV5kWT5HPqrq7aBdYSTSQTmHTj2gKNEh2FxiyrhmQxewLJGQGN/vOBmKRvh4ETgGCGhvoN4JNHIzSzNFRyxvNzII8IR0ZJhjJKsk/AxRSLhiO3I2cun94VjJz5X7swHwrHuWgm7w+if4FgAjl2L1B6o47tH13V0NVZVdaocCRqlHBlaCcMQR2xy/SFSP/bDMEVjAMemhquRi3FdhKMleRsr9ViFnxLHMUFJRCqudX2PPKkBoaFa/AnDMByPR/KOv9Rp5kDXdVmWKcbR3if7KLq7DkBM05TUoxS9R4Q2TYPkFnGVKixym4z/0NOaJEktWg/JmEjVQryPP1zX9hKz6gzDIK1ItFPfK7dclbXnBUVRMb+HSlaZ+fy4MAwZgVHxIkVb4q8oCs/zmFCpoEkxSIGZ53kQBMoMfz8cyUESlnBk2IeIzHPJG88q2/YIx8mazlRCT044BlFqu0GcZCGiTMCiuvkSpYmS2LAtCdcAjn5wJ2DFGpsgCFgkA2NVuBnKiGQQkYZhKDiGceQFgeN7O8NAIrcMwzBISRGduKMIxb0XuI6/XiNaLETDCjSciUlGbJgo7kjRC4WnK2mStutZNqIu683W9QLH9SgYLZGQjuNZDoLkO8NarjdM5ZE8Hks34GPVxCW63ern50tN223W2ma7e+qZD8PnePPWY34Y5WWVZkWc5mleiLOmTLI8zUup7k6zvAzjhLkC8Hog2QqXLz8MaG1kRakKEsq6CaK4rJuirGHXyOA/GVz7ZYl/2hoeyTRH1kUuObFMKoQnXm6sQ6BjviiqLM3FZwQTqcin+i2GXFhPirAKAjIxsjLF9U5bD9JjTjmkAGHyc56XAKi8JecenP0STYblxZQ9Jv2IpEACkEhayEMqYrkk8CoyQgFLRAhRa5G6CuWMXBPxlQhMBReSi5QhmKqqgjNRdoDbEdcB2KoE3TAg94hwJAvEQyvXFCaQSvJT3/dxjMC3uAVBBgVH9QAp6JJReJpeSh16uvw4jkmCuA3fOt1/xbWu6xgnoQpTIpSfxX0gdLjKqaRVG2maRvJ+wFhmOxCOPJi4XEmyt+M4KlivtkP2UZ5XZR34Id3Kkq2FCwY5zgdU6IRXUcCtrMQsH/OfNgiC02xzeo3FC4lUozzPSc8PxCJfLIrCcRyG49M0VaY3uDwlBFW+HyVZhsIYJjlKHSGepriFUeYHie0GEo1PGcg+hWMgINtsNZGQsLuR6CiD7CPFKAwDGVyEUXXKxjBEBSHTAJIkARkRDkJMHMEi4eNut7Msi7a5d/fwvcCWXJ+twJFmuOsiKq2qEi3LovaEGS2DAMW954OPjrtaa5btGrNmtJER6SGtB+Fu37DsBdJ5dFGXIOMOaY9wPm63uqbtzs+Xi/OVpu3W2u7Jp55+7wHGfczqxx5/yg/jAqnOXSmF64yTICuwhtXcdL2ArIyTDHI/y5IszYoCKQwZgtcp0uCavEAZSVEiPuj6QVFNOdj816/mUSPLhBktA+uo5qhxI8VqyFIsSkQpC+CrQ/mXODFPNggfH93wiItKdhs3gsy+umVpVyJRlyxDnm0SSzWrZJbhlSRzxVCRcoQMmGcObpLBepEV4ziVIpmMWyZwJ7wCnhCqc4h/LMpapVvixaYbx8M9fCTKsaYkJ/UylH3Np03TiEaDVrqjmER4UgwqqRWGIcPfYJYkDMg90rC4JEFDdhAc/IjTezKLepbg4/4o7UkOHg4HekLVusr9yrJl/sQi+nCF+WvKkbKLeFJQ42cpYtLHx7hZXbe8QjDlgBeYtu1936cYVEeDTxXX6roNw5ghGsnn5wGA4uZgfpLyMCrBq7ZDApqmyQIeJRXiypSxAAAgAElEQVTVRxD09DYqXCopqh5kWabrugrIcEnK3kISMPOsCsMkiKI0z5jkqFId8Z8ocAyi1LJ9dKAJI6ZDspaG6kSqrSNth6gOLW4FR8pDqkV6DKH3YIUjF3JGKEqtCEclJyXagyQh3lwZpgw+9u4eruNZps1YtvgfkeToebDHbUknckUhrtdrYpEZlK4kDEFgShqjge4SO9N2drqhNKMrXlXL8WzRj4vlGnmOML0Bx+3OQARGyLjZbLdb/caN8w3aT2xv3nrsvQcY94djEKYV3P173CQIg/Q9poV3UnwiQi/J8iCMs6JIcyBLwneIBIr5guyeBnl4KFkJwlgCMmCrsrymf0yk9YlTrxtRPgWnHmiCGyrPsB1JzR4lB7EvKsS84zRDJYyUptDgRQaiiMQpPiNeRZVoXZa1ssiUYGTQgGAF+2YHATdFFSm1FlCUSEXOK9Q/IKekqkrET6dcaKkmTLJCatSQaUz3Py71KEfJ4jgVKGdsOQBHkxA5Q54degrQQ6/EBR8wUzqKUL3DfeMBUZJtkEGi0ec4UQwBor7pWLM0THKy63hKc5n54EP9KZ1ITJdlSerRSKcHAGa3QJz3aZoqJ6OCu3IIkHcMjp9Sj9AhYYmVNE3Vnpw+4Lusni7kqgjHsfzE/H1xpZEwXdcNYRgSpoplhJ8iF+EIn/JUVsj374UjNzKJTTEQ5iv4VHBpWVYpQ2GUC/NF5gwwJZ6SkMSkGCcfi6LY7XYzDVE1ox7fBccYcBTZgcgMCxfjJEsyKMcoyQ3LDeM0TrMoiedC7Kl2MIgQxV5t1l4YyFU+jtGLByOQ4bpuFEW73Y5YDKWmUOprCMgkiuIgCA3DlLfCIBDbPAzE7QhEilfRt21b5UISuHw9DEMJs3iWZZ0WyXgyBIsuIiuOp/K3GZJ2HWQteW5gW65lIhVc35mSKA6EKqri473AcjzH9RfLtWUjY4lBaimmBh83291qoy3Xmxtni7WG1J/Lm7cegI33y3N87PGnwihru33XH+SG0AptRkZmVPGc/DaQimhk0tRpniM3NQhmAYVyESQAdfA5suii6fq9tEXhiSQnIRJrJOVl37V9npckYyt2K4xQxJ1R50s3IoDbIzcIAQmkXR/3UnzChB4RYmijwBvgKGcUvVTKV8VyFz5l/ERRj+dPXUm3FiZOstJZSC3RailGlkLpKeDA+I9AHPRvujjNuMOTfkRhDByjCGxLBTe+V9MlSYYk+5P6SBUCVqmFknAnWX7idIMQzqd6EVpnzCjWdZ2ZIkg2RtqHFJ+lSZJPpceMBmRZps5nnvkkCB8TT0VRSAQerlI+oPY8pSGhRnWpXif16BxomiYIpsLHU+pxYb5CXUw6q/CR4hqpKkxBeXjXDgiwVA3TaPn7UozTlzoBj/Ey+YB74Ej3iPy+07Jqx6gciSoVimHeJQFHa9qyrFOcKS+EgmOeozSTUR2+eFqtVBRFlmXcCDdIyPIXUXJSJY2rV7gi08gBuSTd6kac5lGSyW2qwgYWRS36YbLdmV4QojomSSJpuUM9qBBJdyG14VSHLfZSECV+EIZB7Lq+qD3Edzx4EXFjkrkrXcvQi8wwaFYTi54M3/epAS3L2mw25Bo/TtqRmS7CKcg3YvI2g9EstnFdZJXj5viO7RkSWpFEILgs1bBdn+lKi9XaclzLdllbvTPM1QZknOC42jz0yLXlarNYrY+XNz8EOD719Cc9Py6rrunGtodyFDIiBAzOSPyaSYu4jiFDAqkMZV2leb5YLVebjeCISZHjuEfFMWEB39y4lzRH1AUywwWp01PKCwrsyrJm0JkcQZnMeOCtHw9dP9ZS2R1EMWNE4/5Ii3VAkhDoo8g4DPtEks8nJoqWpMxELrvUOyt5mCTZ5JqU3HQsMC/P1ZkayRQiGrnYN37oKLWDSAiV8sG2T7IckXoJZCGfSaJJKlVTfcEsLaSWBqJMuREVicgRwdnkeSALSA3FFMo0mpbTW0Pf7xEKQgx9QECby/DEVrkySv6wdphGLnpzuS4zEKkgoggdAOmKiuNYtE4ZBKFEgafyahJEcYTB4jCk5kVlNNmnjN++70muIAiIVO45pSW1LS0MmLFp3ta4JNZF3VRtV8v1hLJZ7plmAG+q/GoqnaCZR9v2kdRo0ZWhEiFZ6CoBH2hDRpC4Y5TbKh7Nr6Yi2qeeRwpDojDPc+ZC0gVJ6ikCKjjyqqa0JE0EPmWQSkWHaENQjaZpOhXVJKlh2WGchHEqt6kHGgPWMKWjdKubjueHsVQJCRz5IxKOvu/T9xdIFvodOMZJGMFaj8KYtPIlrPPX4Giapi8ty2g1E5R0HbquaxgG49E0wNlaApT04TQ0LMAR8WgRhadwREja8SzLMQ1ru9UdB85KlQWJrVkOo9WL1RoRGBjWDoLUpnXjfEE+LtdI//7YJx5ab7bL9WZ/OH5IcAziuhnqZgAfuwmOk3kLPLGfVZvmRQDvJLpF5BCPzf/1N38jzo4Yck/auoz7Yz/skyyHS05SeRir5f+2RHKnfEDmyuRZodjBxMZh3PdyG/YIaiORqO2DUD5CKvbI1veTcej3SQwXIelGxUF68kSCRBUBiG40MexlBDTF8hIFKrHnAZV/fTcc9kcEZCSFCBtkmw2pC5QqPlT0SHHg2HZ9nGTM8USZz7gfkQc+7veH/R454Xt5pe+HKIqkEAgajbBjUJiXDXbWEKcb4EgXm3xNNA0iU6DdELQdAj9krIbuP26NB5nlQ10H5VVXrUT2kQ4lWnsyq0lPbpPNcnjR6rs9bvI1gXim2TdDFCbixJiqWfhxSoSK57dhgFiCsKABs4sDyUPmSZ5lGU08PqVvQbntmAMIuRSnZV6VeVWXTVM2bYUkfiVah2HIUZ+NwN3sCMZeKV0sxjLKGelOoYOb/xJ8rLSkygNVlOdGFMV8f+qQxFCMEoynD1g8TpydRmxoPmdZpuoUyUResRi8Usuog6BeUQcHujJJLWQ6RmxKxjpJpEOKchTrLTYsR5Rj6IOVcCkyid3zPHgZBY5K93mhFyW4AHpBKEFwFGi6rq/raC2BW4hUHsl29FHxNw9D6qbJwSAIiEjKRurK5XLJ7meODAIObXVs17QcEXpb3USFNYHoSFkhQWnbrqEDjnPABo5LUtIwbW6B3RuRviNdebY748b54nyxWqw2yzXM6utncEsuVuth3H84cHT9qO3Gqu7rFqnUVI40b3sJzp4ox7Ss66wosqKI0/RvP/IRP4zW2hZVxrKipEYOYZyIaSyYG4b98YBAQd/vD4fLmzcP++PxcLnfH9kvgGUVfT8eDheElCBjOB4uxuHYdYh7+GHUzRU4zJXhiS0OMjgxhR6jtEhB5ysQBMpiGAcERqgKAUfxbFZlE4UxrTbGYMXeh6AT05KUhKkehYkSleNwYPX04XDY7/fH43EYhsPhgFryOAWyB9FvSOvEILb4mBAkhvgptGEPhwNV5CyrkRNT5BV0q3hehx5s5TLcSeC+PwZBJCc8LEWlPbllBUcUriA7fd+1UNmiuOdtSOswOhZ93xddL0q82w89Ornx0sUj1nV7zwuljA+alIO0mrQa4v7odcRrD/UgzVUlHiknmcU5KzwE0IlpptHQJk2TtC6bCu6buimbpkLlOzUdF2YzsTTNwyDyvUAEL4K0yu2QJpnreKkUa7O5A5Kv0xx9YlGpjTTAKIrYi4FnuCcB2TAMTROuN8LFNM04RgewQAYpoxxt3Mhut3OkGoQ44PnMUzoMUWrCtGcFi5kzLrfGJG3uCRSSKCYmvljSuwEbdJzlemPC12YjFoGehjp6vCKn0JL0GWezRYmx9Da0dROJgoYMqRfZbbfb5XJ5fn6+laHtNjtjq+k7DXWAuiG00nVT22xN0zaQPKjLZo2tvttstfXmzkDUQ9f5/Pz8fC1Z16wFXK1W165dW8nYzLWDq9Vqs0HN32qjnS1Wj944W65QI7hea8vlGsk3m+1GbuqV9Vpby1itVovFYrlcShmhbGStAYXL9WK1Xq43j944e+TR65946BHcHn7k4WuPfuSjH79+dv7xhx7O8uK9Bxj3Ccg888nnXB/lg3TqIZd7xhDVHySkdGDPiwpx7RINRLO8XG+2H/nox4uquXG2kP4MqKiRnoCt6wd0XJZoqFc2XVu3bZrnzBvnubcf0ewrkYAMQYAGi/3oukjuZ1OwoT/0/Z7KUcFxv59yCRlYQDm25Ir3/Ui9oExpah8VOKZ8aBvk+kQRpBAbRpARillcHp0j+jEIIqonKlAUiu+P3IH9fmIWc9TR4m08HA4X47g/yCDvPhCOEM+HQ9/3p3AkLiUoUZFN84fCKaF2T148plPiZ0++CN2m/Mq+lyT5tif9IR47FFyK9xNpp/wgbrDvEfzFVpCvf9yPF/vx4jRG3HdjXfWu40sy0/QRJDL5KCoSTok4TqF2kYpwB6D3+BZV5R/5OC84/WXNT5qkQzuAiVXb1ggzNSKklXxmOSB61BZoPSuFodie2p+m7njxoHjkDy2ZW0gDoHKkT5Y4VsqRHY+UMGSnDKo5GstKVCrjmnngqipG5Xhzrbqufd9XzkRmOHL7NLppVgdBwGxzPqWIVoG7GGa1E6FpboaMkURKCSNkjsRp4iPVMXHcQDKlPZXnKCEZkJ2MJnAnczj0/Mh3fC9KEtv1wiiJwtj3Q8tyArneoL1FGARxNAWsZ/AbkuoIvjuuoevozug49mwC67q+Wq0MA2j2PMRn1GXDQucISzdQ5GeYFnSgi1ZnlmU7Djo2So9I1zDMrbbdoYGtYcngA1uGLlvWNG272620zc4wtN0W7NY2q81mtVkv16tPPPzQOSqwN13fPwAb7xeQeebZT7J88B44TkWEYi/T/1hUdRDFkg2ODoD/79/+z8VqnRfVZquLLYsKa9N2zs6Xy9VGAralYdmSitNtttrZYrHWNtdv3GDOILvMo/Nj25+dLdjztW1723bW6/WcDb4fBmjSME4VHCncmESCkxpdFSVvphvzrKCEnFYXzajgSP0IdKJRAhqIzTkikhMttBDwoQ8umRgGEa34vfg69/vjYX9B9qndgK8zyVikSDiSfQQfSUrlGAQBiUmWkZunCzAPPMsKdtngR59gUSDWD0N/nLtDTqTjG/Nm4czlFQI5Vk039AfpEoSLiiIIhW3f967rAtOA/gRHXr0ok3tk5g9oGI4czqnVprJz560hzT4Iojn96A70TiHYdZ1t28Slur+zqDTrbNs2jdOxG7u6IxmlDwrykxTN66phMR9dIqq+k58lMrMOfChryV29y5sszorJJxtFEYUtw9bkHX0FxGUYhqrHGk1mFSohJauqYqojqcdMRoRopFRCek4VymRmgIUdLlQvIj6wLOsUoIkMGuzioIgty5lacPpheCcJBwD0MWJHIr+wqGVE8whkMGbChrV0dIRTzHpaPAjQA2mr7dgMiWtx2hlvHq7rbrdbISMix7whDceG8Ut+rlYrCz3KUCVDutkEqNDNNM3z83PyjsszURzblFwf0zTptbSkdwZVOWnL5U3T3Gw2uqEjQA3lO8FxuYYYPVsuHr72yI3zs9XmQ4Lj0888G0STRw8hBSl3kcIYdodF8mPddlkBIEZoHI0eeVlR/vf/8TcPPXLN8YLFai1mL+LUi+U6SXMvCBFihv84afu+aprlesV8xJ1hNHCx730/jMKYmbqLxaooYEtKtUwXhphTIgzj/f6i7w/9eGCBIysUSROeKmJvwsbl+QxNgVbbQAPpxpJnGtpKA1I5Ku8kJQk3OMFRyrr7fgzDWJoDzVuTOPs9knAcD2mai+yCcmQAijupZCNXieOYSIX/72TwXd53HaobGZ5irOn0XXm877tDEmfiTIBNrQ5F13XyuTCK0bBDqsjbphfvBBoXc6/UBil+iWy0Rp/hyAg7AS2W9RDHGVLT0QwJH0clO5MRrzVN57o+ol4oaJkGXR+q2qdpGtf1lB9jXgp/lc+0bdFpbRxGyYTvOrRou2tropTROVgViap4dTOPqqps22bMR+lN4pgfRLltGIaKSpGGipVMb0yShK9TBtIjyVXo5czzXNM0ElPFYbBKllcF74skQt8zwlTlbCnZSKVpmqaqtFEiVCnHKBI4Ssc2dJ6AOxGD2hB4CxJEex2PcFQ5jCQg3QKO4zDVkb5gFcvmRtDqLYjWa43N2bBNGQyqCH99z/N2ux0x5jsubq4n/RyR5UPP43K5JBmpGZWXQKGQ83CRmESqcllyxcViQfclCw3xccJNlVIOcWqam6222W5P4bhYrRar1fWzs+tnN9bapm6a9x5g3Mes/uRzfxdEMRrlS9KMBIWBORZNMxpTN+iEmhVVkuVM7gvj5H/73/8Px/XZtdy0Xcnd6VcbrajqGGV8Y5Llq43GEsPVZi0tcqudYUQhuj2ahrVcruMoqcpmuVxbpkN48X89idOtthv6Q9eO/XhIspz5Pb0YrTzJh2lAqJGGbE5FLyGFz38CRyRCyln9gXDk6nGcsoqRnJoIIlxTynG/P2ZZAVF5uDgeLmgB0zF6PGJiyXnskyQ5iM0t5eYHhUdZQN7YH/p+yCRIRUIJ9HEJQEYUXIGsUDwWRSXydpAmb0At+x5JGTvci9zhJMl4ZPBUiDmr0T1oPgedsKkOPl8KZC7MjfBHydCMcspLl3DTlPQzfzUc/zhKQUb8G7Vj1x/GcejQtmRgGgBCSmMYxKLdJj+pAhalKB21rusOA7I1yVZlwvMp7tue3pg5bHXHkCdHWR00oVkQzg9S5jlzRR3HYVHjqXuUypEqkm16S+S+Yig4nqrL3W5HgNJY5r2CY5kDjnN3H2WgIzeLeEVoqapUiSGXIDEZrZb6v8i2XMShp/xZRLFVOgEoGWWei2bdSjkSbSRgIPWCjuOwvJqBGq4eyYiBb5Q/mIYFyRJNc9eEc19Iz/MYpCYcwUrpxyN8RCYOAee67m4H/yatbxJQYZFBbUpLopNr0dtLMqrmFIqbXJKQpRpFzMeEQa3ttlvxja61zWK1OkNgZrlYLR+9cWO1WVd1/QBsvJ9Z/dzznwpYdSfFMOyvwyRwtpyA37BA6UtWoJoQ8yTUTZLl/+d//x9M/07SfL3Zjodj0w3nixXaiyYZm+PeOF9UTTMeDjtD58RjKJy0UJe01VCGeY6Kn+VqudF1k1Coa3SfX602j1y7XqMVGCaQS/OCSZTD/nA8Humw62WQAhA0PYIYd5TjLB7nRpAw/diXGzO6hPFJzGEqrSNseygs6ZbWj1laTDJqTj+Sp4jDcDfwYH9RFfVxf7EfDofxOEobcLKSrJk9lcc0yQ/7i1M7XaEKy8hHDMM+ywqmgvJd0o0bEV8lEIbqEYEO92eGFLShBMRnOMaA4zgc9iPEtdoslOt4pK82STJ4HmQxtT+8qFCPt23PHCmAEoGdyeerPpSHiMCCz1EaCI1dvx8ksUguQgy+A6BIJv1gOPJn9TyPcKREVdKY6BTkDfws1l/XUmyuGMrsiDzP+e+hvLF0WVA5Eo6KayqjiBAktljKyeCyYhkXUKAsy9KyLBJNrQXUllXJc6aschQN3ul/zk3dc8+CSLoa6XakfiQEkyR10A8XUSLWdE3SUWbgEg6mQRBvt/o9cCQi6XP0PG+xWPAxN8t7AWhEm323M8IgElDCPA9kEF4Uj6qCkHCkbMS9ZAiZpqnrOpeh3CMZiUU6PVkk4909xOaGGU6r2ZKhcEkyqk0tFgvDMhmS2uq71WYjTkZttdks1xCP165fX23WRVW+9wDjPsrx+U+9EKKFbSO3mrxj9R4nG6gamWGqqEK0EMWPzmZ5fhhxpg7XDxerdd12ZdU4HtI1BY5jJdnRyIvuh7JupSObiVpDmVeIKs+2XZnfModU3OrQHcPoBeF6s03zspOG2003ZEVJOIppCMml7CMygq0oJEINpzvsSjZAk7IKuuSnQl2ZVC9Ncxbwyvnf087i2TitKFvI85IyisH0w+HisL9gkPr9cLw4XF4eLsFHMVGVECM7mIZJD4CCFGA0oNEZMCrw6jsoxwMUKBTxqcNUwuUS9tlfIMAyd8CkQ5NQeD8cVRI1NaDKwAeLxY+h4IiAEoLwl/coR0yAk+biu0RyzyANK3HI7oSJgF2krErrubZuhrmT0NB1o+QSMEU0RJIAfh41FPt48Nu2tSyLAlA03527+dKFeJrvqQkRUVXFQWHInErCkRvn8SE9lXik6c2ATCPWCvPwqRkZH6eXUNnL95CRT1XrM6UrFRzrsmyqusimGRfuafCjNkvCqnobmt6EMiGYJikmb7Hd98ORFQFxnEdRqu/Me+BIYUgrO4qi5XIZyFBwnG3zJJLUHtOw4iiRLuV3wdHzPOLPMAxd1yEkRTmi7ThbOrpT/TUXoEWscKbgaNv2VgbfUsoR1TOSSS49d1EPKFEa24Lj0jZNS4qxoUQNw9wgvo4euzsdLXm3O/TeXW82q/V6uVptNO3R64/C11F+GHD81AufJhzpScyKKivKNC/SnPfoQyG1MRkUd5witiXOxDBOoxjt8b0g0g1LevYUlJnSLzkvqppdZfOyipKUtzBKJEmtjqDeE9t2pXETCpwXi1UYIuDDMm3uD1zbMrEXQuTS25mWCJ048u87xQCrqkEPC5mYhhdYlOtJ4bdMQJznGfrwoUujVPhxMmKpJkSPbnXaDHNi0NCjwJGmolBMMnWAsLuU42E81GV9GA/H8XgcjwfB3MXxkkyEJT6Hdxi3OR6RxkRRdkCEBzCdICjTzvheqIhMscaNKOaO44ECmWVCxErf97TTRdlhg/vxAIE8K+gBSg61SRJwh01NdwQ7Ht3zutqBQVq35XkpzkZsgXAkqni/l+sBA1zYYelbjj6geDIM0ieJEfAkQSIqgac0ndqUsnaVtCRDFf35TRtJNjhxGU9mNVOa+FOWZUlTXVGYVrb6lRlLUeY2P5GSkPd0AnJSMILv/XBkR/G/phzrsmrrpsoLNekNgUgis3iJEtIwDEpFhnRUi4o5OSlNkpTzQCA+jWmv7xqozg7j3c5ATzPeohDNKaL5JnWFu52OQrwAMxpyKM8jTXjRc+jow2QmqkXPk/rBGX+bzcafG+iqLCgxrHFnmiajKKdkVI8Z0uECSlrigevNjXncHabNstjd1rJRDCO9zdHs1nY9dnLcSVMzQzqc72Rst9uNDE3Tbty4QUfwew8w7qMcX/jMi2GcYPI7lMSgCSPnWmJuI3vtpFmR5gWqOxMkE+TifMyKMkqyqm4ZqxHJiS3kZSUNw2Ui07pl11vVOwdx7aZjHgYdHCgR65GieO3a9SIvJcV6ai1ONyimP81FOUoJigRhkN0yiwoErHHaD3tiV3WyYCaHesrwJQUjKijmEmY6lSgZxH80z4VSNamczJxtjvXOshb8ROqEaeuuzMu+6ZGUV2JuHcaIMf2m9Cxin6HTbgjodI1Z+qY2scwx6ntM4SBRFNjCMD8lMRPeAPRDEzksCUN9P8pEqR3tYkIB2ecyJjcCOlzsozCmMlXqlSBW91B8Egr7T+DY4yKB7FEh4wfAkVcOyZXp+g6t3vu2Q+d3edChvh4TmbVSLSpQg9SjrDuRn9NMZ77vq3fJzdOnYh3fyfHmEaNy5P8D+wnVdU2kAo5I9poC7XVVYR6eGu32PMdDitksPAlKbopFRHmeO46jjGgFR/WgLEt03pWkImkl2ZSY1Vqu4WVTSR57nhawjWR+LvwnyPRhyrdIXLquSzhSNpKJRCSj2OSRej2V8nyGs+FDlEIX3bSCMJYbygqlCntqbuZLr0fQ00eO98xG+BZDJIMjZBTHMSkWiAGv6g4VIvkuA9aCUfSVUFjkA8uydrudPQ/1LtdlpEXXdZUSNPklPbTkkWlZ0ZJH5pJBOidmfTBtdnskHDnN1k5H87RTONKc52wQi8VivV5nWfYAbLyfz/GFT3/GC0Ja0GICoyKFuY1oO4bmOm1e1piXFZXwMjXHPGGpLIC0RzhYKuRUSF/ILk6ySuYyZFSHZXbqXmo8kI+t7+BYqMomz8swjD/60Y/jDFQVMjJ9FSPUaVaoBMz3w1Hl6DDrjWfplPLNxG+5Z3c/mt6xtBZnYTXPPZ4VkmY81djQnBTtNrYN0CBybMpzHMfxeDxeXFwc98e+6S/2F8fxeHm8uZdcceqyyX0prciHYV/klVjl2A6cj3AFIrWTqFKeREyOiPwbsJLZKq3MekrZyykEmOFMXud5kaZZHCdZlnMC0LKQrkUF5DlPWsKUFOacX5yfp++HqmqmWI3s+Tge2FWIkpm7R6HKHCxyhrqPbkcAUWJis+kNInEWBwa78BwSEkxHT8sWx5OJiRS8CpFN0yRJQi8HfxE6GRl/p3pVzY8pHhlDn6+U+Lvf7/np8rkMCklH+37oGpj8bd21VRv5UVd3Fbg/DVjE8+AlUzXWbZo78z3MiyBEI5V/yLiU7lAoBocntELuOpLYq7bMynmO3OIeOCpE/jU4KlYyHvJ+OE6Gc5IGUbzVjb8Gx1Ba9+i6GUeJ5wXvhyMR6cmgGc64TXjieSTxqPu4JMMmqnyQAWX6HOk3VPeEoylD13WGVpjHA5ei41oOyqVFMDpb3cS0WtKGx7QwKatMN4gpWE1UVVuYnFXGZrNZrVbb7VaTsZHMc8IxTdP3HmDcTzl++jOeHwJqUprLcj3Ckf3K2h7ew7pFaxxOd8mpnKfk8AZdxaSvNsiGOAyWzE+zypkQru4lywRtFpMkOztb3Lh+9olPPPw3f/N/73aGwPGAAmq5EYjDeIjTDBnmH6QcxfE1RSFw3ZZOFiqNWWKsA3LlRIuhGQSKdYZonllbeAEVw5NKOkGgEFsa2h7zvJQYyEFiwYgIM/2FgL64uECYWEp9JsCJMavsVsBRTE4a0Xle7vdHzgDBV0BegSNFGXc7S3OCmERgLIXqjLnc/XjARQtd1NFmGGg7iURzg+SgfE1ch1T5o3wiRLdKeE5TVH7bW1kAACAASURBVFLyrGZmVRynbMWaSJM3Nk/KML8gJlFJEoQYVL5egQE0qNmcyQ5qIjZelKMLGmJShrLtO+RsqSNP+5fpTZyJjEmsvGgJ4JCZRP7Sd8nO8AqOE9vmP2znoVpSQjZOcXP0mGrrhnAMvKBlqvm8Ip2Pyiao65pVz4qGfMAFeC9pOhMcEdaWTpSYvFgqIMWqqMIwZj8nXsykHw+OGm1qNs1VrkZKRT5lbxHavEwmp2ZkdeadiLPAkQXIcZL5IdrBSEOzMIhwC8MYBYLSG9HzpumquXEV9aYjkrk7CP3IFDpUrHQOkmXr9Zo0ZKCGURRbZukiPTkXgiNVQ3yFApN8tG17s9lQUdI1CVBiWmqIR0IQPkXMGwOb2nJcsaZtHaVBmJF1p5voeLuDsCIWN5sN4ajJ9F6r1Wqz2URR9ABsvJ9yfOn2y16A0IpqrkMmMolH5hxFGrbMB432tOhfy3nuRWBKZg+8eTKFEU7Dum2jJJYMHvwTopUWrtNIt5PZV6A50BNMamMx9cRyc+3adctypkDKiMDAsB8P0GQH0GY4FEVFw1Al99HYoQuJaGMX2DRFnQaNOMR5u6Fr+r4dhm4curHHhFigSRwj70TiNvAhckxFL7DQpzgJ8rEleYhGqwrCAJaHw61bt6AcDxd13TKJmj5EwlHIeKCHkTuPjJ8RE+OgopJxDwnCqKA2iZkmyGHk4ymsLGiQvRU/3ngoEUCreTUiHBnP4VpMURqQOoMKH0lRFIZOH4evrCIhEu1FFAs7CZofaMIzUWaUQkb6CohyJg8Js6Y7xrtUE0aiRuUD0kQtijKJ0wgmXZHEmLVZTsBJDDFTmqYlW8yy4c3kfZvnjE5izIxWljVmQYABCyey9C2e5jlQFGNz8kZG27TQq03blFVVlBJHrrMki4KozMoyQ132aR6iihrneX46EQJTdhgqYSJkJhPITBNbp+LvFjc3eo2lRRpnSZgkMp0su4iidRKKGhMOMi6KIpac08hl6IP4oDQjmwzD8GSotyabVGaYsV00BCNNxCDFdKqW40hgV5SWgZlRDR09wQxjStJW8CK5fN9nzzGijfFlxlhowxqGcX5+vpO5Bunm284zFK7Xaw1TW+2WyyVptZbBF7dSdLiTsVqtFMvWa5QmYh5D6Umx3mxXGxQIssvOaq1hNurtbrFaS/X0Bu3I1puz88VqHuv1+saNG+cyzs7OHn30+iOPPHLt2jVd1997gHEf5Xj7lc8iz7GReavRhx/+PqSCc24WyX9k+WCG6czLfIYj5OSU/0g4Tv2bm64NolCcOVIX26HYgZNco2cMymlRtFCLARL4IU9CogSnHzL5MJurguPQo/QFsVqJz4rlW09RmLJUfKRekOZa+AimMcIdCSYCkYRjJ10gfe/kc+mrk3JpKkTKwMPhAumEaB6BCAwyvC8uFB+Px+OtW7fEsr7ZNB0C2XI7zg/kGyAso8LWLH25ECwqII7Dnvk9KpWHyZUkkZKQU2xaoiuDzO2D/rr7I2gmMRYsL+btKR/jOEUSu4S2+aUE0wNZD2P4cChLXHiwjOzqXCGO1EX16Qh2zc3lpK0myhlpWcsDbAnCsKgkWWpSYtSnlGOteB4lq69rGySNl5hbArKZ8WV6Tgk1rkjlKI+lt6P0SEYugcwp1Da9pNzv2xYq+NTs5dM8z3nVbJtGYkTTPGWY9EOs3TiMAUdMnoXBhBsRwtB0zNO2LIsti1SFDCeEoOzi9NZpCmQXeSmhErRVzpK8zMoc/ePQT99zfUYdJaWnEtcHpCEFOP19VOLKmUgdF7HjonRmNAxD0TMM5SJTFIRsGMV+EOmmJRWEQRDFIh79ublOgAp0BGhi9NYWP6Gymum4DGWkaWrbNnSm9PVJ5lQhT/IcGZnRNI1IJU8ZVzHnYdv2arWanwHBJDvX5YpMlmRPM/IX9ePzdLKWZXEWQ2bwUJMyMkP0G5a93mi6zBxLZAt/DQ15j5gAdoEZXDdeED4AG++nHG+/8gpmUq1hVqOCUNopIm9G2uEg4RF8lLn9ELeRiYBFOZa1zC1Toust+6Rw7q2ma73Ah1ps6hJ6lO7vOhevPp7WLc3AsqzDIKKhpE5dmYFL6vSOVI6o5CvEvD2FI6/29Rwi7WUU8u9SUbVyutR+PzGxBqSbqu1bzDTte8E0KxZOT4QyiD95MEVyh2FfVc3xCNuZCxyPx5s3b17O4+bNm4LLyyIvLy9uKj6ShgJbwFFZ2czRYXiaAetxRGEfF+CSiKJIKyDk2QgKIYRblPfR6MahgzcWczdinjI0AsJHMNmIVryKRGNK278OR/r7BC7SQXPY8yuAj3PTTGreZp5ckKngPGIKjpC34i5g4IW/Be+ZcUWzWpoN11XZwufY9nL8EWFne11e21qZeFZhkRdCVQwzHYFhHwYRG4CSlYMMRlRoTUuhUc7tNHWNBkpiUPTybft2aMomS3I2tqB7cSK65C0woFzXNasDSUzeM3CnjGKxgvOyrMRYLqd7ybHgHLB5nnMWw6LAzAoUnqdCNZepddg4g7AjrGlNT15FmTqVkRPCi1qb9i+DJ+48vHnqQdbGKL8h++gEMiKZvpUIVuY529Zy+8qyDsPQdV0fMZ2QRTLEFrFIRJ76FjebjRKkp3CkGnVdlz5HLkNTnRtRa2ka2GfOzXnwgCa2tN4wLWe5wkRdJCMF7G5raBvAcXG+JBwd13vvAcZ9lOPLr3yWHcam2mppN8s2jnTzTS2+pRxQJi0AExnarhqEqjnvC9pdi3Fd1rUfBnBJI3ILeuUlnC2c0BLxunlK4qpqWFtNCkzet3Hf78d+HGmGD3sYkmVZi9EHXqjctEooyP9pioWyLCX3YpqBBP0ixSnOLgZ1URdZSTWLCRWk0FDMSZFMFyialnY70IDM4s7z8nhEYqNK3zmF4+Xl5RHjsiyqy8tbp3Akx0E9KUQh/vKsoPUNRQYxeichnDgjMV3Xp8nfY4ZD1AKKA3RqLwQ47g/dsC/rRh5AtU3d3qaQEZ4ySM3+FAw0U5meKke6EbpWFN9s7F9cXAoc92I+A4PjCHVWFJWEPiT4KzWSKjLGi4vEdipJ9Bn51jhOD6jumwbz/2VZrkIohBcPLy19akZe81TlH3/c0+i253lUmvwgyliVu8MNxnGstszAEZ9ya+q/6B7JyV1SfW09zztJYwAe6SisZWJuegyYwMjXea8WowKlbc7H6q1TPtI8V8XXdDuqp7S+2SKIjykw8xwZlNSwnHiaeHw/HDHbquTfUBhSq/JeSVSqVOpT4lKpy0BqbKj+1uv1drtld0jFR8U1ThSjWKngqOx0wpE5QLznRigwGajZbDaqzIbvyvRbrmm77Hp7dr7QZRiGsZVozHqlrVab9Vpbr7Tz8+WNs4Xj+Q/Axvspx1c++6qEO2RSVpnngJa15JlISo20cW27Icsx+wB7XzfihSQcM/gh0R6cIbuiKr0wKGt4pYsa06kLGTFxAfzUaL0nQT3xObKbLPUfU4j3h4O4BwfUvIibsuuGqfJa0kH4HymTeaLslifJbLthWj4Y7AXiA1WJ2bhq6QkoccmqSAu0wxIo0wiVkg/EnW/evEk4jmgRBiTRW3c4YFo+dtCZlOPF5eXlzctLysaLi4ubEJizNS0Pjpzfbz/5K6E7R0mTHgdWqowymRe8nrBdh3E/jDJr7f4w7iM/GrrxMB7h3ej38q5kV4Ic7YDm6hhZllHBKWXKoA1tYaayx1EijdNhbytUTa5VsaJZi9I0DTfFI3A4jF3XDPgFJFlALF81oTYNYW5NQZCz73IGV34WF6C6JOZqGQxG85AqwBFbvM6ROwqIStBxFRKQrc949NQHKUQqOKoF1C5RyaoLKq+vZDEtesVlvuW6LkFJlpV3N45UueL0gFcn41RmWpalCKu2oIqpVb43JSSZSAlJ9iVJ4vu+aZrkl1J2Kizj+z7xRzgG84gkUycIAvUuU7i5HRXtoVAlCtlhnivSuFYbIb/YGII0pOJjfIaTKJimSbtbcZNxG0VPx3GoHIla7jDRSRcqt7DbTY15uKJSjjsDgewdJqpGPpCmaSsZm7W2WKyk3G61WKwevX5mOe57DzDuoxxfefXVKEkRcuF0WrPbUTiInB42LiuqGvUxjNvIMpwlRlK1JRrTNMJBTrDlS+AOr0BCIiUIRYfSwILBzYb+F5Re1JiwhV5CoSTjKNCR4qOEYihyIJUTB9J6Yir4SdNpzFlcV20c5XXVA45YBQY2EnELTP3FW5HmdVHHQTy0w9iNeylQYdiE8q3lNAnM/qnb/f7Ac5uWtfgZLy+ONy+Ol0e5XVzA5ziOiL0cj5eiOlHAQ3Aoe3y/P6K74nCkBU8rkk4x+FlPbmmUImokuzdK2qBEYXpOXQ1WiimaZRkpeapYWfciKhtdLOMoFa06FfypXTp9wMoQImbmZt+2NZr5YmYKNP7hZLDT3goriZu+7y8uLghWtKHNc4VLMpTHgfe8knEZ8ovw4mPG0xqZKpYiS/24/FzFvvZk2m5+nKoOUp8+DJhqRm2/l3FPUyJeZRvJ0VGCkbymOU9DhLtE7pHvvKdjpygK1YeNy/B1so+I9H1fJQnRhCdM6dakr9O2bbrRGZWig0jZ2mEY2rZNQRfKIPL4mDYyJ7QiKNW7xGsonSU9z2MKdygNK2Ppi6lM+CRJgiDY7XbqU9QD8pE4U5pO8Y5Q4wQyBBbTGIlOwlFBkKmOqsclgasASit7KwNZfmrIBFucYwsdc9ebnQwVFDq7sXj00Rs3bpyfny3OzhaPXLu+M8wHYOP9lOOrr72GtESZ2YqhGEZjMNcoEx6lEzhnUuW8gJNZXWOmQGY4IrWrxnyB7NnjeD6mM5T0IEa9WZXY9kNRIQUPmMOMmJgpkD1ZFRwbzO2Hm8hGiEfCEZStO0FkzSu2Ehfy/y0GfNMnSdHUA3MnsyzHZ8xwRFwzL/I0q4o68qOmbIZuuDgAZxfHSxq8SFBHQjzSXzjRVS9Tb1M57vf7C1jfuBGFoOH+WKNbtcRVJsk5tSDkuXqQgbKWshl6lMQcpMetMiGZaIL5DRq01Qz9sG96aEZxmCI9SvxlmB+yaY9oMI7dqOv6KI0t1J5AtLLeRoJXUrAoddOCBuUZmAkIm5dKqigKpa0EaoADsgymG2ZJUxO9ElKjCE9iUa2LhjqzKc0XuZPqlxqGIY5jJvCr7RCj3Bn+soxOUGQpKXeSMtkHQUCKkXq850fza6pWbNwN8pcLcGFeYjERrgzCkfYHjwnRzDlpSb1TSctoNY1oNUGrQifFoHIvKjjyGxHHapuncCQZlZY8haNpmokMoor4i2R4MnzfNwyD4AslP5HvUjYGMtbrtSe1gFxMkZF2ehiGhmGoOAwtbq5IfnmeZ8hQ1KIFreu6JZXRuq7TY8iUIMdxuKIvg3KSW1BqkSEXOBZlUIFutR3b/nIaQtt2eTNl1tbNRlvL2M0JPWdnZ9evX3/44YdvyPjYxx/Sdh9GtPqzr34uyXLETWTGwabtVZ0Mq2VYKoNaQJl1EBO3SpJd3XRSWw0vvOS9tni9xmwKtusBghX7TsFgx9yBEgevZl0GVVd3aZLfC0eUjfDGKaoIR/TEZ59aGtRsjEpJMsERLaP7JM7bZqgrmRWL//czHNE8Q5I5mqpNohSTk7TDYUBB8cXFzYvjTc4bw1xrElwy6YAGnnKXl5dCFsQrwFMpte77kU3GGDwVz+lIw41w5D2UY1F1LaiiCELV1kny3dD10qm8zeIMk6g0EG2YUZBhMgkp9G3LSXmGYSiKglawMquldzr62jIBAEnsU1YQ4EBGcxUlqSjK8jwnRHjP/twM7golUZ/HOf94wPmNDgd8kdM2aEEQ8CmzuGmoqoxurkuuKdKRRLzv+76qKnrcyB0KLvKLed3EHGdDJOZUrRSFIak3jiMrbbir/F7cN0KZPxCXIfW4oqIk4ch+twpkXEsRnLvKthFKBqpJzSgbi6JQU4/R0ckvxfu2bYlCzqZA8chAdigh6TzPqeCY7pMkKGVRwtCXOImKtHByatLT931aysoFGYbhdrsNZOIKYlcFx7lZxl4oNvmhtKyZXUTlyO4+lHUkmin9JlQUZbvdqiIZT8Lc1IPkKR9rmkbO2rZNeqpNWZal6/p6hU40knWEORXuwBF5SNZmoy0Wi60MwzBWq9Wjjz56TcZisTg7O/vI//rYcr157wHGfczqVz/3GrO7WVItxYF1XtZZXqJqUG5JViQZJj/zg8jzQ9cP/SDyg8i0XcxeFkZxmiWYHQ1zPnMG1zRHUTZTf6SeqsllRlPcZ8glZmkzauzkhrJoPkC2EAI4UnpXpEWeJpjaNE3wIE3uzK6nPNziD0Kb27bp06RI0zJN8wytJZC/VmS53DI2kgKzyyZPcsnvQVuEuSoOfsbTuhomS4rzcQqqzqai+AllRQZz4RKVZjy4R5QZPD3liNi/aKXTNMPhgD5mFCk0rwhHysah6/IkZ+IR1BsoiSZgQ9f3TYtSZcxcg/BwWZZHaVB0CkfpTYt5vWvM2ycpUDOLaeATkYQa4ULOfiAcYVZD0KIZsOu6jKvMrEd8/x440p9IbwbJyAwY0k0+bvA8VAdyU+QmmcgoswpT8MgoscYHk83btVmeV3U9iONl2MP+lwgephjDnOdNMwyD7/tcHgEs9NlEEAzeZMyNgzT4vu+pHPM8n0NG2FN+NL8FJ+NWdKY2pKGtDGfLsvhKlmVRFFEJ8l0+TtOU+88t8yOoItXEMswZIhDpDSTaGKFm39kgQP42jWjGjoktOuDY78uXDg60o6kfqdp4r2laONvUBB9xzMi4CkwrgzqUQZ4GQUC0LZdLTVIaGRUBy+YkR+4JIza0nS0qwHkmCQpMTlLIWhpH3uLrRKRsUJN4tX2PcuT0hJu19uijjzIas9vtzs7OHnrooevXr2/mCpmPfuzji9X6Adh4P7P6tdc/n6Q5HY7MdqSTES5FSdahTiyrJgADUWS93mw/+vGH/p//72//9iMf/fhDD3/045/g1JFYvUVtdRDFLLXmK/Q2UofiXiZ+YkkGe2GJioSYgOpBGW6PImOZSw8qsumEdFNtFiezZ/4Hr+TUHeBa3SVxXlUdE5KnIpC5NLpAoiZyNeuyjoIYkRnO4jQr1dMwOgPt3DH1765yktG9IkUnIXZwY5Ue6kwk7ZJ+KN/34zhWvlEGneqqa1tMFKM8VnmeAxUQFfCq9l2XxKm4JDBDAGDH+l/UpCMFCpmbSD86NE17eXnz5uWtAxqsIYjEfBpO513kVY9kUhw9BcHZR4kZGhhCISOqqiLmCD4yaxzHuaki0m58L+BXmLOeYN0rOHLLqvKP9OHXFKDgx+WMZpaFamVVXFhVFfMc27ata6Svkhd8etclRGZVhDzs+7yE70MqpFFoCd/0gJm70T6cCa4DpjPjt8MMEHOqE9M5KR67rqMwzHO4X9RQwROKQb5+95UYraVURIV9IWlo05Gn3uWvn2XZPXDkr88PoilNi5g5lRSkCoIsoVG1KwSW76PFLKUZrVdqKDr1iEK+6899IjzP0zTtHmFIEFONEqyu65KqgQSpaZXTGGcV42Kx0DQYtnT5MfFbpXnTKcneulyM0lKBj2vp0tyM91SLXJHE1GBWO1uplcGshKbt2B7mtzEsXTe32o7z4ZCGZ2dnN27cuH79OgsHz87O/udH/teN8+WHAMfXP/9GkuWMTdPybXvUw7BuGtZx3fAGYZjmy7X20Y99QtsZtuvFaeaHsWk712+cf+wTD2s7PS+ruunCOEH33Mll2dO+VnBU6qxtuihMGLyWFLm+Q7i8G/YjrGjJJZGmAchzRHZLB2XXyiwoFHE87WXWFHCkrtskzroWGlDSJ7Gw0gK8/vN/PY5ivFWzQwxOHqbRSFIRpNksErEFnmNcHXpwLgpkNjsLn6fkm0mHIoJBZxmrEqnaiHJRORAv3Dd+Hb7FVaCs87KTeuqmQWNwUrvIoYpQ5ixZ9NPEjTK97STD04I112xNVOQoppQCbXxpgkZ9KK8cNB7LslTfkYqvKMQlLN9K5jJtkFeAqkpkElFmUjnSTucr9/gTZzhO7mBesRzHw/VAjiolNsPB3DHapFmWUYspprRtq+Ys6/peWjU1nD8dXmmQsZWmH00rCQBUhQzUcGJF6WsJXS9ZCpO/NY7juq7zHEYGpRz3mfc0n6krT+FIlyiN3yRJCEeazEGAymXyjseQjoJTzir4qgdxHNu2TRqyNIjajRYxo9WuTB4dRZEngyEaRq45jRfNTAKRqs3zPE6mypgJZw2kcqREjf5/1t682XH8uhL8VP4AM27/M7Zsh5aYkmyptFVVVmVlVm5vX7iT2EGCIABiJxaCAJeXKflTjFfJm2y53VbLe9satdx22GGHPX3vAX/1qiS7JiL9ixdMJh9IgnjEwbn3nnsuL1zywQqBj3hcoDP+i+DdsiwaVMAabHBGVVUHgwF6nJEExC06Yaas7lZVVYCjruvj8RiNN6irwMsHgTkykrKsAgRVGudlqqpO5Wt9qmvU5KPr1KgjH9d4PO73+51OZzSizpnxeHx5dT2W5H/913/9RHz8hLD6//nVX6PxWNylW1Yb9EQnq4y7pIm8ASXTrHA9X9WN84urqTWn2gudqjmu4GmazabzwWCk62YUE3Ns+7LRZsMSY1HngaoZNIRdvNawtEN6GHjHSpeSRYKko2ZMJOsHLgJT+gzD/zgDVQlnQ7IkcP11Sc1/DHb0+yOvpFALNZCiKLjLUOBsjVIGIJLTaG3MCMgQrAoZuhWVsClNSTk+tiMDWrGxGIGsiNoAsmBVmLyKkxyAKOgbf4oWjhkUCE2q9YZ9HOgW9Xs6vdniGziephkpJZkwgjlCz0iemOxwTl0orMvHbotbvDv+i3ASHdCo3v64do9O9iB2uGMP3cH3SZZI/mZZ5jgOXgpYcC93FgY+/YRBZNFcwAAH9vi3/vBCAkARSTqAFDC0rkk2QBDPsfMyDPKyWOU5KWE3FU/YpVR1saZr23pNXyr86fkBtmtDFybpCMgBSAjF8XGA0XhHYDQ+BSJrHBb/uEByASswpwBJ5Enf1PqCzDgAVxwNgYYiHQkoxNRDkeYTUS0IHeJZsDZA25xV2ZhjBZYHuzAyguXRVJDCIPA0OScI0NE0zbZt4CyIIcDUtm1B4kTGEKWSGU+DES9imuZ4PJ5MaC6gJEmDwWA4HN7e3t7c3FxfX49GpEDsdrtjHnY4HA4VRRkOh4PBAEwT8Xi32wWUTyYThOQAOATsskxdLqRb5HYXSVI0TceG1Psi04itbrcLwjgYDG5ubq6urs7Pz7tcse71eueXV9e3nX/5l395XXD81V/7dYJCtqSlIVbUXNtAEM7d1mv0CMbpaiKr3f5AUYkeup4/kRVJodGOFBonq4JdWkejyYL9kuAi3vYgMjjS2Ps1dXTQOcyjr8hi2g/zPA/D8OzsbDKZWJYF9lFVleN4GxIgHiqeU3gkgx+2vlXHhcYJGn212TLBaZkjOJqIoZbL5c3NDWoRIqPPqu/dlvtbAKlAXq5K09lYHd138AgDJdPMssKAWR6NQC0fbRWbBORtvFnX9W63wzuiCJOmqcBKUR+oeaGIzAhONSjAbrXmxr41OXWL3Cg06gn3m6ObBf1F7QbHWYzkbMZtm3hrQMb6o5UZ/ArWsLiPvaU340/Bx5iydRjEiGoP2CJ2+/7Oo6INyMNhhz0P9dGnZNJOF9HZPAgClCOASoAMPILqBFTTQRDgbImOC1HnikRjKVmJJvEy8DEl2F16UZJESRLGbYwcBAGoH2f66K3jmBKJNBCYF9wY0zQVYOQfl8PaQAAHKiEi8IRWBik/j4WEs9kMyhsEsMAv5OlQ94iiCEwN9V+f2/Lw3OVyGYbhYrHQNA0py/u/xTYIbMHpELajDmNZFqGk49gLG5k7WZbRN0J0iwsZM7b2wn2MMVgsFiJ3iQli0EtiPCxIKLbBZ6QPNbfdxcJzSBBkTWejwQAhsMj6aeQ5q6iqTDhsaJI0VlRZ11XD1KdTwzR1/ApdgrquyjK1uGCvsOcgj0B2wzBkWUU74FHvOMV7GTyAUNf10WgkyzL4I9iizAlHgOxNp/u/R7b+8z//8+uC46//xm9gsCrC3vWmpqY0jh3JcIxwbMOF6bzT7Xd7A/JzTFJJpunbnh9Y88VsNieDWCY4juNphmk7LpRA6LTh1/lwdBdgDqfZckk5Jt/3T09PF4vFarXSdd113c1mY5qzbFXsti83VU1TAaAIr+qGCxoIVPkEplgJGLHZ8EDnjKAKrS/r9Rp6lyzLZrPZ1dUV4EnAAUNhq1is6+1ue9hud1teQnDT8KKOFu6t/lA6A50j90qnSSYeB17gfZGZQgQKwgI6eQR2+lfgCx4Ep+YAnwY2QLQowPcIwTtyDCIO3bbZoE+GyO9xgAybdFCmr2J5DfDufllGRMS+7yMFeX/fBLlji7OKkpjHGhReUHwEvM6a03yoNQlkbCvIRGb5j5KV7BkRI5IFexXsHs/Ksmy55KQH37m8vMSfDBtTPF6Wq5xqMlW9AVUkKQQVj6hWBd5YlqXIFfDgbxqhw0ICmhgBar9er7kTHymNHBUYRMfAaLBIz/NE6hPBNSrpUCwem7Ko9IdBWsD6mJEYr5DnueM4SKeK54Ij4zqRpilaDBGP4xrw46Vk27YBnTSC0F+6S/g2+g7XWBaLhaIoYIUgeouPLsdxDMMAsCL8R6x2H3DRQejwwrMJ5Y/W34v5fGZOx0OqFAN/zbaNTzEMDQaMhqFJ8kQ3NMPQDFMDOJqmTn5jljmbmdZ8qqqqxWs6pbGFrOGhGQmo53CmkiimrpsfA0eVS+EYw60oCnjr5N5CtXowHPUGw3/6p3/6t09anxBW//pv/CY1olWEiRg9SHfKirGSKqWYRJik2fVNp9Prs7V2RgCZkZGtqlHLd8a12TwrwyAaTWRrviCG3WGHEQAAIABJREFUyAYWeAWYax09xzbrkhQnZBvjLlerLAiC09NTBFPT6XS5XBZFaRpTTj+ykBDz6bnZWaAJ0EpQOQSbFiF1fSxQEEsT0GBZFnLJVVUlSSKKCUe42e62+93uQ3Dc7XYo+/zH4MhSxy13Ybcgi+2hjjYMI8sywB/OWMHggET30QqkEu6/iJGLYp0mq/asxvRUvt1u91EYN+1ILOrw+/gPKS7JrItTk9QhwxyZJJb3eR/e3fM8HFUcLogo0zSt67ooioXtBH6EaQrHtkgapyBIaNO0HpdxHIOtC9zEfzdrGrbFXmGZZU5fPH128uy57y3XNIdrk8RxGIb3D4vrugIonz17tlgsAKAANeA47GwFgiNHjOsZnpumKV7zfssT2odE4hXTWQG7oLEAL1RUsBnyksiBCuBDXAwkhVt4zJ8C6InN8FvUDwGOeBZwE3Wn8XiM64QocwNkwzBEs4pwokXKz+flkCV/4PnLheu4/pIc+tkqQtf1OS/LskzTRKEG+h6wWl3XUdh5+vTpeDz2WRiE0J5AkJemacg2Amdd13UWjkd18cVibtvWXJGInyKPCWibzUzMUqU7M0OSJ5qmWNZ0NjPnc4rObduybWuxmFtz8idDkwyYL8J8YCVoL8faymQiU5KRBT00D4FbYpAuwKgZhZckSaPRaMxWQKPRaDgcTiaT8UTq9Ab/+I//+EnY+EnV6t/8rW8lqwwBNcCxFTzyMEIgI/l4r/LheNLtDxgcVyhke37Q6fVlWcU4gSyjSutEVuYLt1jTCMO8pFv2RyC0JfPBI69BBcN1lzSPKEnefvttWZZvbm5GoxE4jiQpHCc29ty5uLjqdvuD/pCHZFGxFnwT5VGEkyiPzOcLmkzPCELDr2iRrY5pmv1+H4mPoijiOKZMHvPK7XbX1M12u7u7e4mnwKhxt9ut1+s0TUEYjx48W+62rvAl3u+pVQY2DdRmwwMPgHHbLTVlm6aZ5zkjUp1ldBkgeXtZol+wzAu6w0tos4VQEVXpy8srgTVIXCJZeU/Kgzds6ySAOeAC0mriMoAPgvxAw069wBHHcSDoofmITJBhl4AnHg53db0Ng7jIaVYXDhEAEVoivON2u83utSFig5auMjiuyYJ7NRmNu7edqlyPBsMspUFUg35/tVrhcGG3RaE5y7JOp9Pv98URwF8NSibsPC5gYOUovuFyiKwiXwlaPyfBfMEVUa3Gi+DpKKMB1BDmw84W9wFzwFBxe585iiI1B/KkKMISzBFEUrxymqY3NzeoCIEVIs5AKvP29lYwuzAModD2GAfZu5aYYxCFy4CUj1iapoESovaCSPzRo0eKoiyXyzmPOgCovXjxYjKZIL4OggBPd10XVWYRyDu8XMdxFwvHJmScz6zJaIx0JBgf39fPzk4kaUzGjPOZokhEJE2dSOHMoCEI85ltW667cFyCWNM0wBmxh9ilGS+0D47H0nA4Bj3lCrWBgHrGCVD04QgWqRybCMecDFUUZcRI9Q//8A+vC47f+ta3GRwrnq1KVt5tZpBmahK0URs1dxaaM2s4noQxWR3zfJgYDriGQQ4ZazaiZ+w3HIdGqrNJBAtzOKJBt/KHt0VVrevZbA71z7sP37cdN82K/eElMmij0aQo1lGU6LpelmUQBOfn52ma7na7oiggLpvNZkxwtpZlP336/Pnzk6urG7K25tQ7Is2maZDNVFX1/PxckqQkSYbDIYjqbkdBNBAB96H0dhwHEIkOOXxrkUAsy1LX9SAIZFl2HKeuqenFsuzVKqfIut7meW4YRqfTubm56fV6WZY1DYVyMq84ijM26x/1B5PRaM3O1eiVPhY3yNFrU9V5Vti2c3Z2XpYlJvORIqYsm6YBj9huqc27hcaP/gM0AeQBdsEcRcYAH/nu7i6OY9u2kVpF+L/ZbFarlSzLQD0YDlF7D9tBcjaSmCNeCu06QMk4jsVe4Oi1hJTBcbOu8lV2+uLE1I1VktAohXVlW/PO7S1INICvqipIoEpeYRheX19nGU2IFEDWNA3YrrgSOI7z4sULWZZ7vZ5IYqzXaxyiNivNKQhU6kA575fXUb2hsJ2vnQh7YekoomOxDeAVMIpoGgpNRVFQi09ZYytEApZlgSHipQCaaZo+f/4cdBJtNhgViy2fP3/u8kLYGwSBruselu87nqvqmucvqXF66bncEmMYBvAOtWxErycnJzc3N2guBMSYpvn06dPr62tkQsOQtMO+7yOQ1zQtCAJiirbN2OjQHELbnpMUm+jghMs+0NwgbzidGpeX5+cXpwYDoqrKuqFRBM1WZEDGhTOfAx8d2yC3SdJ2g3hCCylCbFVVJ2P5PjhyppFaaDTmkABHTaMxsBovaIaoUsOPTCT5ptP7X//r718bHL/97TilnA1oI8nG1hRWU1xMtt5U/wNzdJfBcDxZBmGSZmGcqrrZ6fWvbqhQNR6Pi6IIw3A8HkNNQoVDxscP0fDHILIo1s7CAzl9fnKa01DqbXUMHoeDcZ6X06klgpGrqyu0c61WK9M0q6qCqCKO0sWCxtEtveD58xPTnBHn4oI1F3MICsEmhsNhv9+fz+fX19fIXAhABNPZ7XZ1TRTPtm3ExavVCsng4XBI14D1ejqdghABJZtmK0vqwna5fk1tM9PpFI10q9Wq1+uhOtztdnVd7/V6ge9bFFvM5MkkWPqarBRF4TjOaDRCJAgzfV03e93BzU3n0aPHCH77/T4o3nq99n1/OBwCMu5zNOCCCD/zPA+CoK5rBC/Ax6qqcM3HEyVJGo/HEMqAJvu+f319LUkSJNyrFcHiKqV2+DCIqjUN4AYd3mw2h8Nhz54dOG4i1sYlB3E60+SqzEl+/dbXvu4uHATUZZ77nnd7c4t3xwCmsixvuA8Mny7LshcvXqCABnAsy1LTtIcPHwr4hmQH219dXSFnAk0Sgz7V9FHjgiC8ZB0VRAvIioq8J8BxtVqFvAQ4QvKJQLtNUrJaS7T0IJLo9XqIqQUUgmMahgFYxC2C9yzLTk5OULRRFOX29hZ9MqCrFxcXcNUOgkBRlE6nAwJI8Bf4mqE/efaUTRqJTLpULCFzCveYf5xMJpeXl6enp7IsP378eD6fP3ny5OrqSlVV27Y7nc7l5aWoF4Gi+jyaRmdXXdDMFiIXC01Rb69vFEm2prMxm+JAnSMI3WAweOfBO4ois35R7fZudZ3mp3KScTazTHNqSNLYIzB3dF7TY8chRONghUDA0XDS7w81zYDUEfTL4NmHAGWmGdRhLdKUCtuAK+1SO7fdH/3o714XHL/97d9mMRwp2MpqQwWZIzgSbB3dKGIWgc9tZ2rN0feSFaXjLWWV0hyQO2BHsyyH1w7sGGC69RMhksJwP0xS6sg+OTtPVlmzO9RtW15DqcyssGY2kj6+79/e3iZJUtc1eA28/7hzg0Y4aapRFGtI6imSJ3JDc/6KvLi+vhZferYLJh1AURSKolRVtT+uuiaF0Ha7BZkCKQvDsNvtImaENAGOD2wTm8xms7Jcj0aTKEq22z1+oOfYbrfIcuKCfHp6qnMLapHnpm70Ot0iy8q8MHU6bTASqCxLHl+pj8eS5/ooK73zzoM4jqGDg1wG0e5yuVQUBTANGihuW0jabGxeDx480HV9MBggtQe2gvwUIv3BYIArzXQ6rapqu92WZdntdheLRRzHc1ImJquUNKTOwnPdpWEYTdPEcQx92XA4zPN8uyXKjEzFx/dkTfYezaZe58Xj9x91bm5PX5wMer2ZOfW95eX5BXNEIobD4XA0Gj18+DCOY9DkPM/BocB/wR83mw1IH/AdWUh02pyenkJbmqbpYDDAITWMaUG7RoKept4WPCUiz3OkZcBYBSvEHUS7SUKBi0g4IrOJHcOL4FeguqvV6urqarlcJkmiadr19TXi6ziOp9Mp7gMckaD0fX80GpmmOZlMzs/PFUW5uLiA5Lvf719cXAyHw/F43O12P/jgA8uy3nvvvcvLy9FopOqa7SzeefdBfzigsozropiOivOc18XFBUoct7e3X/nKV1RVffr06enpqaIojuMoioJkLsrlHJ63aitV125vb8/Ozk5OTsbjMdlVSNIHjx5PRuMvvPH5YX/w5PHjBw8evPvuuw8fPjQMo9fraZo2mUy+9rWvvffeew8fPnzvvXdPT1+cnr5QFMk0ddPUx5PR5z73mZOT55Y1XTjz6YxqMkKDiSL1jBdE7KPhuNulfJ2mGZx2pLBaLF3XAY7giTrwmL3LBDj2e4P/+T9/9Nrg+Nu/Q8JZtk1lgypS20CTiCwhVWbY9NvzyZdHVrSF65EPDw+WickjmsQTi8ViNBrRdzorMISAc3r0dUThlc0TjiIVFqZkWeF5fpYXYZw8ff7CD6OyqmtGNMy2L/K1RyOBbOjFZFnGt9l1XZGatG0bFHVhu57r04g1x6uqer87ABxXq6zf76MCrnJv6Xg8Pjs7A40nBD0uAY5Jkpim2fBCUQwdHaCQpmmimqkoCnO08uzsIk2z++AI6FFVFTHRcrmUZRkkolqv3cXi6uKyKspd0ywsmjyHr3VVVcPhcDabKzyBzbadNM1OTs7yPFdV1XXdCVvMC1JzfX0t9l9kEhHYIol2fn7+uc99TtO0LMs++OADz/OiKDo/P1+v10DqzWazWCzOzs5wyZlMJvjUm81GURSwzqIoFUVj448cyaDhcAj2allWURTWzJImMhWFi3VFpkH1ZkO951QjIjyiWtCGK+arNH369GlTkQ9bReOuaKLL9eVVEiV1Va/zdb4qTp6fvPfuw3rTYHJDUawvLi6EBVHJvT1xHC+XS2Ai8BFpB9d1OUFJ4Fzk635vOBpNPvjgSZIk9ytFm4peHNbleUZ1bSQokbJEjJ9l2fPnz/v9/snJie/75+fnJycnIhx2XTeKIlVVy7KM2NNbluV+v//uu+/ej8dvbm6AnrPZ7D44iq5B0zRvbm4kSXrOC+ka5B9N0xyNRsvl8vr6+utf/3q32728vITiejAaLlx3vlg8ff7s8vrK4ejbtm1UVBBiS5J0eXkJac7Z2dn5+fkXv/jFi4uLyWQyn887nc5kMtE0Dd9kgKNHMx2W5mz29ttvw1vs/Px8Op1enJ9b09nUMN578KDf7b399bfOz8+Hw+Hbb7/9xhtvvPXWW8+ePZMk6fOf//yzZ89YGT754hd/aTwePnv2ZDIZXV5dfPDk8dff+upoNECIDcNw4COCGETWEIprmiZJSq83kCWSgrP8WwCjYZo0OkZVVah57uOjxvMbOMSmqPyHP/zha4Pjt387XeUQe/NkEuqHWfGEVeQWE6rG0IML1+MBrf5gNJ7NFzxwKQ2JdpL+ZjAYLBYLCli4LIMmNm7noLYKjDEBPqKFGRsQOBZlEMZXN7fu0sfMQu5+pWxSU28ZQD2Dq2NoVsdVOgiCihd9F9Os3jTZqkDr5SpFl007v6Us17PZbDwe46tWVRVmFk+nU0Sp2+Oqj2uz2aDKXFWVwVEGNBCTySRi32YIypIk2e/3Td3oupmt8m1DeknK0G3q6XTm+0G1Jt9GTdOzVY6R5EEQZlydPz87oypE06zSNAjCPCu63d54PJnNrAHbLoVhbFn2ZCL3eoMwjP1leHvbVVV9NpvLsvr82ckHHzy1bYeEQJuG/NNIaERu5NvtHoX7sqykifyzP/sp3/fPzs663S5o5nA4vLy8vLq6AgNCw8Nut8vz/Pr6GleIPM/BOglm2M2X/NvXG8uyP3j8RJKkuq5938drKpKiK/qu3rFNMYkiaQzQfeMipuSInc/Pz1dJst/u2GiDesZHg9HCWhRkA1QWWTkZTrrdvqZRHJDnpesuT09PcXECI16tVl/+8pcty8JlACV18NZHjx4tl0sWR22R8n777QfPnj1HahJfGL5l3ShP1+GJRqQtR80aWb+TkxP0NYJ0X11dhWyx9+zZM2jFz8/PR6MRiqdErrl9JYqiZ8+eQRM+HA7/93TQTqeDWvb9Ea/QDOGLZNv26emp67onJyeGYaDx1GGVpWVZ3W43CILpdPrGG29IkvTo0SPHcZ4+fToYDc3ZlIFs+tY778ztuZBhWpaFTKXjOBcXF6enpwjPDcMYjUYvXrx4/vz59fU10ixImpPM06e5ou5y6Sw9WVWur6+R1O52u8Ph8P3335cnE01Rv/blryiSdHVx0e12TdN88803nz17NhwOnz59qqrq8+fPnzx5MplM3nzzS++998AwtJ/7uf/r3Xffubg4u+3cPP7g0Xg8lOQJ169njx8/Pjk5wRUa0nSRc4TOcTgYy5IiSaTpUbk0gyAaqUboz7UfWwiuNVUfDsc/+MEPXhccv/Xtb3NbWh7RwIMkiOK8WMdppmg625SRgBc/NLQ6CFdZQU2EE3kwHI8lme4MBrIsg0+xlIEzgHHq+6Hn+ZgIGJJid0WjNnh0L81VoEF0NCkpihNvGcxmc8fxgiAizwgeqIS5HNxLF5PfBI/EgwskbrmXmUxtE5L1UstdmmSBH7U7nKzCOKUnUSMsiUVwSUetMAjoF1D/JnDg4e4LnCR5noMIS/zHgVoYnxHnJ8ThCMcgA8T0Z3Y32GCkKuW5qHxCjYykzuHuRlhzl2WJpCTCSQAchuqwezm1/bXNMFUdBNHCdsqC/BlpLBc3Vm82jWnOGgYgAY7QJO12ByQx6s328vL6S19803EcYUOLnCBUStstBZgwlUE6sigKMMeqqpD+5yQm/RL0v95sT0/PLctq2PPCdd2bmxtTn5b5mtzSuFultRzn1p1j0xGBJeLiMAwNTS/zfFvX8PFdWLYqq1VZJWFSlRtrOvc8fzKWMAqx0+l1uz0QRuzeZkNJz+vr68ePHydJAlFBVVWz2azXoy15Jtq2yEtJUp4/P7m96ViWJZgjQyrt6qaqMXK2KIg8Pn/+fDqdIqZ+5513uA3Bubq6WiwWNzc3dV2naXp2dgbf7/fffx+qnXfffTdJEsdxhsNhFEUIMOfzuSzLt9w3gtABiCnqM/hSRlFk2/b19bXv+4hmQKagrQEL9jwqtpycnJimeXFx8d5779EcAnvueO5wPHrzK195fnLi8swDMEeA44L7+lGhRvYQdo2GYXS7XcpacprSdV3kfDx/iQ4md+mdXVyA6MDt4urq6vrq6t13Hjx59Pj89ExXNUWSx+MxszcV8g9kA2VZfvDgwWc/+9mHDx8OBj1ZnoxGA0kaQwHe63dPTp8PRwMShxsGOghN05zP5xgaIyo8xA0VfTSaKLKqcGRNCUte95OMYh+wJ7gFOKqqNuiP/uZv/vZ1wfG3f+d3CE7YtBE9f1AmshCHajIIWsk5dRmgVpBS6cM3zZmqaKpClrzQiyFszPNyuQxWK+qIgDIcw5dJ28h+ZeCMGAxCUp6ERv3SDHvuJsaJDaEPq7trasjjfjiI7KBhRP4I3tfkvHAspJJBzqbBT1U3a7LW/rAXWKSosoxcxBGTQuACdBBkBNklTArFr0Ard7vd3d0dYlgUc/b7w7bZZ6ucGmaqtnNRjC6gOhdr1LGHcZSSYJ4XXLj5bCSp9npN2k8avb3KHcejjkk+XLhgkKXFKseUK4wkDcMYM1sI23laGZoFRWNMlhU3N5033/wKrgfI4mVZJorXQj2TpqnARJStIWNEBpam6FTtEcbnQmEEqU86LDyVAZcBxMIYMsGzuckRRyQKwe8o1cLO57D4LbIiXIaX51dZmtPU77w1fodxxrOnzxHdo6SG2hQqKrhEIUlaFMXFxcXt7e1yuVwwoS6K9ePHTxa2E8fpycnJmhcgkkx6uDxIlyKSkVJf6aNHjyDWyfP88ePHiqLEcfzlL395wcYN/X4/CIKrqyvLsoIgePCAEsEouKFq0ev1Li4uXrx4ccMLfV/kS78ipRry5oimkeZDMO4dVxAEhmHgmu15Hix5FotFwDobdAeCW5FYJww9318GVLP2fJpmiFAaJWn08Di88PLgkggFoCOGake8i2XT3FaawhX4U8syj9psXaeyMpXshsPOze2g1x8Nhooko01Q4sWyREmWZQBTv99XFKU/6I1GQ0WRbm6vFUXSdU2WJVWjTfqDHsSJKDGjp2XEWkUhyiHD2ttut9uHeW2vN+h2+91ur98j3feYTL9HnU631xv0e4N+f3Db7fDm/W6/PxyP+sPhTaf713/9P14XHH/3936PDL6L45gEHq3F1eq2YE3fZO72Y+/FAtP7CPvIhIZ8aJIk+WhDGJkUkFksq5dzttTGCAR+qdYZjKCQQZanEZCzLLAPW6IWAfEz8kdJvKIEFvfJHPtGaGY0e8dSlwh4E406WVM3Dn7K9QalmWPoTLbVCMQECoi6KkAQMCFgFLaJQEbQJbEBSts7miSzI3Dkhhlx2w4J+9AenPCFxgFSAyQt5LZAZMCwWnnmZpskK7S+4JjgggGFE8ETQXDb8gGahsQu3rHebDfc8V0xYz15cSoqG7iDqm7JC+Q3SRIgJspWCDBBczgNR73eMFcnM4uQJvNhoepKVJ177WFSt8pyhAvM/YkFQ+aCjYmn0zwq8taELLzIijhM2JytLFbFih2PkIFJk9VsRlZpAtNRiEc1DDuPD1KW5Wq18tiXgbh8sXbdpaJofCXO3n//fShbcQTKgqYS8Y5R+ALZTa/XAytcrVbAPtSOfd9H6enRo0fQ9wlFN6jf+++//+TJE5erIpZl+byAgJBwo30Q+pi2/uvQWrAbI0oQ6CAkZGfPWhAl1HOn0ymgR+WaA7JsqqpSboemBpAgBu13uq4jpQiJDFJ4DKlzhjvbsmxF0SxrbrFRGGJnAk3Hmc3njufZJPj2zNl0vljMFwvLtoGV6IRBxZXDXlm8KRifYRgIsxQejwXXHHjfYjcgPsf7IucIKTgsxIHCaHak1KGsjkYTSjiqOjEwVcePrrU9M5pmTCYyRdyKTjRTmqi6PpFlSSHLCkXTxhP5PwEcf+/3vwObCUgaWdBDsIjiDCZ/Eikoq6XnYyAyfeFSOlvQr4pr41H2QfMJll4AYogONtBAqs9wjCkq13leYtIezgQEkpzCp5CHp0S18/DWZUVeDAwKH8ERjiuRa4MJduCHTEqaTb2lwvd215AWkMSM4Im4BTwB5ujXvPa8jv+jf7fbLZSVH3sQUIsHqd2w2a/uFWRQmaGkG3uMk8SHS/CbqvY8n/efIPFD5nWcPwN8x0CFY/cLCZgFLIo74KHookGrNR7BLUTpuA38dtQMsBjhrbjFZ0RGD8eELjK8wNGYb1Xb7Z6czHkkGV+Z6AIjEnnox980u7LakGEJwzcubEiA4koDNkrvwjMhQOn5s5Gis66aip3Pgen4khTcBgpAFLfgoRi3ABEPfsW7Slce8QWj4YtM2wGgAmGRzUyTVRKnIWkv4iLLrensvQfvNtXmvQfvIhZO0xQRbnpc4qsOPBUpmtlsJqD/uC39Kx4UbDEIAmR42utKTJ2UeBBSR+Cp77eqQ7QSehw4o0gCAgiJIp6Ipuw5L+jA8SLL40KCyycv1NCybBogzsvlRajtuQ7JEDyOr0PbWXi+D53QwnXmC/KqAOBOeUmSZLD4UOMF6ESlWJZJYTMej1ErB+rhWRDroG/n/pQu1DmBvMD38Vgaj6XRaCJJCtWsVapZ04/GDj2MlZOxxOlIwk20Yiu6JquKZpCGSFLUv/qrv/q3T1qf0D74ne/8AaLpqm7QG0O0kdWO5XpDzItpCHnu+yHn0UiizGM2aZwAp6LIOlTII1Zp5i+DkrPp+HITOHLKrAVHOPBxwToIIiAj3R51kWvOBwlw3Db7ekMjpAGOoIqoPBAuVDXAkUCnauIo+Rg41k07bFqAI1VReMAAUACYuN/v7+7uABbikd1uh+aN+2gogFI8ZbfdJ/Fqtzvc/wGFPLYktvjoeT5biHMwys6IDNDUdSN+9vs7RNmAewbTmkZ0UfG3Wq+rFmo5D0jGRXwhQeTLqbQGIEuylWYXBBFor7jFJUHctqEuGKx4FLvFVxSupuzoD5rRFFk+/pRAFC+IUZFVvSmrKlmtNoybgE6xDa4EEBWidix+VdNH+8gPjV1lxG1nrnG5W2QDcAfdjShYA+vB6/ll+Qhstjw8kkpVwH0RkoOPw+qJvoFUNKdBH57jvP31t+aWBSqN2kvMC/r8+050yE6iBr1cLoGJMJ1DhRrwBzwFirWlYc53t7lwBkfgI8bIILJGNhwxtc9ruVzCOweSRkgUfe7/87htBng3nU7xX7yjgEcgn+f5s6nleaSLBICGYUjv5S+XIfUj4o45m3mU46f2G6rScOcMAA636KoAsTUMQ9M0QCcAbjabwc4WqAffSSDjjBfYIu7jFk/HfU3TdM0YDscT9gOHX9kRHFk/bkwVWZ1MyN+BmKOqq7qGHwGO44n8F3/xl5+EjZ/UPvj73/nOKi8IBOuGep/XpHbkRBkJHsuji3JRrP1lyPmyEvlEGLuySwLVHdY8honTjhk6ZEqme0VOWcv74Egn85FcuI4nwBHWZElM2TfagDNZOM83myYIIlBLLoMSlFBrCgsTG27gwzBSyjlWCKVpA24h2QPyEEfv9/vDgdoEMeiZWR6gjximIJj7PT2raRqk/AUg7na7/Z7mDgJh8d/d7pAkK34pkjqKjRseatiwdhLbe54nAnbUhfGOW95R4EXTUK8euagdTSUE6TtuQFJzlnASWkGxREwNZWKaUdM+d8P1HDwLlBA7AwxsP/ZRnyg4o3gcd1pwZG+RnwiOm6bmayjVqOM0pfu8xPuCZoIso8EcPT9iA0QDAiIRagD3uVrVbijyHpvNBqMd0IcDWBS5Y9YSkXMSgSMfCkb+lq3z8acrCmThvh9u1hXGOtakRir2PDJMfKVRXEbCgXPFH7nhiJ+cMsRmyIdCFYTfonSDmB2iNDwCaomcQxRFs9kMKAlcA0qGYYiaSRAEyH7atu2y0vsIfPSvz2u5XGKCq/gVHHdY7RBQknIZ2LbjLFykNYOPoXU7AAAgAElEQVTj8kOqg/LvSc2j6hrDouewtwV1cN/DR8uyJEmaz+eEYsfpMdRbyC5BQE805yALYfHi2J26brBEHA1AFAkE6FJMYybLqiyrqkJA2SIjMUe6bxhTVdUnE1mWqWKjKBqF1/yjGTo7Xhiyov35X/zF64Ljd77zBxxEEw62VLHegNtxREKyNaASMokYAYgaC2xr78vEiD+u8vl8QUKKlKa+CLWjmMiO0VFlvt5wabJk9IQnI16QihjHHGKbYqvqOE7h58xffaItOMOZA3IZhNmHIEq73e5wOAicwlmE83+/v9uwjK5h8c19nngfHIGPaBoBTIhXAwkFmPKv9nGc/nvgCOBDghJyS3Gu4mwHCgukIHAMYyA+4SODzX3kEswR1Q8AJV9vmpqxsr2iVFRiDkMaNYMlUA+HTnwcZOLEhxKP4w5T2h0EWD8RHOttU9WEj5umDuN4XbVM7/i29K9AxjzPURpC1pV/1Yqu6KLItTVcJnFtoHc8LsFGD4cDyu74e4lvAo4kLkZ1vY3CeMuyWaDnGm9An4fa4VErW3o+zdHNyWYZUyjKnIIaBENos0H6VTyCPhn8FyAI5x6xAcJ8bAYWCUk50FBgImLz6LjQYhjyiuNYQKTPFmcoN6OcAm7o/9iKoggvIsARxDCOeXBIGPt+uFhQqzSeesRGkn8LcPTDQICj5y9tZ+EuvTkEOJzfRCMTJmEZvEQvIOghivW4L+ghiuZARsdxpuxUIX4rYvYjA6XwWZrQsARijuwBBM0jwBE5R464yQeXMFHXNZ04p6prumFouvFnf/bnrwuOf/jd75Zr9ig7guP6o+AoTE3YJIJ88SBVEbe4GCLuYO0xgSOh54qqN6JDhqo6HDjXVdNsmk25KfP1Yu4g9P4IOB4riZymJBZZVXUcJQi0N5u2j0WcEhxuExEoi3UYtO29Arl2vO5XXXa7w4YNdFmW+CGAfow5Alt/Ys7xCLJEIXk3yECMX410juIdATcAWeyA7/streKCzMfwCJ9ovz9Q9M1pPs4YiA9K3Tv0jlwWL0uqKlDwzuQIEMm0mvqCgDKbitnT8QXEFQUgInYMLEkcsaZp4LKBD7IjSs2umnx94rdr4QqB6oYxmSVGdRCFxyD4w7gbjZjgv9CZot4t+rJBfnFF5L8myaFEVqF9M/4HHwVSJPH0+xyc7h8ln/RH4fGQeAU8l65VRynoer3xPJ8HdBfr4kNwBHAD7FJeyBrdB8T7rYSYo43ffgwZgZ5pmvq+/zFwBH+Mjgu4FvMAhpAJIzgjkC7kDmhBDH2fkpJi+byCIJzNLB7HxBDLNwHhXhQE4XLpL5fBwnZdh5gmfICwXRCGRFr5P6QrmpBhD7oSkZcEacXtfD6XJEmUU8yftCRJAhlE94ttza3pbGHNF3Ob7CcZajVNA+YioTmbzcQd05zpuilJCuYiEPwxZ9Q0gwYQGjR1SwG1VCmsJlDkVmtVVTVahJF/+qd/+rrg+N0/+qO2/CLAcfMR5rheUzUGUh6e00I8o42s2b4U3xI0n7LQt6SOaRoWSA3bKKRC8UeJ8Kwg4+aiwnQ9l7dkBS41z0CwgjIO5DtFsaYTvt7Cf5shgEoBIBE43xCYowIQhR96HwB6Gl6CvPCJRPCBijDLlWuOtalHWMAZHtntdnEctxhx/Idf4YhTePVml6bZfn+Hn+OGFJUL2gg8gioFzBEfAdtseeHFttud5y5FLpXE8MeFzXZo/uEKiUDG++AochH1pgmD6Phs2hlwKCD1vweOQEnxKTiRQMY8RN6r5j444qgKcNw0tR/+BHBEwhFNLJvNJggCoCqOAF/tWkAHSkIZiovifeYo6DOYowBH3MER5r/OlvLU9TYGONLFgxY+O7/Irmm2MHnzPI/gjK3ni5zm1BTUBFlRoojznqsVDfjBgl0FnMkRMuMWMkaIZAGOIvmIJ6Zp6jjOx9AwZs9HiHCTJLFt8kgHYWSYav0gGPfoBmaLwDWUjLA9bjm4DufWIo5oFI9YAmeXnh8EkecGjrMkKDya8YhiEd50uVzCe8JjieV9cJzzwqQEjTpXaInCC/zQLF6QLoIGkkKeHX0ce+EuaDifzeUdXdcRjNtsTo6oHHzTms113ZyMJfBEwRkFOAI6UbDWCTo1XdfF/hgGlbm///3vvy44/tc//mO4TpCT1pp6q9ebDVWVa+p3IFUvFQFImoZhUu0YLPaVIAQkoCQlF5gjfzNKn3WOBHlkUkbP5bFQ7R2A47qo1kXlLbwV926BNWQrGr8FZSUVW5lpcihHhokUYhMnohgNC5QHQkJ6hU3D0Xf7W5xLDa+aqwTHwIrBMSa5DGMQJRB3x4V84v8fcMTJRqFgzeC4a8ERrwA5JNAWr42OYFHKEPky7KG43W73YRjDImFT1QyF7S9bcIRvOXsAC0w83iGwRQMfU/5qufTFKwtY3+32lOQkW1+CCWABhZsNXYeo34bu02+31F253+/udlvOq3LZHWnTI7SRWyNFzVx/R1cf/gC4dEG/jSMP9ehyuVzzav9OH/2HkLTZBlGMLyTEWNjk3v6TFxF2AA/iMx7Rv826RhxtcHjeCqcYJNvvD3apBUcRErd3eGoXizTynBoEQQCF1AmQlx+X53mCSIrKJHBTiEzRBRsfKzBRRM0JUD4GXKLxPA84GPASmCjuuK6r6/p9WBS/Art0HM80Z/6SQnKxfC7aBGQqQe8T+PGCatG08Kz7t8hRqqoKsSSQESUgABn4oHL0v8G4GMEdRZis8RI5R9siI0ebmeNibs9ZSIQh2gi3hcSnfYWpZRjT8VjSSDDOo2OMKdWsmTlOzRkBokoWBJqqE4tUiDDOZjO8L0GlZn7ve//9dcHxv/23P4HdN1s61tWmyfmLQcXHj4IjTXqKSW+MvlRotkkPkSSY03RsUM1dd0mNNUwe0VmB23XJQ2DydVWQxYUAxxUPjYL1C0y/2QqXIBV8EESPZBlcyRE0EFdyRJFENNb1feaIAFxQBg7lKCEGetIyx02zp5N/DyohIOOwPxwOd7vdPvDDptnt93T/cLhr7q39fg+mXDOxZRw57Pe0zR0vkc3EkzDPD342eAQfRJzzwE14Ogh8QXJNMD5EhYxfhMhcO/5wn5DEFM8ty1KMtwaHrWk1u6NHBvKkXNuhKWOgnBSq8w82IzrMhXgqOjX7+8zxHhcjTgr3CvBEgBcqy0I0jjuu6+KD30dF/KrkVW93fhhVm6ZNgt/bDsdqv9+LlCUewSH4GDhSbE6zxVsvXhwc1OUEsgOp8b7iNlvl+O7h6g7sA8wBDwUfRNANsTdSkzm79QAiUbDGNj/OHMHUkF5k8CL0gnbnY8wR+OV5HorRjGx0A3LnOE4LrMvAmtk+8cIIhFE8kXll4Lm+5wZTk8SYkAdBBoSnI5WJgTZIDrrshLbgca8AR0gR0dpsGMbH6ipASRBGWSYtJO5PDdO6B44LporwLQcbFQE1wBGDBoF9Bs+qFqMHEWhzKE0VbZLu0EhCCqvBH3Vemmb8yZ/8yb990voEKc/3vve9oqzWVU3G3eTJWFFtmVxpubmLVWNoJ0h5vBv3Y9DAT4zjwIhkDj2yJEnBKwkcE2rsg+M/NBMQS9IG7BCeF+usKN0lycUxrJVrOJTQRAfIUeNGIm7EWaIbD+VslAio5sjziCE5oh4SGkBH9hlgxFQmoI6I1rQKSfk8o14UjDPe7+9aMVBFWzJj2t/dvSK6tDtwbeRQb7a73UGQQZyK4rTc7Q4wc9ztWnAEVTzwQnUb5+1qtRJgB/4F/oKXEpARhiROBF7AYwa/2mIhz7hpsqxgwsiIx2GjAEeICiGNFs89IuwOYCeER9vtnk3XiWrjCAAcsRkfisN+d5fEqQBHMGIBjjggKCLjEwHQBGGHYBu38/lcQKfAPfwKjLJYbxbukq7ZaxJOHAs8HypDkcQsigKfHMe2PTa0T9QUsOHjA01Ce4D4HxxVgGNVkWkxyi9ARkAbrADw7V2tctd1xaBEwCJuUWzBFBrEyPcfF1tilA0sjmJehF68fKZzyCeipQ+gBi++4LgEuVNVFeTOOy6Uqo+4tqQ+F4/UOT4vNAjit74fLL3AcwPTpP5rhxfeFGxUICm6+lBfRp4RMS9ShPCjhW/FvweOGKJt8TKp++/j4AhX3ZYn3ss2otgtwBEgaJozCuJ1E+YJVJ7m8YT93kCRaZqCys3XOs9EVGlpqqr/8R//8Sdh4ydJeb73vf+eJlma0PihMIwxCBRVF4yWbueCcq90GMSBHy0WLvPziKpcfrhcBvgJgzjktmjbdnw/xKvFcYr2Z7xmTCOHV8kqj6n3OaE5hdxQsUTrNHU8J9xdQ4OQOMVZUGDOqiAqAaV5xg4IMKfAdGm0HqJVkZ7OTmtxSsOfCR+pXY8sWBidqYURw6CjKEFyE9Df9ixXVMrAGUXipmbHZeg71EBwFnHCs016tud21aRJRqqaFlvpPBXQifs1L5yK4lfwYsDZjw1AteAtBgRBWIo3Op7/zOzqbZ4VVNSmoJYWXhapNzxXAAF+i6cTO2YmuN8dxM96vQGLBCxCuL6ngv/Lw+Elbb9tSTTzaErOHg4HoFL79rwDSZLg8+KjIe+B+Fp8HOFTK+JuHFLAE2Vmysr1/BYcKd9NvxEXCSAyDMDFQQPYHa8u1EFUsVtwWVSM+NiQbsUxwf0kSQQ4gu4x0TtWHXlCGQaHCbATd1BgybIMdA/JJfBH0EyxZRzHGM34MXAEFIZHu1kwOEAicpEhLwGOpmn698LhIAhc1xXiHs/1XdIvRngdlKohmQRzpPPUC6fUvU4t21iOS8VrsQ/+0res+YLGcFEPjyCMiHyn05amSZI0mUxaZ50ZjdEiN9rZDHegcERJGuqcuWVRbtGypqZpzSxoITWuosjceqgoisa2OhKvMc8vHI/Hk8lkNBwN+6NBdzDsDXu3vd5tb9QfTYaT2+tOv9Mf9UfdTr/fGwyH435/iJ/eYPiHf/jd1wXH73//+7hCllSvI+Z4X4+NB4nEZQXlHNNsRR5lNA352D5IgTZGEudZwSnmzLYdGpzAjYMoaov71FgWp3G6ihK6lRQtpbp2DgCN+VmoO1drwqaaJ0bleUlpOB6xAG0Q5D7tlseBpXBtuDfmgR0qWRUEpQtKwCCenucfJ/xx+oCd/tjEgXL5xB85vxZFyXpN1JWrRlSSFecShhbwWVpGYYyon2us9JYgTciyISGF6Q73HfmFzBgqOWRv0zRFrzry962hLx/Z48mW4zoR8TjvNKWZ1OgWR1IMe1hQdYGmngqEOpJWSizyNLHWgBJ9LGBbFaMkNPZNs4OIHQcEQ8S2zR7qd8EWxdUCHw3xNZAO8IdbbLZer6OIdOmAM7EBMAvPKquNtwxIcsvWohTHHBcuJIBjJCgAiHg1/HUo2cq9WHlG08z/A3AsijJNU0jTkaJpmWNGirSiKMmYryiDIMSR5wxS+0cQTTJoowbqIYJGghK8MkmSKIpptq3jJknbM4PNMOqDwOzogWLbtigio2bi8XLdpW079twxjKm/DDGzYMEABvyybWqMdl3qK1+SjQtVfhmsZkfUarsMwfvM2VSlThKN3BbZ/cGiZU8p2Wfp+kzXqO3QIMcwWgYvgWWTyWQwGAC56FaSJrIkcXeKTCyOfHRALfF0aH1EBA3YhRmPwFxsMzt2Q2KmK8rihs77qtDYLlVWVVkzVGNqTKWRpKv6VJ9qVJNhOSQLHTXdUDT9u9/9o9cFxz/7sz8HIIJeQWkIFxa41VJVhMvTAhxhFQGgJDsybpihKJtVPnGckiJyVWSrgnSONAl+na3ofMZbJCvmdHnp+cGTZy+iOEWdGkVntMShu4MyazUJnuua2o0BjqghchMbhU4CyCBeo+aKigbMljQyjFKoZC3IMEdwsDtg5DRpgxAkstSxJU2cnwIs7vd3h8PL/f6OjBoban3ZNnsucdAUFZyKOC0bWruMSdxuS7ULhJwoy6ACDk6HwVXro3e/SAIeCR2l7XDao0MDp7oo4FCphZcIh0FXWQzflmLBzgReZFmGnmIYLhwBi8bvCkVhG4FydyZIOjWzE6YQg4Z7DdPtyvdD+ptyCa5FiFXbmMyokcJAGzJvdNwjeATKhyHpRdBozJARCRIEpgPjjDiihIzjwEaLzJYoTAkiBCJkrsR+TnS9DCLkZGL2so8j8meKIyJwyOpQnSOkeBelD2QA6f9sC5AkqzCMXXcZR2TahJ1xjwuEC40os9l86REp81y29/IpMyjYHHY+DEPnuMSvUG1wFq6zIKMWx6FBVWivXvBCrg1ggemAQBDshfDOcRzPni9s29FU3XG8Bc0cmMN6p90Tz7csezyWXHcZBmR2ib0Sr4zIGo9Ti+HSW3iutbCRrQzoSJFvVkhayNhx/Kk5pwQlfeo2AMeeoyADNwrTNKlcAsJIWDrjXuwZTRS0LFRI8HFs9prEh0KEDo8MHAocBATUAHT4gcu8KJOo6ZqsqbJq6lNN0XVFBzhORpIqa7qia6quKBoNLGSI1HRTN6d/+N3XZo5//ud/AXAUHaklzaqjll62TSb1b7Wuy7ICYcx4EGDKKUU4cQnbHgBrHKdQRMIeFWEsgA+SILKE4A7FIIqfPHtesGAChRe8L8HTlvpYAEmot6B9EHsFXtPCItcWiOBsqVZAtr11U9HPFu3VDW+AaHG/J0kKfgI/uv8KW9InHrjzhSTiLCEncGSzSPLiYUiicBIQBrwjEkWV7j1HuFtWvRwEimFjgZL7/T7Pc+hOAHOATpGUBN/cbDYYxiJYFeUCuW0DG9DlYdNst6Q852ndJJNGsHmMcNtrBqba0p+TXwGovTuuPXdM4lYMPEDh/sDDD44boh7V5lXvS4vwsiKiB/rjUyNoxQ6L7Cr+C7KG9Kg4REwJGzbyadZlhb5S9Myg209cNXFF3PDlDZ8Mt/TXrNuraSsJYmktp2XbA3M8SpQ8gWx2lWbc3rUWCy0uuEXvNgvFqWsW3gJZRnNmQHUFScToCBFoE5PnKxNdDaI4jlb2fMEEglgjP9jeoHMG8TWSej4vz/NEZB1FyXIZ+MtA101uBGxBNuRFWUjX/+pXv/7lL391uQxcsv6jmVkBL4Hjvt/GzqZpcjO1ZzuOu/Son7pNfcbLZeC5oesG1myxXAYOdVxTOw3UNjNesAga8SSZFstmM0ZGsvaxbNu0ZtPpVFhgiHzlfR24iNZxh+GUblDgVo4zD8bjsa6TvFuVNYJFFZO7pgSIij4ZSXRHJvsJmVtlmOMSkVQ14zt/8Af/9knrEwoyf/mXf9kG1BxWc32Dwkz4gIFEIPzE9ZmGw3Dajpgg11KSmKxNED6nHHQvlyGAkocMU9M07lQVzQtlE+h1XpSO611eXWdsRF4WdMJD93s43PFYEpw41M/QNLs8K8FxgIwAMpEm49P81W53KPI1T6PirBy1GBKsgKM1pEo5NHULXlEUAZsoBXd3QP6t2W13h32z2zdbut0fXmZ5yRE2wHPf7LaU2+MF1APilDz3imUvAEzSBgFodvcWvA8EIgAW2904ihCrqkJvHEYOxHHcHoiGQLCuP+TLDI6U6BR7wr8ltw5cYKgRiChtewTu796e2igPL1++xG2WZe1+s6oJ4Cge4WL9gbuPiH3jI/PfiN5b8OKmaVar1XEnN6Iyg0fwt9jtdhiVI9IOiJT5AO5220O92ZdlRdpsbphhxzPykkDWon2QvirbNFnhOwMZEwEil9TalkruHQCjF5QcRxKYi+CDe1vbrC3iayFXBFyWJRnuCgUbp57WwL7VcWVZdr9JBg8DKJmuplG4cnjMEdgrwmqBkkinBEGgquqbb74pyzLShR9WrkmCE/l+OJuR2SWVVrjkIhKF9nzxmc987tGjDwicbLLvDI6Fb1G5Dnh5njebzY6mEq7D4IhfRUQbw6UXhUFiz10CSu/Dgjhq1gRgzAp7vZ5p0pAswkeLwnhzNrMWRHBnZFJhTSYTAaaofX/sFjgown9sDGYKiw1JkgaDgUrlFaKNRBg1U1cNjQHR0ExFUtv/qoaiUBFGgKOmm7//ne98EjZ+UkHmr/7qr9FkCnLH35sKC1fbekPNJ+uyak0G8zJPc6gUszQnjylwSQ6rGSgz16EaNOcZszAMIYZCqCi+cBjIdXp6yt4B9NVnPTbRuru7u5cvXwIy6HzmkDYIIhFEi5Mf4Eh0j8vE+/0d68wpt8YEh0Ahz3OeeUB48TFwREmBKON/CI7b/Q74yLi5paCUMRelDyDgfXC8u7sDuPwY/yLmCCgBu8RnbHeDCyUoyIhjVZblu+++i3MbDYj81mRj0dRULIKUhz4nP33LCAtk3O0ONY1CLIFxgOjDvfXy5ctXr15hbxHnCvn33R0lB/CyL1/SVWe/v0MiAuAICgx8xBGAryJAFgRNvBoAFLd1XcOH8T7fxAek3W72ZUlRi78MEUZgNhYhI8/boEoRQ39T75bLgJ/SJl4QEOARBAo1O8nztwWo2N6K7w/wkcQNvJDHKLn4IxK1ZVn6foj0JZLyJZmcfnxhnKyQSyLLDF65WmVJnHuuz/E+waMAR9y5D47vv//+aDTyjwvQhjoneerMbI+03B8HR9OY/vIvfen05JxTkwsBiGCnYo4xKt2z2YwnX6PZOqCMBWc84jgNgohkkn4yNefLZRAGZAiNmo8oVeu8er3enBdVXUwTzHG+WNiOY9GkwhkG0iH7iRzCMT3ajnMAsOJlgZu4D1sKiqZ1vdPpyLIsTSaKJKuyoimqKiuqrJi6MTVMTVHliaQrKgEob28YpkJL1TTj937v918XHP/6r/9HlrUVYaBkG4EcPWKZ7lVFvv44OObrMivLnMo4aLVupWFFtbCXcNXPsgxcGsnX+8iIWsTz589zClKombpiF5nd7vCNb3wDJ2dd13xKU4hNhRESXhLqiRAY4AhegwIry4YqjK5muNiFYXh2dsYm0kRMwBx3u10URS14UWB52B2IPHJsfWh2+3q73+7vtvtDVpQsiyZ82O739XZLpJqBAwQK4AInBcDQ4UCin7s74r/b7RbvgvtQnwjsELAFUIP7LMaS4PoUBMHDhw8hzTuGhFRWRhaVZEb1dk8gSAxOMFRxzTg2aFMN5Uif6T728Fd+5VcOhwPwEU45B+5GB1gD8njjNv0aRQl6t4FlqDXd33NUnPBGiJrxIkfsazOqAhwFtcQGZbFO4tRzw9YCinM71FdKUwurNM0uL6/RYk8IuN37fghA3DZ7+uHDgsK6CCk4ZUyfHeuIjiR0x8jZY8M+fesFtKE4I76uUFCgAs45qNaGqjyuoigw8EtApgi3+apDYTXr2z5SkEEVDlsiRatp2tOnT8/OzhaLBfHDIABsteC4DCnTSL4TRBzpx4ORTqDI6i//0hcvzq8CNiUDJqKkgxcBl0QiEhPxkIUMAso2hnE7BcAPIj+IvGWoqKbjUU8NDfDy3PnCNqaUYTSpNkL1ltFoJJTbumGwBaQ9tSi+nloz27ZVlQTcIqZG9vNjKKkoitgAUHu/ZRvTu1DbGQ2G0nisSJIqK7qqGZo+NUwApaHpCte7CSOPKKnr5u/+7u+9Ljj+zd/8LTgjMo/cmFELfOQEP6kiqqp2HQ/tgCWruKnRhcyq+LvLX99j1nKz9EIoxTCODkM2FEXBy+Kkwqy4i4uLOI6huQUxvLt79c1vfvPu7k70hO33pCOB+Hy93kB+yPyFzhCRHESgTZ8lrxruHkO8Wdc1Znu2dYztSwShQRC0YebhsL+jH8ZHut3u6efw8tV2f8jL9TFIpcTmZtsIcLxHwlofBDyCWHW7JQosIlO8KU4/wBxARGwAnoVMVhzHUPCI6Vd4CuAYyNi6znDwX5aloJ9M0Nq8KlJvmw1dYxq2CIp51XX96tUr0HOAY5qm2BMRoUPXckT2u6bZ+X6I1HAQBN1udzKZYFZtXdeLxQJJRnQQY28xWgCXDeQ9gfgCHO/Xmjabuiyq+XyxXBI4kgnTmopmwBSeZJCenJx63pJl/M1utw/DqCzKmjummobbnLaUysBR2pGwfxdHKdfTyG8J0nF8CXHdxQ6IKxaC5fsVfyAmu4W3iXhW15IGAKAGyQ4GEtzXBkAkIEZgJ0kCYEqSD62CY1YgiIFcCKsfPXp0eno6mUwQ6gIcoygJA4p5KXy1QB5JSBcGEVWulqGmGW+88QVZUqMw1jVDgGPISxBJjxfK3IDYFn+TNIhoREoQxssgXAaRMZ37YTRf0Ks7S2++sC3b1jRCJQIjRcGcA7A/6mw2DKrDsKO4ZVOxSNd10zSBfYvFwuX1MXCkkQ9cnka0jlv9qOjWNK3X600mk16327m5Gfb6Y/Yhnxom8FGVZGKODNaqquIdUY43jOnv/M7vvi44/u3f/gBRM2odLPej7zAum/xtJmFEUaxdZwn4YyPcDTXQ8E/7xDVZfOMn8OM8QxWbHB/TNJV5ZVmGBBMgYLVa8dBUKoCCdW42zd3dq2984xv4HgO8KHe3uxNln4bOdCofgz4Qo2MVXtPs7g4vORO6Xpctl0IdAx7OQNLdj4EjvTwL/urtFj88sWq/v3tZb/errBAl8Xq7rRoyaQVzBLqBOYIEgZ4IvBP5AYSfiCjF8FKwGPC4w578L7bbHQ57mqYoBdi2PZlMwM6ALzWlFdvZflEU11SJodYUEXRT2F5TfNoq2zfNdrcv15tmt9cNU9H04Wgsy/J+v3/16hXcKl++fIk7eBEYtXV4lWW53W5nc0tSZM3Q87LIirzb7UKOEwQBXHYsy0rT1aA/isK0KDZ48Pb2lmqYloVeNMET78tFj8E12eSAMLqOhzue59/edkfD8fn5xWKxCMPw4uICw2NRfHddFy2YVVXBr/f+32W3I0mW70dN3eox8WXA30gcLhhhANkFlcOrYYdpVAYLKvA9BzgK4dR4PMbYlsFgAKAcj8dJkiiKcnV1NZlM4jgGB/R5IREpwmqQu0/CxD8AACAASURBVKurq9vbW/CsZ8+evXjxotPp/Bg4Us5xPl/MppbLpXyIi4Mg0nXzvffef/je+9JEDoJoOrUEOIo7YI6Yw+U4VOwWfTWEvzQ/qsXHpR+6y2A2d+YL9xc//RljOgU4yqry9OnTT/3sz/3Cp35+MqaFHYYluKKpVLdm2oico2EYiqLAzBFEGOE5KjCu68LAAqUeYCilL2czgOOUBZWTyUSSpNFodHt9Mx6O5ImkSLKuarqqmey9MxmNTdIjmbquG9yxo9MydM387W//9uuC4w9+8P+iDIec94+DI13SGfXItRuzXIo1DdIsiDZW5QaOpMd0TFUWVRStmMFR3hpVvyShEc/z+VzwCODj8+c0GQ6kFeXIu7tXr169AjgKCkDJRAboLCcHQ4jvkEOEw0q1oaY4Ut7QBPqaargs3Nk2u7JcP3jwYLFYcChMAPTy5TfAgzgQI454OBzoBXgBg3CaNU2TZRkbX1Cmi2LqpqaOHA5jwT742S9RE2jJ6a5dIr4GKwRlFleIY9KAtJz7HYWuTb3L85ImKWbZer1O0xROLcjWbTabyWRycnJyc3Nj2/Z6vYbiGmf7/VtRkac7myYv1s12H0Sx7bi7w8uqbpbLpaqqmNk9n8/3+z1EkZinmGWZaZqca/MpkppOV3mWl0W335vZ89mcwA5EDApqjGmeTKTp1MpWxaYiTZLruqqqgiknSTIajdAYA3tafDFQPuILMIUm4MKSpOQZyXSurm40zZAk5eLiUlEUSZKePHmC6SU4l/CNUlUVqf0RzyFZLpfHw09TGJ2FV2+IS9I1o2kgAMDoSjwI3SXE1fP5vNfrAd0QWYM5xnECi0l2CaiyLAcOzmaz6+vrIc/almUZ+eIPPvjg6upKlmXbtvGXQpsKZDRg7kBhXALPzs7w6VRVtW374uLi8vJyPB6D7h2LNonvh667nFsL05y57pI9Gf2F7V5d3bz//uPObffBO+9NzVkUJTaNzWlXSwwjUk35vo+h2DiGrut+6UtfwrRen4x7Ej+ImDaGjucb07ntuG984ZdlVbFsoo0vTk9+/ud//uG77w16/cePHn31q181DKONhS1LI1GPObUsQkZ7DqUOXB1xafR9f7FYgBvikmnbtiRJqMNA6wOcVXkBW8fjMcCxe9u5D46Uc9QNXVHHw5GhagBH0yRVpqqqsizrmvmtb337dcHxhz/84X0ROL6jMBBD5bohfCFjHtddlgV1m6xzcsStyqrM18g5wsuWN6MpUZzAJj6IgH2zaVDLliWF5IrlZrOu66pZF+vL88sN64QgqauqmsHxm9yhTBVnatp7+Y27l99IM3LkJXCk9BqlCXcc+m6bPWcsm+3+rqq3cUpeuZyV3++2JE4sy+qdd94ByzgiyL5m91zEp4cD1U+OFIbOIkReyNOR4zTBIv3A7Lo88lJAJIEjG0TCJILx8SPgiOgV2bfNZgPgw3OPlJCyqPv9HbGSVb6hChgpRXzf73Q6yMdtt1tM0MbjNzc3oG+4fuBzAdwJ1qkD+lim2GzzYp0Xa92YbpotyRBqyv3BWnWz2ei6/vLlS6CYbdt1Xc/n8+FwWNd1FEXj8Xhu27vDodlt+8PB1JpNZAndjbDh2u/3SZJIknR1dT2bzYu8KovNfr93HKfT6aB4PZ1O+/3+fD4XhWmSvPIEatSskfjDXIfxaJIkK9OcdTq9KIzZFL0KggDTrDjUyNH2d3Jy4rpuWZZZRlNiOp3OaDTqdDqO49DRvLsri7Xn+rvty5qXEO1PJpMkSfBgVVU2B4xpmg4Gg0ePHkmSlCTJxcUFenI2G/JPQ4fV8SpOwVCapuMxWXsB6VCQKcvygw8+wIzyOI7H4zGVhrkFBehANA1daGzXEkXRycnJZDIheY3jYIAixnuhFyDgnGAUteC4sB3TmApwZFp96TieZdlPnzwbjyZBEDmLtuMFtBTv6LMw0/O80Wj0Uz/1U/1+v9vtfv7znwdwC3D0w9gPI8fzdcNy3OV7Dx+dXZxPLWs4Hr3xhc//zM/8jCor4+HwZ/7Lf/nMZz4jmqNnlqVomm4aHPRzXtS20UEIHPS4IYfwkxf8e2D72PbPMMpOp1MA3JinG2qqJlMyUZUmk363dx8cDTIl06SJNB6OaCqCbiDZaBh0BwWZ3/rN33pdcPzRj35E8hdOGq7Z95uKHvTDJhEsqQM4okeFqjfHnCNq1tSNwC16AhwDn6Q8kKeh2JJnpb8MMYIZyNhstmVenr443dZbBCyQJVM0+/Ibd3evIOXb7+9efeObd6++maRZWW1WAEcmiZDvUEWSaia73f5ut7+LEpKUs95tK8Dx4cOHuq4fkZHK1g2bjIHu3d29vLu7QwwlyKOww6L68hEcYXldsFYIvKOtt7DdYbXe3GeObbzMcpk9L5BlIWRBZEcR8XYPuRLOQLbSouHaICabzQan39OnT/v9Pgodl5eXNzc3URThQnE4UE0G0MMUiT4garJ1vaUepKIcjaUoSTfNbr0hizacM2maKory6tUrhHsIWk3THAwGh8NhtVqNx2PXdfd3h3q71U1j7ixU7n+wbTsMQ5R08zyXZfnZs+eWZZMpYkEXl6IoOPYaD4dDy7L6/b6maYDgsiyDIEBoDNU6JZ1ZcF7kpaaSZ58sq7c3XZtm0q7zvFitVqZpgovhAKZp+uTJE9Fk/bWvfU1V1d1u1+v1VFVl4COxp+ss9/tXwv8Ch2g8HjuOI8pKmqYNh0MAoq7rcRxblvXWW28hY85JABqNCfLI82eKhFccx6PRCMnH2WyGVpm33347DEOIHHVdV1XV8zyoDmezme/7YRiKbGOapv1+3zTNMAw9z9N1HXOiJUkC0Qt4CXDEhKyF7YI5sqwnjKJkNptfXFxpmhEE0dxa+H4QRXGS0Eh0AY4eD6JxHGcwGHz1K1998viDz37ms3EULV3avyAI/SAISZOZuN5S003bcafW/HP/9xudXv/Row+ePHn20z/9M//n//HTn/70Z8/Ozj71qU8NBgOUW3VeInso7oAYUiqSfcKFp9loNJ5OrenUkmVV1wxVoXYc0zRlmeYajsfjbrc3GIzQDshj3IfIPNDsweGQ6aQymcjD4XgwGI24a5Du90c8nnA0HkvjsfRrv/prrwuOf/d3f4fuQCT+yAWWuyDaxkEemADU81wfzchkMpbm+aqgQezUCcPf7OOomTwvA5I+FKSURF/zKlcU7dGjDwaDEVHCzbZe182mWRfV2ck5xeZHzTmamjkFSJf9ut6SJczh5eHlKzDHvKSOQOpg2xFfg3aHdN/bHam+m20Q0txtKN22LA1J06zf7xuGAZq225FfWdPsYBWxXm92W5q2CrYIyONAj252ux3l/pqarTmoYkSMeV0CQ0EtCfdYPV7kNFcazPHAmIhah4jQER1/CI4su+FKNFVO7w6vCByJMlLCF8B0e3urqupgMLi+vv7Sl76kaRpA8+tf//rZ2ZnneQLEkRxsy75sPAudMzUXkQFIcX55FSer3eFuf/eyqipZlgHWo9EI4xjX67WmaRgAPR6Pd7tdnlN60XXdu1cvm93W85fD8Wg4pq/vaDRCtggwJ8vyo0ePGcs2q5TQcbvdwt8lDMOmacbjMUbFQyiDeBz4yE2HrJfgvgPXXWqqjhN+MKAvuqJQoAQz7dvb2/l8vl6vPc97/vw5DmlZlo8fP766ulJV9fr6utPpEOmrqHIW+NG2uYPlEilsyYm3Jq2HqmZZBnkAOuHiOB4OhyiqXl1ddTodbM1eSrnvh+TNwWYWRCSpzZ9a98mwWlLmc1tV9ak5W9guJyjJxy9mdzKVKQ1JuP3Qth0a1B5RTSZhQQ/g9fz8vN/v93q9Tqejadr5+Xmn0zEMwz+uOI5dKlEHBCiSZtt03547/pKQMU1WYRD1uoPxWPI8irXZmIc8DaCIxIgFhMCmaU4mk/FwqEykT//CL3oLx7UXqJyIqog5nSrcWqgZZn84+qUvfunBg/eurm5ubjpXVzfdbn8wGH7hC1946623xPWv3+8jvYBAGEe42+3KRP0UWZbRiK0oSqfToUn3kirL6mg4UVXdYFsdXddlmSZiS5LU6XRHo4ksq5OxzEg3QboDr8YvqCqKJstqp9ObTGRNNRRZlSRlPJbI5FGmbplf/U8BxzhKwpAsJ4KAbCFo/CY/4vuhvwzCELp56u5Ee1boR/RDI3mCmHqVyHjC98OA27x4CL2LJkLWZEVLz8eL+H6YplmwDJMoTaM08qOL04slNTxFHD0kYRDFURKFSZLQ5EyMdSdfv2rDTp3E+cM4ofmrFJaRtXgYRH5Ik7cj6grL3KUfxdT6jaC+LCsWN1i4fiZJEoYh+r5Jn7GihvEoogHEuJhDcUZvz6ttm00T7ilfJas0jOMgDMGzMl487Jg8fihaimnoGJ4OpVvMfvfBUZGLFBJiGYRXQRDQpFK2gwMR4MCLkkTdbvfRo0dPnjw5OTnp9XpPnjx54403Pv3pT7/55pv9fv/Zs2fn5+eYUYHSPwnxc2rewDxrXHLI8zWhuToXl1cXV9fD8WQwHEIkgFoEImhglqZpLCSKgyCsaxKQ93r9LMv3h7t6u2OzOiLpqyzDD+n5aeTXejabnZyc2PaCoCRd1RsqsNTUaERlYpiwSZKE6c9pSk1+CE2gA0PCGnKuar3hw0/9pnx6hymlSmhuwXq9hioYzpjn5+eoHILiKYoCctrr9WzbZkCsgyDaNgd06OMdeVhb3Ol0ptMp/uhnZ2fw3bm8vDw5OUFt5OrqarFYHPtk1oEfYQ47NSNGpAcMgoirzZk1I2SUZbX93hIvpK8Zoun5fE6Fi5m9WLimObMsm3oBuZ0Ouj/HcTC7eTgcqqqKYFPmGX4gniBc1I03tVRF6/dGsKIh2qWb06k1ny/m1mI2nTvUnugZumnbnssmFLa9QKMh0rIQ35B+8OZWleVf/Plf8BzXcxzXcRB3hyHU44HtuKRdnC/mC9eyqad7MiGckngcIEofDx8+NHjNZjPcMU2SheOqads2xmyBSDoOOd4irOY8NtVuMFbQYFsdkxdQlS+HhJ54U0Uh5dBkMuGyLqEtoaGiSZIyGk2kiaJphsodhFROP/78J4Dj3//936M/Gv7eZUFpr3sRBGNQsc5WxdIL0D2dJRl+ihWF2MdEDE1EQIAchZTAhvmYeHHETU29pWI3+zmW+XrQGyRRAj9HCqs5QhcaXdSXMWE1jJNNzSkz6nshp3ukHcmMh6kjpQSaXbLKQD/x3P3+jnt1MhqJx4yxoO5Iyv3HcQoifNQAUzwqglPk8sCeiIFsG8rnczcIUvvgLEQUOefIg6SpNYUVdiKCx502yOXxDPS+KAuAfvJtG+mjLxCghkHeSDVge8/zzs7Obm9vyTJjvYmjRJrIRNZKYkSo86DYjV6m9Zryv3lWLJd+nuc3Nzcw10IaC90gqNKiPA2E5TosORihTFeta+q53FIwvsqLVV5U/x9rb97lyH1dCc5X6zN/eryrZY3VlmVLFGWJYpEiWaw9KzfsiAhEIBBA7PuCHZmUbFnynJY1arc836fH2zHn3HcjfoUqiabnqH6Fg0IikYEt4sZ97913X7Mu6yovi1RsztI8y4siiqLLy0vCveM4aVJEYRKF2JOIXFEUESziGLHeYrHk6YTCYzZquK6/lPMoT7Q8p8qJEx5cPMFwrDNVgbPZjLVgqmQcx+EpcDKZXFxcOM6S5+koyqgT9FwgGsoaSIvZDx8+vLi4ePny5dOnT+M4ZmBLw0TP82h8YJqm53lxDJUiTaqYMORZH2/Bh8lpmuTuysfHLoZ79LNgFzl9tj2hDmz+C4U5sqSTpuiSUGUTVpP5Tv2u3Zv0UT49354vxiOdow74WXnSYM6ziO/DFmsJ8aMvLyxGlCwE1pEWaYa3s9ns+vLK0PTf+z9+d6YbXteIzZfqckDC0h2MJvZiObcdy16Y5pxjrTqPRU1ZOupix0PUIzhSyz2bzXq9HgvQhmHwfMBfyZ+Y8/mC4xBmM8zqIjgyQkcOUTpeEDtf3w4GKMcNBgPScOGYY0p3bm56/d5AgaOmoXeQfda/+tU//rZh9f/6X/8vD6FXvl6SbaSdIgiaWPUkCSILNg4Cj7Ic4u0MjmASlRcYDSqeiWmauy6kapKdAUQWWZ6nWRonYjVeNVVTlw0EklnhzJ3AQ9KdHrfEWRFst+VFJObWm2az9cO4bjZVvcZYZBSsxQxiswMcC3ptdoe1aFbyomo2W6i4t/vNdp+kORoPN+gL3O53kjeEGGbpelKdwDbRTqMyi2i+BhKS9bC8Ljks3KnqNi3sQWcEmCbfwR9BevnGavXJzAOKCSNqPtymbAeCTSpvqEzk7GaG/3KqQJm1kCUBIzzSkUyUQdKSOa1Z3yCTYh2MA6R220OaooJxc3PD+QQsDeFFd2u/36MoL9CO9FyBQdV49gYvDJ/a4bjZ7ZvNTlSfW3YIyYeJ0VrrzYZSQdqICUyjSo5ziiwOSKCGCRwwy92Vl2dI82I/AYIjo1dXDfh+5x7PSeUkfQzA1fei0rWsnjFfzBMbxQaSGMHGkzhraqRf62pN309JXLQBNjsF5/O5mnyg2DfTo+3Hnpc0uCM+8qzP6ZvMRWYZTgb42IUrZFlOD8egW2Lo4E+nOkIxOPthBUHAEISNK/Qf42ngFU4tsdimgr5pZ6XrliuthNLaEjLa4wBuBFvSArhc+r4XhogF+VQyf3WJnmvOEfzed79rGrM/+L3fHw9H6Lbpzj1E5OVqZVr2Ta9vWvYcswcRNZrmnNTVMGAqwfQokXEmQhTmHwmCJI+sR/F8xt8ytJeWQXNuvQJHYugZzsLAESmL/vD2BvH1cDgEa5XgYDqF0Tcf0OsNwKBlnjUwEUOzNUDkePo//+evfltw/Kd/+icCGS1pFWcU1QL2Oup4CHnSnFcwdiO9xN4jk61YaqRDj+OsqrJpi+AFXHM53a2WkdIyiqFZV5ixZRpW6EdxjL2UzbNi+gDFMo9VIM/+sN2j0rLe7JrNtl7jwKOODzqeSn6SA3h/PNVrqc+st+vtrhbvCallU2COxJ7MyWvBEQlV0beDZgoVRYoTpt8IBn8dHCml3sgiZxRkBK613XXtRni3um5xnJ5A4t0PZOQRLk8EKTuVm+xpqcomjlPBZ8g5CQqK1fKDQk0pwugIQVWgLT80IY/oxSwKTLher9EL1DSNruuPHz9mIpWv7FxplKZpK4mHiBoNJFXV9HuDNM0Ph9NWvoJ6vcnLCo3nsHPDhQrQRs4ZzNCxfFQLHhHW+XERZRSWuSsPTsNdqIEbItVS+wDHh3HfYxKWpRueVIiAChNZb2F1iDAq4IieVIIjyThMSWTYN5k4s8xVVS0WC2YVmAnhSYjX3E5V1r4X8DBh5bq1DhBMJ7eALYsY2ssJHseIStFIkwwyV4Y+YzDuyyLRpsqNWKnkPvzR69oEySU9L3Bdfzox2GctOag2CaZYLZNRzsL13DAAkQQ8M7dDBsqyzP/5J18bDYZ//Ad/qE+ngeezTEQCC+a4XK1cfzzRAIv2wrQw5oAXQ5/pujEajTVNu7m5NU1rjn+YoGXNcYOXuW0bMwgbprrGbkKqryjxETmjNZtZuoYhq/P5wpqZvJjGbKYbhm5oqDuPyd9JGPnjcDiEieQUvTqQow+G/dveBGIo6B/ZP4M2nun0H/7hH35bcPznf/5n7oLqjE1AZFcMLCeEORZFtVp56IDGUFMkthgxyQkWzX/kicz0za1FHCUq3BZDu6AqCjqIwU2sWm/XuyIt9KleZO0QV5R9ZPtUNROeELPu0cbnB1GzBjKC6MnDWHDAdATQPmh+docjyGMFwTOMeep1WTcSc6/XQD8IxqumqZpNUdWL5YqROLVBRCKClCJ+m82GjEwRSR7qfG1sgJGWO0BYFCW7LUzFWUFWACTzFY7khlXVrIALjNGBv4BgaYYTrzPhOEC5bXw2CJtpOwWREv4jt8Bpi6IxAA1lpA9wFKyhM+NmswsCzAgLguD58+ebzYYNPAoZDwecDLIsUy8b54UNvN2ePH7amk0IODabXZxk4OPyYW5225Zt40SGWjlfgO/7LTjWyDbysyKlZSZBMoZoi2YzaLunlQ2zCkyqlOICJZ5DOBcS8hSokXQTv/gUpKXccwij8oycYogSHPGRe45UZlCaIby6rsstsylIdVXzTjxXvZZgSNAW5ntpKjUZJKAQP+HVIbhGRAWukOctOLL7RSLo1PM8XTdsG2O2oiAMPD/0g9BHsfjrf/qntjWXH31vtYqCMILpKR4W+kEcRoEsAdnAMAzf80I/4G/bR8I1EllRSV6n5gziwr/8i2+NRuOwW0RYRu4vXrz45je/+Yd/+IftVK+Vi2fxfN9F0dpHsSEcDsfn6VGa8bCsPJ2CnfX7Q6GMNnBzbtFyYmaJ1NGe6zNjOB5PtOnMMhVhpP5cWORiPl8YyKJOLdNW4Ajo1TQ0Koqim9XIiayxLJJHNupQDS7giJ7ryWg0HY3ZPDOZTH75y1/+tuD4L//yL0rDJRnxdtg5z+GvILKo2LogfYGARDr+y1wtxETgiakE0UVl247UviGKDMN4Ohrr0+nKcZqqxqWsm2q9qTd5WowH41KE5XGc0mQQ4W13RG1lrREjb1euD+a43tbiS5YkGXMNGE8qrdDNZrs7nAB8Zb3dHZCpFDAF0xT9Nh13ms2ajl/OyuUNzHNSbbnC4Pi8vFZHCA9y9SuGpeC1cPdq50/RZo1VbLkfvyU4chjDbntYLjHxitshgNIFcr87njtrcIoD5dzksEQWwQWIVDi45uOPH6pR3QocozAeDsdFURHrfR+Kn81mYxgGCW8XT7f/00tNgSNSBWJa8fjx0zCM8e4EHDfbvReEmx00j+rSrJGNJXzvZKiO67rteasboisKgboSpT4DdsrC8rzEjyDvUkXGe8Mng/R0hXFAPFmKMQ+Q8Bwcqeh+XSwJLkiM5gYLMZAXpAazVs9CIXqJbgG4YDiOw/K9bdss+6zrOo0TbTJZzOdVUWRpahgGBVUUh0skBHIY+YF4RKP1m1layWmg+TrLMsqeOXtutVqxzwdUzg+8lYuCYxB6q9W773zn+vIqSxJ3ufrhgw9mukHIi8Mo9P0YEvTM8zyinGmavgDrOTiShMKnMk4DP9ams9XS/8of/9dnz54zLcvMpiuLFmSffvrp7/zO7ywWC0/ic24t8Hy5wH5iOBw7Dl4zK/gEx9ZVDI3WGIClwHG+sDtwtGYWLvpsNoav2ASeFOJFZhgGPXgkBQlwNM35ZKJhIx1ztIyZqUsXt4bFDkKE0aLuHsuaTqeExel4jCr4zS0eJ54UgoyoyIzH41/84he/LTj+67/+62vgKKoaHnsKGZkYWq08VjCYjlHZGRVi0B0gS4uVTB/kg+GMG4QrZ2loOsFxXa+h5qnWaZyNBmNowiXZpKDhDXDcbHfb3QGH5VYsIdZoI2EhX9MMy5wzw7iGA8OxrNdpXtBzrF5D3LPe7Or1umyAvUw7Vg3w0Q9jRNz1GkKgLwBHNuqQX7A3mXBGTFTMUTzWMJxPwBGAyCkCLfaBsB5Eao4pXa6Lnu7zhQ4Z8daVCHoDZKk2vh+ShOZ5TtgiRDZnKwzDjz76iCO0mA/diO0jLXNUEoBySLKqpoHI8Xg83t3dESiPx+N2i7bFpmmU5QSF60pQvd20wimw4y7tQLA+v2aigJlNgheDfb62zh60KcvG0Gf4umu8WckktODYvUfcv1p5LJ2peZMKHJlA4MgaCvj5K4bb/IRa5hhnRY4khqKTjKbV49khvlwue70efYiBj3k+7PUDz7u5uvJdLwpDXdcfPnz44MGDFy9eJElSFUWeZnEYPX38OA5DNXiD2V4yR4Il6yFJklxfX3/lK18hGCVR7C1X//WPv/LsydPA89/73vefPX6SRLHvusuFs3KWBMc0TkI/6F3fvPPtb3/00Ue+BMmz2ezXmSNF6SzOeG44nRjuKvjzP/+LFy8ugiDwpbbjdjpw5ctrWRaQUR7RMVk/BD4GzsIdj6e2DadblS40TZOFl9kMJuHTiWawodpCZtJ2FpZYlkkjtmWYs4k2nWhTc27pEkirviZsRJ9ZYjw+neqgmjJ+a26aC2uOgTPihKbLurq6Go1GwEPqvAGN0wkYIkgiRekdVrZthdMxqObf//3f/7bg+G//9m8KHHnCpxS8qVttNqPsLGshL4kRU5M5hmEouRXZDTK4gcKMp6gCv8u/5GWNRsPcNDBmQnKO1aZZI41fNXEQD3rDqmjqCuknxFNtuAmao+BDbu7CMMLRvsHcUd8PhsOhbcOaCel/CavRPghwbJI0Z2qSBZkNyCCSmHVdM62GHH+99v2QXJVxHKvbpFokfcSO9bqN6fjnig+eoyQpGw0iFf9i3YPvQj2Y4a0CFP52vUZSgNSSuvS6hrV4XTXs0mVimy+AuMDjP8/zx48fQ6QtlI0Ax+welYb8GMMwJLOra/SubLfbu7s7xtfkv/v9nsk14mMcx/yTjz766OrqSmo1IjjdHZIkk9eJL4hhvnovRMMkST7++GNd1+loq9BKWierKEpGw+nNTf8H770/GIxo8C6G8wBHNmvKmB38xIhewmFUgFhYV+yPgTbbjWTjLa9ktzUfnOdlGMZJjDlcChz5ThUPffbsGV0z1CdQ1/XctBzbztN0phuj/sBdrW5vb588eRIKSqZJsmnWu832v/3p1z/+4UcP3vvBfL5Ikizwo3Nw5EhOqsQsy6KNzQcffIC5CJ4/6PWfPHrs2HboB59+8vDhx5/4rheHkbtcSZHEJT4O+/1PP3no+/4Pf/hDTYOjBOin591e33zy0Ue31zdZkkZS2JHaTjKbWf/t63/+9T/9c02bfetb73z44Q99WS9evHj33Xffe++9Xq/H8g4rJ0uRj4V+QHBUzNG2V5pmLMTsdi7LkmHTs3aZumZoU0OkO5KORIshXLQrPQAAIABJREFUzW5xrc/QZ60ZurTNmIyrmXCkskfX8Ahdn41Hk9nMmum6kMcZc44qrNZ1neBIic9kgkIQ1hg4SLbYu7nh7QkiVOQiJ1K3+fnPf/7bguO///u/M4rhObwLiMQnWYoVTNaUZW3bDoWvRVqUeZWnMCGgGjwTY8c8hdVjGqWRn6RRKs2FeZHlWZIO+4PF3I7DsC4wGaQqyk2zSaPUmM7W9a6qNvArQ8dbi468Qew4P8KZ21qtVuJ0EFP5LD4MrT1tUdZJloNjdtXqc3DsvL9QppAR9Q3eNUojEhq3MfVegaPyNeDBSbgk0pHjqCLGbreL45iQoWAdGzpbfPB5Q3QHnchUbkVJTnCsynUUJU+ePKP+jlplwgeJD19PlmWPHj0ajUZFUdi2zZGnfDBBhM+owHE+nz98+HAwGMRxzNcVhiFNMWg0ySZrqu2Wy+UHH3wwGAxevHjx/NnFfL44Hu+yNN9BMn9Q73TTLaLk9fX1YDAoy9LzvI1UsSkVxOupGk0znj69CMPEMMynT58vFssnT549efyUZ6CyLB89enRzczMZT9M0n88XjGAa6XdUbJHyzMFgUFXVcrl8/PjxcDi8uroaDofEYtK06+trNLxCk4TatDpnKM7IneHp06eO4zCNTpnEer0e9gfLxaIuqziMejc3vud/73vfe/78uaZpTLWXeTEZjj7+4UdlXtgmulOiKFmtPIJjmqIakyTJ1dWV4zhhGL777rthiCL1J598AiNbZ/ne976nTaZxGKVxMrjtXTx/kSVpEsWObX/zG9+IgiCJIt/13n3nOwi9PYyFoToVXiS9/rvvvMPY/MMHD2zTInMMw/gb3/imPV+ZM/vy5c1/+S//+3A48n1f07SvfvWrmqY9fvz48vJyJWs+n6/EMRcB+6+Bo7PwCI7L5ZJ6TIKjKcuyMG1G12fSEGjOZmZnVgYWCE4oro5TXUdrn67JQK2ZaQqFBFTOJTE5N835eDTB7BqwRdOcmTqIpImc5lQzZ6am6be3PdjdjicTbEuThKQ+GU/HqE2Px6PJzfXtaDhCg81goMkfanCe0P/7f/+twfHzzz+nokIVChU+qvt5Y+msOAomT/IiKzNcF3mSZ0meRmmeFoWAYxKloRfTEJdF6jzN4L821Rx7IYNZizIvmqoJ3GBhOVUO5ohmQfiMARx34jqlEnMKHHl4sHuk3++/MpKBEwVUO6zDsJsQiUSR8ihwJH0QDoWEXRBEjNooTmxLMRvR+wj+Kb0IWQa52DkyKtJE0PR9X0FGh3otZTy3v82yTKEn/1DRRnaUS98knGWTJFutVv1+/+LiYjQa8f1eXl4ul0tmHuq6/uijj3qyLMu6uLgYj8dSrYYb67e//e3RaET5dNM0aZpeX19TVaNpGl0PkiThrj+ZTEzT5IQGzrmfzWbvvffefD7Hm6rXvhdeXd4EQbRDfyesiElCO2xEpphNJpzxQO6WZdmVLLySohqPpz9474OqWjvO6uLF5fPnF0VRPUFmEyHI5eXl97///aZpHn36uN8bmOb8HBx5PiAB1OSgrOvadd3333//gw8+WCwWT58+nUwmaZrSTi1JMA/Sc4M8Q7ZRgeN5Obuua+Xi0e/3pZSEBz99/NhbrdALleW3V9fuyu33+5RDMilZZFnv5ub502e31zcz3bi4uHQWK452EHMWQKht2z/4wQ+o0v/KV76SpqnjOM+ePbMsy12u/urd71rGbDGfu8vlhw8+ePr4SRSESRRbpvW1r37NW3lhEC7mi2/82TcCP8AlCD/88IfuyvM8/9vffkfX9aXjxFH0tT/5E+GMkDQuHffrX/8ze+7MrcXV1c3v/u7vTycap/FcXFw+ePDhcDj+vd/7g+lUX60804Qu3ZUODjY0IgUq3R+ShIznlr2QiQvER1sWhYoahq3ONMMcTzXdMPWZORPaKBAJ3GNkPbPM4Xg0FUMKY2bNrLkOGLUM05oZKOLM54vhYDwTswrUrC1bYa42NaZT6HUg8x6gDMPLELIeXAb9Yb83GI+nNze9Ee5B+nEoazCAvudnP/u735Y5fv755xBViGQHXQ0NcOrVRcgjJRfsoEI9WnAwjVMxu21/jMMki7Mqr9I481YhTMJhhYth2FVRRn6gT7WVs2wwD7vM06ypGmfuLO3VutqWJQrQVH5Q40IcZOcyE2E0x1YJI8MwXNdl9n2z20PKWMP4lVKeeo0aDkYdyIVMUNFSKYDsz21TWUqWbNoeypVu8YDk8UARCX/DDbbI1/1HFqbA4jy+VsaO+/3+HBz5GAWOfBnCZI9dhQrBJr0VGJddXFxYliVVC0zO+9a3vvXJJ58sFgsWCuhGsdlsaLmY57lt20mSbLfbKIqGw+FCeiFM09xut0mSTKdTwzD4msfjcZZlouQA+Nq2/eGHH+q6Lu8PpkFZVoxHk1b2LjJJ0mciNWck8KTFl8cXTN56cXERBNGzpy+ePH4uk9fyTx8+unhxmeflcDB++fJlVVUPHjx4+fKlGPaUg8HQcZZSl1+TOfLz5w5AmTc7Hf/sz/5sMBg0TcOReFEUvf/++/xAoih59zt/lWUVdPJQODQyIq2uEcS3iPns2TPTNKuqevbsWRzH/LQvLy+Zty2Kot/vU/7y4YcfTqfTPM+RoxNx7suXV/P5Is/LuWX3e4PV0u28qSBKZSTIEvNXv/rVQEYM8iS0cpb9295f/Pk3Xzx7/uknD6MwfPbs2Xxu+36oa7Pv/dX7y6UbR8nV5fWnnz720ROGscl/9d3vs83me9/7PucUvnz58v33359MJp6L1rKZYf7+7//ho0dPvva1P/2Lb/7lw4ePPvnk0+vr22fPXrx48TLwIYr84MGHz569WNhLwzBX4pV73p8GrFy6S8d1V8EcjTfz85yjknCPJ9MR4lqNTTpT3UDtZTIZjke8yO3xYDS6vr2RtprxAAbek5te/7Y/QFdLbzAcjMbj6eXL6yH+ZjLuOl76/eFgMBpIQ06/P7y4uHz58uqGjas3vRu53N72b2/7N9e3vdvBxcVlr9d/+fLlzc0NlOKyer3B3/7tT98COHJEDJU0qA+KyhqibkFMft9lWa9WHl3F0FWNgDqt8gq91XEW+VEWZ7gkeeRHYI5JJtAJcMzTFLsn2GJd5dC2yTm58Fe+vwrqYq3A8TxmpDaFYERWopjaer3m9IXValWWZRgnS9eDN+1232y2mYjA2zkwAo7MuBFwwUwlgIXqWKoBwCaR4NCoggUHPi9fDwe/8DZxhKDQoSL+32w2cRwzuale5/kDGOG+AY4dO0bqj0UhUVzudzuA426Hwo6u68+fP3dd99GjR8Ph0HVd+dFL4mQ8nrzzzne+/e13LGvOKT3iGzbbbnZpmt3e9m174bqedKmv87yQICuQHmGkX4ui+PDDD/M8Z8pyOBzSD3wwgO8O29qGwyHe12aX5+VYYqTNGk1BtKpkbL7b7zdik56XxcXly8vrKzaAP3nyRNd1loYNw1gsFh9//DE7FJM4u7npYWha2fh++OLFi0ePHn33u9/99NNPwzCkUT4H6TCRwg+fLLgo0Ln85MmTH/zgB59++uk3vvGN2WxWFIWmaRcXF3VdX11dPX/+3PO8Tz759OOPHrqrkI1G0tGD3YqtUHxhT58+NQyD2dsgCAjB/AaZyhzLCoLA87zr62va0EKvI2M1O51G/uzZi3auHCx8Mnrg27ZNNfgf/dEfMax2XRextm3HYWSbloTPse/BqCKKYnflzQzr9mY4t+woSizLvry8jkJMP/b98OHDR8+fXTiL5WAw/M53vvPw4cPZbNbv9995553hcPzhBx89eP8Dy7LRazzR3BXiYmlbRsXDMufmDF0uk4n2rW+9MxpN+r2hbTvI90kkTOJmWbYpj7Tt1WxmoVpimsq3UVVUppo+xpxUozcYjqf6RENuEVNeUcQ2mHCcWaYuUkd9ZmiGoRkmOaZmmJo+0zVjNrNEyoOwGmx3vrDMOV8P+aMuG5pOdbZLjqVBEJxRWhgBqUInB/2h9Mrje5p2dZvJRPvpT3/2FsCRhlEKHJE3wRcPgQ6REUO10MUcJjGk3wmCaETTyDDGGXwoojRLsiRM5FdF6MWdOUWapzhxk0IWaZanEEAQHJf2MnDDptxwMLQQWJzfmS8jliluQiVzI4sDW1zXnU6nq9UqSbMSjRqQs5VVEycZGw2l0a0p6zXznHmJqV4ZpiCL4RD17RjshUHvTEVJYbpN3is7hlxgFLkFcY4RDoIXyVfIaF2NDKS4JJdFYssyCHGQGEo5C8u11Gmjn0TUOSxYk+gxvdA0zWQyefDgged5fMbFwun1Bjc3vfl8oU31d9/9q2/95bcfPPjw+fOL73//ByKSnfb7ww8//Gi5dHfbPTQ9GNZw1DTDWSzJ0He7XVEUNLA5Ho+kiqRLURTN53PXdal0kdB+OLcWZVlD2SMFLtbrO4aN80uzgSQgTpPeYNDr9Tg8j76EWZYZhhEEwcuXL/lRs7FEPlL4gZJV5Xl+c3Pz6NGjFy9eiFEYnJKZsuRfqWu+sDzPDcN49913mSKwbfvm5obVhqurq4uLi9XKs+fOcDBhXqgSUYTcRvWF0shHjx71+/0sy549e+a6Lp+RrkJ082ZLiZokDtrow4I7DODs4EvHXhjGT5486/eHrut7ru+6Hg3K+Dksl0unW2yks2ambUK/spjbhqbPIaCG0Nqy7PFYcxwPpV+ZEAhyh4GCKxeb9fGO0KNtsKmG8iBREdqYdSAY6nkBOgtFMc6/klYZtE6yUWe1dGkqjpe6wmYxTabb/nLpioIHI7BlnOyCeUYiY3ttzQ3T0ozZYDSembhtyIwtmjmac4tFbMOcDUYj1KJNQUbDnGrGZKqPRb5jSMpyBEseE+03gpUEx5l49rQVm/G0J+HzeIwCNWUqtJaYwNFnenV5fXWFOVznRe3JRPvJT94Gc+TsDlhCSAcoUw/84umv44Hi+Ut7mYRJ6IeRH3lLz1v53spbOS4ui5W39GhIEXjhYm77rieaUjfwfE8kpqGPHDMErmEorazBbGbZ9jJJ0JnLVtNQ3EqyrDUTVQcGx6oUstjGQPQJggB7sNilUBNXFjXNzdD6AskOr2vKdzgnntlVTrmR0jzi1jNwbAMuioTF6z9B63QHqaLJw2OYvSKaN01DC1U20nGDBHE2pRDX6rr2PKTt2bzM2fONSJTJbppmI00vGzW6ms0b3CzJDpggpPhQlfoiBuz3h9fXtw8efDgeTy3LRkuZOHcQg9BIU9YcDDkeTyfwQdE484QbZyJSysTAH9Yc0jRV8wwwMVU0XkEQnStviFZFWUqXaZmXZZKl8N7o1nw+v76+vri4oIlDKwWE5xC00xhoLgoHfo+pLPaWJEnium7SzcVmAZ3iBLqBsQRh2zZvEF4tyyIoh9jH4F0Sx+nS8WgniqnC2PXSJEkpRMuyrNfrcSNXV1fcPr81noaJoQyl4xgFQOYuibbtdVFvN3vfCy1z3orDMVATOnC+Xwok+e5wLpfWmSxOkiiOggBFatn/cXD4oT13kjjn6G0O8mb3iwgY8baiECVpZTBOSkt2GXd2LTSCUUZn7soniDOliNteaFmI4vFIXl4HR2eBVkWpyUDK09VhcMOA18VcEohWbzDSZ6awQOQZqXCcWa/A8bbfE4dwC7TRMA0TaUfchkMFmONohAkLQmyRiGzBUfgsKe1koqGhe4I8MztqRmi7nmBPnmjDoXhPDNA28zo4Tv/mb37ydpgjxf1UbjOaZlNgnqH7hblFf+VLQF2gFJMWTdmUWVlKZSYJkyzJcJGyte96SRTnEEBmWYIeq6oosyTdNOtN3aBUvdmUJbTijuOqYiK1FIxrGExxB2WuMEkShS9McpG2SPTdtr/guBVPF5GFSwfhGplH0YGjZ4YtMZvNDgYtGVqu0VW93vCpyQFVBo2l6vV6HccyArRBGUcmEKC5UMkGyW33+73rQt1Ne215VXgME6aqILPdbqVegbnYWxFar8Wbsm3f2R3QyIwWxl0QBNwy32anNmfjNsLwnTjsJjDHlS5mMbhVVW+mL/Esm31ZwuSNdHUj3ehM7J5ObXaVPTNMhioFO1MELBlRhnnYH1NUq/fn6YI2xyrfwHoLvX0ulm4so7FCxSJb+0j5r9W0NlApyImnbXZm+MzzTRzH3BlYpucuwW+KsQXZOgVM9NEgWKvWF+TQ67W7CvhFVyXECTKEHTlBwhz/ME3RwaKend8vdz9ujWBKLilnFEi/1aWp0a0U+CHvoQElfR5ZBwcgCtC3aC5F6jiMkih2lzIry3V9H92BlmlHYQrvH+Aghh4T8mJO94wSHwAKr2+SUzkNxHGUJjH+KvDBPRCSU10E1zLfD2A9Be05bsE7ysPEhbnvB7BxBM/1Vit0DUrGeQXdN47N5Xg84URWIae40nXIbPSZYc7nmmH0Bv2ZZbZ6nU7Ko1piTNMcDAZ6t4CqEqTPusUNKtNc5VhBLOa1YRjX19eTMxH4WLy+mdJlHYYmngyrp93667/+67cAjluJvDqn29ZdkaSDnjoEwdCPCpnLShtHqHmkbJ2neRIlmTj04JF5FXh+nkKXQHAskWessiRlcabI4fdXFOXCXi6XXlW25vXcs6nGIMqo5N1mAyalMJGHGbN4cqACKVhO2W73QRDJhCx4yfBCWQ+7a1DUlsZhDguTXhVUyXlgMPhVITDhKQxBl3gR9CFCAbX4SggWvu8fDgeG0oQDYJjM2Doe4afL8m4QBGvpFxTkQi/Kfn/EmARM+TryQnDkZgmvKmUpG2nBkZa9amtdvrL9NPiBwKUcJwCiHMY5CC5D+MmXp7pl8jzni6TaUQnCgey7w2F/PB5ORV4e9pjmyvVK8yTgWK9hKgLVtdhqqI9RAa76QoFWJcYoNnLKUXJIfp48C6oZ30RYniNJ5dQZlGVuYiXRk7+ibp/j130/Ev/gtkWHWNw+QIJr2rMrZCTTf5Ux2G4JoNQtMu4mM1aFbz6pJEmxY+f5q/GEJODSaJjHMfzNpJwNM55Ali8KbS/wvSBw/dB2VlGSJ3FGNBSe2wqDBGARfU0mkyRJuAUGW+zPIVNGzBdElr0Q/z/cDiMIV5n0DKTVmhZEZJ0rcZ3wPKQCeJtaH8dxBoMBLSRE6YgrwprMYjX1mXF9ewPBIlsGJZoWKTiaaiRRYNLTW5dFcOyAsf1/KvIcBb7nsMi+Gk3T6GpKfBxK2mgigkdNWmiUkGswGHTAiP9//OMfvwVwhCcV2ldh6E3Pu1p6pVVBpi4xMWa5WKnydFXUZY4xCbwhhemiLmuCo+967K8iGmZJGodRkeVUOCLZg1WtkN1wSxRkSqIh9zYeBkrGzAOGKkKFESwFdIfocb/HhTUNz0cvDU16xCUB9jzb3YHdh9uu9MHiEsGRsKXQtisit/AXx4kk2vbkZZiGKCVbQol6JRSBcyPbragBZYD1sVvECEkdtnMTW0Z2OO13x8Oel9NhjxE651sjbeze7H63I7s8bLdoyyEJBcLKGWK/Px4OJ144SYITdfjb7hSCt3Y8Hk8yg5DYzZHTfJHno8Hk9ul0ujseTnleno6fHQ7H+/v747Gd40iSqECcfSYs2qhPUjFf4iMyG5xmsdnJy8PJiXSb3z61RzzTkMGdszkFspQN8UfyTRV/KI5JgY7CPvUwdYNDFxhN8wS86xY+Jmkf4kgf5l6+aFNRFCnQlAwQrgiOeVbCuSdKNM1I01x43Cs/CCQlV0s/xCAX21mFUYYwWWYzkKNQOMnUUxRF0+lUnN/QUMiUVBQlSBpE+Ctcp/l84QRRHMjYLNx4fUFrKQOphSouiYYER9d1HfE3cxyHOQdF6GbSuDKbzSbTKYWNUOpIKUZlG8XPd0H1j2maHCNjiNG3IX0yCmERV1uWYRiDwUCBIxsuCaMM4XVdf/nyJdFwPB73er3Rry0+YCyL3rrT6fSzzz57O+BII0VxxEH+HgkmXksVoi6buqxXjsuwushKGT1YVTkumLSVV7hHlOFFWnirVRonSseTp9loMFw5Tg0dT9VU8NdqwXGxytIWLSntXi6XbK7gISc7J67OK4ndrtv+/woLJFZF452gISesbnZAxt3+SGX4bn9keRo+QAWmzWy3YIKAYHky/C+H8na320hPThwnbBCU3+wPe3BAHvzqmOdQAYWM/G3Lrw6Hu7s7xrD7/Z7O2HxGAuv5tULVKIpUMA5uKdyTAkOpFZ8O++N2s/P98HA47bYnoh7JICEP94Px3WFoBLzUhKKi+a+Ni7lZQjddy7j9lmTKM/IxgMa7u+Pxriyqu9OPj0eMz2XfHjGLJzCeY4gdiinznfKT6QAUhDHLCnLec3BUqEcpu1JlEzf5XGx24rOc7xXnYEeo5fV5vKwwizB3DqDkkudqVu5edIPnkFUFjuoPFRaLn3mqkqo8/ytwlDQOpnKPx1NJByNXniQJUWkh81Vd3/ODaL5YrtyQKtcsRUVU8BHpy1gWq/l0TY4EDkUtFEm6Ey1qyE6G0cycy0zByPNDyfMjDCdC+uIgSXtw5modx+EYLMdxWD4iVRwMBrYNn3DSQIKjBoE2EoBTXZehg7gh2cLW4cySmJzWtjQe13XdkKVumN2azWbn4EiiapqmLkvTNF3Xb25umE8cjUZ9ETO+AY8XFxeDwaDf70+7LuzpdHp/f/8WwPF0umc1g7aGkqBBDIKeVqThQSeLrHQWSzj35FUO9WJZ5AWvC1EykhUWWVHlpbtaIQZJW9hjq4DnwY2Gi3kcy7KXSzfPAI5pmnL6Gj8dlkp5RIkT40EGEOOgErbVSkn4AAyB2QMsBAtOrgeLivMOGWm7PhAxAZQCEDCwEr8v8M3WGQepP5r3bHZbxr7r7SaSfhJ1/BOzVERJqrXdbinlIUC8AY4qrN7tdtT98cA7h0XeJp4ej8c0TbkR3v9F4BiGsWA9cJCfjNrO8RU4yucmAw753k/dOsriO+Iz8s/JK/mkRMb7+/vT6b4Q5ihQiQZEFuLP/4T4lec5W7b54ZznQxhr77Z7erIhssaoyIZApnK1VOCnaUq4JJ3kV8Cn4D2ck8W0I7eg0Ip7GocLEkkZHRMfleEeUYy6d26hO0viVMlvmTUipguJjyyXs5Od93Af5iAwQiRZJL1+ObZztfQIjmHH+NxuBVEo4W+6dH1rvjynjSIagY1FFGG+QhAEHODDH1mqogU9607w5omSmTkPo2QFkx1E2wzez8HRdV3TNAmFFHKS7inaOJvNbm9vCWeWhXq6wrsvAUfxqlBGFRx2CDiVpcsYVRVcm6Y5HA7PmSMRYCrhNnW4BEQC30DWr4PjWAoyDL2JpHd3d28BHO9O98hVi7yRyMikD8+l4k5alEW1WCzp9sjdqytIIr/SxsvSUVAVxUrAUT0MzsMyi4f7K4+E87Ca0bSmaeyWy/OcyjUFjpi5GqcsMgjXI7cDAxKG0oaZ8tPJFf+ec3CEz+3hSGuZrTBH6t7JlKExbDFR8n6SYdseoN3bQr63jRMMvOdx+0aebicUkkhHrfVvBEeiD83B6JzIo46wcn59OrUZvTAMz5HrN4HjaS9zupFS2OE2Auo9Jil20Cx37k6b9b4qa545GIMzalZAzB+LouAbIa7xGdVjjsfj/f2P1uvt8XD/ox/9+HQ6qbzqZrNRGQaWcfI85xvkBtX5g8iIcWBd6zTNfVWgqs5AvEFwVGlowiI3QtBkbV3tV8RrUkjeyZCZt9fr1m2PpWTun7xmQwEf9gY4UpqaZehWymRxLuN+v2+7ZQpkGGXUTBKI0IfxdSKL22dM7XnBeDyVdpQ2HHa7BXoXwxTfC0LLXiagFnmGwcYcXIzwnGEvDca9bhFn6d7PBCWSlUlmmFacZH4YLV1PCi14pnNwXK1WhmE4sgiLtm1zVqJqvmYWj8GvioJb5ogmGV3TjdF4YqBfembNBUFte27b1nxuSPSt6Xqv30MYLms6neqysBG5PZlMyE81TUPHzGKByHpmwtVR06fjsaHpaH8ZDgmXrMD0epi93pc1EOnYdDpFG01Xt5lMJrvd7vMvW//blz3g8/u7zwiOXTsdPBrY/kWKB0/pqnEWK4IjdxHVjvrr4Oi6LuXEHO7e7/f5yXLn68KfeumspFcfk+qqquIIcKbh2QfWgiOqyRj7hWFYEjgTkg6HA8vB4nkDaJAz/dHzw7WowddbMQPf7bcIhU/7Iy67AwimtCpuiqLabaV8IeUQevZIuRiWhbvDnuAYxREhTwWthAxQC9h7AaD3+z2HPvNHpvP4MIWMvEEM2kogLzimsEw9HP15dV130THuV/lB2ciBmYTj4ZTE2el0f9jfd7mFVxshod7vThspWKPt73DH9/ul4Ljb7RRM48kkNXk63csnfHc63R0OB5a8+ab4YJ5TmS7kUxAcVUWFKcj9/lCLQyJr1tKDIEmcpiEmkmnSTFP1lZMqEhOJX6zAKHapzuilLFXR5kQzZWzBvZf5O3WC/w+YI8FRJiZiUlgcQ6hELkn6yR+rqk7TzPcD38OIIcrR6ItRFDDuY5lY14zVqs0VskTuOM5qtYJADo74qReEtgPmyAutxcuyYvzrovYMb1rP83yJjkNZjK8zEQ8lSRIniWboSZb6YbhYOkuptDCE9wWbPc9bLpfkgwRElSVU8TUn1uo6RDfkfZZljWVNJtDf6JoB54jxVMdsHJN9qIsFEo6LpWPO5xNJR/YGAzRGozta9DiCkrpUvdkvNBqhM/oN8tg6UEy16XgykpBZELIdT0jmSLbIJCNL2MPhkBCpadpbAsf7HymVrOyvAMcOwhimwFZ6Pl9QFk5Y5E6Wphi2VBUYgLSuatF7Z77vK9EDreiiKLJtTF8ibZSNQlG8dNyqxPm8qirqSynlm06nSZIQO+AW2E1SVeDIo6479jCcgH0v2y36AuHpLw3XdMDd7o87gOPd/nDCLMMDYBTTbIp6t5Uc3OvguNkj0CY47EIZAAAgAElEQVRWbnZbBY6MsxSl4sujDoY5O8IliZu6nw8jWOz3+6IoyKq4NfVbYhDj3bu7u6ZpFHP8InDc749RlBwPd18Ijij1nLabA97p7nA63rcEU9CWOKo46TlzfAMc7+6Ahsfj3brZHPZ3B5xgdjyDIvm63x/Qbb2HD6ScuIqibJr14XDEDG1Q/d0GNzZSStojuQsLXvS2r5ttXTV0POS+QRBkdpIsW0l5CJ383HjazvOc2niFjGkKeSZPw0RJ7q4U7jDgVbsuzaWyLFvCux7PA3xGPuVVNZ8MMUeyCGbPrOPRFpeDrYW9guLxMTIIoZ1/oArcQdAqbObzBThBEBDOWP0AbGGWauyHURDFS7cb1kT3XLhSgjayxEy3cNu2eU8kGkliPY5FGYcdJfF8YYdx5AW+aJd9T0zFoQ7xPJVntGSWjq7rTDWyGDKX4V8sNzM+pf6G+EWAE/cHgONsZqE52kBdheEwDVBWnmvZc9HUTm56vZEgI3moLosxMpOJzBVy+6PRyDCMmWGMBsNBr397fX19edXHvMve7e0te5+ePHlyeXn54sWLly9fXsh68eIFZf8vZfHHPM+/lBd+OXP87LMfExw79dmb4AhuL/PR1YwX7mo8U6VJUubQvMKzFChZ0AC5kKXOsdTQKimG+Omny6VXFA0fSQ9OZnPIHMkQJVKDiU4nQ0GxmGsniwo+utoQHOlAsUbNGrTxDXBkpULUjg3/Cioa4YkKEBv4QCKbdw6OJD6Kmylc4+FKM21ySeIjX568i5b9HQ7HsqxQ3tnvtyg6w+dcCixHssPj8YQa8vGuqmoWXuS6fU4+4x4Gum0mIU1ziaZfY474k/3x7u6z0wlouNnAHX2z24M+y+VwOB2Pd6CcUtdGAXp/l+cln0uhvwJlQvbpdCKsn+7uxFMdo3w2eCH7w+m+bjYodoktbiQ25igZQWi542vgIPLNeldV+NjjOIVuVPqaqCLkKZm0keBImCP/Ul7fhEhmOSiqZ/6H2MoaCBM1FDNSfMMdD+dy8aSl+p1VDoDjEga91BVJsgVZFBajump1jbk3nSu+AkfmMaV3E+AoyAO/PmKfwuLXwHEJ5SEHyHCAAX6KEkzQxNzMfLFcse4MLtIOsCuCToLDyJ3kkUjHw41RvJhQRGEUOavl0nP9KHQDH+Sx44kKBxUUYq7hDNbhs9lsPEYHHhFwOp32er2+FECurq54mwh1fX0zwNArGR593RtiJiqKyJMJBhZomjaaTEaTMTqih4NLtED3rq+vb2VxO+PxmOEwZ1ISE6cSaNu2PZ0qO1v6kg3h1SSLr2QAa4l2sUozGMCdorsP/zdN8xbA8Uc/+utW619C5Ki8RSu15KSK4ScVRjsxmlCn3zRBYTpPsxIlGlzUvFBiKHdEnsZJSIuiFDkYdiZ45YsEuCyrPC9qGFNUo9E4TTIR0GDSU1NvMDZgvSXRk7oyRp0QI7ab3VpO+ES61nRW7iTTxAgF1HvvDgdJwx1Om90eExdk7Ba2ujuoC2rcMu6qFVQLaeU9KAcJfBKkFPYRqUlzCKD8lcIyjtgmayuKSpXRNwDH4w7lJYhvjkdUhPk6ORzmeLwTaU4LjuSSAl54I5yt+JvAUWpTiIYFHLc7uJ1vX4GjbBNP1wXjd7sdfCW+CBzV8xIc7+7v98dDvQY7l6k5OAM1MuEHfh/bXRjErbhdwFHq6ch7bmRaBdjZZhdFkNYrcBS/iYK0kZ/hZrOhEREBqCxLdeJhYyUf5nke0VMlbcjXlPiRzYVIneeYe0XAIski4SI4SoGudeqjJTB9T1gcr6qGY+M4HInWUHzNcBQVZVKa5ovFMoElOJSJfF7mN30fg4OjKOEExEgqJKGUZUKpsSRpHiUpmaOzcrMUTTJpmiMex9Rf1JqVwxiRbrFYzATUGAgznmU5ZW7bmmHQfXa+sM05pi0aBjTYtixLOONkMlksFqRsjhSsF7IYbluWxUSeZb2aDmgYhobSCvJk5gzGZaMhbXVM04TNDpftLOaLxUTk4v3RUNN1ghdY4QwxuCHiHk2K0azYqMAczzuZ0htcn061CaxtFTje3t4Oh8OBrH6/zxu3t7cE8Uln+DgcDuu6fgvg+Nc//ps2rBbXibZyLUAJqSPygU1Z1r4fkkLKAGG0J1NnIJljTKMvcpw8i7yMRZPKwIeYqBJAElm3Az3SFGOjs6xARNOVg9hFt1gsY4xkadtIdlsUZGSa3U5pntmGzGtmS/ErGTsFqgIDtA2HFAJDt/CyhiTmcDocT+vtrpR5DRzaJQh13O2P6+2+glM/npeQutnsEqkFsZLNaq/irYQ/MkeKh8/BUaEnQ36RUp+ACJhRhcsXgSO6XyocqES3Fhpf/QdFJDIJMnhWBJKvMcc7oYTkhkzFwuz8DByVvvKcOZYFuSqehsxXYSIznmRSu93u7v7+cDpylOMak2QwoULwEf1IzWYbBFHTbEgYmfFYt22Ru43I6fmpkjlWElaT5VHYyFL1ZrNh0w6BjGVfJjrp0M4TrS9JND6GFZIoighMDHsZOyey2CBIPCLJ4jVNVdjTKZoYlEK4NYFUlEds2/Glk9pdIWHnOI4nw/wkvA3heeMG6N3EANhXYSyLG9IMtrJtx0bJYek4+HOSOKYCl66HmewBwur5AjlHNoBG0iETRzHfFFONq9WKBWvWWPgr4j7fThAGtuP4YeAFgYetYo42I+XlEp3VjK91XSfCEhkJrBwywwTibDYbjUbEMk6+1mWZM9PoWv16vYE0QSNpSPoJ3c8ckxKogrzp3U41rd/vj8djoiGR0RCg1ORXpmmyLGHJAoAaYnwr5mj6VLu9veXfsjGGUMsE6Gg0ur29vby8JHPkA8bj8dsBx5/85G95KDKyYK+VmqEMHU9R5VmhLMtQlskxHwbtsQKREqmUHLBZFBV5PvctRR55QxI0KK3kMgsbEoQUDzyXoDf1mjEXKcZamijiGAOpCdNsjsaPguB0FWozAxVsYrdb9MwB5SsAMS7yI/zGYU5RZyi/13Ga5WUF9ZFcoFMqKxSf+GB545z0JFtA4lVODy2jLmTxfZHdcDYp7y/k5fKhfMHEfdwtjYwp5tri6aCMyhEa4iJvivJ7mZ1SiX44p8ato/LIjmG4YLPBCB00TaIrTj4NceOqmyKvSpk/wfbtME7SrOC7zkvMpKa6uHtHdVliLGrTIP9LQsTnOs8+K0+N9WZdNTW4UIYu4hQ7gryRokxzMUlyVnR5INxkWYFW0iSXfmp5dNXQ0x8d4nEKc2xZCtSYKOToK8aeaqdirpPgRU8213UVTYtkMYlJ94okSTzPY3qHpDISsCC5C8MwjmN35fMrwDke2cOCb5xsVDoUGs/18Q0WGHe53W6ZCSVAlyXmGtZV47kBjwuCdZIkYreDaDlJMmUAwaCbw7Jb/iiC7TjFB7py/ThOpAdRDH4gXURjTJIkoSzf9y0L7dU8MfAGGUkkch9fUo0UlrdpR8Hx+XxORGat2zAMW2Q3RGri+ELqxSSY8/l8PB4TKEkJLemzBnYZJgrU80UP5k8O0Y1pRz7LbDZjffn29pYRMa81TSN5BNUUTGTlmn/LZ8dzmZZtWhi2JTWZ6+trTRY3osJ/Yu5wOGQHIZFxIlOw31pYTRdbnhhpWxB2tpeeF0gOJbFth7PD2b4eYCpuQJM43w/xo+vTqoTN//wuA8mVMDnCb06+ZvQAcAsi7s+JfdyHoH2VxmeiIcdpRmFMvC4FodgcTdChByUBpa4BjgjWBBZRDNigXxDXooWGsG69rZpNXlRJlmPYF6csbLbSZYdGbNUsiBvNJgoTPgWZjoTYTHxttrIoMaE3BAUuqnTABzDeJ4lDdCm6dPBaSdftpKeli6BP9/c/urv7rKoa8rvtFhmBnazjq3XHgDaOUtHo3FHpeTgchd+1skdmV6H4SXMkXvfH/fFuJyE8o3KRAR1Pp89Op8+KvJTaOybMyEbQ8nh3d0e9NwvE9AA/QAV+JwlD8FHJzCKyppK0WW+jMJYcyH6zFqYvbHG7AW0kc4Q2K0pYkKmqRhUuuubL9vNLU8xEjKIIp466JiunTp6fOZ0rs26pAouaGUk+5fs+sT7vlgqoySUlZSRNYuIrSkwkS2UOtK4wV4OnYZl/je7s7syHrBDPkbTz6F5O+78CyiSB1kdZY7B4QoxOYIfRtgza8wVfHtNT3ArTskoHTnDkwXV2WAGL8ZgkXrorZ7WKklgUQlBHLmW1RFUqMzSFXC7RIeM4KJqTES+6Zds255GQ0BEZBdPgECFh9OLm+lZsvUH95rIU62SZmywPaURJKeoiCOdGWIM1DGMymXDj/FvcNmYYtoWLoU0mFxcXTIYqnGXIzyI4OwiRqJTKD5+rLMvPv2x9eUHmb3/yUxnmiXNhWaCvi4UXkhEZ/otvbrFYcgRrjrM9Zg2yeJ0kGWdpkf2hAz8IqM6h2ELljEoIyrHWMmSddiOcJqxy85xbsEHA2U3jw/iETZpknORJeruTFmmkGkWjyMZBKYZvMNNODkK6izMvud+1zYV46npdr7cwnMyLqllz3CuGuJb4ixIz89pOaj6YVjTM1jOoX8siXvDgob8ZqwS8n2KdjSwx0EWc3vo+ABbhWy5zD1E1Ag7ujpwwe3e6Px6BfcD07V78EzE9VTXPHA4otmCe9+GEDCZaX+72e6oaUa1C6kCaEVsElOh7f0BbIQoySFa+6oDstEHHUgxBlCaRQfzpdPrss8/oaSaVJVTbkb6V+VxlWbJyAokPXDOgi9rATRJTsJmz4yfQnSRQBZZ7dmJYeRDa2zDIkJQL52TgjW+3e9pqSIEYew4/Xm5KbZYNMOd5cLJOpi+5v/m+ryKYQhalNnQDyvMcw+PE24lPwu8XCVGZPiRAjFwBuX9drblj8ylauZuE4aS6HQK3/7d1S8HpJEkWC0xnVVUUnhg4pU74dTa3YDVE6CSwssrE2wycCY7MD5D88n4+JopjLwyW7iqMY8TUwjdJz/2uPYajF4iGChwVPpJLOo5DcFRYNpOMoSQlFzYcGO3bm1fMkclKx3EIpmx0mcpiH7TSfjNI59ZYxuFsQj6RjWoR8BEQOTOn48nV1dU59rFkNJEMI4Prq6ursejAiaGaphVF8WXY+Pl/Ahz/9mcMr6hU6CILQAXjX3p+2LYjU9bQopSJ0xTDanp/ZWm+XmOoZlFUKsxRZ1SGOR1iIptWS+wcxxhLDwYhVUvlQM7CNBOFhz1QMgpBNMRgBr6NOHhQTsYBq7qG0STebEQuvt1uWbHhAyAXZwvgDs2C+JOqbtI0Z6UFB+x2WzeYJiOrbaPmb5MEh3pZVlRWkhsyz0iStduhAbEoUE/g3xNH9ns8r4BaWz/Zbvd1xWwB6uAQuRygg2E1BilRKZLwjWw2u65g0qYbj6+v3e6QpQW0NZ3O8QhBJArf3R+2TdZZVpxO9yfZuNSFWv08t7vfoyTEigeV6qxTU1302WefsfeRbyrLMpWCJHzwE9u3jYnAxyRJSHX59vmZ8Po1cNwCHGWoNICPpY8OAQGOcZwyOUBk7H7Vbo9youVymYvwsDxbZPGsX9d1rRpp1EMIkXVd08IyDOM8KxkfyJfeWooocGyaDcPqLrsNfKTmnPl07upKKM7t85rUjy8yyzLLshj7EwETWQRH5JrSfLWETLhllPJb5gRIJHk/ZyiFUtLhFnhN0IcGMgwMywwiNN4EmPCKkvg5Mrqua1kWM6cKIlWUregkFdrmb1iYVO0sVtOJvlhAMqkAUdXBSQypBNJknYOjgcgcfBPVbZE6qsfPLYTVFhAUUnBDQz2HqKeU3vyRgDgcDq+vYek4HA6JmJz28xbA8ac//TsSRs4+hwAwr+qyaap1VdR5WtAVHK1+Um85/+LldllWTV5U0ja9zsvK932eLRkNsY0hzwuQr3rb1OBldb1O4iwMYjlXA1PIBVREw4ohWy+Qv0+yRoqbQuvAPniIyEHY4aNQs8APebRzmyhbiCOOOlyJp7VYIq7XW7Ejal9Ae9jJdljG2W7awYd1XXPmKgkRt0lwIQTwzaon5WsgPrJKThBHKkC6IGnEIwzvSLZ4PJx447A/MdNKjDt+wdrvj3leHg+vRODy1nYKHFX5O0my4+EOikhhjiy5CIziHShw3MnUVoXsChzJE/nIJEkInTwxqE+M4MiKfBiGODvJiaF7QPs/8ZRfKE3bZEArmg4IN6xxoYS13nmuD4NLWFS0S22NO0Dnj9lOUWdoci7RZWaQo8dI9/g1cR9GoVkWs94yMx0FeBFCYIfktykiSqR3wRnR7Ih+xzcWZGxFweSmyocqLRHJLAvlloV5WIks4qYcLHD4Q1opTl3XfwMcWz7YIWYURePxOE3ToNNLcmvqOgjDOE0M8xU4Ms3KejcL37Qy+FJwnEwmSAD+hgVwnFu2NtXn1kItkkdWrvlHlmUNh0PDMKbTqQJHS6BP9d4Mh0PmIvlcljgBwxLYsgxN1yaIl8+xj+HzeNwKj8bj8eUlJqxNxpPpVBuPxpqmpWn6+ZetL2eOP/vZ3yEihhwB1Gxdb+qyWdcbTpfGXGmhkMulSyKpvtFCrbIu5FLVGAmt1BUkU6wzAkFfB8dMqtX0dlWkgIlwXvOg3e1wnAAcJYiWffc3gyMVKuLFAAbF45MHGwlRh4+IAZt6nSQZYVpBc3fstcxRQsW962KQHg8VHttEDUUevwgciT7yLhjzgtChXb2uhLxCX0RwvL//0UlEPHd3n6HKfLxry+WSH7wT34rj2eILOBxOVdnstqfT8UcghojHT0LroGGUH1ttUByn0ueCgF3wERyVHy9R/nQ6sVFaIaYSOd6JApwP5uQZ9sOoE4N8MshSMkm63x/VlFoFLvz0GLOLEAezZwmOmzWmTnJ1rBwphbpaR2EsDoxfCI6bzYYevar6p3gcUY/guFwuGfwSN9n9pZI88P2W6iKlRWSOCtk3G+jY1+tte3putpK8bsGaL1sp0n3f5ythRM2noJqHQqIkSSzLSruVdIvMMU2RfF86KxV08/cKHBk7h2E4m80CmchKGO02kxB2YVOeJJZtB2HYXoQ2+mLGg4YcabNB9GrbDKVJFRfdchbLxcJxFrB0nM9tySXiSoHaDA49M8uydX2mTTFw0LadpbOyLJsXJiV1GZtwe9PDwzRj1tW4lamtrs90fTYcQvttSbXH7JYh5WyiqjKVYAxOhjiRRfJ4fX07HI45OEEwE8ZFn3/Z+nJw/Lu/+78IjmWBbCNKGXlF2lgVtQLH1RJD1iXP+MqurpBF2sgpVxXaZr04jrkLJknS7/dt2/515phnhecFUk5FRonARJQkGHVYBqNWzHHGGNXWjvBc6bbfQ8PNgsbxeOd7sIlVmEjuxk11cS42SHESoBaYC46g0m0EJl7vd0fY/MjiocvDBmCAABaLT8dQjr/tDnIYlwkda0GKDrVV0+yPB1EWSW5QcojU31CYzZyjCquPRzRc8xmPsl6BY9XstsfjAZAqwIeXdBKB9zk4ZmnOyL3jsGhsIadWzJEfgvrcvggc0zRVb1x9QfJ5//8Ax6bZJEm2lW9BksivwLGNZCW24Jwf8aNswag7e7W0rmka5hOVbuw3giO7aBhTq0IKH8kdWCRrCKs7oRieR9V/NhvUkeC6AqnmVqpMCKuJvFI9R6k6y0Saluai2IX+QKWViJW8dhwnSVKOHslSEEbodUT9xqDYlxCYqEcUJR0hRBIf5/M5H8Br/jlKMe1KolAqqF3VlBXtQCbh+LLYc0HvCSIjg2tH1tJZOegDdDWMkVHYiBtkhUwX2rZjgTzO5vMFBnKdXQiOhj6bGWbvtq9pho4yNUbWnF8EMa3JZKpp2q+Doylxt67rjKZVZK2C66H0C47H4xsM8sLd4hM+5eT0L8PG/0TO8ec//3spBkL1QsW1eJQ1ddm0vo2iGuFY3qqs2RrIOKLdA6qmrFDQ4IUG92xpMAzjqazlcnXOHKlTWS7dAlNcJGBWO353Qx17u+0hz2XfpQxboj9pFAGiHeC8AHCk0ltE4K+O/POYWoHjVmxWwxBaZTkkWiq6EQ8FBY5tRThO/mNwJKAwa8brLwLH/R5Vl18Dx8PpdH9/99npeHd/99nd6f5OxNu7LUouwvhOJ+luJjISm4S+nVDU3h5VzhHnCaD26XR6jTkWeXU8nI5tNQaArgBOYvAW4mnGI4DPxOXxdJJOarTcoJNnt9tnWY7ealTYj7wHiVPBbn5f2+1WWUN23yTqMOo24E8syxqpP9OVh7lIPmy9Rui6We9EXQTA4ilTbYQ4zi8lSZJOT9NmFMkZz4khTZ6ULImR9evR9zqTsy9TN4rw8lSHp9tAxF6Ijoc7DMGRG6F/VZYVgR9mKYcUARypPGdMrfDRcRyZwAVHWwyCl3EXBMEkAUoiYSgCI9aLkm6dg6PjOJHIOc8hkvcIPEIKMp8vXBfjbjwv8LtGbM9DQtIVqeNigREIjLUpb1x0y3GgynSc1cywdL0tQ8+ls/Bcz4jIer4YDaeSP5yf4yPBkVSx3xtOp7qhm+ewyNumOUcP4nAE4Pw15khwNAxjJGswGJAt8oYSNg6HGNM6Go4HHFuIaa4YEvd2wLENq18HR+VoK/Pq1myxKtDpmfD0q4S7ChYVOOY5RiNFUdTr9YqiwNueWQocKa8py9pxVsjAMWB+hYVv3tpsdpxyhemrqGPCqJUCFwn3WnBElfZwyjKUUxUt+iJwlLQXRhtzFh2ZCZvGFDjuxaICFR5ULeWQZAdxx0wZnJJ3rtcbGmAz8acyd/IK0a3CaJSJS+IpKxsdDZRiCt+YVKtRspdYVYrD6AU8HhAvq16a0/F+jVmAKON0zBGfwHF/ujvenQ53h93xdDgddpKalID6jUJN9yNCbBpwCTLiFeGyRxcNIZWUcy+TEo7Hu/MiGGzMhYfyM6dTgwJKYqLCtfbHBkSM4Ch+4CxSI4Alc2TNjUWSc3AkICpwlAk/mKZAGqjgT93DXXS1WpFaKipHfCSMyt9KjoWTMATGGU0rlEQiXoSonZKhZY6ESAyPlaAqCCKCIwGR+KhSkKzJLBaLNEk50IZtMHRsTGQRHFerVSqiHMUZyQ2JnmEY0vY0lO4almWIjN1GEsdZYfjqyuOFfdkcruC6rtf5fluW5fs+xpVIBw7CbFmLxXK1dEEMQRth6+3IeqVDRIw9XyyWtu30+2PDMC3Lns2ApCbmF1qGYYp0Z2YYZl+mrQ6H4wmmvown4ylC4OGY41hl9jSmqg7PVr/fVz+NRiP0WF9eDgaD6+vrK1nX19c3sm5vb29ubq6ubq4ub25v+0PpaxyNRovF4i2A49///BdUwL7BHDfNlmlHRDdVIywPElk2/2UZwgdeKKIWQXVZlLUfhIWoqf0wsp1lGEWGYYRhKIwAYISUH3wfMEamKttiCEu9xBSesXkgsZU4jtCKS9hiSeTu7q47GkEbBTtwSDOZhaNXugYFX95EW+70nEvT1U9xZHblZpRKWdTebvd5XrbtH7T5Qb6wXQRHpbmR/kIyLDyACEhwJOjxntZMSFCNiMlrFcnud2KNsd4SkhQ4gmDeI71IKGzBEcLE3wyORMnj/pSlufp8OkAU+CMIijpys0GdoQu38VvmcEHMRYnJYouS4LC9knlG9X2RzmdZxg9IscU3wXG9RSggUiYpzb8Bjq3UtA0Xzpgjz2GKyK/XsJHfyiQDhYwESgIfwdF1XcUTVQZQYZY8po4pj5UYRiQNCEp42kY00ECJkaU56od42e2iIl0ma0MfHkUJReAKFvkCCllsOmRYnUpATfIoIXV6TgyZmIpkMY3I60wk+pS1R1EUBME5PhJYfSwMIJwZpuOsugvsbBdniwlE+gSStbFwrMmaTDRdHHcmE02b6sPhiJRtIv46pGxypzaZaNdXvfEIowGnU3060Ywusch84sywEPAOx1MZOqiGss7nC9BGQdXpFG6PqruRnTazs8VGb8Uf+QLGot3h7cFgdHPdY0w9xQseuq77+ZetL885/vznv2BDRdtMctbJR/UMoLOoPS9gGzxVkLQvwwBfzKZGk0lR1TlKsWs/jDDnTxpRFsuVpuvMmlOrATVvJ9xxFqsix7wtdaI+B0cmfZAKlHQ4MUjUgtI696oGLaGkcBwwxzQXXXR7bIuEsIUzdawSHGk0zdt8DUx9KeZIZWKWl9vdoYZ0HO3EYpfbgiN5lgJH2iZKMP4aOCoayxvEIL7oc3AkjEoBBN4TIv9G/eQEWSGYI4sqijnCJkfmc5HfSc7xBHZ5vLs/3p8OII+nw91xd8zSnL8lMjJyv4P2G9H34YA4nMoYwlwLi9LuTfYKrET0fMozjJGRTxXtmHizCP+RWlWLU8ZYE+Nnzq+SZzV8CHtMs4EDhbSx87SkUrqCSpCjcuohLJTOFrPDPKUxbiUAEf6ISuRoqTj05HlOu0YqyQiaVPDwNv6Qc9lkQJtoS1mEwZidDnkha0uTHH2uonPkrsIzSl2je4pt111bLTifegFAPllhGIppLvqsA+mzYMGZSKeqyY7jMBB2HGfZLbK2xQK5QMa2y+XStttqCevO5HeOg4HUo+FkjoLyYo7ZBUBGdmEvRQFOqmgYBpsRV50CnFuQJxHmiMDZZp7Rtm1Gvmd6bwDcDeotpqYZ5gyc0bLm8HecmZaFebMzYzboDyaT6WQykRILKjm6blAxaZqWacLUh/4XjKNVfE141HVd09BBSGieTCbD0UgSjOPheNwfDlCJGY6vrm6mU30ynk4m2mQy8Tzvy7DxP5Fz/MUv/m8ORRDVN1SH1PRQtMiugKKokHPEyEm6b9K9vR1s3YJjWeclhhoFUZIX8DrAjxiLgLkI5yd2CsqqqlkslqiPS8jKWOkcHJumYUvGutmkoqPsYOsVysnui/CziwRhoCDwxHkAIJV8NONZVl2IxWmaql2chwGJABtvEEBJFwukyOuNWCrsm80ObS3wxTnmdqEAACAASURBVMEiHIgZF8TPMIiECrq9n1ig+COxj43DBA4G1CoJwChbRNeIW6uqAQ4KQikex5CWVFFayNH8o4pR7eeAKvjp7nB3JxB53EMrTh3Pb6KNohgXdFPt4UgbSMEIyCgEvB26IGNk9sJVidEilEK9iB8IQbAoCnVi40dEQqo+kMPhxOlalOszUcvfSlgtyNjAcJPBrDp9EkYpylmv1wRB9lAzCU4+SMm3gifXdZWOmgkfhr0MWkVFmNF0B82sWZkm6Gml+XZCEzB4Rvgiskl8HzYQXJ7nBSgEQzwTow/S83wIbAJZoHCvkzv6eIdYeIz8YYSOljjGn0UR+aMrjqgMomNZfD2qWs0BWwyiz0vbJJtBELiuy+HjfJ3Evu5Vo7eaazabrVYrjrQl1C5QpX5t0XWR6kXCotUtUywkbm5udM0ydOkpNE0FoCSknBKjyTAs0kODGHmWZCQ4qj/kDUvkPlIWN3Rdv729HctCwRoR+XiiTemKNpqgTn11eQ3qOtUnE208Hi+Xy7cAjr/85f+Q3hjsiEwDAR8rZGHyrG37hbR75dFxlo16bI/h5CC2JKN7V1hknGSq+QTVb1wqIiB3buJvWdamORckeu23BB2esamzTTsJGDLiOGbgDMSoh3l3KWRvoQpa70KZrUyfiM4rFM1n9J6i7pdN0DTFY9c9parDIdw0Ly+vb657/T6yyODLyB80Mg8KrgrS0AJCoRbNuOguzpwUEYGywWNX1GbVgqNX+B67GBa0i6cBRt+kaUVREaSY4HvF4ASw8Cuxn+AJg0EuZ0VAPL/dw8octhDbTY3+ImI9u/dUszljhbqG2xyDvi4rh9ZsTlvLcYqDxguCAemiEw6VpWgOxwRqKbzmHAbNAzUIAsm6tCOwVTCY4NFYHNEndQm0D/N+ygDZ6yKUEIyQCW5SMH7vgmvozhIgQ6epNGi1RjgkaIQS3o6iiNOiFVaSaXLPIVaKgV5cna3m9aVSiuxTYOROTMcD12vZQ5qsKGM0pULzyNdAFFYUUjV6K5gDTEppJRR8JRYvl0v+CZFRfT6ES2Ko67qp5CX553wkB29ZlsURMe7ZWgG5Pd7hdWs6nS6lfZBEkrc9MX9cyXIcZzLBgNbVakV8tDuu2moSLev29nY2s2di0iOccXa+WE7RNATOKn5nsZtbYCMNLYLIHNWWTVls074S27TbWzF3lPrLaDIeYMKXPtGQxLx8ecUkwGQCVfnbyTn+j1/+A0MYMqamQQcezthoHm0QJghEAhxpEtFKwcWFQTw+0xyteKzGZHkZCnOsmnUBTMFgaNLGLkGDTA4C9qIyzbmhmyT2c1mu6/LctVwuDcPgcF7bdhaLJdO9lgWSTwsmnsCE9s8t014sltOJPh5P53jM3J4vKK2aiz6Lo8soJZ1Op2xWR/Efn6hG6j6bzSRscR3JNNu2E0cJdto0S9KcvlI4ZUjEpFwSmGlKkiyOU+SPMDcOtqPc3SVbhF09TbM8x7hkpmuzDAcmb/NgoyxU1O/79RrnABGRgFJj8LQYhLEPEmmvbhQ1UqIim2ROkA18RFKwP7nUFXqKGAJTX60yqsRW/lWWFvB/Q6j+KmEqQN/K7Ldkx1ITo4CpY/ogzrxAvVij1syQX563pdKk52SItPhmToOnCoYO6rdki/xMzsFIzq/osJJTeIPOV/iPANzPBT2qXzDLMvaz0keZmFh2i3jYNA0HGaomRcYWXdRc51lZSvCEoAc9XZBYKHCsm6aoakkrVUGUFBUsSgmOBF8F1kmSUMtBmCP1I1AS8qjmMU2Tv5JTCa64R/EaHDVN2RpEDOVpgLdpS/EGOBIWWad2UcPGUh2ECkJVXM9yNnnDdDplQD2XajUrNjxaF7IQERvzmUxoJTga3dJ1nULFqUxKoNLbknkKDNVJDynW4fZ5tPLQVuTRNDHllenFfr9/27u9vL4CYewuwyHUPNMpDv8xImsA+tthjrH0vScQ6GdxJEd4mvsYfBtLjBBFYWzbTiTucq7ri79S6IuDk+dh3q7rB14Qen7oB5HrB2GcYOxZFLte4MnXEEWRJzKCMIS/E+3t7Llj26iUsV7Gr5AKBu4HXVKpAo2VSWwYmZDC6pn7sciA2vw9xerwQGPZvdnAaBpHUbsY3XPP5jGjypoKvuUGEguSWoKmhM3jPBThzgD4wFLGBPC7lhgwFaU6kwSKLOPIl+FWhKG9OCfytrpWoTdrMkdZdV0zpymKGST43gyK9yf2I8pkVwTgfADHTFPYxAC8qddwopSkIas9/JF4ygh6t92nac6WTSKUqkErkF1LIUUaN8GbCXZMCrPPnQQWSVjBSiIyfpTF6IG32Y1OcOTb50eqPlXmHxgyn/+h/DmaRzl/HHsFpIWtMwXRpOO/BUki517xToWG6hskDnIqZFeRg8hRVWMaSBphhes4Kymdb1gF4hvBW9hioFuz3hZlvfJ8iZYA1mx/yLuVJElZlnwxChyJhqy3cJ+nUJzgSLxT2KpQMkkS27b5I5FRicyjKGJxmUpGTkTgkUXs8zzMaSBQappGnkisVCjJ35JsEhzJ6YiMijzyx+l0qk0xvlrXkU8kQzQMxMIKHPv9Pm+TM9pdDpSwq+sooRA0rdcFPSShnGI4kEWPspdXl5JtRNpxOB6Px9Pb2z7DarkGoL8FcPzVr/4RsQlLK3LNXI9yJIPBbVqshDmmCUT8rLUxtGnZpbSFMoxVAgWoyrFBnEXP0+G0pIelRZIlCWYkELBUXpLn5Fc732aHKTdITuKo67xbUDSUu9AuDSok5EjcZQAEEOLIIUos43X3J5jUHgSB7Pdt7xpvvwJHqaWu1+jloB9BU28KkVs2slhAEIIDkXBZ1srdmocW4UMSlOIMtN1TswRtkBj3AqG2qKorMFLgeDgcqqpiFhLqJZH1MLfIXhqRj6OOTOfE8yoNIfK8ArNZb/n41qcHY7Ih01Fkkx9dkmQEUPJBeWuwtVD9iLstJvcqWskHSJYQXXcKvtkbDkPMVlnZFsQ6ndCBsqEggFxfkUcioNomP70wDNWnzU9V9o32dMj9MI4AOgrLSNaAi93iGBmertRuwD2B1+v12vf9N/Y6vjDeyW7OxWJJcORGXiHpfwiOCrwI3IEsoiEhMooiyXsmURQRE9lFQ7xjYK5wkH+S5/lisWBWlNYVidij8c/J+GgAQeaxFANKFm38szWbzQiOvHa7xZjak8WKNlv9iIYKHMnvBBxNy1pIeRqYyFzkdAoxNpkjJ0QRGRU+mpKgJPwxs0lklHuM2YwX/KRp2mAwuLmB4geCnpub65ub/mAwHA05g0HTjF5vMB5NpLYOrLSstwSOKEB3xRYWo2m0w9KbmBvncEIuYOMoiSPkeugJyB0UIJjB77Ysa2leglUPQLbglNfXmJl4VSE8IbwqETgPDLX7yoHDK8yrIwqQhvDoZWFElM+ACRzYe1RmeYTTC0ful9BQKo8Ktuq6Pj/w1JPK0dIee8RWEZ2gwICyqcyG5WviRiW6PGw3iCXF8wLxL3+l+GBL0LoGOwx+Od7RHpz5RGGKuDqdMCH67u6O/Xz39/co10h6UekNSQaVly3mukjR5nS6v7v7DBepQaMMLc2Jh/1xvd6iMC2NiQfhmzh5KCoqN9D254d8VQrFGDtLVyLUQgDHvJLXgzfHz0G+NcTUaoOUav0H4EhWmCQJoYcBNU9OPE/wAzwcDkEQkOIROgmUEJZu9tsNkDqJM9f1GX3zS6yqiunLDhsxuq+UxQdwU6S9RECC4/kTqf2hfYVi1KTAkXsRX/YbzHHpvmKOzBUqsCZyxXG8XC4ZRKdpGobIORIWCZFJkrDBg4BIcGSWQCUZ0zSdz+fqx3ZAq+QumdYkeZxOp47jzOfzlbNcLhzHXrjLVYCYLiB5ZDLxvFyzlBTkAo68q+XSXa28GfSSmOOqitSO4yAhZpgU62iagSYZa2FB0W0a3WIRZjpFkNvv943WRRxtgnPJdJmmuVgsCJFET7JOZCGNiWFohqHRv4cTXHsydHA4HPZ6vdvb28FgMO48yiYTrd8fjkaY/DUeTzXNmM/fhs7xH3/1/5D9sTLIa9zTedkSE5dLlw9rE+FtKLNm5wBz9vzbIIiQrS/gACp23AhS1Clads02P4X8JjxWIXPjIl9owezVf9BFIjbspjNzz2bcd4RMDxeWI1gy7h55lPJuuyHuzTw21uu167p8VTzkSD3kMQjZiIbb7Z5BOuM41sFfva72FtJ5jVjPCoft7t236zwcPh7v0iQ/HaFVVKD5Bjjey2qahiiJfhahYEQfwiLATgSPRVF9ITiy2H04gTkeTvfSuP3/sfbmzY7k13XgfCr/4W8wM+EIy6RpUWK7uXSz2azu6q59e/t7eNiRyB1A7ntiB96r5vg7eOwxpRGtfSFlSTStfRSSQlJ44tyT+PVjUaQcUfoFAoXCw5IAMk+ee++55zLUZc6x2bBN0zwTBFGTrDxsOStFChw3620pU14V1SXM8SzyOTgKn/0Z4MhTJXtMib+sd6v95PD+G+q3FYbyl6JDBElclhXSntBkAJkKJMoocGRYyjdVL8WfXmgvJDtBELD6x91DPZgPY07W90MW3GguqXaexXI5Xy7rBbrmZ4EPk2VJShLyVB2JW+XJimUxMR3JUhnqOI5t26ZLLpGRGUx+CgWmBEcCLukkizk0pKBXY7/fb1ik7biW7ZjWxHH92ewuODqOwwwjYZHXroDjVMBx0B/ZoubhQAUWVQzDourb0E0dMu++gT4aR2Q6UN4MZdFxR9r7MATmx9wlDhDJyJrmFGSaYsfTgCML2cTZdrtNqWO73SZQ9g+LjYMERyGsaFv8n//U+qd1jv/xP/7faHCW8ksjdZS5BVUJ9RbJY1nWjj3hbQWa6Dal3bQ0DxAfxQkc/t6MzWsZ1MKdXl2z5Dev0XUgjhINOL6h/1AYtFljmCdZm7DCpiWDzEUFfZyul2UFkZHk6A1w5FHN3drzPBIHtWG8IXZnzXgUNOeIzFP4IPy45KI2DTdkGh9C+DhOD3wQ96sjXHE9wkeaZIRyBZpvgCMxsaoqEknYL4KXQV7OOVxkiPsd8DFF3zRIp2jFb29ucJF2bNwpGkZIJjeb3e3N69e3nwmQraSNBxEz2SrVkYEf0g1TfTy+n0TWaPKhMxvlUKsVOsfFJbsxHOOzdlKdp5Zzt9s1GIQaP7gqg32Kt/n9036J02gVcvEdd7vdZDJhOExYPGAW6lF0L86yQjQP5WLRDIZjWYZlbuIjUYlJamLfHc6L3CLJJpkjt4FvxJhG3hoyBQ4OkxbDRgLJT7dcYVaEMIHlzPfmS6S5aZVGW3UG1GSCvu8bhkFAjMST3D8spOPFToKejwy3VUknz/MoimbS3xIEAV3LoigiqkZCGzkyO45jy7I8z2PRFvjYmIAZlmF6k6kCR3YQEhxZCGU20JHeQTYR9nrwnqAwm/HyeDw2dFMMwNEyaBhWu91HTQYdMuPRYWmiT+x2u8wS8m48V0ioCrEdBx04vV6v3+8zUynyncFoNNDGQ10f98WLTI3i4qtxmMxAliAmuqqvW51DhXWsafo/hY3/CzrH//Sf/jMnBH0uAsfevqSZNp14AI6iSbwbbtMilwlEqWDINAKMSWjAUdoJQMUOoMN9Eu3MaFCVIobk6RpwJIkgH1THp6DMTmQ6K2ITDz8FPXv0HSPoY0sywJHVW3U0oikYi5EgbyyXS5IF7t+Lw1Kxkngt7hfzdZbCQYD3390qvo7ABwTn6/WWB4+wyx974CFKRf1ku7kJg1jUl+Cb7AonOO7vrJubm7IseQdpMt9OPizMbm9uXt/efqbaJfkKDMmJrXw85UT8Qm6kwUa4z6FEQtSUeYe77T4Qs2shlc323wVHio1Yi+C3QVkSayYUSyn1EjWqr1+/biYKzJd3wZGFY9/3+eVjLo18XuXgTXC8vb1V9rGESHIoNl+TxOV5aZq2ssslqC0Wi7uRNXNzZQkAvfs7Ek95Pwemq7QmX0cV/aSfGiMwV0tMfCNzlHw39u3Veg3F1AKw6UwmEMLJYuycy2L7CrFsNBpF0t+iBD2Ex0BWHMd0FCeAMllPhoiJDrMZMXQ8HgdBwNfh06mj4iMpXWQtxbIsUwcs2qblWLY3nfmexyfS1XEmvYMs4LiyHFFruM7UcSaD/tAwEAhz/irxkWoQ8QC3NE1vXXVGQ3041ET3oem6PhgMhkPYSbDEfH19PZT4WpMspGQVmytmM5mg5GNAPEcotAyG/RFkOpg+2O12T05OLmUdHx+fnZ2J6u78splr2L5udc7OLlot3Gi3u+12958BHP+f//xfRPcvs1bEevZgWgctLkJp6X5x3CnGj+RFKv5OBYatNE9hmbiZ5VJUvh9SEcnImsOLWb5QtUien2kSzts8HMnsiJIKYGjfwjiXzJFwc4CnpozLQLXIK0LVaomCgOAmeocV5jJyJzjyaDkAI/7lwSMoDlK4mK9zJFKbNh6iO7FeIT6ryavVBuMBpASktpw3+O7CFver1S6OYCDGCL1JCMjnYc6RbPH29raqqtvb25ubG4XpwlL50ff7/e1raSVMwEObdQdd0fFCXixPR4Zuv7/9znf+wxp1IXEi4hag7Qbnle1mN516rHqp7Sc4Kl8Joon6ljabTVWh155fIL9hforFYrHb7V6/fr1YYC5NWVTLBZKSqCZtgftFUdAPgr81wZEiR/4EfGt2GbPOW9c1s2xQzpY1gmvxdXecCd5CXHAIJey55qsxqqV5j/qhuan8OERkkjtG5UrDcIdLrub1sjHCwJvOFQozsZAVmJxZ1tXUm6FZRoYdhrKYeWSOj/xuOIShFpGRuOZ5ni+Kcd/3CY6kmQpeie9sjmaGkWJGYhxflsE1X5nJROYcp9Opro3pqu1Y1kyYI2Ha933bBkt0pH+GkCr/nRiGNRH7iXa7OxoB7zjGmvg1kGbBbrd/fd3pdHqiQexeX3euMcwV6+rqipGvtEWfvXjx4lr+xvubB8n4wF6v1+l0Wq3W1dUVr9u4/6p1fdnuXPf7vbb0WbdarRcvXvCJl5eXjKwZVXe7XeQe+8Pr644AsqaNxpo2/od/+If/+TPXPx1W/5f/8l3GuQrseEP0XFD/FmVd1nNnMs3yElOoWGk5DLfig9k+JRUYMEfqaQ6SmmafJIkgWeDxCSu9PP9HwfFuRxoTf0odciBi4INCMRCs8bLZ7IqiamJbafOQ0BX9G0QWFRKu12tp9wYaqmNGHfYER+QZ5+sSEmiAI/96N/bny2426MZZLTfhTwHHA9agXWe52CZJzvGBquJ8FxZvbjC25ebmpqqqzz777Pb2lmcUHs+kVGsMlkGbIOkeN4NxLqkl4YwJNTTzrTZ1vTgE43hlujfy1QCpu9vNejeb+azL8zPyr6gIyRmJUEtQIH8kOEZRpPQD9AS5ubmp65rzFXhUA1bqBaZpS56U4Mh8Ijd+v9+TFaqeTn7eyQTAR3I6n8+ZpCsKdGIxzRKGsWU5ZI4KsJbLJcvBqhji+yjaqNIf9xwViVNXpN5FgSO/KPndEcWz11uStktmGEge5/N5mmd5VeZlMfVm1RwtYYoVcksooCEkKdJHzXZwcBLjjUgCZOYceZuvQJAljDI2t23bF4sdIiyJZCQL+T/H6ff7JHqjwUAbDLXhSNc027RcB2jImBo07bC64qStaRrakzv9sYaSy+XFVafdodqGMTIKLNfdXrcPZTdK01an09NGYI6DwQg2ZYeyzGiEZpVrmVtNbkjmKEiti923AbtvDavf78u/vBoOQRsHvGZJ5/T0tHNYXVkAZgmkB7Kurq5GsviB/v7v//5nYuP/Qlj93e/+0hvgiGGEnNsnUnC0AM4X7nSW4Pwos/pkSJsCUxV6ExwDP8TsBCnIyMzVz1OKSk5BcJzPIZclOCpSxgObxyQZEXvplsjzIOWnljp62XdMFsaKAadZMam3WgFDGfGRhRFuFOVRw5uIkstmSU1muS0LDDnhRt7hldjeQ8C7YbtxEqeCkms+jAZod0AN0fdmfZNitgFqLGtxWhN9omQNhfgpcCS+3N7eMmI9fBXgg0yn0ktCqgQNxOMscXOj0g7EAiD7AsHgDmlDVLRVXZgWGOv15vb2s932hjU3eFyKJoCfjt+YOqWRW+V5TsRkWx77BfkLMsAn7d3tdiRudNlROUcFjkRVJER3OxK9LIOIlbvHZrPxfZ+1ZgJfURQycgPjfGH+VtazqWdZDrpkZPG57HgRKQy6cWgYLuwSvVjMBhMQyTcXi4U07eTyLnP2dCkjH2wMXNQWZVFWFQbYNmwxy3i+5Evh8VU5nc0Wi8VdYsjWwJlIr4MgmE6n7EshXxuPxywoW5alacAVZvfCMDRE6XK3L4X3EPiGwpFYb5kc1uywmECkPkZyjoipAYu24888pDYFkT3PY0GGWKn4o9SdkVXECATDlsjaMAyD0Kbrer8/7Im/Do3Irq87mqZrozHhkmrHsYDeaDRifXkoOvChBNfjkUYySz5r6njlXg+Wt4c1Ys4R1xqe1O/3z87OuofFygxfrS9DXweDweXlJd9lJOvv/u7v3hYcf+mXfpmDEFhRYYmZ1WGCJi0kJjOP4z3zQswmoN2BWw/b5hBT503PDCdckzbKKzQxiGoqULtUIYv7PRGJ9Ifwtzms9WpTFpj3LLXgzU8DR6rqWK0mOBIuFTiS+/A4Z1jNbuK7G8Ztk435qeB4QE/8C6iScgdE1KITpKka/6QCUsFx0WlvbtO0QIC5v/1JcCSCM7JmtfouOBLT8ZriOXR78xnMfcWLl4xYnQD4vuR3gq3Ib7JN+/b2s7vRMS0nXr/+bL+/sSwny3JRTSHuPhBzyBL5GxFViwJNPtROKh2rwlP+OlWFkTs3NzcsjBAc5cSGRAfMhjFrSIhqvZC8xJosT6Xz1rIYV9b1qpb5BEVRClZiPmpdzeMo8bxgCo96LBK9ssSIN2kjgSY3ifMsLX0vaHbUck73XKZ0DlrCPI4S9iYkcRpHTNxhWGAQNKoXhrRJklRVFcexdFJBkcMgl8SQyTtKC6mgZpe0Jw15TBfOZjNKr8MwVDNpwzBksYU67XfffdeXxVJJHMej0YjEkOH5bDYjhvJhCuk8z1Mb7Pu+mi/oWMg28uLazsSdMHE5nU41TSNMszDCgoxhWJbpNOBo2v3+ANBoGJ1OZzSCvIbVak5nNU2M2dKgAG/EPdroAHHyLxvSBjIxlScAYqIlU7SYDGWPoP75An/FBBm5HmkjTdOurq764sRDnji8szRNI7scAZ7JRLW//du//WcAR3BAnooljUhMVNfsmJ75AcERwbWIHGEyIUmfptewhOQ7TbGfUdNzeAVUA9VSSMQzM4MddUiQy7wBjhtxYWCK7GcwR1ZC87wksaJaZY3BTw1z5AFMB4rVasWOMebgGUn9BHOEnq4s52Jjfgc2BRNXsoReQQIJ44m8pFEN8ZfgIggvSm/R02w3e24hQuPtnnMRyPj2+/1yuZQg90b43fJm//o73/kP0haNEwM9vij83m52n332f202yGDSMxzyowU8cgQ6QbHZBgpgWq7ZQXh7+5mAI3o8lofFoH69Xk+nU8Wk+LWQ9rIkzV+QzemcjIbhARgEBCzhE1VFWP2sxKkID0EXNtWvaQrZrOtOozAWFS0CZ13XFb0KZbGYm+e578eBH/miz/OxgihKoiiJ49T3Q8tq5vmFYciShW3bAmsYLhVFWZoWLvKS8EmhKkMRTP7uGHBYVKnM0RTrgAZqGemT55ZlaZpmWZZMI8RxrIIeElXVp0iqSLzjx6fIhtFxEASapk2n008++YRxMTebLWRUa3/pS18aj8eE3UePHhmG8eDBg9lsRuBLZMSr67r01OH98nmB4wH8LOQ7CgLmEIGkhulY9mwycW3Hseyz0zP1SF3XXddVjYOcROgevM5YmRkMhpaswWDwcz/3cwikpUhtmshYmobdvu6MMAXBHI8NuaBPhjyXEm4V/I5kGWMMz+K1zIqxdF2/vr5mIVsQFSJHgqPgI4rgChz7shB49yX3SW4pasqBCIbG47Gu63/zN3/ztuD4y7/8/7KWwl40FSwr6lfW87ys3Onsc3AUNzqW8FC0OUyj5xB3GRoHNbgaplpVNQafixceax6LBXQ84iyQyRQRqV+LLzcPdUbQChA5oZDergiWN/vNupE3otDBgFFMvfK8vNPVu5Y6QJOdXBNZZazCdrOnEzhJjcSSTRldpdtJlKDzSDCLUS6gUCrEJtpKOR7KTXpesBxMKCXaivgD6LZebVcyLEy9HQWSK1lkfwjZBM7KsmZDC5s7afRA2Tw7GuUbrmdTP03zg6F0nia5NHfDFUJoRBRHSZHDahDUSWT5RVHyiGKXLsU08/ncsixmygTJ0M+rGBk5PmECbC7B1IqqmrNBgNmSpSzGyEVRsKJy4OlraTpsvM0xqDIvWf+ROhtYIr9tfr3k+Cw64081JreIyAGV4qr6/KxcVfMoStgmyBR2kiSNgEa+ljyvyxJupMwUMTBSJzoyYqaA1CxMScmi4kyVj6ZpjuNomhYEwWAwoJmT6smp65oFliRJjo6OFH55nvfxxx+/fPlSDBzRaM9vNQzD8Xjsed4XvvCFy8tLfuF3E5RBELz//vuXl5cEzfPz83a7fXJywl+Hn47nADJQnCsOi69DfKQDkOM4vu97U3h/d9vti7Nzbzr74JvfHI1GAqE+wXEymVAKTpRU4Oi6TcGa4GgYxgcffHB0dGTbaPxFzVrAcdAf/rjLN2imKYvgyJTi6LB+EhxN0/wZ4KjrIIMseYNSSkpBOyxSxfF43G63RyNwTBLQv/7rv35bcPyVX/kefRsPxz9RANfSsbooa9iNzLwgyfIkK2JYqxRxlHA/ax4mc1OBd3IcYpyb5CVRsK4WbIvGSRtBDQ4qVHUX8PiS9kEIKmFCI3PfqTthbZpi7CWIz1yedZkMUAAAIABJREFUiyce9m8UEBFeicCMZhZ1tcjSxkgNTAGXkupZysRYlEzgDZE7ziQVtwiwEi/wZugGD4Io8JtzbxRFEsUEgR/HEcbC+T4mw5EUEFmg08hycaYpAj/imJ00TVlGOFyjmyhNEbHW9SIMY1XsajZbisREUjBNafUpy3q/v13MEd2TFeJUISE8y76Iyul8LunL9RrjFpjKxLPE+oFPYUWLpxDh10jwMZHKJkWhtxsK64qiWK/Ro8mUpZIxrWSVZRnHCX28scNAt4K0CZFxJXnY7XYbxzFvM4RnPmQFVotk63a7j2XMHn47saxjsY74QkZGcscuGg6tpOmDoBKaC5qzclkHQcScI5GOOiGgueyEZTGvygU85w+7Cs9ezHs0Zy9kxVdxDGd4ueDN6YF2cnIykzTi0dFRnudnZ2e0myPoLxaL09NT2t13Oh3a/0wmCFp9H7ij6/qjR49SWbGsKIoMw/B9/5133nn69CnBLhWnEsp9PM+7f//+J598wmdJDAunFaq+uWuxXDMcDu8iYyBLODfene7fjuPAUMc0Z5OpMda/+u/fNXXjG1//xvX1NXk6wdEV40imAoQ8Ni65CMdNu9vtERxpsfOv/tW/0jTdcTBAhuB41wBcMUclaSRgtdtt1mQYmOtjmD7CzVGWbhqt9jWiaG2EgaxjFJxRc9bHmjBJ+t2SMw4GA9JGTaSUhMvxGIrITge1I7yCPv6rv/qrtwXH7/3K99ADk+IAxiXFYQwCkubkBWlWhHFqu1M/jIIo9oMwCKIZRpjh3MZ4hzdoJzGbehLfpJxfEYbxDMqqQMKiKAxj3w8ZFvl+iNgqSvD0IEql1ZoxDuD10NRIYsuoh2gintvgKLzweBMg2Iq1OFqtZQDqVnwWeFyvGOcKKwHcUNYnDY6NJokCzBpOQvCVIDpAQZIUSP+L2woDMcaYh4fNkRWV3mpqxXm/oiekh8SppRyEtGJcwAQdm0oc4eEq9Ba1Gvg5yngcPEC65RqJkqg4+WFXdItopOlSNJf258FgBB3Soc9Hcnz1huiJyv6OGTciF7keEY0Txg+IhtkvTHQ23+AK41wEvMD0CW2C+HCE46dglYzgyDvlc+Fj0i53t4XekzlHghFHoc7nc8dxvv71r0dRRKhdLpeUH1blopJz6mKxFNRGppt9AWxMUuBISCWy8wxUV8u6hmeEOqey4sRvm1tIIUQUxtwB5nMUuKqqGg6HhmHwNV++fJkkieu6rFDRG5g5uMFgMJ1Onz17xqAb8qMsi5ME409N86p1RQSMJLnABpgkSd5555333nvvcB5NswzDE4h6R0dH77zzjrJ9olKS5/gUDWp5lmWcQegdXMh4NBKUI1kgjJ5nGAZTirz+4IMPHj9+/KUvfWkwGExk6brOWH4ymTDFqYCSvSumaZ6enrLqzfaYL3zhC1dXV5YFa1vJTrrjsTEaasg5IiEJxEOXiyx1g94TLJgI3OGKqUxE06bR7nZGYwFHfQxMlEsDkQc9uQJHAuJQyjs6RiFi9CsRE/aDArJ/+f/95duC46/8yvfiOI3CWBJA8N0CJjY+fdjr0gyOZJOZFyVpmsOxLpFL0z9z6DJk/wxIpThTSImm4Y/wBBRqyafQRTzPS0LkYs7h0ehoFgUeJgLyIqK8xlynKCrWZIgLiKxFer3dHNxoJL4uhYGKfTRcKoSHrjmtsDkSgI6I8hBWyzEm9AcFekUcCAo8QjAMJ0xpJcn4kch4R7+CV5vPl2zrlk/RkCm8MTKgkIgTxzHIIcnQ973cLBcrqo6ov2FtBHiJgVYY/EJAgXwaF5Fz0oWbH1x6CukW0dTxpREwy4peb0DFIgk4+3yodhKJJVDv7uJ2Ki5cVdX5+TnJ0V0QIaOMY0xMJY7wZ5rPoSTg2m62u+1OgeNauCR+iDXAUWovAMrlch0EETIzciFzHI1GH3/8sa7rh3zFMsvgSyJzCEDlxHMbTrqqM2e5XLbbbWY8mxiZuQCJenhPVVWz2YxwxpQIz1tqf1jDbHzlOhMFjtyAjz76iIX4qpp3u/0giHTdFO84aL+Xy6VhGL1eL45jFgQot/Q8L0riKIn9MPjae99ota+nU0xbpV/Ow4cPv/3tb19fX3/wwQfvvfcecTMv4iyL0zQuCszgfvr06XvvvUd2T2QEES7od4d0B718LMvyD4sDV4MgIMYxpu73+8Q+Fq8dx+l2u+++++4Xv/hFdha6rouq8GDw5S9/+Z133iHKEyJp4Pjq1SvTNP/lv/yXLKPbtq1p2tOnTx88eCD+fpBDWqZr6BZyjjJDhuBIMGWEyy/n/Px8dFjaYQm3xtXY0Lv9HsFxhNIO7hkbuqQeNW2sjURPrsBRMcehhNiKnDYOF0Bb8y/+8q3B8b/+118lZklWC/2CAK+8uZHnZZxmcZpZjqvAkWYTzK/X9HyE+w6eyFGTLAWwK5GNNLC0kWZEiXbLsaYfHZ28eP5yMBiZpo1hCUJzFPxJ3A3NCvdXtnUzZ6fAkeVp5XHNiFKsxVFBBi404Ljh2V4dDKzV8ODEoYfgbtlcAJeN9ogECgZ8cX4QxoPs3V3L5bIoyslktl5vwzBGllCYIKu9rCxhXB9GEaA8vd+/TuJst4XX93azx3g/oXKqF2WxgB6Q8x4QCMtIQmmR3O12e+DmdnsjLwXo3OwwbXG9X692YJcyCDCO406nAzoG/F2vlrvVcguvRjwe6VeCC/FFQeR8PmdpmNXe8XjMMwozkgIFuKJOhfXrO6cH8t+De9B2F/rBermSFvoVhhZuNoxG8UvAsQK/ThLjlFNVc9ed0BRnNBq9evVqOByShK5WK4Ijz1UqzD87O3NdlwqnxWKhaRqZ43wORaoCRKYvyfum0ylPdbyTiC/FNP6YOLfZtqvAkeqc4+NjZj8lol+kSeZJ1ZtmAAT0skQB/eTkJAxDEjrMTRVk9MNgONZeHR8/efqE2ZgPP/yw0+mcnJx861vfev/99999990gCJAAOIBjnsO19+XLl//u3/27u8zxrsqd7D5NU9d1gyBwHGc0Gh0dHXW7XWpxPCmO379//9NPPx2NRpwsqPij67q/+Iu/OBwOZ9IYMx6PyRDb7fZkgh9iIvlHioROT09/4Rd+4V/8i38RhiHdFU3TfP78+Re/+EWp9sxQmzHcsWb0Je0okxIwHYGUcHxQ87CcMjosVbmWCBjFE900eoPBUJjjUNMEFhsWyUB7PB53ZY0OwkwG12Pxs+ALDwaDTqcDQmoaY9P48z//87dljr/2a78utRE47nB09SE5iBI2mWOcZqbtKHBkAK4Si+SMBESmEUkHmq5EkYvDfQ8t2JjPlcTp8dGJbTt5Xngz3zSsbrcHzij4iFbiFQgHCdR6jQOJe+disfK9IE2y5RL0SgR9u/W6scaiMzZyWPUCVtir7WqxXi832/V2u97sNtv1cinYsFrNV5vVJvTC5Xw1L+fLel7mxXa9WS9Xm+WqltkOy/liUc+X80UqLvZMq/H45PGkokgek8vlMooiFbnzrzfir7NrFppD9rvXeVZt1jcwDdsiwuXa7zFsgC16NCgrZejCdrt//foz/gnouN9vMClwzeYfIrIgI5q7oS1frfI8v76+hn05bBy3y8UmyyrMfkFbDigP8YJ5A6IAEZM5x6qqLMsaDAZFURCVyLNU1YVdHDILBdPJhWQ14MhYvtfttVvX6+XKm07zNF0tFsijCkQSHPkw+L/Vy06nd3l51W6367qezWZHR0f9fp/fcNNdc1Dgc7Mty+p2uxcXF4RmFjpYVh6NRi9fvmRXIiFSQT97tBXBVL8d34j72MSdNeAIXgyienp6SvkEDZk2620Sp2VRL5eg3vwmF4vF2dmZ4zhxHD9+/PjTTz99+PChF/gDbeRBHBRHSXxxeWlZVhAEz549C8PQdd3z8/OvfOUrX/3qV2k4VpRJUaRFkcVxxHPbl7/85eZPd3xzuf3UltLSMQiCXq93dnZ27969brdrWdbR0ZHruu12+969e6enp6PRyLZtBs7kj4ZhfPWrX2VnoeM4BEcC4uyw7k5qtSzr/fff73Q6lljpaJr28uXLjz/+WGrWmCFjGihY93oD8D34UJhKBK7AcTgcXl1d8b+kk9TuNLJEbTTURm2ZwqXp44E2Ykw9NnRNyONYR7V6MBiw6n03plbMcSghdiOW1PXRWPvTP/vTtwXH3/iN32AGSim/uGOp7gL4VxeV605ZxyCGMid4CJbh2MjbZYmSCAss9J6QqjdespK2Kvy0cfLy+Ysyh4lzBFlGdHJykqYp+YiqBdO8oEkRzuH1b5r2o0dPHj163Gq1KLE+YAsGUTG0vAuOo/5oWS93m912LXRFhmOtYKKyWi3WE2e6qBZ1US/qeZYkyKIJIC7q+WqxmFfVarGsS1yHYUiaQHBsAkj5R6Bqud1u6SZ9Fxx5BL5+/ZrQJuY6DTiuV5ITkKGmd8GxwQ7JKuZZ0bh/H5Sdt7e3jYdCWav8I0rkc9Rz62q+Wq09KVG/ePEiiuLVatPp9J4/e3VycjFxZ5yCy6OaTJAVahZb5/M5Zdh5np+enh4fH7PpmCMlrq+vz8/PbdsmwXz16hVj8AOjbGyWqmo+cafdTnfYH1RF0e92syQ9fvXq6uqKXxq/Cuoc6DB/enre7yFnV9e17/uffPLJcDgkqHGyBXtmVAr4wYMHjx49Go1GLJ1/+OGHnudxnszDhw952Cj0VzeiKHrx4gUbaZ4+fVqW5W63IykWggyiH8cpzSykTA1wfPnyJTu1VNY4ChP5nhtwXCwWY1k0Nj87O3vy5MmLFy+Gmvbtj+59/OknH31y//zy4t5H93wfGcDHjx8bhjGZTPr9/re+9a133313Op1KSS9GsRMhdZwkyWg0+rf/9t9SAE/cVyE2kVFKO7HrYg6Xpmmffvrpy5cv2+224ziPHj2iNexHH31EUTTpJJHRlvXee+8Nh0NH1j8KjopmslpycnLyr//1v0bxRfRDr169Yu8N6zCmAa14t9tH9WRsyDAZJAG5WDPRdZ1CnKEsRfQ4Vwt9MMNB6/q60+2ONK0nI7Q4JabT63Jm6/U1GhUvLi7YgKjaDVuy2MHNNsR+vy+NNcM/+ZM/eVtw/K3f+i3CoirzUYF4SN3gdMXRrJSMEBYb0x3Rc/CRc7ldlUuMDaCijbKyJtBBVZJvlMbJ44ePVotlHEbD/uD+xx8/f/6cRiNXV1dsg2XQxIpqXc1Zq+l2etetdpLAzG4ymWw2iEtvbxrzLnpk4cA7MMeqqDG7ebNbzRd1Wa1xxgfeVXm1Xqy9qV+XdeiFTx8/fvLo0Ytnz4OZt5YZ1av5IvQDwcq6LktXluJcq1VzbEh+ELPxeMPzvI0s8pGqqiS8XeybhR7H7eamLBbrFaBc4lwJrYVgbrdbAgEC8+X67Ozi+bMX7XZX1w0eosPh8JNPPnn69OnZ6XkmSnKUI8JY04zZLFyvt+3rzvHx8ePHj1+9eoWjcRZ02r15vdJ129AtD/Pd/TzPeRLK8/zZs2ckgMRB5teOjo4Mw/jmN79pGAaP+VarRSsEqlg8z7u4uKDcr/kqILGUWQ7L9cX51aA/8Kez5Xx+fdU6PTrWNWgskiShNB1htaQ7RNtQXlxcWZZN3WWapt/+9rdZHWbky11RhdXz+bwv7RD8LcIwfPjwoWmacRwbhnF+fj4YDBihK1jkDc/znjx5QlL55S9/mfsV30JOe4vlcp2l0Ccx8U1+cHV1FcexIDUs5VHECyIkKw7MMcuyy8tLijp52mha+ny/N+hfXV+/Oj56+vzZdDbLcyDf0dHR/fv3Hz58+I1vfGM8Hn/ta1978gQRd5KGSRIlScSajOM4X/jCF1JZB3AEV8nzwjBM23aiCIx0MplyNPyLFy9I61qt1rNnz1qtlmmaX/nKV87Ozp49e0bQJDckIHZ7Pd0wJrMpVI+ObUlFmw/wPA91GjF/dCx7NBga47FjWf/n//5/jEfaeIQxWrqmDQcjXKRfcIi4V7+4bHV6g6vr9gXGR3e4Wq0WB0zz5Nput1VbdLfbZfNfp9ORQrbW7fZbrTYmwKAxEUsZWKh6C2cQDoew0VWc8e5tWp/phjE29D/+4z9+W3D87d/+bWIWw0MKuNhnysqDMEe48lBGy9QhZYwUuxWyGIMXeR1HKbtQkSjM0HH1RkoojeKPvn3v29/68Fvf/OCb7733/Plzz/P6/f7jx48Hg8H5+Xm/32c+6OrqChabpu0jQEn7vcFYM6qqhn/ndMo8nYSuDT5uNruqrFeL9Xa1XUtMvaiX2/U29INO67rX6aZx0rq8ujy79KZe4IVlVrYuWlVRVkWZRNHJqyPHsuuyytP00YOHRZatFkBV3/c7nQ6DmsVioes6HX0sy3r27FmWwfphsVicnJwocNxsNpPJ5OrqarVavQmO5ZvgSMOuV69ePXv2LM/z1QpypfPzy/3+tiiqp0+fZ1k2Go1OT09phKNp+vNnLxcy4TYM49ZVpypRTTo7O1+tVlTYSUfBtexqo35vFAaxrptPnz47OjpK03SxWJAd8EenGIXqOQbU3Jt5vry6umKYaZpmURSe57VarbMzCIkJPeTsgPvl+urqejFfJFG8qOety6vzk9NlPe90Oq7rSuseGCTLRNRptlrt2cxjYBHH8b179wS+cX4R8SMmUytwzLKMMSPaq6s6juJPPvlkNvN8P7i6aj17+kzTxpIyRrcfyziUpeZ52ev1Xzx/+f777//8z/88yekhn4h+QUyAyEqV2yFEGoY5Go05SbiUeiD9jDkWiSlR2oyrE2dVVZ7nsWmSKu40TVXMFEURFX+u64Zh+OTJE9d1CYKszJAYsneQOnOWX6ggjqLk1avj4VCLwjQMEseeeJ5vmman03n69Onx8fGTJ090XWcV5ejo6KOPPnrw4AFBRIW0hmEMR6M+wE2iV0MfjIamCd8dQ5YkAFFvFj23/uLZ8y/+m3/z77/yjqkb5li3ZeIqp06jxqybpmmPxvp1pzs2LG1soDNQN4hfhC2SR3rT8txG8XZfmqnlkePRaEzD2rGma1pj6qNQT4EjlYykn3wpRtO8zbwkGKuE1T/60Y/+GcCR6r9SrEQqEbjdzW0zRiY4ipCgaR9kG4xcl7KQoCyKeRSl6CwUIhmG8enJGQcGcQfCI/P80/v3oyCcV3UUhGmC6tvJyUm/35/P56yg8Xh4+fJlmqa0Gi1kaPp4bJRl1W63DcNAIVjEe8r5FeBYzRU45mlhGfZ6uRr0+qvFYjQYHr86khmJFfHRm3idVqfM83lVV0UZh9HF6dm8qudVff+jj5IoFre/OgiCs7Mz5uCOj497vd7Lly/H4/HFxYVt269evSJmPXjwgBSS/y3L8uOPPz5sIWovZI7VPwaOs9mMh5lgwfLBg0edTo+5ufEYWPz48ZM4bqyzb/a3V1fX3sxfrzaj4fjhg8eLOXpgWq12URSr1er8/LzX611eXMmvVtU1hqZNJrNXr4673Z5pmnVdj0YjDnQOguDVq+Ml0AGdJJeXV0VR+n7YaXfZNX98dJKleb8/PDk+zfPSdaeW5ZydnpuG1QgMGuYISWa3208gRC/SJHv27MV4PF6tVkEQeJ7HfnlkHmSCBbsMDMM6P8fX6HneyclJp9ORBAuajvjxq7IRUTLWlurH6aA/9P3Q94L33vvmxJ36XuA609OTc56V6RuPNIkoMRfzVZqUURhfXFwdHR0xLmOG5AC70M9CkCBNitQtYM5lXo1GY3Bb06GSP4oSkUmin1IBIoRFshgbBUFAVsH6MjsUKc8mXHqe54qu0Pd9hsbka7PD4oQDNqs4jjOZTIIg4ud98uRZu931/Xg2DTRNd90J2/74ofiUJ0+eTGQ4NQ8lllbABw/DEvCas5ntOraLG5o+5uPZZ416zmQyFfI4dV3LMC002GDeE7tZ0PAnCnAmGZF2tJxuf6CbVm8wHIzGhmlT+83iiaZBqtiTxSrKaDQChIn+hi3bmqZj1EGrbZn2cADOqBYhW5N1fX3N7hciPiF4JMJv3n835/jf//t/f1tw/J3f+R2e2XjNgEKxSCnGIRnlulMoH0UBToj8R8GxqjBjOs/RUkIFj+tO+2JXKRIQsMg8zTqta286q8sylTasuq7ZEpDnOU+t7At+/vy5bduyO0Lus1yuTcMaDpFj1jQtTdPvfOc7wstuCD0KHFGNWa5nk1mWZOvVunV5tVmvizw/OT6pkRytW5etYOZbhnUuaLiQmkwcho8ePCxzFCI++OADz/OYKI2i6PLykpPg7927F4ZhURQXFxenp6dRFD198nS1giHYkyfPqmrOeJl19vff/2AFB51mMeNWVRULFJ+D+2aL3GsQrpfL3XqTxCnAsd1dzOEh2On0VsvNw4ePozAmO1sv1+1WJ4uz5Xx59PJ40Nd2u9ebzU6AKaG65fLyUnDnsixhDZsm6PM7Pjopiqp9De2L4zjtdjvPc/jinV1omh6F8enp+be+9e3hULuQ6Mh1p54XXF62Op2e40x8L4CT1WSGc97pOZWk3CSqo7abveNMrludTrufpvnEhQvDYrEIgkDXdXXmgLZJjIJoMi9W0hjAxDR3kiSklvwOYXcmdSS+1Hw+n828i/PL589fXl22Wq32eGxQzH912RoONcty0gQZ8PqgHsMPXmAmh/g059Pp9OjoiFyYics8x1A2cUup86zAmLk4hfJXxL+hONtHESZWuw4y73GMtmtyvQghbqyuwzBkpoLNgmSFZH9sM4+kiWA6RUQcBEi4s/CCdKOI4HiDOUpatKU4olDGjOP05ORsNNTSpEjiXISJHnu0Pc+zLIvRwIsXLzqdDpHXMIyZDLBzDgsYOZ2Kp4QrVt+zoTZinZr16wZEbbvX6brwvYBpha6NJ7YzcVzHsieOO3GncplBJW45umG2uz3dtDTd0HRTNy3TNIfDIUWOlPUMBoNut8t4meBI+DMa71u0HnbaPRFLjhUyUgOvoPb6+lpVq4m5UDWORqykUzOE+3UMQ/zhD3/4tuD4u7/7u5Us0j/e5q7D2yKrKrxZgL2nrGUSKSbOML0tp0eMx0SUBJl0FUUp2xKKYl5I85ZquWMKaT6fB0EwGo0gIYwiHhLtdpsZ6NPT08FgQHBklz7TPTCphofYMgyjJEnotMwC7q14fO33t5vNrkar2WYJXcvG82BUVVUV8/dVVWmahqprXY9HIyZWvv7Vr45Ho0U9T6I4T7Ojly+Rl6xrlk35nXied35+znrFRx99ZBjGarXyff/TTz9dLBatq9Zs5q9Wm/PzS7qWkfUsF+sPP7znOtMDNu4UOII9SSROvLjd3+RpenVxmcaYIX912bIt5+jo5OGDR4PBiD6Vum4+e/ZC03QcJ1Ey7I82y82yXr549sJ1pus1kpi+H5yfnx8dHbVaLSlY12enFw8fPDF0i97sURhv1lvDMIMgSNP0XBbbAdvtbqvVnk69yWR2fHzqe4HMMcfYQpCm+ZJiQMjOk1w17SBtugbSNRfp7ZE+JbhqQo+1xIguElXmIqQihBZJihxoHa8cG9mX0px3MYAI3YGU9YVhOBOrV5lDb0/cqWXaJydnx8ens5mfJJknvQZRmHBGLvW2gmWwnwjDmC9lWdbl5SWTJAe5D/KJyBfJpLnGn1R2aTYdoFAjatxIGsMkuEIXKXcPIiy5RVmiNVPJtnmYFLL4KQiOtm2H0geNhONhKQxNksT3ffbb2LYtfYfN7KZ+fyg9GkUc4/NOp2CbnGjoeR6GT11eMulMGkotJCceE/umXB46M9zpxJm4YwM6cL6dJ6pyTJBxJ598fN+1ncDzJ44DcARHtV2ZuIA5CrhMTdM2TXusG+1uHwoayzYs27Qd0zRZlVY3KFQkOGoyhMuQRYzTxzCtuL7ucDrNG+BI7NN1nSnFu4kC9UhmBhhxj0VA/od/9EdvC46/93u/p35j3mACSOFjWaJROggi7s1i1whwJO7IU34MHOMoy9KqLBdlsQBKAouwJzEMIeAWRfHo0SPuOgxtoihqy2gIGg7PZjMm+6MIUuHlYpVlUOpJemvDUsxqtbq5uTkgI+xepD18uVxsVxDtwHKC7lKUzrHijAConvuzmakbURC+97Wv9zrdX/zyL/z7X/zKN997P/SDqsAoO7qkMDJiFomf9/Hjx7ZtE90mk0kp5Zr2dSeKktnUC4KI5RmmAu7f/zTLit1hKXBkqV0VcPfb3X67m7qT66urfrdXV/P97rauF2iplMaS1RIf3DTsq6vr61Y79KPVYr1arG92t/7UXy42u93r7Xa/mC99Mfg76Iq2ZVG7rsdZ5KKHh+KnKErbRg2EQjnR0NVlAdIUxyApqvLGHpi77faAZgyMnPNPTJ5I9IqkZ5GXMjetFGoD27q7vYBUGooaYUUwSpJM/PHm6vTJVKOgKlKTG7HPYHKQstOyLJMkjSizlusXz18h2gV+oY+Am6S2mZXx+XydSr3Fsqz33nuPBW5WwOVnxQ7M/nTq29kOwI5+9YJ5Jv3gIKToreTTGWkRaomSTFZwP1e4ybYWlV6k9Ic6JNJDRtxMcFGTQNT7xje+ISOq0TBGta+0sZVhmIxG4+PjE9d1nz9/TqIaRdFgMPjkk08+/PBDpjIcxwnDkNZkvMEeanDG2WzqzXTT+PTBg08//fTFixf0/kHUL6O4To+PO9dtfzqbupNhvz91J7aJWV3edOraE8d2bcuZOFPHQh/haDTWNN2yHFM8KRAzj8eWLFPWaDRqt9umaTKavouPBDiamxErGUQ3uKmDiY4NfaiNeoP+ELofLL4Fo2nkSWXxiSzm/MEf/MHbguP3v/99Ip2CSLaIMYEiKUhY3npeILFGLo5VAEcKbuWE+WPgmMRZEudlsajKZVUupX+rAUfu36zunZ+fSzIFg42QfhfFLxtIeRStD4u+2WmSwXji4LJDR6z9fn8XHHe7m3kNXctG+mdWkCGjOYOHHAU3uGcT37p9AAAgAElEQVS5KvPcn87iMHr3K+/kaZbGiWs7KcoIdSVzPtXeX5YlbXEpahmNRqykS2EBSJtn+YsXr8ZjI4lT6DykQ5xznEUTB8Emt4GnAQqbDxQJRlvzql4tFmWOhMNyDoihv1aWQkRVinie5QtOeZxXizzJ0zhdVIskSqXrHOaGUjRA9MnPS838dgNCzTlcFDzxa1mKopubxDbttUwTkz4W6cuUejpaGDcY5UppemMnzDu3sP8gZ6TknieGeb2sKhiLCMTUmw20SFJdgYSeBRkpnc3TND/0ODY9JwccBHrSQCRD/hroqWycpEsvGQ5G5Hqtq+tIjKBEzA89v2pF51g0ObliiEWeQbDtOI5qBhekXqyWK3qjVFW9Wq3F/WglwxikeI3seT2fL9I0e/LkqZSqIYZn0V+lpLhX53nueZ66k5ut5B/EPs54YdiUyMrzPI7j4+Njz/OY+s+yzLKs2Wz2wQcfjMdjlkwJwfBMS5MoTdzp9NmL55PZ9PT8zPO89M4sQ3LJMAwnkmektNuTRf7YMMTJ5P79+/TLmE6nZ2dnTD7OJHnZbrVOjo5nMrlw0Ou7ttPrdNtXrYkDTJzYE8dyXXvi2vB8HI1QVLFtl/hIWGQN3ZCl63q73War3+iQJeSfSAzvgiPvVz2LumGweaYvoh9IhlB00dXDbOk9J8hyBLau6//tv/23twXHH/zgByyu8Vr9AOpkWJboluFMwSTJhFmkkgfJeWJED4yceKnvSZI8z2oyR4Ijz6KSs4ZZFo9egMJ8HoYhGSWPUiIysZIHkhwtEIEz164OfKbtFPbJi6DfNs9rgWYAusyPhcNClqHpiugGy5YsZwDrz2bf+NrX/ZkXh2ESRXEYIa8To8U1Pix21PJkTv87BOaH5mvBOLQGsbcaOccVmpqFKKOqIG40+EDcYGr3yrJU2Ar3bGD5docLcHS3BebL17OUzms0mKABUXqob25er5eb9WJdF/VqvsqTfF4toQOX/m4mNNmPKPWf3W6LUn6eQwSOTnM0Dq04+oqnJaGx0F0uFquyQAs2dfjL5Ur6AgFurEczwBfLNSLejq07W2zbZrPerFfr7QbZ3lqmp62W6zRFs+l6vd7tdlQXyufdbVbb9XJTl3PR6jdt74vFAnneGp3a2MFEuJ7EBavDc1k8hWdZNplMXr58yXHGYmqJEj8ppzTnrNiis5wv1svVcoEhFhIvy9lIfh4l+WSMwtL83XOGynKSB1C8zV30bjBUliXz0Rwc5vt+lmW6rrO2SXxk2MFwhA0tpmlyp0rEgixN06urK7qicY+1LCsMw3v37lmWRZaqDskojsMkDqLw/PLSchxbBpwmCbx/IlmhLOIgaz5EPZruoOQynbJQ8/HHH/d6vUAWbW+Q7pzNHMu2DPPBJ5/2Op2p6w56fcey+92uxNfu1J1ND/g4cSa25WjogtYdGT4jiUjAI3tvmFW0LIvt1YrxabIgR7FgWaaJ361ii0Q6guBY14dol9Z6wwFbsO9mLUkb+S60nzBNtOj84Ac/eFtw/P3f/33CInN/3PnuwmWeoykQrSmHggwlqcRH+YFh1Ucpovg5ZklSZGmZpmWWVnlWEZv4LHWbvx8N7xgUMLJg5oUPPpBZ1MGjKGE0J6QMZJP7scJHRqB5XhfFHDlHEdPxryL05a4Oaci8rBb1PEfyJrv34be96bQqyuUcfTJ1WS0l50hJE8/YasyT7/uM0DdoU8EiFwbNEfgmdVoulkIsAO+iKUFKQdrmgJI8KxAcD0yKL4bZ2GssBNHzGqO9ycgoWtodFkgcPCmAmHkG7GAGU9f1JElub28JjjeH/pztdl+WteqtVkxWlY/ZiLkS0wrBQdkKaTSU92y612WU4xbd64L1BEjkCtYbddlvthtpVWZMmmWF5wXr9Xq/35umScNK6Vna7da7qqiBksiWgN0vFgtOJeUg6UpM25IYzFEBDXGK++rFxcW9e/cSlDAgaaB/BEIFdC6+CY6h+ErwdZjkUeCoTsxZlvGEwT+pfYyJJgqn1Suoc3yWZefn55fSBkMr3CAImNYkMnIvIn90HCcIguFw2Ov1sOWywDVkFHW/3+ehl2WZaZqz2ezBgwetVisT13FCJB5Q5GEcBVFoT9wgjrwgUFUg5jR5zVoNGSijNP+wyCInkwm1Pvwv6x7ASc+X2rR+cnR8/OrVzJ2MR9rEdqRsjYIMwFEuE3viWq5l2mJwa1imgyAYwTW0QQRHBXOcXq0dFjv/+FdeD2Qpc4rP/yQx9VAbDUbDdreD/hlN41+NwxofWhW73S7/9P3vf/9twfEHP/gBc8MzcdNk0ioIUEeLwigI4KATBtFECpezmR8EqLL5MgmIP6oqYTMFHkdplpV5VmKwEma3Ao+4DmfRcg4/NLQShmEkFs4kl82QP7XXHqgNIp0CVUsqPJqWkflcbG02zeIBps7/G2lZ4/5N7FncWXVdswhAy1uVIuDTVTTEhMNE0tV5nlOpTmhQACGbATiDCTkI4q6BFqFL3CoAnkSXapzpboexX0Q95iIVAhKqGBsipAWRRPbgwAd3TTv5BlO6sqwYj1EITpLEMIwsy1SeQd3Y7W6Qx9xjWLa8uADaYfNk24CzK5GziLFQ8wmY25VOTeqQsDFF/lPBcbfZ7re7rSh1YK8rfZ8TFyWpxWJhWRYp5Ha93W32N9ubMi83q+0WXBWzGcgc2SslU8XRJZkkQH/Gv0QxpDLQkYXyGqd0BUHE8KVhjiviI/InoupfLoQ5CqNvcJZvxx2M0LNer9M0VTuM2gkVa+v1eiy28E/cJNLGs7Ozdrvd6/UoVGScyLfgNnP/Z5Kdym0WiEkFQmF8vu9fXV3x3JnnuSNWjCey+HTFnau6TvMsThPdNIiSYRgqhkFkJBmczWaGYXgi7eahzUINrz3Pe/HiRbfbpTXG8fExNbwzZBXBHAe9/tPHTyaOIwVMRwYt2FME2lNeXMt1TMcWTBwONdt2kf0zIJk0D4vwZZomh6+SOWqHpCFZHuFM07SOmI0PD0vhY+NJMdba3c6QSHyARTQyikiTD+71eoTO3/u933tbcPyDP/hD9irwGrIBen2nOewnsjJNsiiMHWcCt54U1vPcA2iGisIccBDsEpOsy5qmZ7gHQ2fgx8MTL3914I6k80VgQT7YYBHD1TdO2kvQM/E0nCPGFHubBkxIuwiCBEgmtth1y+Ob+zoIW0PKcDerNI1XoFiTMWBROx83iByhKIrLy0vXdaMoYs8px0gRy5p3l7kFdTVny7MCO97YyVJ3km/eBUc+YCcTnwGumDcN4JNRBLi93+9vZDjM4ZGAKhnXBRdC23bYUk19yWcyluvm5ub169cHfER55/b2s/3uVtyMmm3hxssXtV3DIALm4YLvn59vAJ1rzPMibcQ5AF7rUJgKquKRu03TvS6ZAeQHaEqGrrt66TgTPti2baoLdpv9brPfrrbBLFgv1hv4UDSLZfTVaiVsvd5u9oEfsyNFwRbzMHUN/alt28vl0sN0gCgMIoIjYnx0Oi03q/VmtV6ByG84OJeUczQaWZZF4SrFDMwziIqoAWKySxVxV1XV6/Wws4vmX20M65aJGJQxy5QkyenpqcoXcacibWTYFIYhI2giY5qms9mMA1KOjo7iOGbK0rbt2Wx2enrKxkeVx8SNukqyNEpi3TSCKPRDjIW4C46efCNhGNJW8m7O0ZPFkrXruldXV0+fPqWdxOnpKVij503diWNh5oxtWs+ePBmPRtpw5NoOR7xKzRqpRpRlLNc2bdtyTMPq9QaOMxmPYYmDhCBSgrAvsyxrDHWN0ev1mWzUx8gaqprMCPeODcMcj/VOu9uDBcWQPYVDbWTa1gCeP+ZoDHn5Vas9GGmEP5Z3NDEoA6/URn3E3V1NvB1/67d+623B8Q//8A8lzY+sCC7ir0NTCYFLGFIkcTqZzGg1JtdkVBjnJrtLY0DPghpasBM4URMrxXqvmeTLHUVZjhdFJQ2tjRUCm/wZfhLaePjBYmcBnaMgI/NcP3Z4M2gl3DBNTkZAHFSweDgAUaJhKzHxmluldmKCF/NHLJtcXl7OZjNGOnEcExr2B6sI2RTk7KpqLrWLRrKj5N8KFglGfH320im2eEA9/CuJPIDjYr6iPqnBFHkQkFJxQBmWbVsOk5jUQhETb2XdyNrtbmCduxPmiFrK599eg4IHZ0wBx+3hTvUv5iYy4bjZ7MoSOUH1ofARfgIc1yvwaLYkO86E1XnTNPml7bf7/fZmt9l7U585R569VqsVRX8cYoEi0mYfhdl6jQYkReX4BfIXNE1TROZRWVS+FxAct5vtdrXeLFd3wRET0pGSzmnQ0Gq1HMdR/ufktrSSVLU45mT4dmVZUqCeZUihqqSzOo/KDlOVZRVFca/XE6EPTq9yisXOpVLecRxPJtPLS/RNpmmWplmv23Vsu3V59fzZ84nr1uJCMJlMkiTpdDoPHz5M0qys6rwoF8tVXqBazmMHlEW4C783z/NIDy3LchyH5wzTdGezYDbzZ1N0lM5mvu8FTEfCcdIw7t+//+GHH15eXjLHRSR1ZFmW9eLFi6urloHEIELm05Ozy8sWlOnuzLFdqHlgxesSHPGYMcJqXYdukSZmhmHpujkcYDahPjZQuhmi+W8oVhHDISZT93qDXndwfd05P79stdpnFxfnl7icXVy0u52r6+uLq9bVdfuydX1+eXXdQetht9vtyxpgLOuwP0RDY384wL2Dga7r/wzg+Ed/9EN2BLKcAkAsoN1BnRTXNdUbtu0q9x2Wqkn15beHuTd1jov5KvAjYZd4eqP5EEUY929Eo0ioLTBEoaylXtnU/lSgyu4FpudAAxewICP0iCtic/QSOlXHLqNUVjzuamUIkSrlx3M+HV+UaInIyMOA10wmMlt0cXERhmFVVa7rFjIAgKB2ByAEHEsowIVUNX8h5N15GLacvPVngCMnYeEjl3MGwgpDD4DbBMjr9TZJMtt20jTd7/ee52VZ9pPgeLO/LcWrguMYBXzvbhRelcMn8qxcix0GcfHwoJ3KV263e0kmYiz152H+m+CIIL3IPwfHtaRSPc/bbjb73f5md3Ozu91t9lEQo53pkIjYbDb041qtUMmBeGu5SdNCVFkbpnFFEI7sJAsjjuOs17CGhCGjOxVfIhhHUpXJJxKjozApi8o0LNeZFEURBEGr1aKrjeQ8UJTnjA0poGOfVHBM/cZYw2CpOMrWaxSvGgufuTiWiDFohXFDpWO7Y01fLFaptBWNx0br6loOE8zdxqcqijCMHRtmDaizF1XrqhUFQfe6ffTyVb/byxIEZ8wS6rp+//79ME4LGZJcz5d5UTG8o8w+jhKRcEYkj4xvOFmBrtKOPW3AEfjoTaeQOFLQQ4jkqJkgCKgkVdMQWSw+Pj5++fLlaDQej43hUDs/v3z58gjlFzT5jXrdQbfTY/Pf+dlFu93lpdPpkQN22j2AWG/Q7fTb193rVqcNbghUG0qL9Hg8HoApanyRVqvd7w87vV4fvTaaBldHY4yWx/FgqPUGQ6jNgbbgnmOpWSOJgT5GXDR9rOLu3/zN33xb5vjDH/6QqNegIQfCiJwb4ChYmWWF40x+GjhyR0EpEBnGeRjElIs34FjBAOrHUuCi0gB/lJkBNIJW+yKT8TwzE4UpJ+bhTXAkr1Q5Ox7JPxscFTdhoMR6KE/73Dy1kYRmbg/nSZ2dnQVBUNc1/RcICny7A3wAHNnDI/4Xh7t//F8Gzuv1uq5r3laod5c5AnZ2tyiP5JVg1qEovMUN1LJlYjVCbzkCDcOs6zlGJiAlUrx+/Z3Xrz+7vXl9c7hsNtu6ru++F0FWbR2xb7e7ybPiAKBNEUb+22wdH89qMr9Pxvt0qzzguEz4WW3TON2ut6v5ajbxNuKH5E1nm9VabNrw4pv1LsuKJksovyjNdcT5DUbobDdKkozpFIp++Hj+Omw2Bc0MorpezKSfEgUZEYeKiAsBfgOO0vlHASP128PhkLUO+OOtt9JAiQFEcmks0BltkPdFUdK+7npeVFcARL6sgshmXki9GA3HqIyLz+loNE7T3DAsMgmWGcMw7HZ6Jydn19cdwpw2HLUur85OTmeT6fVVK/SDPM9d16WV97179yYzL0H5sMjEfDqR0mjgh5PJzPPgsU/JjitdiY7jXF9fv3z5khMEB33NcSaW5WhaM1p6CMMI2H/RGnYofrHsWWSeEEGxYbDy+/Tp01arNdYM07D1sdlud9lP2Uh20FjosA6j+luGQ81A2tEykQy8wyKlgVrII5ijLovx9Wg4Hg0xBfv6uqONxjDjAT6CDJq2NRqPD13baMXpDxFXcyNZqiYs8no0HrdEM/Trv/7rbwuOP/rRj7gjEgqFLSLcVESSDbauO/1p4EiVLGGUZWX2bxFtRZIyVxwNZ2NR6rL11fMChh5MbzOdRHsbuuTneU51N2b7CS8TIR7qm3eO7c+xRTHHOwm1JkZX+Eg0h605h2sf5iLwSBDmCF5ApV6a5r3egI4Dk8msLCrFvO6Wg6U5BwVM0RJ+Xn5RW0Zs4qbQjY3VCVIwCZb3hweLoF3GGVJmuJEJ12gh39Ec94b3k55Ypo3Jq7ub1XKdZwTH79wFRxpb3EXzu7dlw1io2eVZ+TnGkU7i+vNEAXNz6pvkxr8JjlvkE7Mk2232VVH5iJ1X2/WGTevw1pRXJlOTUjXSlyzfczdgfyFo+GqbpvlPA8flcjmdTuU8B0MdyLyrOSzTJUvAZxEcF3OYRS3QbQ0NAFPMpmm2Wi3JPDaSKSn9AxyZnFGJxSZ2LutOp9e66kyn/nq9RePWwckce5SYCZRlbRhWEEQAxwwt6oIUUO1w+eJdputmp9ObYDCBP53MJo477A9s05q5k267Y+i653k08Z5MJrZtO5Op7U4nM98LwqnXDB3x/dA07clkNnGhyyEyTmTRo2gymeExhjOdeK6MynJstLXgKbKmshxRAnmy+CJU+fB+xMyuizTi2DRN+DaKKNtG1UVqL1B966auAzdhWSYXGDsebCmYhUTri6b3un3BzWaOQoOM4KWgpaPRmP2gUpiGyeNorBmWqZvmWDdlXqHZ6fYVOLKYAyWQaZi2pZumpo9102y10YL9a7/2a28Ljv/jf/wPntZInVTeV1VRZN556TrTPCuLXGJtYZQqam7yL3KqL2E8gS7RQhZfzXXdXq/HKEb0txjhwsasMMA5lovx5mw2S9OUKhPal+FY2uzyDOGVXICMbxzeBEoCYl3XhE7FKHnsqUOa3W8UJ0pKtBka8wY4ynQUzFYcDEYZFDMI3Iq83O0aFHsDHDk6VUI5KVofCizcNoSmNze8/QY4HjCx+Zc5R5ZHeJxTgK34nQxfxFdxe/Napo8t+Cf6hwtz/M7tzWeKOe73e3oXqi/kAGrN+YWZTbhzy+jtnyCPTWGd+M6vkS/Fe2B1jnmQUGIKJdxuwByz7Xq3Ejth5v54vV1vbm8wCGy7AXOE/hytTfjG+P2j3iUTIKjxbMCRBFBGqsnPh8EM3G0k2Yd5hPgpqwUxkbsKkZFfEQBL4ExSQFAmtlqt4RBDR9HtIoMfmnFveZUeFqWIkSzfD2dT/8Xzo5Pjc9FsRB5c4HAJg5gTk9AoNfNty03iLAoR8AZ+mKNciaW6sJMkc5xJHGFGdhTGGB6D8SNpyanwRUGHJNoPw+4szeM0z/IyzYoIStwsiTHOxPdDb+YHPhoruYhxs9lMGgdDzwvGY2s6QVeo605d5Ao/B0fXdYmPnPI6EVWG6sV2XdeRNZ1OkUPUdEe6YiyxObNM2zTQO2hbsLy1bbfb7cuMBIs9haZpW6bj2BOgp4E79bGBOYWY4NoExYY0VqNnRgzQkIJoXQNYJUAesY5jQRY0Niy2J/YGGFfDCrXjNJohS4Zsm7YlfzBb19eapv3qr/7q//yZ63/7mX/FH//4j/+Y4FjJUrffBEd3ylYNYgppZiM8pCKaNehykSao6FEnWNc17cgmE0xAZx0ZO/0S+FhV8yDAxD4uvjWN43moeJ63XC5xIMmYPQWObxQE1DHP2ktVNVqT5tCXuqoqzuDYhiUfxkxTizf/KcyRvWiL+XIymRFPwXMxFJCrSbrJuyCs5mRECfwB31xq2xSabzabsizVf4mIUqQGQZOyEmbIbDa7LM33jfgGGhp+D0QuysLZpAjl9gZjGHa7G/hb3ry+vUVYvcOIhc9uoAK6ZW2BVeM3vj0JsdFFs1ptErisg4RSTsTi+wbV5wbuOVyb9XrFfGV+A8Afj4IkaLNb7/Ikh0ZnuRHfdVSNFTjyQzEPADkqZoGh4YS/kZxrYaiDTptynsRoMaS2IZMZcGJXgcxdkkCun2UZHBFTzIAk1tBbL8/LEPoWSCyiKAmCSB6QBn4YhhiUOp1O4zgWn12ZsFbCNrRAZwOZItq6mPhmiYaxke9FVQUvDwRMB5bAM32RVxyEO3GnPEBoj09wTGSlaSrZvXg29TBEV2AOw7VkNlOR5ZTfKiRlgTuKkzCKYV+VF7Ho6pMkS5LMDyLHnfo+qtJcwWFJqTqUuTf2dBrMcPEcBy5nnDJ4eCDK01TwUPFDiGScTq24ZVmm7fSHI8txbQcGFCCzjqPQ04TThD0YjLTR2JDyC/KA0tKH58ptBtHX19fUe/O/6nosS9M0zr1hGVr9VUrflmHZI03vDUa9PjzW+FeLy7EFfi0pAhlXrdZ4PP5nAMc/+ZM/uQuITMcwf9zAZQGPMtedslpNsxMFjuJKwGnCc/TS5rXIHtGXwqYUvogSRiB6EmPUxRzgKJ38KOSxcJznOV0CeZxQxbbZoCNY9VZTk/MG6JAzKnBU5RdyTHUwE7BISbDjFmAcByE3EllLjJ2rOU8GUZgk2kOOgpKKuZCdDRGNRRVghMA3x3UxrOYb3YUkbgk3uygKgiOv9/s9k4AHQtcEhomM4mraYyh4ZFi9JVMDgFI008xllZoyom+5bLf7mz0gkhJxRVdVRoIbiQ2TLsDGDVuse3kykBE0MPs4CE6BX3d/rMNZDXbIRQ5hA1uzy6z0Jl4WZykmRwmkpVmeZkkUpXFS5JibyoyzgBGYGjRhec4ss5wv8eUtxAFeYgsZNygJwc16u5hjK5HFEO0rG6K5zSzC8Lqu5pTlMwPIhKNgHOwg5V0kzXOornA6KytOJAdNVloaGMusrIo6CbPlHKSVkthCFqOoAvs/qiWuPVkt1lVR1+W8LudFVgglLMoMM2KyBB+W4jDG2kr4zS+BCpA0zWdTH7ksSOXQ4kUhEY6sDFwyyQo/jE3b8cOI0brCu0CUyDJtOLZMd+J604nPUgzFOp6HurbvY+a1AkfWZyYS7bNiQwScTCaWM+kNRqYFGQ/cJw7gyBuWZTvORJPhBpbwRGKiLYu3TVliFmUQ10gbeZvgOBqN+mJmzHD7LjiONH0IJmmMxnq722NKVL2CYZqQAtmWYeFy3cEA6+9973s/mxr+08zxT//0TxU4cr9/4xrGE/AvwMmQdW3uCmIrQEzDjtKkKYu5Yo7cvdSJGEeYLBoEzKXDTIbNA5WIUGEYBkFAV9TlEjYKItOBPvkuOBIEFT4qkCImkpetZBGSWLzmPXINzx4clkXFsJo8lwkv+Uh3SpDVHCoQQUnGbsslhCx8d4I48Ys8+q4InGhLFsx35zdAcCSgEx+5nYQtTMUR5hhHqVRycW5ocnP0v5GuZ8EOpLrYoSxOEDLM7+CuKFGk5MLww5VpmklDfFXCKRaLPW2S+oA4AUTeD5nx4G/EswgC1SVm8sBCeLleLVa0Ul/NMY0HvYyrpu7BaglBKgwwp4GXPcrZEGZjnswKZ8e5qFax5XKD3Sb8Mpnp409MK3IMqkF2D5PK2SNIabeUTpbLuXheiHII7dgihuXYbrpOsHJCEke6R/BtPql8XazDFHkpI7+bRm/+fDgx4M/LeTmvizqL8/nBS+XOkYKB7DgupGDt2pN5OS/zSoEjDZWroiyyHPQwzw3DIO1VnWPEWV5TODwV/Zw4p4Ep85FQkpdlmhdRknlBpBuWF8BawveFEoMW4yACPiLejyDlmQaehyRAEESe+O4oiOSN8XgcBI2+h+BIoOS14zi2O6Vjo2k5JoLYhjmi4OI4tu1MJzOEw2ODhRrC1uGvtnFYV1dXNHA83NH8y+qzruusYrPYghyn3TwXFWqJrMeGORihGmMi2m4MetFAaZm6XAzLRKX7nwUc/+zP/gxft+w7d35s3CRoij87rFI5IIEQCeYIc1DEOzyLNmoemSHDVlPez2u2+hMEpaMOe3mWFRiBIv0PDGGo1CNPWSwW9OaRsG5zFxzJyH4SHLdbOPEUBYJWghFBR6FtA88ymBBhdTkXeoj5DXcrQo31Bo46RFQJJHJI5HMctpJS8uBRkRe/RoIObyeyFB0IJcxLkoR51SiKYlmpzHRP2GlUFIJiQkDcKeK1ci7z6aFCJUXCMS+YQjk967nMtSH5uG2CYmQAxTCCm10WsBGTlhvM4eJi5oHDGtfrbZYVfAyvD3mM7Xa9o3Ib3X6LdZVXGwWX4rhOuw2FhqvVJo5TGcQIfMTkMgmrZcYZWrD5yqpf/g1wVCc/ftWLBQzTCMHEu82dHhhovMVPDO8OaospuMw28h7wywW8bGECVANJ3wRHWKvhwhKcgCbY8krIKX7lOS51CSaYJyVQT1x5mnwQWOSCxwJr1lN3pmhjXc7LrKzLCvM5BOEKZALgK5H++FL7SZahVEgTVWQSUgRhCkPBIoU5xknmTmYjTZ+B/6Fp7XNYFEro+2Hgh449s6xJ4CMrqgJwPEGeonSRxEGmIBl3sxF7MhGvMsft9Pq2M6EjmTBCmxGtBNdw6DENC8NEDeQimRNUBRPe0HW91wPp0+7Umu/QQ9wcDoccUEPUJAK6rktwNExbgz1aj+jZIKth/CQ4DofDX/7lX35b5vjnf/7nWZbj9wCfwI9e1XVVVxi10tiDwgqUpsMaR6UAACAASURBVCYsYTNbx9scnU6fZFKVKErwpwJCfkTQsCFA+obcUG7IHNT5spLhMEoSUdcLOPqITwHpQxiG2Nm3kJVB9nHnJI+9eYHE5eeXuZSYizpNUqKbCtPuog/wSvJQ3FeSOA0lKglE5yXn3SaDw/R5GIaOM0GVKcITYU2UqegP5w81QoSNQ4pusPLOfAKPIqWgjGPM7VP/ZXh7AG7Mhl1Je3IYRIS8u6DDPKNidixY8wEsbrC7hk8kxvHVqKKXyYVN9Vm+W8IjhDW77V5MJVj1wrUCyu1qu1ujG3qz2qwW6yIrZTjPfoPhjvDsUTlQot5iAZtetdlraVbZoe16hTGQkM4gRZum+bxGCUWBI78KgiMzpPgaa6jrqVXA5xK0PXRPo0GQQT3Md9GpLVsu5JrTeNR+greTVAnhUvFcCc0B4gsZPi73A2V5LsfvAnCcL6rFsl5mcVEVDSpyx5brJtRg9BAFcV3WDMOroq6KisyxLqvywBwty2Lq6Q3+eAi00ZxGjXcSI6a+C45ZXiRZHsaJF4RjwwohdcQi5BH15BrgOHE9y5r4XuTN3gRH7vO+7zN8VsioYJGZR8dxdMPq9gem7RAc+XhbvHBsG6MTWLNuwFGcwA3pILyLkiSGyuGRoTEDagWR4/G40+koMCUDxbUwR8OyddMajDQ+V9Nww/jHwHGkjb773e++LTj+xV/8BSkhT6rYz6oqL9HcLhBXFjAdKWZTn+lwaZ5BzZp233iWKMAZtsBRGfCBPkKch+VP/F15YoQIVtoTxdw4g9lPgnx5kmRxnEK+74fEsjiOSabKssrSnIbMKc6ieZYit4UuKimR40aJnDo9ENMU9gFkvsR74vKdBmrMpJfOH1gTcsoN5R3kzoQ5DtIpy9Kb+fJZwDjkW2qODcIfX5ZvQRdeBXNkH6zCq9ODOG6hNkUIUHDAZ+G/QqxWKxjJ0D5D4RSZEWsyOGts9uvVNo5T4YNAKNZSWLxWPS24sW4aeATvEOPupJh+6ALckZflealeCqxTqsbAXGn422/3wMflpkgL9Eev0Ua9XaF8hC0ULUEjnTmAY8M9l8BEmQGJsswaPpsAI47TWCJ/iM+sQgFV/2EEUFdojmoSC1QsfG4tAXCERFEaHzG8W3yOm/eFITyGdwP+iMU/BRwJlJU0v0rIj8iaZ2hsHH3K6uVqvirSKksadPxJcMSshfkyS/Iyr8ocOcp/FByzLHMchziojg5GGzxMsJ8n2WQykxtvMse8QFgdRHEQxbqAI6OQnwRH3w+n08C2Jt4s5MHly1KPJJLKuAV3NvOmUxg9EiVdWQ0OOm5/MJLpXqjJOLI+B0cZnMCCtYTCLsNewU0Y5Oi6zgB5MBgIcxyjIZC6bVxboxGki1xklyMZsMXnCoAaQjdNw7AQNI+NsYGGQoxkMO2xAfk3dT90fuwPB9/9pbcGx7/8y78kIUpFWQr9QRwHUeSH6NmUCwQBluVEosUPYDwRhWHse6iF4YaPG1GIgmAE7QLuTBN0YSdw54/58xeyxDKg8X9EC1SUIlkJk9QFtWPLBQqj2CMlqDkwTWTWmMwiaZLa5puprvVqK6iXE48UYyWYUXIkYT5yWCwdEByJiQo9mU9Q//W9gLCrwJGvz6Dv7osr5wIKTe4e8wA9HGVYURSpP6lWGQUNmw0o23q9jaOUmEVwpBsjwYudzrwnjhKFaG+AoxLlrNfbuyp6Fsd3skAdIcTBO0JMKpUfXG8gtyQ+EhyBhvCJgJuOGmEmk8HfBMfVch1Fidi1AQRXi6WajivxdSPMJpTIw34MHMlmJUmCb6wsYfrLE4NC27vMcSUiJODyAvEEmSC+wwM4wi14tcnS4nPmiNELjKYJfQhBmDeXGg6qPfwRcUM6tZdzpB2rvM7xOlhNVRuB0QI1G8xjqCvYPMNhIM9Q8YP6rYAL1LysZH5RgeuyPkh8csmmQODBQIdVlyTNw/j/Z+1NeBzHzmzBf2xgZtp2ZVVWZWZERmjjJor7vm+iFBFpt224F7eNBtqv5+90v+n11eB8h7ypzLLLBXRdCAqGgmJQ4uW559vOV3lBWFR1XiIHSAVkaFZXdZvmZZxk9smNJVqdSwMGop6EqmFlx6JOdjzacZz6fhiJWHqC/eURpyInvmRBBkEUSgkN8ZHBaBq2not4i4+ESjyEKjLEsjj+JLPH2W72tiR+0+KmFhlpIPfWpWRQgtEAO0uSIi3EmI+maRqGQeaorOabjZNl4i1HyYiUwPhRM8z1gZZhO+2w3e8eUYOzvXt//8//7z9/+73jLwdk/uVf/qXIqzwvoWRYSOIVNlHWXtZ1UVV4FJUv3QcRjBPUE8X5lsWFEvaFR4x0UqTC4etn7FJeXyx2TqYejBLcTaATqTz0V7JrsJjJSyySjki8IjtTk4o2kdwtuPGUTcTWrBLXBjgShohByj7iBoOcXYvixVtwJLlTzlYFjmmSLY4CYY7jiKC28mMqfyWVfugPJakkG1oM15cXgv7lcpEikCVVU3J3UO3MyIxAFUD/6emlyEsVe1WYxcj4LTjmfx4cSSHpgyMrJHNUUsEMlAMExTRu237JVRRwZHoQEnquLy/XF1jQQhglTQfb1/kJljVcmYsKJNTXRQiSTU1Z7YerIKsdvhxsL8yRl15Fw7l+ELgVfJ/P57KE+5JXje4CXlySO8Ti53NWFNN8Fs34s3QpxxLLA4qjAziYJNkKjutEWH6emZrDEgY5RznddRbhuON8Hmc0Ou/GEs0SPhkrUMKhOfSz3CZQPlUOepjVDWCxb7tOgvVCIGoyRInSgzt8dDu2XVHVfhihbWtRfgccEfFOs0KBI0ItN+CYS4MagmOSJJZ1RJJmlHwOjtKkjPjonDwWFwo+Uu7Wp8MR6YS2ox2M08lFqqNEq+l2VNFq1/Ft29k8biVS4jLVxrKQOC6GLzq90KwmCBq6tZOywsNe2+81tpy+v7+nQOfDw4N65f3792hzJDXX283+cNBRibjd7w7aFsUylm4i8VulRh5PtmFZ7x8f/tc//4/B8V//9V/BGYsKxWfShKiEPGNT1FXdNmVTV0gjaDwvgD0r7Ye4wWtPCR8WzyhwlKwDxIJXy/oTcFySq/uxrlpKkHLKqmd6oPhMmwYtoiSyuUChtA1QHGFhE2JwSUVdpeIwyji63aBv9LvMkVOcsSmSRzJKCv2qpHdKNLLKkJ4pHnyaJiICbywFdtwgDJEersABHUbmNpLEUSLs6en5AqWblyhJL9dnRCPm5VYnzpJaEi6BoUX1GWFUZvWy8fSBEYnVTIbB/EHEf6ijowhm03TAZYnbqOMTHIGPT8DH63yt8goBmfP1AvHEC1ByRSJ+9mma2ACWKHZZx8KXRbAS6Y1ShiSG8MIc+XYuGPyupFCqJjgyGqPASzltBRxzgCMsbIAj/yGPJhAJ7ZI4Tj8DRxJAWRRBG4dhYmYC36iWWAWOYw/PY5bAK0KPjcJITBiJ+EuPuZYNJz4BR0RjFnBsmo5chPEWiXmCPCr+WDVtVpR+GGdFmeYI25E5Ykv8TUVZJ1lOcEQa+BqNSSQUUxQFo9L0Hh6P9g3wxVEYK+ZIxPT9MBTayEJDz0OyjooFw8FnHg97WLOiGWHu93vDMLai/rDb7R4eHlE9vTu8e3ev6+Z+rx0+HWsBNYItj5KhfbRAA03DwgOtBzE0DVHm7XZL+9pcZc0sC/vIbtbJdgzD2mu6KTUzumkZ1tGwLB1HsnQTdTW6aTxut//0xz9+L3H89i8zx//9v/8/UcxGggC4HnyN4EmSstbVUNaEg0+Bo0QkWqYsEA2FG0KPBBKNTZfnRYlMrrZtO2axqazJdS5KT2GRnpcOBItIFO1oci7CgWJhLCVUU5ZTn5BEHOQ8JjWj8BSPhgQSYXmMk6yWNXKMW+notp68sqRlkkvOCz6ADMkfli9l8XIud4Q6PZ4YwfH2rIhlfH55QV0NGSKVXXjz3+6zfBbk7Txf/hQ4rqb3Eip5BsR9QDqk8D7++jkyIs8RBuYiBi4G+9NFHIoiqANvoORpUhMXrkxxNd6Co3DGZ5JHVr8gOjHO5+EMzTGAHanhcomo66FiU+tpYzesB+I3IJ8FV0X+PBx8XCq4QvCAfMbXJfrqXBplLVzhltd3Pqf55+DIKbF8pZL2n8QpE/slOviRPErpNJRTyBwlVLZwU7qSp2Ga+mkapnmax35KokQhI1GSKhhs7jr06OmaZ0VTI0GYiMk8R5G9go7p0oc6KyUS3TSIiC5RFxZQSKZOlWR5XoA50vnOch1oQou3McnyKEkt++Sh+gXVLCR6KnOb5M627cMetSuaZqgHi1tsSdiGdo5h3d8/mAYaU9G1RytYWcenk6ujItsQ2ogiQ0eaHa5eRWg4nk7uw3s0g5RsnsXoJm08yjAF7DRNE14J7yH/nWhYaLoIAB+Px+12q+s6wPLGEUkD3D6eIPCjm5vdgQpmbJMtMmnIc5RUy6N5PO417Z/++E//U3D8t3/7N8m9qtcr9xEmcBFlEBxJD0kYCYuMulC6RhEu1i0QWShKygmkcglVaIJtEoiYii0Sy0gxiD7coSgKZUx9Bo68I5fbQGSveLMp2sL7gEfGf0edGRqYAPUQO1qSlnielJZiGJqfIs8KJsArnyM/Au9nnqq6jW9PhnEPcsZbcKRrckGKNWVSFcng05E5xp8zR35wxRxfJNm7qhoGQyjn811wBN5dn9tGUnmEX6PA+fq09mb4CI7o+g0zGaGY28fic5SwzPUM5jgrZETEAx46fuf8+NSX5LdEQTmFj7KxgDvabElTSe7DlYMQefs11rW0mpkkHX2CSa5mAncbpynJMjLHcT4jz0d80upknp5e5vnKALqkrC7pE59MCQgwDxGAD5kVHJScADgO52k4D90wdmOW5HS5KNpIm4MZQsMwd92YJJm6XzDHpC6QlTAVmCDc8WFAgZw4Rrk0WhcwOhxFURDGfhihIsUP/TBigbPCI8+H4oQfYjfTsl0/IDiSJzJjMZBaQBa9WJYFf2IQx3HKx2fMMQgiy7RRYuihc5bvowbmdoh+LbDMQVGgS5VGsssjDGmwuePx9CiaOsLyTA7CoiXyOaZp6rp+d3cnvkhEs49H2zQteWB3Nlnd7XaaaI7xXQRoHocuSMs6brZ7BmRMy5aaa/V3RH7QcUE7/MPvf//t946/zBz//d//HeBY1X3TMuFAoSORUTpqtZ7r08PIJp+UblwC3AO6USuetYaYYUpzDhHdbmcSF2TqlRI0b8HxozkjU5x3As00TlliBO9GckMCDZkjYZQHoWeQ7+Jx5GQki0jAUYzl5fzXKb6ctiK8UYRIPS2yM7z4i0OTp8GEGGZ6K0EzdT63VjNv/svl0jTNLRAo8vgiA+jw/GG+PCVZPl+eJvzHJXK6ei0RGqZz8On6XBY1A9MqbqPwkQAnVEuEbBnqvSAle21ZIx0OVihkYwaWciv+iCC4wCKfr+drmVekjfN0uSAG8tHDu6DVOFZVRc8DcYrf1QqRCzgiYN1ACEddSu7ASAjXm/P5LF4I5Coqp7NCPV7TYRoJjtN8liJpXHC1D9YwMeHLsmZdFq/s7eWm2VSWkj4BTzQGVb6rqirzsszxnCV5VVRREOU5sqlvR5JAJzFDuLJIkjwM4ywrsqxI0zxJshLpNnmZF5U8MvgRq8AP87xAbbVk6lTrWEIuVZPlhR+EOWofMbIs40aSpjFSvJMwjr0g8IIgksHziSI0a1UjihZsJcIm0p8ylpzHNEGsNY7TMIwtyyYrlCZZsKlPMjwZkqnjoH2564vbcUHOj9QSuY3ObrtnmIWuxlvpHRRQ6/qXX37585//XPAU9X+M2DAaA3SU1JzD4cBWXNyBpYQ8GfJQy7I2uz1g8QhkFHDkXyAteTqdYKEb+u//8Idvv3f8ZXD8j//4j65B1r6AI3plqdHKwB/rVlTw0GkLLuSqEWtUknWQUrto2dKjnMlgHgzsBxkMHBMladsSK1ksyNcJZwoZ1X1Cvx6llRWjVLcTb6F5HdM0lWVJm1rRGW6o1ELmTrdtz8ruvodkr2oiyhNbKIOUjRd5yWynxee1YsHlZvC0iXprfsziT3xZhwLHqqoIc2RJChyfZQBYn16m+ZJk+VnAkRCviKpijsS+svwcHImGxEoGvq+XZ1HwRg4gXodMDraWeueP4IiqYQWO6jh/DhzPkt1ynoDdt0PJZX5GKD8Bx8szJddAV9EnElFj7qCgjcxONGjZDnCUfjLgfbxATMBq2j7Ny24Yy7qp0MNxMVFLGU3T5JIslmXIEktl8JV8zcMXhWbk2EK3VMr1uNivTkB4nFR5WJJkvEc4vWlkNDejLBdxaFZ8w1slncaqoihzPDg8z2MuLY0tlcyIgLWk8hQCoAKvCcGRN1e6ZpLEaeKhts/lh1IACqSWkaaptPk++XArLiNJEgFcoDYfUoJ9AnMU8R4atTTS+WwfT74fbjY7x/F8P3RdFMmQOa74iKaspnnUNUM7IC+HRS8K1E6n036/fyd91RXqEfgsyzLWQXapadrr16+JlYRp/hdbBiLae02HlI9DcDxKTiX/F9nlXtP+4ff/8L3Y+AN8jv/5n/8JcU20fYHDGHmq66DQt1T3N67rwymMAA2wkmDBmg0FjpwlnHA0qHkktVBzTitw5Kylk5EmmDLEaGeRFXKHPM8nGed1zN8Z/Mut2L3iXMqhCdIqrndqKUu9BJgjbzOSHZ6GAvSyrAHy4nAEPkqt8WeEiBhd1zWRbmGO3xEPYuBCdNggdbOCo1JsxLuR8ydxmCwv5st1RLHdNM9IhgeaSfsEeN/OF9q/ZVFTlkLFUhDKn6EMRnSjfgS1GpccaQlZ8AQA0yCnOJoqD4dDkAmDknRNuESkGyIRc1XU7IDICkKY2OM8DciRPtP8FBN1CdfKgspEVBI0BvREfbLL0rypuywtKR5RSGSWoEbIYKNBZp7W62CGAOcVEqrGOSvq8Xxpu14yxBf3pVpOOFP4LqIqiSFXbimQhVeJBZSiIrHcBfyHpAJwx0sAmuBIbxLnPCeP8i/VdeP7IT8myQRFd2q03AZ5JDTbti3BlZIOx0+i1Ss4el4g2XILOPKbyZFsl/Hhh4HtnAQJ8ZRlWZJgZw6GZZQ78v7+frPZRBjYN5W0PD4bBkzvKIwDP9QO+mazCdYBBTNUCQZfv/7GQ5JjcEICD/pnER8910OFDHK/T7vdYbc9bLdbGrrsSEFQ2+/3d3d3X3/9Nd4slX+ajO12++bNm8fHx5///OeGYei6Tj1KNpM4nYDsnucplIQXVTd10zpohmYgIAOTXsLilgVdHlTamMaPYFb/13/9V11W6GTfD5+BY9d1WMRQQAOxWyaBMxKt/Cm3qTCKOVLPmaUjCnSIjAoEWXldFIXyRZImCMDBziK3Wr1C4IMSJp6UVUvgU0yTyEgrTOUh8kX+qv41vfJ13VKHGZVdA6GPEgfo8CnNl5nyjQgmkn46qFTg83YDdX0UsZovT+f5Op7nvKiu0v6FfI15J8AU+PfwuDy9nC9PaV5OZ+RWX654PK3phII+aCtIEzLPivOEtrSsGuS/Y7mLJE5fUdby/AE+R4kvn88QbWWdDPGRz1IVAwVvFoFM4iKkUbksAOg0DdkuSCfIA7W90oYXF1oq2NjzvpaMhTRO+6ZvqrbIyjIrK0hLtE3V1GXdyeucHrVYGIyAz7ieoIoq+ZF+QOgAIVULxU7ouTgupZycLWTxVBpWbhliovLM4IOMc5zkAOfpLEo3S7oCBUfUXOJMU+uf6lkkh5qo/bOKjFBLBRVj1A1gtauskWMcJeogikJyo1lG63sLOC53TVGi5W9RkjnWdV0Uxel0Ij8gRK7vBQCzy0hRVMfjSRKKYVMrngvqWZWpdI9JsvTkOisYYjdCZJqmAEuRjySQBUHAtBjBRdj7Kk85ipLTyQ3DOAgizwts+0TPIPmmYFPgucHbt3eumNWSNA60ohkLIun4YnoDHLWD/vbtW8dxHh8fX79+fX9/fzgcTqeTpmnffPPN27dvTYnMwDO4379///6LL77YbDa73e6v/uqvNE0zTfPx8fHdu3evXr0yDIPiksRTxQ01dLWxrONptaw/+hwtGYZl/Qhm9X//938rPr9SxuUn+ZRcM0Srofi0ZBTACAVoShM49S5e3SzLlzwGNloA4VommcrKJgdkX3PFKzkRxfgFIoh3D4xmGlEflknfYeqsEDFpLBP++MzDSgQck1vBsdqfpJUZJAxNohgWmjJ4CEQCH+lZpzbqOJzzbDGrkSfcIdGX+ZUKHM/zdTpfhmkuqvp8QerlYsxKQjW0vK5PM5x7zyg2eX6pmha7SesqhkZE3nWxeS/zkyQzz2VRqVwQ8hpYfJKrD7UrqLRA2wbOAdRf9yXS7cHrSyk3WrwfLZwhgxSA9lLXJClWqHrk9UUyKUo8kXmK7OVVnZvIzs/IyDXt9MsMn6Pk8VyFMCIHkETyer5O/XSR0PAotfNchwjxTFRUmZvwaV6eqU9xvSCkDjluSS1gOyp1BcMw5PVVF1RtcPL0wxTGWdcj06asK900brNHle+S67GahDzICrJIURyHiX5Jld6/vgXLJIqyxOaIo+Q20kgSyrsgCAJpPNcr5vgZOBIiK+QOFyyvJuSRT0C6sSyluNiReopstzsUqHD9iIxFUSRpgtZaRZ6XRVbkx5MNFJTxGThGUVQUheu6x+PR9/1HGWJ9o3aDaY/0irpQ00U2uHQQtF+/fu04TiBSuz4ExiPX8XbbPZvDMNeHbM6WtG+CI9VwTfP47t07wzC++OILXddVT8Gvv/76Zz/72evXr9+9e/f111/f3d0xMP3Tn/7Usqz379+/fv3akAj1l19+SRx/8+aNoplkjsgrAj88aUIe17AMpMv5J5PDMv/+7//+f2pW/5//839UDbKCObXRo1geDhfPDdgZRu7JBRx5d6mdvwcclRXDqcnZ33VdURQ3mLg07iA5IgDxvurRfSFXoizEODLBdXLjMJzuaZpychMrufNZxvrGMyWz0N5rmpGf23WSdMG8C1Q9Mj+ZG1lWoNRBKBVyJIX+CLlbjNx+mLphbPshzYumgzwE8ZfR/K4bqHFPmfu67cIoabq+bjsIT904cPlPl5i4rAdQDJSKtGmc6cRgEEzYH2rJoVBbVKwa4ousI4IOQgfBLolpQdeHJUZcctQ3MwyDhJKwCAlfBgSIzS6VLWKeS44NFCuIXxBJa/qnyzMBUXIAz8gGx+M6DecrwXE8Q6f2fGXJs8rCASZKmePLC1ohZlkBzCU4QjACRsNnnhZ2N6sqlMxzqPOnjRwn+ddv7qbzBTXQ5+l4WlrUqtwpOocpx0cNFKLwjf9E5On6kZE3Hn9BXriNsGQr9UbJXqhvpzTNczatFvGUGuAIYVOsVaDhQhupV1ZLxQsxS/kcCY4MATmOA0BM8yhMNM0IwxjxbDGW6axMs8y0LJrVeVmcXAd7yCBhjONYcckkSeDp++qru3fv7u/u97tdlqSMj7958/bduztReMQ72HKawrRfffUVUembb765u7ujNa1rxtu3d+/e3kObB/ng0HY8uT5+Pblkjoe9bln23d2dYRivXr3abrf39/dM36FNzRzJL758tdMOUkB4+tkrMMe3b9/quv769euvv/769evXmqbd39+/evWK/JRmuLKdDet40FFEqItZfSRiIh1y8XValvW73/3ufwqO3377LTngZ0hHZwot5aqCz5GdtsTzsoAj9/kOOGZkjipoo6YONzi/+V42ruJ8XWc+bmne2EQi3LTQ9VvKB5mGxokr7Gd5KsuSH4GqugrxSXLp1inLUgoJoM/M+ZdLTWRW5CHSKmI+Fi91kmdpUUkEM8uKOE5FfhkzfJG2FLYFRBvhcBvPc5LmXT8Sjz4xbOfrfJW48+U6zZeyasYzHIv9MPUjxAmJTQsVlaK3aZrzvBQrXsrGBa+lAIOBJYEzhGSvVbkIf0nUGEmSdBfSk6gIoKKElALhokIY+niq5wvBcXVNrpi4poVDy3YBR8jzsG5knvDxqNPzGTgyP/Einay52pFTU5f3+ekDy3sUOH6X5XVdFwTBT37yExUx4+dXGNp1CBI6bsDmfN3Qh1Hked7z80c1Yrp66UkgINInc7Nwzpx+hDx6qNVyS54YRTGzL5iPQVLJKa0We1I/KulysuV5Tl3eNE1LGbCJJTwtDQJj9rfK81wlwwmvrFKojbmvvvhyt0W/7DSF8CKP6fu+YRiUsKL1mqzmc5Ik7BDtOA6jN67rPj4+nqyjqRtf/Oxnu802Fb3b3W5nWZbruiLRn6Eo0HbIHD3P/+abb1zXvbu7++abbySx5hT4IdKwdfPVq68M0/L8kM0bHC+AyKPjUaxsvzscLXsr4+uvv1YSO6fTabvd3t3daRpSxP+v/+f/ftxuzKN10LX7h/dv3rxhCQ2Fefb7/WazefXq1Zs3b2hK85kuRQv2tLM/6EfbYbbjEVlBGMrnaBjG3/7t3/4I4NiIMC3RhJOD2/UyYE37SDtAXaGshFg2FTCRMPLXruuyDLijtCfEMFzCHZxJnGF0aKoFkwfhcy/NiRZPtigeV2WN7AexFgXOFq9zsuQlYJ2M4zjP86qqwjDkcTiJWVpwe5JNA8Ozrpo4ToUPopBH8t7hOpMs+MX1Jkm8kO9lnrwiAip4TVDrR2GO3RBE8TQDymFOio9v8fqhOfPT+QLjer4+FVVzff4gTGcexNdGXqbsdHHPgRISDcXAR+25yCgASZfDnpFHBLIzTPMZBXaEQsn8EZScERnii1xdyCt5M7P5p7znil7PiNJcq6pG8Ad52k/ocXpb1yjb8zy3VTtPlxlBGNjUMzIMp8Dzny7XM+JHk6TOzGUBXXG0M5wvFOZBATMUeuYPzy+/ePnw4fmlKasPzy8s1IFgzxl/PY9TXVZJFJ/Hcej6KAx/8pOfVBV68hHgZhkqYE3PTUT6twAAIABJREFUlEKrtm01TaOIp0qZYq4VEZBvJ0sl1HKpYIevtm25ZiiHDxddIXRoKk0XoQrCcFZz/jdNQ4HxKIqyDN0LHMfJZUQy2EOVGKfrOnvYbzYbXdcty2JlC5qjSksDdEvRTaRnm+bDw4OmaYkM3/dN0/Q8LwzDh4eHr776Ko5j13W/+eYb3/d3u10QBA8PD0EQ0Hjfbre2dXTs07s3bzcPj3EYHQ6Hd+/e+TJ2u10UgRocJSTtQK7RU9SP5u3bt3fsc/D4sNF18/XXb8yj7XiBH0SuH4o2OMsK/d0W4Mh0nM1mQ3VbJN9sNpqm7Xa77XZ7OBzePz5udruDoZvHo+2cTElypDiFIZK3tMfF3en5vs+kH8DiEeU0pmWjdtC0UFutm48bgPFmHY8yfvOb33z7veMvp/J8++239P1xBvBKM1BIQGka1EKFYZxLv4s8A7UnnvKq0zTgMsWr6/thmsDdGy9ZVGEkuVek+nEcI8tfpOrjOEYemYwVi1GUupZ5zfQEDf0IMT4Jhki3Bpzaymrhe7udoDTVOXfV/UOiutLJnv2C4ziRo7VIRhqGtkPQumlb5IuwkAGo3pXUp28xqFcm3xVkdZYb7Dz1I+DVD0OGskk9GG0HG7rCdnx6ebk+P50vcCY+SVsFwtazdLC6Ao3QJgF4Jg1VKKUuTOcjIAoswkzkPvM8l2VFDJJnxD341xtcAN1j/SWdgOM48trFccydrzLYMFrRN/SokPMBRspglKytW9jUZ/gcl1THcdT2h2kYnq9PswSbrtfn4/G0FMCM09Pl2rfdPJ29k5PFyS8//ILgWAs4Pl0k3RJF0Zeny3XoukBayM/TGeAYhG/fvqVKPBtA8ptXF9c0Td/3lTOx73tN0+q6VmY1w9aUMeclm2QQBPlMRslaF2Il58w4jgxLspdA3/dpmrJLksJHrvS8KUzTTJKkKAri1G63MwwjDMPdbsceAFy/6YkLw5DrOsO7mqbR0DGlUuXxcXuC3it4HO3KLMtICdn1xff9+/v7N2/eEC55TMuy2LbQMIwsy47H46tXr3ab7dtv3uw228f79/pBI2zR0yeHWsxqz0Uw2vcCZmv/9Kc/vbu7e/369RdffBlFiaFbd+/u398//PRnX7x/3NqOR3DET3FWnk6uoVsuOh0iqGJK24PHx0fWStPmNU30PtQMXVvaTO+3+x0HXhde+fj4uNls9vs9IW+32/EVAuvhcNjttfePmy0qrc2DbuwPKLDhAsPEIMuyfhzmmOXZkjaaJGmWZlmeplkUxdjMckT90/zkuEmKWs4I6aPIFcgld0xBm8rVIkqKRiTsdYW5t7LyalpHUcQpKMizEEyGuc8yVEiRnkSCIBBL5CcVz22aJkkS8oIsy3if8L3Ku6RsH5VywUbPyhd+G17nochTaATxg9D2sSxLua5wU0nucTf0XhAME+or1P1GNKGTDQIOz8+XJzS8FxoI3veEvy1lhUQo+BGlGo9ESc7/E3BkvJ7Iyx6z4tdbvITfBceLxIgo9SrVLCho4e3tOA6Bg//6crn4vk+Tk/VLZVkStW/BsalaKDxen4GMkHR8Gvsh9PwoCF4kyZMuztevv6HBcQWjHDcPj6ejXZeVe3Ker08Lc6zqD88vT5DCReoltXbGvvdd17aO1/M8DWOR5TAMT6fdbqfrum3bpHtMzem6zrKsKIqUoPI4jsfjMc/z23MmnrJwU4XyFFAqi5vEkPOTzJHTpq7rzWbj+37TNEVRmKbJZkdcoflM143rukEQJEni+/52uy3Lcr/H3X86ndI03e12ZYmkbmIlt7Ms2263cRzruj6OY1mWuobupm/f3vl+GMfp3d0d48Kn04nZkQyGlGVpGMZms/E8T9M0x3EeHh5cF2mPYRju93tNg6bD/f39V1+82jw8Gpruu557OjHSQlMUDBduzdQ0j6ytPtkIxfCYb9++fXx8vHt3//qrr1+9+uqbb96+e3u32x9Q2ny095q+13RpB3jUDvp+rz0+bDTN0KT16+FweHh42O/3Alw6ge9wONzf3y9F0FJajZptcReSGNq2zf1NCWpbluU4DqmlruuG7Iw8Ht0wjzZVeUyLHwVmNVPKj8fjb3/72+8ljj8gz/Hbb79tujbJUsmBqOFjqyGjtFTCSJJaVpQn1yvKuqiaHB63mnZBJYMuy5VmYurQgUImSDThPCOo3eJaHMdqCjIyoxKeeYsqdySxj0jKI/CZDp0ogqXQNM35fGa0mtih6ABnP0+ALsOyLB3HoenN15m4Tj+UemPfo8PJ4mUUZ0Lf977vEzUWknWZRyGPru/Ddy+1u8MwsI6i67uLNMi6Qk8W3jYRH3x6efkFuR57n4LyySCewnqVEDXuZHFKKlN6mqBWCfYoGCoikpCMlRxM5MoQXom5SGMS9VyJwyIrSAxwZMzUdW2aJnPsyb6v16vv+1mWEXPpwaF9Sgq5rFhtjwzH6UJwRJB6GNu6sS3rOl/QUUDCvpZlw2lbNZBcHKft42OeZpfz7DlOU9V//Ytf/uqXf93WzYen5zIvuqaRJgrzNAx929mm5bveZYLQbJ5m5BHExM1mw/pLQhgtWc/zmqbhVe77nmamWnV42iLwU3Kx5CsKHPkiaSOliDkluBiTOfIuJQ4+PDxwsVfQSaOEMu/H45Em1H6/z6Ss5f379wlSr3Nd19M0dUXW4e7uTnxQiCYfDockSR4eHgi+p5Mbhcndu/eBH6VJTu6ZZZmu69FqhLmum2VZGIbb7VbTNJrwm82GVJTfADHF9/zDbmdoeuj7jn06SWj3dDrpOgDLNC1dN46Wvd9rum4eoJGzt6zjfn8wdMO2TxaGLb1Y7R36t6B9IDMdbfgCnZPj2kfUVrME29AhxsNkbFvSs1WKIkEQMRnL1E3DtJGQCOkyAUfldqRQBX2IxDvyQQWXNL0Ph4NiiyITuURjSFF/HLO66boEsovARZTCiwJ41yI1hKm5eVk5np8ht78qKmTwcCqQ7ilY5LwhOKoVVU0y5RLifCImMoWNM3WSoWYtb36qlp3PZ+5J+kZKxW1CcBiGlmVJKQXAkXNdsT+1QaZJv49hGD/72c+Ij7eElOdJaKYTSoz+krjMO6eqKtd1n5+f2bWKLV7G8zmMIySEDKgz8jwYF57ntW1LgigNBIGPXQuBQonSwuCVihdSt+WZqMezkht4iSavHsORjI/fGD7dgNxM1YhKkUr2YDlP57KAlnDfQQkpQGcSLG9N07A3Kf39ruuez+dYRtd1vu/TdsP5LW0RF51NOBmHMyR5povEYa6jtAFwbPs6ozAxSTLLtDXNyPMSGj/zZej6zcNj33bP1yckfOe5WNYv0zB6jnOEGWmZuj72w3mc9IP27s3b/XYbBeHQ9U1Vv379OgxDfi6mNPMrIkIVRWEYBpdGXussy2zbVuBI2jhL3T0RVk0zNVVgbUCTcaBbRpkyyjmepqlpmpz5r1+/5tLFWcEXiaHC5sy6bsMw+vLLr+g+yvM8kxHHsWmaNHsZk93tdnf393GSobxQBMpcH+1MT7bz8LBBYxYkOC/FfK4MOuAYxnVdV1Ab8RC2Tg18FLq4KJFGF9ZQHlRjxK8SeVye179GURIE0dGyfT8Un6MEWE4eKqkl0uKhUQxqCk3TZGwE53QzKDyxFMno2IcpPqqPIPe3ZWiappumZui6aRhCHu0TMrcVntq2vdvtHAciuEr3TKEkkRQH0XW+haBJbOVfbdv+9a9//SMwx34chSmi8kXCEcj7ZbEUs3nzsnL9oKwbIY+AI4Um3OCzmql0ShK8FE9UlqZa3odhSBLk03LuqtWb3I2rOknQOI7KACeq0jWTpinBMYoi27ZpeqdpSpefwkS10TRNBDdBYkgiPjXjCN88T4JskiSTRDfKEgL0p9Pp/v6+bdsgCA6HQxiGfd/btg3Uu1yKovACzsPIdk7dAKZJLuB5XlmWQHmxnhU4jgNSwAGLVPMXVRtSMy4JvPN52vK1SCQDydtI32ma9uHhQXXkENKH7Mum6Y7WSW6DgO8ty5JO7jCIdttDlhWeFyRJ5vs+Wf92u61rCKcPw+j7/jhOWZbDgWVABcCyLCKjYCNKeljkN5/RWu88zui6hTYJz/N5ns+zZVp911PJfJrmx8ctpYDmeXYdxzTMcUBj2+vlkibJ89PTr3/968s865qG6p3r8353CIOo7wbH8XQNXIZwX9ftT3/6c8a1pxFB/CCImO/Ffltt0xqGkaapSvdpmsZ1XVXYDuotIriQyEO6u3Q1GDC5+JVKpisyPZe8UTERyKa5zNNkJgRXVfXu3bskSaQrbE4Hep6jBWAgcg+maUUhxGWlGs8jshDTfRlxHHue9+bNG7JRlE0XZV7WZY2eglGSBkGUxGmelcywYeZNHMdE2Gwtg4klxSfAiBAMyMsEXq8MRdMRqq+zNE9i5DMejyfkePtR4AMfkZYRp8REAVCkf+ur6I5tOx76ryLGwiQeX2pUOKsVJBIu+atUZK8VhLpJqsi5R/KowPF4PMK+1jWR0jmh2bRIPiqeSBBc9SmAmPyWiIMgmTIMkTjjX1mHo4oRiY+/+tWvfgRwHCakzkrtg4CjKI8x/ZjJfWXduN5HcOSkuaWEtIj5Ct0oxCyWsvq+TwVDBVKKRd6a1cqSVeDIDfY8ICRxiaajM46RBsG5ywwGglqSJMqmVv+RG23bep5nWdZ+v6/rmln7JHdt25Ir5Xl+PB7pDeBct2373bt3zKQty/J4PE7T5Ps+DRzf96mJvtc0wzLjNPHF5US/pACjRH1RIvjMh9TYXKjjLQkuYI8XibEQFpn1wpTGMwLfSJxkShPB8XA4OI4zjqCQTF06HA6WZdGlcDweoyjq+z6KItM0oyimrpJtO2maT+McBAEpz+FwgNl+RowIUobDGWW21qlvYDhbxtE2baStS04iqO71eRzPwF8vIPllhB0nOUye6w/9SNw/ny+UcpEMD5wqjYAPHz68yODGPM95nkMuEM2I3aNlUyY5iTPDsKbxLLV6w2azkyZCKJps2z6KElbaMDGgrtFIwDRNao7wowVBMKMSE04GlbWaZQVW/bpFLkTZFEzkEm2IRFQYsjT3vSCV8hJeX0rdEIZYe8cZwiqXSlwunJYEUGEGbVmAocu3isQdzliaLApSN5uN67pil1RZXjZdX1RN1XRpXkhXVdQ+p2ku4c2Up5Svg78mSZKJ3DfXvChKMpG64HMqQv2pKNpKjncEvYk4TRP0k4kiNGuFvI/QRt8Pj8cTojHCN7k/8N0D/QyCgPi43+/JWAH5QifXChZQV9fxj8fT4aBDH1diScTHFUChCuE4jq7re0lyNI6WZR9FCJzEEThIArjdbhVVJCwSB8k9CX/MRrrVreBRaNT/8pe//BHAcZpRdKXAERaS1JmqHOa67RzPV8xRhSZI4mhFEhlJ6PIcmk5t28ZxvN1uHcc5HA55nvMOIZIyZsKbWYEgTR76ktQ2j58kCQ0Z9S8Oh4OmaZgtRRIE7tG24jicpilJEjJHQjAO3sONJe3fujxNWbNZ13UkCXG73a5pmsPhQMScpikXI2gcRzYDynM4fTabTZ7nwzA4jsOCX8MwiqLA7XeZsyJHc8iTvde0AYb1oOv6MAwEO0IkrbynJ4i8IqdlRB/RW3DkzmLRIy9naV4mNYtM+SRcNk377t07/uuqqizLqqpqu93SqzCKIk4URayk1DStadDSJ02y7WaXZ+U4THEc0zWxTib0HSYX87zAMu3r+YpMnX4qs/I6wz1KKD+fL03dwRYyj89PH1TuEfkX1WQlnvR0nuYszZmKdIaKGMLrpHIv0qf7wwc01CZ+sXKx6wbDsJoaaqFFUW23+zCINc0oiiqOUoqepJB+Ra8hFgJJXleRJIg/0IAl2ReRroC2CGapVLaMArXUWl4dFBNV6EWVGdt11YRhTBczwU7AqyQIEuaqCiUrilfeUkuCYNt2eV6HYfxZy2n+lQcsy/L+/t6yLLy9bcuqqRt0nambLkFENM8yVMDkeSn93eDHx0wXhz65aoacOYwkSRzHE5wsUhYFpthgui6fXbGO4wjSQYRL4GMIfEziTMTKQkbGiY8KHD03AN9cwfFwOCB87kMNl2PdXmim6/r7PRQbbRsaOQocfd8nMjIXR5jj0bJtgqN1MwiCXOy5TfgjVpoybMn63mw2twY1J7OS/PlxwJGOauaR8UrTN9fKoCfF932SwbKE900Zy8qsJoQxPJIkCXP9XdfVNK3vewbvyA1pVvOZ4KjQsOs6ITLn28jjOI5t2zIGTSlQ+uDfv3/PFm51XcRJ4Dh2mgIWaVwr4x2OuQHpcmM/NFVdZPnbt295hiz2enx8rKpqt9sxDHq5XLi2E+DCMKzrWn0QFY1hzyB6/eq2MY/HvCzCONItk53kPc9L03QcRyLjWarFrzKQqCSWHfuiCL+BPU33Ar4BMZ95344i4sCKRjKgpmlfv349TRP5puu6DIZ6nscq8kyCAGzbILdfRyeJrhlLByhxjHBnEDrJl7xKsWMuCqzzOIvoN1prfZBeryiCnK9MQUXZRhCzUkgVoaMcWHQZuKayOpPqEmWJbC2pq0N/ek4erpFlWRZFIZ2tkE5r6NZSl123juPtd4c4SthVVQp4IMTJrE/0FJQ1RkTOMSG5dDEs0zQNvtB1DD0Kok8nN5fOEzTGmS7GTq2szuykwVYUxrQbGhn0z/LkOfO7rksS6N3yNuHHIRtgcBJFZVXPLFrePny+Tbntuo5eOeaKVU1bS9usqoYGuALHLCtc14eymQwFjurXPw2ON2ppBMcgiACgC3PM0gTmNi3rNM2pxwPT+OTRlP4EHG+YIwMghDlSSIIjrW/oU7i+IX2lj0fbdT3P88n1nEUDzbGso2GY+wOkeyAZgc6CNkQdJTbN72RJZhQFM0Ie/rwOclKWZq+vLf0ICaCEzg8fPvwIzPFyuXBh5PVWnmZODl5XZlZzohA0uRvfQgrJ+cHpzpwvXdd3ux0nbhRFBD7yREYGCR98o2KgiaT78+bhW8ZxZOYE9yQnPRwOxOu2q8LIOxx2WZZer1fq9/DtSzbPCPI4DWMtlf/v37+PoojZP3Vda5qWpildbF3XMfhDA+1wODCcHUWRrus8WhiGVVUFQbDf75umieNYMw0v8PtxiNPkoOuIzY4jYzKu6+Z5Tg4iwAiuRAGLeb4OA1K7L+JzvMhgoECyO88EBemtKMIYIguE9qF1s91uGQu6XC5yd2HFiqKIK3YQwOc4TRNf7KSisa7Q10nuf2CYyiKQe3skOkCWBpXaQ5mVbd01ZdNWbQcJLwjSkMhwm8kMTPVnXXbfDdOIc2alI3sEgaChdwFkJwjlt1Sa8g1YzIRH13VrGhYb/1Zytm0D0td1Q56Xk7TeRX3UoneLRWd1GqKUPggCWtZkqfM8UztOvtenumo1zfD9UCq4pVZSsJV+RuqOsKYrCkGrWeagyCOtJTXboyjiis57gdOS94t43ru2GeIoReGgpPEqcOT+TBWoqorJZMI10Nq6qpuqhoxjmmZwREpSneO4ECtCCQaWGMierViJPaRdjG2fZOc0WVomLJ5QLpOJDNu26SiIxVPJF0MpToTPUmQfybhpLzsI8SAOQ/kJ6p1ZMvg6kG8d3Jmvi+kNKxseFdthPaJ6dk6eyJKDXTIdglYwQZBIuvglDwcyR+Im/zV3Nk34xA+HgwJH01xC1coGf3l5+RHA8enpaV3xFtxTSyJ/J1Mj3qk91frPDb6FKiOMhNJvbVlWXdfH45G5L5xeTdMQIk3TZDtTmgxMnWVZlRI+YaF0ln0U0WukPt80Ta7nTVMWRXo6Hfuhk6TokvY7pzgoZIf2bwPav0G6/v7ujlifpmnf92EY0jxXnhHXded57rpO0zTmA2Yy2rZl/JrpcpSoQ/AxSyXVcaJxTdrL1Bwm2DPoAXgQ3yKtY7nPIUUjRSxgjXSQSYgZCkBt02VQ228zIQLKnZTnBRt7FnK7pGkaRZBfZeYQQ88wt9betiBuRQUi0/Rtg96hZEA8T7HiEZego7OCTM5l7MbL+cJ4y/P1hZYyT3vhntJyWnqlif9jQqycVeH4XBK/z9JchHbwH56fEc9hYy98C5K3dL1e27YVb/LQdf3hoLmuLzlJaOaHln5IjEJTjSRJRb0Eeo6SyTRkWb60Zzjjq+v7noFUXnriI1cafudMfmTqEr5wCcWIc+Ms1esjJ/AwDFmWLbcBGoQgUZeMj2mV5AH0lRNAkTYrAUx+A1xm6qoLgkhY8MIxCK88Mhf1pml4HdWSz1uMk43+xCzLXFfAUZzCqkgMF1ucP0zc4RpcFAV8k4RVAU3yjCiKwjC0bTuO40gGcxLiOKbrnC8yGM0uCz7EJuBn/MyIJhi5ErmmMjnhkbBII1oEvZHWIzF3iODSHemcPGyLZ5k9WhmJ5opOWCRi8tkwDFv0x8gHiZ6WBZLJV3a7Hc+Hz+Q3BEfLsp6fn7/93vGDKmSen5/JjzgVeOfwuV3nB61LEky1myKMakVt25a3JZfcN2/efP3117vd7ng8knYFQXA8Hh8fH+u6HoYByBLHNG+lSLbi+nY4HGhiK88jww6EZs4tXlpZqKssi62jga6G00QYJXdbUGAFR6TYNG0YBMzEZGU3ZyT3p5+b/JFtAnnP0GGqyCxJGSPaQPnzNExjPyHo33Sot6GPgh+BjJg3EhkExY1IxKTREkxOvoU7UOOARZPSwgzqpyIXBtVUDt6r9DlwgaEngc+KOKuuD1SH4yUjrySOyKe4oohHOvyxATR3IF4DyVZ3Ib14aPFYiT4FfKYypjMKY9Z20oKOMEeWvwruExCf1/Eko+u6ncjibzab0+lEOkx/NE+PjmM6MTgZ6BQ2TZPYx1Ptuo5JhZSXL4qCqZppCmOCuZx5njM/8VNwnEVVZKGKFEP5i+CozOqVY6KL+q2F3nfT2inhT4AjX2L+gwJKvkiHZrYqjxEcWbnL5gpFgV6hgEZxQRJDXddVhWfEVnUETmnfRy/pWJoxMMREQIwkazKKli40pmkSHMkKXTGMAxmES8JfGIa3O/hrLNuRIYh2AnMUkniUztSsvMa2jYxIQ9JFiHe0gi0Z9BgyiYe4QSgkVVTAp0s2OLPcua0QUx3nRwNH8iMubgociQvER+ZJEPL+HDgSBegRr0SU6c2bN8zXJ0w0TXM8Huu6fv/+fZqmXdcJbcYrnOgsbHAc6NMpdskbkvFu5Qziek4hpnWFc6oKPTMlJWVJNuRnAfcQxyURahxQhEBjnzYpRSs4TRmFJO3i/EPEJ8mo/4jciCSDjZOjDQh9aiIPMfQiCzb0Y9Oy8WIvDWghbw1WJs+zqM6gNFv0r+hJlFJowAi/BMl5QsSm64ZM5MhumYVatAiC9E6I2CXAZBgGBHzWwTQpknQ64+imUKpFxEolLT5NM+UXifvfBUd+iqfrS12hw7XQ3gvGCovcICU8nU4ER/I4lVjz/Pz84cMHPjP3kJSchrCCbNbwjeNY1/WrV69ev36tWmUw04ALQ9/3/DiPj49MUWTaYxAEPAH+d+58d3cn6ZAzS9EZFutE/55JEVyc/iI43jp5RCsArJlWuVz7sW0GRsYZP1SHJQIqMzyXMjN1Q9FtRUuZpC/LsiAI0jRj6Ik9C+UZJIT5Q3me08GdykhkcDuSxDWyS8dxbiPvBEQay6p9jWmagdTG+OtQyEg0VKU4tKPpdnRleKserVi+Ao6rWg9CPQ4cmoTIk+3qMhSQcUM905p+fHy0LIt80JIuC8RBYx0sPdrv9wcZ/HUrY7fbDcPwvcTxh1XIfPjwi6Io0SxQVLm6HupbXT/SSdxA0YslNDUyrxSEiJ6jXGZMj7aBbiB7TiYJBO/qun737h3rujoZvJZVVQkIFn0/RmFi6EdGTqdpCoLAsixKeS+BYBH443pOTxmdOJxAcRzze6TrxJNSfJYicAdOEWVoKFOF9Jaex1IGJ3HXdYQYZWRJaS1lcQF/fNDAnMYzE0ooPTtNc12hFVQ/jIyOSnYddmGRyVXwkdjH3injeJ6Fss2fDol1oOIlz4oOIrsw+sihSAl5nmRSwzCoPqiUIFMHg0E7z3RQ3IIjWWdRFAxqs/aG0eoW3VmR/sKDEFkUc1x0KK4vZdHQ5XeWoSr/Luf5Km/PsuxwOKgzYVSK5PHl5YVWNr+Quq6vMl5eXuiR5DEVBXYc5927dwxf0t3h+3Dzc73ke6dpuru7owt7mqa2bbfbred57GXIA5KlJknydIWEB83/Jc9R+iAxWEQjmkRBTXbCJacxZyOTeflK38OZu4CjOHbbBgF36VAEUXEejTyD+MjnTJyGqoD1dm4rcJT6a8ToaWrwmZOW+JimqQLHJEnSm5HIiGMos7iuS3DkkaMIMWja19z2fV/TNIIgMZEskpY1X2e6G7dpSjui6U2OSaz8yBwd2NF8UAgS2VrHk6FbmtRQs84amT3rOEjSCIupv/nmm8fHx/fv3z88PLx//54y5tvtVqHhdrt9fHzcSodYUtFb+3qe5x8BHH/xi78uJZdniTN2Q910/ThJx62h7YeyrqMkptBtWUMcRQ0BESgYIuCITn7wnZP3cXlXc4gx3yAI+HqWgYJ5XqhpqGxhGIeWMtPBiHeZ5CuwVp+iT7eopyYTcZMzlas60Y2vsN8DtzlBaZ4zo4XT9BZ6SMdIZ2R7qMoaapKkgiJ9SD0eOtcotX0+X9oGpS+oeQPzQ+oxOgicUWp9IwOBNB2UV0u7UcKrsC8ku5CsifoO1H1SqFhOJFOESG4zj0SBCNvmqN3ou2Q+Ezkg38tt9a48z8MwFHaJngqU5q7rltXZPMg0Ie+n73taw7SFr5fnNCnoo+TRZpjV03W+SIkLToTlN4zR8/lFMnikDwRCJQS1eZ7ZW4Kw+Bk4ckkQyaxjlqGIsGka3gBkhS8vL8Tf8/m83W6ZxUUOSH9WlmVPT9DQZbEQy+yytubfAAAgAElEQVTErAY4IhrTQ/iS9Qu1SNFx+pHNKXDkhpr2pHgEU/G5/2lwlONBMYDXS0WrlXuK01756NV8TiXRklnfkqWU09uovM/5Ohit9jyPqBjHibgcl3hOlmbJqt5I8VqFepE4Iv1lBGEIDXDDgGyEqIKHrhSJ8+9hiF8dB60HTdOGdKMMQpKmaZZQPF3qEQ+Hw2azs0zb0E3tYOx2B+lkjcrrw16TJjP6Ya9vN3tsy4PXlLYzqOLxaFjm4257MHTUhyP6YrCljNpTk0F5C02qZbCT7MbnaZq+/d7xg3yOf/3LX9U1pHeUJFdeokwwK6oc9dSoKYySOCvyoirDGFpMHAS1LIP6ThQlUYTGPT4KA3zlLWaRKTkjY2FJksj3HoqiYlHkKIlVvm3e4TTDOXXo4CPLUwYm5zF/5S1EU7Lve/oclfaECoLTJJep3BM6yWpV2J1voeGptsW4gw45PIujCECImCsTWRipuK5yh23bAxHnC56W+kBpFIgaGbArIgJgVCoIlxwaxGQwPgPHaTxn6JSwSA2SSdHYZBUanXpd1zF7SWVo0tKcZRAU+C6+TlZI7QnP8wS5nijgOAyTxC2REUWYppcHbOvm/C+Xp6psqaRL3DmP09D1tnV07VPo+/x6TdPkOdNjS3i9Xq/0EpJFEhzVR/sMHNmvnKnXrATPJEspkVqUywVtIhT6s9jxcrkMw8DK4rZtTdNUvgX6JQmgLEUXfwitgZ62Dh1H9M9yBaUbnSso0U2AEsaEYF8PeiiaxG2zpEwRE7mW8yD8QhS2SpinX3IAJOZWitIowZFmDbO7GW2LorgU7T7wxwyJPkRPfhtpiooa3oAJssKXbMc0RbI3M72DIGDioSMpNbysN+nTlmXapmHtROhG0xAI1nXdlGFLSEX8g/AY7raakEGgoyODTkMa2icZu93BdZD5aEtrbAFThw5HCWG7lmXvRbHMFP0hXTd0GeSSwEf7+LjdaIa+0w57XVPqFSoqreu6YRgER24ToC3LojX544Dj+TyjX60XxFFCfQ5khqL0qEBbcdR75n4YZugimaMGVMJkpQxZAxuW7jKPXPg/kleUt4Ub9BIyEi14BDOkKKrzdKVTjHh0FjuaCCVZL0hJoZSAChcqTORNRUtTPbMK+xYcFeACFNdBFdVbwsibltjB7RUoBRyleu8TLUXi34qM1yuKpgGaaIHAchLI8ECJ51NwnOeLWK9XZqWoVJ6P4DhfWQ8D5giCswwi0TAMnuc9ymCCFNO/bdsOZJimyQBuVVVRFGmSLV/XdZZmdVVd5vkilm9ZlK7jXJEM1Bfw8Rc4sbY7HhHWJJ7qui5GWXa9rl0cpOSxLGtyXhxMjub7Pgs3eZm6rmOxHa0513UZGFm8YEm+NPy6PMUxtDiZMC9rBJ5Ie1kCpGmQ2LIs63A4xHF8Pp8ZRnh+hnJ41yFFgcn5tm3T/0j/iWKsRMyu6w6Hg5TeY5GjeptYvlibCY4EQSrUKn5HgGPgjrtVVZOhpaosuGs7EPqRKRpPtqjs5RtYxH9gv4oGqRNLQkJVVbmokfK2urV8fYSMPUoxs2j6ZCO9hs5BwhzIFgpNlnAHiv+EAEobVSrRok6ZwrqKDK600ZecnDAMIsuy2Zyax1cGNf2JrCk0UND8aWH1KjNBZHQcR/LA0YwQFTDYefE2Sp04LGu04gIvNHnO0sAaSEycPUrZjBDNg3m0dBMyP6Zp0vPIEhqK9zw+PioVH0uG4Dme+r7/XuL4Q32Ov+RqQ3cv+KGUUfO5brq6bYI4glxP10KfQhJ3CX8yV5q2WZZB1H6hHzREj2mJ0DvW3Yyz0C3c7sOUZ+Uk4EgYIgZwqSdKcq6zCvvW78Y7kNDGdyn+qG5sElIFmlQk41u4kvvCcYiwPIgCZQWREsXus7Sgc2qlS+BV6C8tGSoSlwB2tE0vH44EEZkrHMpnR5REA7+yVvrYfPsa38BxVokdmNXyf3l2WCcI+uhOud1WVbXf7yn/0/c9rc6maWzbZka053nQsCmro2m5J8fUdcc+JWHEyHKRZXEYZkmaxMn5fKZKK8vPDcOIJbJJhUEiPc5Q6sGv12dY33Ke9FeynrIoCuI7SwAsy6K+1jiicPt8PrN8U4IwkE9+enqZptnQkexFpCNjnSU2xct3OBw4nTgH6AfwpXbzw4cPzLzht1OWpWVZRKVpmm6SHOFCpTtF1/W1cy+yTUVzHou0AkeiGP1CnMNruhhATTFHdriWOY4MUMkokJLESogCqhI/cog8R7l6IGXX9OKlCYpSohByDzb0wSBdTo95LNk23F+9xfP8hQ8mGculk3Ws+4eu491WxcRRIt1Y4zDEg5o9x+ORbkeVusiwjAuTecEvRxK5BZFhO/sSieav6Dtou4Z+XCsDl3JAnjyZoxzKOew1dUDhl8gtX6IxkuJjQS18bxPN4ZdcVHwIbbZtm8fj9rB/3G5NaSVIVqit5rOwTDwpnWBFGHkEwzDatv32e8cPMqt/9atfS8MmCLdUVZ2j4XiV5YUY1xUaslZlGEVQ42mbukFTYM4SIl7bdmRjwzCoUK9y7SkwIpytGCQaCsMEsxFdEHDbn2WojVuhinEc6flSGCuYtfxGvFAYRxqiaCb/ensahEsmUqjdaJXTluQ2wx3iwBqKoloAS9TDCJ3KTFbgiHYu0ywk60L6w7v9M3A8I3SzmKUIyCzyEx+pGdMD6XP8k+DIBbNtF8GFTAYrCCmow4oUVpE3TRN4/uP7hzRO+rb1XXfqh+t8SePkaJiRH7w8IxKS5zkrsvM83+/3tNnp+QUmCkGmEsQFvRkUc0QFJJMEqgpt/5g3U5YlfYX8HlzXnaYpFX/YPM/CFlN8zOG830O1m6jKOcBn+gHfvn1L9G/bNkkSxuWp/eV5Hk/4eoXxwVpyFai5XDCvOIvIo5umUdJN5/OFIRSEEOHxhqOcrC1NU8dxInHJEXq4za8ikRHHqe8FrGVWdX5LqES0rGies/sNVcgItXTBS8kQ+m1UVRMGseRsZUzzYIyF/4X8UVwEAD6UzUhXLSl6SWIZ3CcM45PtshiGz9CeACVXD6Q00vMQSSgmWgdC1X7geyijtm3HsmyCNWMscRzTWSlBGGj22EfXcXwCIvchgH4CjgfNsmB206BWQLkkP55gVm+lXRcDNRSnUGa+bQM2NUPf7BZwJG1kEwXGrzUZDw8Pyqa2JAXSlKHrelVV34uNP4w5/uY3v+E1I+qhJ3rTFFUpLpSualFQoSoCyQfpp1NQRXAkHaPHhJavipBOnw+A4zTNRVEJECzgSMrAe+MWHDnvv/vvCHMEXBINFUBQeP1dcOT+NNXpd2cOpgJZ7sBT/jPMcQnmzpKjo8ARDVjQ9gBxFeKsYAWciUxkIXO8Xp76fqROjESrUemhDkJkZKtS0Yk4Ix1aBr/hruvu7++ZtsJmdYb4obm6WpZFwZiqqsTA2ePbC8LdZpun6eU8n47Htq6nYQQ4mmbXtE8CLpZlMX2K6Ro8fwpfZynWsMvlyT46D+83zsmTtrHIYIePFW0boB/BNoEU3C6KgqSPgR3f9y+XS5qmuQy5z3MyUEO3uMwQRqlPwaVumqa6rukelYwZfg2Q08kkE5DRebJFuu0ILszEYmhFOfKCIHh8fGQUrpNGjPAbiqYAYVE5HFm4opzUzMCllc353zQd0hghYyXlQ3VbywOFQ0vaBmgmw4+8rWibr9oTODb4ZtVEYSI5Hih/YdE0PwK/KMZkfD+QmCUkBIsC7WUy8b2mMhLEYvKjZaM6MMnwEEykbgVRlXaAqJAAFAn0fBG/RwvBDPxFuExRXbYoAOFFOQyU0JjLTVh01u7VJ1GUCKRbIVXURA3PlbzIk+eBNrou2rfycbROohoJAJUHarHpK7TWweYQt3NbuUGPpmUZpi59Fw66RulczTB0EzKRUEIzjB8HHP/mb/6GiX6tjKZFK5WyrrpxqFt4mUlGOC2+BxxpQXNeKg/0LSoq1CMyjt9hjnQ+qt0IUnxmNQvxkTGW279ym/SBARmegHrmhgJT/spjKntcHZDnzNOQW30o8pLVfsz/UMyR2EfTEtRygM6r4AgA8XbQvub+5/Nc1y0JI997XiPgtPXoEZumOcsKeQW0SH0W5qnwtJnzzOxRrmHUROg60Hn2Eum6jhKnVV6cx8lz3CovpmEIoIG679t2HEYq+hCeyBQIUoRIqE7MkORRFXuQsBWRHjbzul6vLJeUsOnSuZStC7BKSME7QcpcWhqgoyz7oEo7tsVopeuNGJFKNwLlg2MqLg9C2GLduspz5HrMf0eXpQq480Xf98k94bGRUDUjKm3TkdbxmY6FW9uIXyZjhrxH2raLUPQNgIOuRz/0AzQt267v4L7EXmyztRAOyd2nv5JGFT6w7EdvBvOCCYs0yfM1x5uZOvzg/DZwi+VFkeVFlhVZniWQPFs7XINgJqCNGIko7IrXOA2CgKK5sZRdJEnCJEcSSWWDG4bFmKovw5URBIBFll07jmcYJl9Xz44MIqnjOFSrpYlNAIU22U3aI2RxNYMORyGYp5NoVVjrIFV8//49eaKEg/AkvNC0BBxNw9jt0WVBN42DrmmGTnVIPBtGWZbffu/4QWb1b3/7W9b/rhd+adHe9khohbtZpE/5V9pr9N/xdiVl4wRizl1VVcye4Q2srGYGFgV6hDlKNFaAUl5bLWuFdAqtyF8UHKj/pcBO7UmAUKfH15nod0sMaWXfgqM6As+Wv/KEu65XjWG/HxyR1I1y6SUjR4EjmRF/xY16vjBjRqEqV4u1wQt8Yaz5RZQc2eBIlOOSwFuUqwh9C6TAijgrDOVnZEKS73pJFDdVPQ1DFidNVY/90NZNHEan4zHw/a7reJIKYtiMYfX8oqWXVEkD1pGgGiV02K0eN8TfMhkSr8vhiymrIi/HcZIU2m4c4DKZpvO89iDjp66rRiGaWhf5AZVneeghOzYh8wZZn2p/OmG4M6ccT3iZTzc/WJQJucakuMzP04jCdilrGTix1aSCFyIImHzDxViBI5coPscxmhE2HF3bDUgHprFFPkHZJ94vt7EdxicV1VCNZwl8uQyaX3mOqHSWZRQGLYqcr0N/SMAxT7PlkZcn21n8kgBHVJQy9sWiUqZ5kzkSExUykj8SHKMwJjgG6yD8KXB0YVAH2kFXsMgNRmxcF15IwpyuQ7iMtra8AhNbPSwLWsiGjm4QEtG2aRRb62DURYEjIRK+SA7DMMAXjf1+/7DdIGJjGHvIROqadKdhlf33YuMPM6v/7u/+7pY5YmXrgI8KHMlBeNswAKfMat60RB++WMmgw0jBmUIcGsu8K7puSJLsu+Co5joRis+MMBANby2sW8gjQDDPkdsKPdUx+QrjPAocaVarf8eTJBGGz7Hr8xxKX1RYEJYHs/qyDonYwvXWd4OA4xPSecSYluKTJ+68biPPscgr5PGg/A6StzwyAREQOZ7RC7sf06yAYsb6YCKqPOO2bdEQDAyR6dD8aERPvk5uIncjLk6a5hCeqKX54vpclTUtQZYAsGMt9cFgNsrtzhOjVhBPtcihK77w3OlCkOK1kO2lc2xTd5cZpjcrUpDWdEXLCGQOoWfM0/XyJCH+T1ZHEvNJok/LhetngCNMeHztt+C4xrhwhLZtP/PMKLSVY16n8ZwmBRIkxst6QRGqVsjIQprvgqP6bomMTJ/6yAG/A47cLYqiPweOvE3qumbe22fEkESSyMh4joJLWXtuwTEFhSyq08lV4AhRsnUwJSiWOA+ZYyCJP4zMLPZ1JDq4QZRlxeGghwEclByeaE94no8XPfgcHcc7fAccmSHEnW0ZbLnDVySeA3v8ZKPU2rYd00DykGQ0InJ9PH5uUxMkmcFjiNeIqMjXwQw1pP9omva43RoWItrqgR4M0o7ixwFH+hy5hOK577gGEh+HYaDnm8YCd+PNyQVWkZpxnJoGhfq34PgZRAJJmX87TIxg3Czwy6bCKW5IZV4BHEAF6yhe0IHBga7DhoIPyrXKaUtu74Qcas5s9dx3SLgZx3MUJXwjGJ+oQKvjcGMJaEpdIIiSKMSMw1mdMG9U+gcv4kkUggNXpHgjl77PJGWLuu35eRrhbGWyjgjZQs6WJ8AzATIOU9uPSVZUDcT+yhL+e6YTiC5LzpuEvicKBZF6qGdyE+IjBTphpAvOUiGi70YgFzyGYIUMxA/9KHQP4mDiGAXPVS5RXrhpmtmuCyqTEvNVDG5dBp5xTClGlAA3Cw2fXp4/PD+9AB+vL09XbFwvz10H1UsOhWW0iBlREZRcwBGS4zdDJZPzjeS/N39fNhmcwQec5jQtpvHad2cm8ahI3S38sbb1szWYeMdnejMIjniWW4Z3TdPB2KKHkVY8r4gij6pildHLQCr9iaF0SSnnqQJHlrLgkquxckbY1GJWn2wHWo2LTb2Ea9I1mTwQAWZWECpYpPMxkhFAlyxKEmgMy3bAQXRjjTUta9f1tYOu3ItkjrfgSDt6v9+TQsqflsgMkZFhn5PtaGJZm0h1tCyJ4ODHOihKRj+jsQ6T4wYcH7YbdqRZPY86+KOmxXH8I4Dj7373O/JBZufwkivSIXwQZhSje+J4lslwM1k4sVgOXOQIZ380iBQmyQYd7QoIqrKW+20BQ4LO8svND5YtU1dKEncFYKEuwzyMBRxhuI3nLM0beAO4uyDnp+cglXhQfMmyYhimBWoHaJ2yauLjM6pTzr0wXAUrn1FdcXSC1Ewj1LCh3CVl0V0L1MbZAlLB76i+1TZDWaJldlNDBCxLoW6PPAHCX17VFbTyKX0aJWndgpYsnHEl8/zu+Q0xnUXRHxIuLki8CmJ9o/YxTcAcCQq4BP10ma+IIK0k7nJ5mkYAH9PdkbN5E0znryyMQfnjiIAM5W0WbBO2fMUAGqIfrGQs0TvJteH56cPz84cnKch5eoLeTy/gSMZHPwYRVgWaJY0RXbAZuJ+m6ZY8MsxNJ2Oe5zhjUZrgKREd18VMuiAkxTRde7HTZQnE5FBzmeSXwjy8avwT91FmCpljt45GjC3aW3TT81ZKpEcrgY9wydtKFdjQvwkzWfQuFUTS4ajAkalLRDrgH+ztxaAmOKZp7rk+IzDicPwcHGMZUnwR3DJH2tRBQLlvdFA4nVxppbAY3wRH3wuck+u5sKk9NG5FQiJB8LvgSBnw/X7vOkgGQjQGaZGebSMNU57RzON4PG02u+PRXvUfj8qyNuXPupQVEhV1HX29mf9A41oX5niQoRtAw8PhsF3H4+PWcdwfARx///vfK2OZE0Jxw/XqD2EYQ/CqRT4jL7OaT4oYUs4vz2oqgXM+EQ0VOt2CY9cNJaT5l1AsbXOaUTfAiM0FHBegWYpYh34ibVSkj7c9cAer90chRPXfucFK2K4bxKe+lIR3UlcOh4JwZkq3ihYO8td8P4Q1KsJfSIWXNHjlEqI2WFU1DCkqzVcFsqu9CXY2DpdBIlGgb8tjMdgH0bUdh6kfJpRvdn1WVDSxyWRRZz0A1m8/EZtQf+YZUMvMyulAmnIJK3EJoUW/gCNKdOQhRLKCE/CqSCVhjoFpFT4ScJQaySXOvsCjIONHcCz/EjhSQJdg91mY6xYc+/6MLg5gqUj5+nPgyN5qCqnVbgocIQYe5303fQaO6zyXNUxUyxoZ6vVbAGUIiFIsC9g1ErhuG9FOkm2J9Shw5C1D2sFtCf40ZVnFcSKZPYrxf1TcydZBrpfKyCSDMk+yIiuKtCizMkN4Gok7DFLHCFUn3DmSwTIbop1CxjAMVUzGA+b5oR/EYeQcbd9FZJpDYZ+gJCoLnZNvWUA7ehhdYZWMvTBmLbEZzzQs2OCr2IS86HAHvtE0TfY5MMRq1jRN1/WDVOYcpGxht9s9yNhsNo+Pj5vNhvC32+2260Db2Ls7NoA9HA47GXtIUei+H/4I4PiHP/xBMcfbOUGIlCvahUEEvKhbCmcJnfzEU0MIEyEZiMgzq5YeSQaR1aqLDYnq9v1IJf1bnCV6djJWLEPtdprmTdMRPugIa9ulpnsxivtRBKXbJEab2bpri6rKyxKFPYJlarokCOKh9EcE6KFEjyVXXkHqmWSfodpHkjxQ41W3URiDBkr+h/jmoPSnHFUghQLceK2FFCMfwjEFEJdETtin0yg+R7nVxeaf5NsA0CgrdZzm8Tz3w1SU9SguSB4QEtaSAnW7eEzTpKi6Mku5QSgRVgVwZFYpXQoqFnSZr09i6sK+FqQrxeQHQ/yUOfJXMse26aiagTJwvGsZfxkcn19umOPz5XKVtjNwIxIceQRlVs8yxgF8VoL4C4Tydf5XxToVc+RfySKFjUpZkFj6VdlQbFhoPpR0scSug1y7QotNWNVdi9JAtRrRkU2STpan7hHOWD7zRWqbKjkrZZaJtxEZjsxzhCh3ktGl+Fm0WnlOIkm+SW9GnuRFVhYp8DFLkP8YhbHjeIKMAEcOuhq5TaBEPk4Y8oD8K57DMArCOIziMPJdN/B8RrS9dYD4IbriHa2TfXSkSObIzBv8OKLZK381ZJimtd8dTMPSUV6NqmpdxuFwEOQ6cOPx8ZGIxmdNBixmBGvwTHw0TZO6tjyIacKlyGFZFkGT3kkedr/fa5ruecG33zt+ULT6D3/4QyH537y06iq265A+k3HbIKVL3Pm4vvQ2EteWOSF1MkmMjC16JAmOPMztxGLZXNdCSn4Jh8shuA4z46GWQUd1ISXbMEKzIkshIBYEMAGwWkrNAP/ERrKQlS/LogIsljWS2NW6zfAi4b6XtipAOunNjaog0kZJQBMKiTuFD3RHGaZGEKFrEXalO4xslwEZuthuwZGZjHJLTwwICOI8nc9XmK6wxJFTwsf5PI8D2k8j4DND3WaYzmXVTOfLiCAvQFbQk6UdKxmSn0wGVB66NcR8VlyMh82zggxRgeaKafhJKJnnmdmONFR5BKIPt/nMaNW8DsXmnmVIQSSoaFlURE9C3lIwJD/UfxxHEGEa1Op8eGD1H6krTv+mOEnXf7z+5EemKg8+9jpYWSiRd65MH72l6uKKB3ZFRzGxsyyvqoY7MACl/rzeE7CfbsOYvAXU7SBzrKFtQW8jb6vVoG4IjmVZJ0kWR0mxjuwmgZFmdZZlkYBjcjMIjnlaZHG2gmPiur4Cx1hGkiRRFK22c+BLuUsgtTq+77MAEYwSHkQv9PzA89yT454c27YNiQVr6zAMQ6qZLUM/7veLGWvKsNZyZprDREsAomaolq2ODMIoawTpUpTD6iSPijlaImPBP7EGhrySr/CMuDNLS3ciCUq+uf7VcBzv2+8dPwgc//Ef/5Hwwau45qkSnfBcVfCRVWjYhrAAd+MsUTVVTd3QIM1SVIneupZZfrD4ShYSl6cJWgh5rs9a7Hwd6o0kswTKqqzjOGka4a04jSrPilbqdVrx8aB2B22k+rKsoiiuRTCtrEp5GRzg1l0gJT3oZSqC+PAVqMQj7tm27XlCwZm6JciFSSt4H9LO4jZlYsFE+hEAKjo6vNtnBrUntHhGl+f56XIGI0vilDEQ5AaBoH0yCIWsMmRkg6+gcYqEkqZ18AQUOPLlFRkWI1QODczNMkjpSOCYYP0x4K6g6s+BI8+P/44VzbcpNQocCX8itoFINMxqxKaWrM/vgiPLaegTUMjIk5lXLin/FEKTCBBJ+EhWo0++MZ5YlmVqheBXsYZiPq4u6N8tzuU1IMNkgOVS86KXJTy/1Pded8MOVA4mzLHuhXeBCk5yH/7KeAszdVg3zTsK9nMBL3OWLiu95waZDEUVKdTCW4bhZli+AeQlYqGFkR9FfhSuzyEKEIPj8cSYiW2fOGzZokKtLWO323k3g9axLzY1wTHwvJNUGbIlljqC2NdM5EaRDHGQR17+mVRYCzIebeiSmbpuolh7eVh0KXIHZiyS7pkSjlE5jAoub8FRQFhi1BqGLjgtm9p2u1XgqK/DMEzn9GP4HP/w+z/kUlBdlUjBVwkBko5fRlESxontuHGaJ2nuBWTlIOm8TuoSEt/4IjGOyyHnxC0rFMsUzj42ISIk8VmtvQrOOCNVJRaOg2hFy4aC2FjfT6UsqkkSVVWyy+1hJToCe4pRJpn9yzG4G0HwNlhJXRkSRpq0vPdWBBRWIsyuqhrq6KgGWKiNO1+Xh4DjPF3SJYcJNFCB4w2ogSeygogRc/66pM4gfIwxTcA4VUZC/sXUaJX/TPJF5kizWgzzBRwJMESl72GO/C/8yKO4COhVUPikwPEqg7ril/mpabqr9IG4So3QLTgKxUTvBKZVKUBUp8QNCo6haYQoHvEbUP/3duN8PlNenmfIs12/qAUcR3TggbCepExiMVvpIYCPeaNSBdvkWbkEwcTupt2j7CGmbWRZpowSyZeCuD0FVmijUPiD9rXyUws3XGr76Cv0fdi5ku/i+jKcdbji0TudTrqOADHpHu5AgcUoiNIoxUPsJ98L4xi3Y5ouSeCxjCVfR7apjBWsQx0w8Hzf9aIA9rVtHckxqcvNZ0FA5ip6p5Ov60h1dETMkZ5Etb3saTtH66QSGxVYM5JzC44UlxOJ3KOu64RdQ4aqniZQwho/HDQxumlcKy+kJgEZPh8Ohx8NHP/hH36vTFRUIMUpq0Rhw0p/yCTLT66XlxWqrUEeoT1BnwsnBz2VNCXoN6Hdzde50iqTVqBs0b9jV2IFSQRQwiI9O7wJ2VGLSIejreAo+NhNA1LVOLnbtmWeI09GHUr9i3UD4BjHKe8N8gWFhgRBRRuZt8HzIV0iPSErlNsPwHKZn8ZhglzNvKhyEZgAF/PT8jhfL2c0MGEXU7GyQQYJc7yTBYmQQMOMHyY/A0AX0oQkIe5Jg1TRXv66ouEtbrBTzRM7UzOsQey4hSQeU0nnknOpo5DiqTOkT1l5BlkcfV3DxIo5dt0AcEQA+aMMx60kBOUd+77nodS/+4yWKnD8c8yRNLOua14adZ78mLTH2aKL4IhmFsweZXO0XRQAACAASURBVExsQAcNZqQBHKs6S/NOOlzTlcR5zraUNIzSFP1g0zSNJYWQlm8qQ+Bved1xnEQG35XADYSYivyEikGa5q7j8a7J1xFFUSpZODwg+4+XZZmgUhBp4VmyPOIwjqErgY7VbNAax1Qwg9hECj3HhHyF58nGJCo4Q5N6cUSGKCuMwtCV0nJiMVkmMVSl73iep+s64YwQSQbKrO8V2B02irFlKIOa9TN80ZAmWeSS5JWmCXoI4DMs3bAM3dxv9yYEHfG6/qfGbrej21FBJ9HTtu1vv3f8ILP6n/7pj4seDyrwYUTzV4ZfUcuZl7bjlnVDcMzhVMS4XTabpuHcYoROwSIxZYUkEDTmBgGVuoFpyULlFqVrtSctFC7FBEcyUAQf2o4PaUjdEhwJncyxUFOZM57H5OmRZbJVKVN5BB/x3+lHI+9QbyFEUsyCR1vut5sfyufYdQNDvfwjcQpJjis4XgiO0yWOUvgWl+jKwgHP60DSjGhqlQVyrSeyy0/Bkf+Cp1dLq1Vi+i3OKqxhRg6EyqUL9vp/8JO0kdzwfIY8WlVVpJ9qNy4Dt0dm9wK1w2fgyC9knq+UrTyfJSH+hjfynxKaqdfJE1AnTKzk+Yhy3UfmqIi22pkbUpRZjyM048ZPx5KfIAkJ4l1voK1SYp7Ti82WfkVRZkioRp8/34feKNIPCtT50JWkZjWkxiSjEI54cTfROS4+qI/UoSxL9kdabhjJ1xEchJN/eTAwmNV5VsZxKucA9CM4km+GYWiaJl5dR7KOdBkZQFZ8jlGUJHEWhVmCVHCAIyGVnkeCI6GczsdABu1BvnI6nQiadEp6kgdOyGOBoG3byNRxkanz58DRtu3tdmuvg2mMJKGUJqNbU9ehgEbLmq5GQpumm5pu6prx+H5z2MGO1sWUNtbBVwiIDOzcguMB5NH4Xmz8YRUyf/zj/1I5xgRHrpZVueQeJxms6appq6Ytqrqq0QJBeV4UKhF3uPjRuKBUsgrFEIAEd5j9h07zH9MAP003+//be9MvV84i6/cv7ws+NUpKTaVZOSs1lqqO8QCY0YCx3W1szPEI2H4NHjFgMGA3NDT4rh2/zKg8ZZ/3nrvcn9r1LC1VlpSSUqkn97MjYkeEX+rAKx2+SmytwFHtLO0GQ3R0XtmAdQKyZD5whIZxkgHdCxwxr4BC0IeGSsTo61ZbBYKEpKWIXOTSwVSPS7L8OeC4v5TPUZpkBYgNB2Xn+rgCx7yg5al2vhscoUgcHtFq8IWP5v6iGoaBDy4WS9Tm1cNirDo8Y3w8SOzbq8b5IYFTV/+aDtxgSOmSKBm9eA9fSgUu1eNhb6lBIo+X1eCzOJN8BYCS5cS/AtaAcn4Mg7BzV6vNYlE6vpmHFuXQop4kGVJ5iji421rRZysSsdnsimIlJWyx2qwtVG3SUfw8LJmIuqbTeVFIxbUs1hZ9FDD6vFot1yINVnvCLhZdEVhLbACmRVFcA0euDrRfftGNRxMJ4EpwVAfBCgP1N7ZBGTp/nAf93jqyJkSrr8CxrEMRXQPHuQ2Hv7n5x4BLHnTTm0Za49oYWq1czHxnjpjVeACGNkDMOjhSTRL+2KnaCkIGvUoj5BHm2Ao6raATBJ3GSbN1Ktzj8a4NXoINHgTB4eFhEMj52Db5Nzv/z4Djf/zHM/xOdWREwkLmbJovprMwL5bcVmslAGC3wtGY3yAXfkafKEAMT10Dx81asmTrtFfqy+BrdbIJTpHuysuFUFfgKJt6rbBLKayhi+w15ki8grcFH63OjYnA5XWSv4k3d5DlMuB7bbe7OE5Mwr2xHtA7OJTHc+WFq7oqE9Gug6PhoxTRxG1FGPeXcZzSWh71jO9fKZwVP1E3BVMvEcsFH3m5gxQyKfcAYlk7uFxUg0gO4icLBPkuJSj7AWy32yzLXDXJ4xcWG+HYLm3szy+9jBuqILCbaDjySfWAVStGoSdnGIE65xYnHfek9jNzwDXmDz+WOZ1XcZTo+K2a0fm5GO7Vd9BCKtctOlwaZrGS8aMbrCnyRpqT9K2m1EG6S++XUhZrSVDoKFBuqXitpK8aHI/N/HWxWEVRYri5tgoUwke/KJiBzNvPpgYagCpgDXsdj6ZpohLfFraWzjExMSOtViMrHjEYDHjcodOR0TimZBvD4Xg6nSPnSGJFC5w5YllT1XFqgR0njM4ZJ6byoTEZFnTdjh6Wah7Qryyd67TR2SWPoGQ8OjpC4jMcDt12hkJ6lvTJyQmqHVCvU42g0w063U67GzSDZgWOJFyzf7sarVbr8PCw2Ww2Gg0PYQeBiod/+n8d92VWP/PMT8yNWJoOlZOlrMKkhI3FajoP82Jl4CiHtoMR6sU67uA98Si2PSVMWa8VgZFjBy/4erssVtZMWchYHyCpzUaVIcVZOZ/PmZ1Meg7A5yv0kH+pN8XsdKa5XW/Wy9VaFYeWm1XZRct7LvqnY1mLqtB+eFeO8soki2a7r0Tdkq/rKrVOWyoRaCL5a8xR4IhAx9gfqKdkbUu8w5no2FRGeCqLm9NF0p5CNwasVMAEHSiWzmUJuXMtfflWho9gN0LROjg6xAD0YCvlXTmlnBl+Ar/gjUNJhkV3Dcp2ZWkulIGISRQl2kc5WNf527GISsMQ+XQMeZpocx543ONLglQlNS4URSl/ghIZfZHQyTR5KUFt/4H4RvYrleLTzWbnvmYEj55nBZTzr4J1VuK7aptVWh1MS1NHqDDPQr4lRXiwuP3eKS2dqbkcZEtfDRn18FxDNDkfw1CcERvcPZuxjdFoJKizQm3gI3Y3zzpznE3ncZTO51E4TwgkhNWITNYDxk1s8MjcmCNeSLb7/T40EMgb2RjbIK4yGAxggp8LjpUlLbMaOAMZ6/cOjqenp9jU18Cx1e60lPjSCZrt5mlTZclM3gjZBARhiARtTk9PAxtEwNnhX//616f3HvcFjs899xzRlaUpYAwjV4u8VEHLBblYTYw5ZotCdaZsCgBbdc61ssGv6+EXAxphokKEFs9FG0FDrihM7Kly5lVMTe6/EteqogAYto6bbFBxmguYT6d+Tz1YpGf1GXeBI1d+XaeGBQdRxQ/ABQY6RhVtUUizBo5cxtAWSzTcLRbSGJ/bAAKMdlnUxVrQAI5V3qQuaYM8vQSEMmmeAqm6Sk166SlAEk7ajffHst5syjbZPAirdacEG5x/rXN2QabmNs6yLEkSlkQuSO6jKKKJNmjoKxA/Cr84snww18K8+ha3L7/m8I3kiLKJRipLTOScYETbmdEXp3AGT7n304HPNi5lCJsEx2SJOmt8NX4gQi6bTXn+/+/gGJkzpyzzY2hrwRh5WkBG6ShUkUwT5xo4VjNTU5rloVANx6o8j6NjteEVya5QsdwqPfupaXjjKItC+q9+Pjhi8MYW/wEl7wWOKsSr8LeqOkZhWZ6nzhxpXOH80YMzMEcvO8aGAaOi0hPTSMIbBY7dTv/sbKhnhgNLD3SLGxDsdruwQsgjqIrCEfPZ0FBda7rds15v0On0OqpG0Uc63m53uQWt9ulps9FoBtVotVqYz23zQrbb7dPTUxN+yzUJhSTU889//vPe2Hh/PsfnnnsObapjCt4WUkQUlsmW4+lccepCzbYW1pQVeoUdyoxhO0kk98dc4nFTIGrasRQTIN6sdyQXW7oLyFaaLbyP0zcQkEIpYCL6cy5adyY6ONbX51Kr6K5JI4/r1QpCgVgdy1ST/TPDvxdRda6T890FAAEy2sWpGo4Ul7aI8DkNwriAhXr7S6XBVJkzu+0+z4sqDK26D4BFeZ0L5MqSZTLUlhu7SYFfc43p4sNew41F9cPMhrcYrTFi8TDzoK0s8lv2sHcQ2VsohlWB08LBfPa0lOvB+YU8mBbwdUpb2tSWVc0aQJq5pTvL5+jMse5h3O/3ZLY4LLIb0AlEXlzcXhpBY52wopnlClQtCQphSaljflX/XteYIxlWeLp1/qvzXINdZceX6QkVVlopo5ILVjNVlpDq3arMihYRX0iqHbBSlioKkWa5yukr90pr02JhEc0ybmNFgtW0LtKuCb8mrsYwNGGOqYYpex5VwykkEEnsezqZTyZS84Rzab8jC22j45lXA0uZ/zCo2Z5WyvDZbAbMucMRjc7Q8gV5Sm1bZPJ2zobDs+GgPxiMqwH8cd9sNt29CDH0+4pFnjVOm512v9s561qnLSDS7wHKU7X9EiBy326LRWJck0UDOAKLJycnDRvHx8f/+Mc/Pr33uC/m+Oyzz0IZ3BYAFuVwtITiJC1G41leLFUhpgJHsGlVDadyYBPXJ/vIoWexaXUgolSE3S+XMkxscZbTECrqeMQbullNLQDWY/9ov/hLj4AxX0/YAqMFtesyuo1lvV6W4EgtIpewOTb62/rBxHFaUjmhys6vvYr7iDdh8WWZrD9i9zsfGINWKQMykiTZUjVWC/Ums2AoPA59qBTIZpkq58f0A8VCwQGhs904ANguJ6ouYKpbxNV3UeFxZQEVK6ot4P5z8gVpBSKhjTvDvAoKKwgyZaWB123zDJxbDbHbVsJSoZ0HH/zagw8qKdAC1lowttsdHcRu3x2Q0d4Gl/v9PssykBFT2sGxdlSq56iKcDuVE7a6kPKW1uk2Qe00zffnatuA27Q8bnXHlWNYj6+3URhXM1O+ZnM32+JtaLhebYvlajaPKPmxWm+t8Ec5F0qvotVyC2MlqubLQl2XbFRXgxxQlA6JTB2cLQSL3PJikeal4AMfVGhioMg0N1XERvn7cTU+myQDbjJnDB9V75a+MYBj3UwOa2M2mw0GA6CwDo51iKSUN+1uhtXAgh4Myqzqbr8XdDr9waB31lcd22oAiwSgA1NrwxwrNOx3bFQoKebYDnpB0G3r1mk2A8GgbTSbQbMZnJ42b906PDWlN5nUDzzwwMHBwa1btw4PD4+Ojr761a8eHBwcHx8fHR0dHBwcHh6SVNNsNv/+97/fGxvvjzk+//zzgEuN+S/pGykKmRf5YiXmqGoxqhCu391c3FyWuOeYjlSIKa9wozpGAzUjiQaQleUNiSaTGdFqFt7KFrkKC/pHYFZfA8dr+xcWMfRmILj55UGDMNbuIRTswJHXKdJnYZoiOstinWfKEbJrQEWf+cQ0zahfL9Js4o8wjNTIVkFVW0ws7dK4s9J11ysViCSSC+YCYU6ZDc91uSqZXXC2WyyKyp7VxQz7pmibCnCsNkTeMQ89RQfa5YwMRSTACm475rEn/wKOjp6ItEFJf8P9fk8/WB65NDciWp2HHnpILNGEjbyJ88TLalzY4HE6ylYUr8wjZIdr4LhebyGke3XJvgscOYztZhdFyW6rZoR3geP5zopDyizfbnZxnN4LHDmxy9VmFsZajAwZr4GjTJkKHMG7NJep5LNRpH65Vme65TpKaOGZpznVlxT1rIMjADebzUBDwDG3Tq34FgHNJEmoZB7ZgFp6/oW0yYnSap05RuZhpLoENjXvM5/PAce5pSRObUwmSiUEDbGmu92ux1jAvZENKu4IAc/6Qad9NhQ4Ch+tjjeYCPCRfdhUDQiNRqPRbDaPj48bJksEyI6OTg4Pj48OT4+PG0YP241Gq9loNZvByfFpy5KyG43W4cFRo9E8PVVcJrABi/R/T05OeLZZG61W629/+9v/ADjWXU5mXAscS+O6WGX5cjSerbc7+ZMtT/AaODLVeNCLil/Z3WVXX/PgWDUxyWuNlkYmw7Zg36ooNBlrtw21XM0YVxMbKoBy6V6bi6zY+EyZZx70LGzwFBCc5zkXLUbocrlkZ1zgTFZMEmyWUCu7WnKjFMmtwTcmNtH8skiBlaWQctPCMkQGZAaKaZKjVt5vNjuS2MrCQnq2HDg9PRdYed/5UiUsVyvgoESB2hsKXleqVU4WsAW1S+xg5zo4rsylUH8cQOQRtgnIwCIdg+qfjnMwSRL2Jxfo4uKC6opf+9rX2EBGvl6v/eMUm7LhnJFPSdOUt/pc5ggl5FwZc1Q5cT8wAJSXqyxbnJ7v1Lr6GjjudrJf7Hc/T2rgWC1LNZ/PeqfCwKkqaS7Xm8VyJYP+7rFcrbJFHqeJqs3Z8scMZFoqf0ZhTN3SfDELI3Wss87GgsUKHOEiSLsnkwmUgjnp12NcDVp1V/9d/Q1tgIwUHIuiRAEZG3MLtsSxPI94LWlgTXlH3I5zGyDjaDTygmOksvRsYMZ2TIYdWC5KM2jRV5oGqu1KQwMOBsYZG43GwcGBq3D6fWFov6/SZB2rK9Fuiyo2mx1jjp1upxe02txIPaSu99HRSaej2hOOhhxDq9UCfE9PT68V5gEr//rXv35RcLxz5w4+xzpzlPbVsFBmXb6ajCX7Us6pORzBQZ8QpS9suZGD0tgTedbGfZCJqdsGFmXNcbaezcKiWKVJRiqrB8rLClBWA8JeqL71zDxEHh7+YzKx3kY2xuOx50thOOAGdYeOFwAndgR6Or6z/vM1OSFFUYRhjM7JyrRYqMTwHaLBN1Kgab1N0xwfAiROXi0rCnnlcDTPY7FQ82Je7tFnt2Q9rLFZb/O8wPNwXhv+bjCp9UpyeoHj1spYWMoNJr+jHgQQZ2jtncrN+m5IyvE2OCZe2PAX7nY7bGFeCOrdrobLvfd7eRhcA+QbziWBNlzDO1PnAOWcivPzssCHfJcm4bbA97nt6Mdy9RV2u73VbL8SgVc77bZb6SQsp0As25kjoLfZlIVBicmomF6xzBbFcrVZWEKWT3X2X23WeVHiHYWcfAdmTpYX3ADHNBeS6mY2hmieaR3xGkdR5ODIOs2zea4Wrwz2gTDOLX/mCiCVSyMpz2wanvUHisbMQogeYAcgAnZnZ2dURYTl9a2gzsDGmY3BYEDTSgxhw8YeuIZNPTAPY+9M3QHPhsP+QJ0C+1VVHhoEDgaDbrcbBMHR0RFQiOQbZARqDUA7RgmbQdBpqXJPt9PpdS0ygwtS0eqg02hI5Mj7dGyIOTab3MQ5G43j4+NOp4NBTTQmCIJPPvnki4LjCy+84KSswkeFNR0cs2w5Hs1MdqBUAeDDZ4NhFp2GFDSAYWE4O7EiqqCL3ItCmhNtNp0Xi6Wq55jg1qZPGlvuQRRJ9M/NulOO6k5oOB3I6PdMLLrLA5eEmNxp4MxR6X63b5Pkgw4GtOWr+Rf0NcC8VKplScFa+AtOxioL7ZzK4zJvLahqsChfJIFUZICOemVAxsL3pA9WlzEx6zIgo6s0L7ZblcsFKeBW9hIpzxHuLZeqm1sGK1AI7aU/r7Mq3n+xWDje1WGInXlzMpShsvWd2Z/3oRM0yAiRxIdYwWP518tYXNrQ6bi8BEkdu8mId2O/flRX4GiuxtVq8wXB0bw0G1p6kXz1ueC4Ejiu1D+iAkefGCWD3GwWy8Is5dwq2105gphsabYob8Yc0zy3qnhqKgZzxEyBIcZxDDjWXZA4DSc2xuPxZDKhi/RkMhmNRtZX4KzfP8MgHo8n08lsMp72uv3pdD6dKlM7tM7jxgtFG32cnZ1BGthhMlERM+LRs9kM32Kr1XJAPLP6tMNBX6GXs95o0B+PRADb7TZ4qvue0lw6QZs6E/1ej9SXg4ODbrcLwrp8p1sbHlwGDYNAMGgRl77CMu1uEHROjk+bzZZrxdvGUoNmq91stRrNxslpq9G4deuWoa2CNvDKIAg+/vjjLwqOL730EtBQIaMA0DMIc1WjKEbDKXlUdbih7ojlIShhgETsuSJlEV5hNmaW+zk3y5SsbcFfGMfmIkkTVVSUz87u8Vrz6U4k6XKJ/UvaA04ZRzeOHP5LzwD8NQ58TG6cifCU/X7Py0F5tEfVpeJpjuWGpDzWchMXoRM3opxeX0fMJVG3GVPziDMCjpYJU5aPBR8XSn0RPSrfwaGxdKUptE1o9X7AUQkbaY5WnBcCWIBjHSLp+7yrhqMPMCeXnDUf/yyVqx2gNknBht99FhyBQu7p68I2sOgQ6R9ai1+ZJ3Enbmgoqba0CqYY4qPTtK8ps5ovAXwTmZEcUuWTL1Qy1MSNZpLvtpvtfq8HdztppFiM8e1AFeUTN8uGOJh6pZpFrCBkIbOaaY+RoXurbgs4prn8ieyATyaO4zBK5lE8D+PpPDwbjqbz+Xg2HU0mw/FoYHRuOBxi5wJ2AJZbPCAaURe9m8Ec3bShBaFdYpEFpkPpdaJwHs9EGFW1zOBOtWx5n7k1qsa9iMYbtCUVejqdgoxTK2wBOHqUeWQ9s1RwYng2Gp6NR4PxUNv9fj8Igm5XJcGFnv0ztcjqdM56veHZoGeaxH6/f3h4CIZCVIWiZlM7PLbb7Vu3bknc0+l3O30Hx16vjF+3291Go3V62ujYABllqiu7sO3geHBw4ApHZ45/+ctfvig4vvjii5icnHcLjQngdIqtbOJ8Fp/1R6ES2rX8zE0lAMOPTC4gLNNMUS7qfB6xnaXSuIKzwJzn4ZiFrqdm07nyBOymEDl1ouRoU9HZe4EjYRCgDdRz0zjLsjAMke/VTSePZoCPSI7BWR5x5RB7+m5sUHcSYTiBlBIf1U+mZHBcwESrr4FjzRuoAO5+f7nIZVYDf3a1l+DDJW0ZIBU4ZovPY4743XQvILAuN2SASAtt8dyLi0vzXSrvkN12u/OiWNqDVzp2AJGqFmK7uz2hV0LhmLpWT3KvdMeL/W5/LvDf7ZbLpUNwXcRjyqRSnHRxcbFarepYSegGogp5NDer/NFwcGPc59vdnoq/u/2FNmypWBbyzNj51+mCYzrC2vuIaO+2F2Q94RnQ+wpt1RZiu9khwCD0vyzWuERoKCYjBmF2vojidK520HmUaMOp1tQQRNdBOJ/MpsPxWAVxknJwOaRpGiVpkuVpXsRJNp2rlEuUJJbOFxsrUFLgYqGy0JGNs7OzJEn8U3iQe8AR0xj0tAswwbQK59FsFkahzKwwjAeDkel4IgIsocXB5/N5WA2kPPBKvotzxul0OrY06sFg0Gw2KZYDVqqt6mgwHg2m49FkNByp1a904A6Ow7MB5LHXkWqxp2dEGLFzz8zoRhCuJ0yIg9mOSrGtIZu6fms2AiCy1Wqfnig1EFMdV2O7FXALmq2g2To6OgpssBsY+qc//emLguMLL7xAVIt1JpKkQHGw0rCN0ihMh4OJWbilDgufCFXqbM0sAS7PFlGYFIsqu8aieqRYuYnNhiI7xYoMVgdBQuRKAuMdqlrci8ViNpt5UAXLhX9LE9hSFhRFL5aR6s7ncGGYoKcGYioa/O22W7EMu0jYS/e45ysnfZlIs9lI0SZkrHRIIn2mzgHdcPyR3pfEqUGM4KNEFuNZ5za4nre7XV4sVpu1N0pgT55lR+BgtVRcW1oooz0At+9ce//zJMmkMapud+calhL07fYcGaZhpfEo41+2VAiyhem7C8GHlSsGH3U8WgKEjBe3L/eXF+cXwtYsy1hjDCJvX1zUb7Kd9zaWy6vOq2AiLI9tzpKw7G5wVM/F3X57vgcc8WCYhnEHc/TTS+yFe6L21qWnLBWRVoIYU99Kaug4otJ8kSDGCnHL7vFwsqylfKFoi+o63sUccd2oWNVChHEWzrOFTGb3FWY2qwDHLC+SLJ/OwyTLkiyNklj3KmQqpQ7uIJICx+NxZAN3EMwD7SrgiGeJ69R2LI+c4/f7ydiiLLMQI9qu5bA+CLxQWsLD01BIQjHmfpTV3O12BwNo7ngyHsMcR6ZrFIUcj0E3mONZr3/W6xsy9gf9M5HHXg8sA2Tb1gSGNyc1G1ubkrddMU3VKnNw7PcG3Y7C4J1Or6Xg9UlgrLJdRX5ARr2srU6ETRuNRkkwAxsfffTRFwXHl19+mfzNpBpxknFL0jxJ8zjJRuNpkuVhnERJGqsTpGZGIueNCXZMxwB9s6o8quWZWVTXKh7LTemlKNCHs3Md8uCDMlkQQSxXqCFWhaLJs9nMX+gOoKv3LMoij8tFoaqTqbQaXqvcr58yJCygES+D2FrcucTHa+BYXnJr1Z1U9NlCKKg1AUfRRst7gT/u95eU+ObSrd87WMgm3e0WMhGv0Mzx7tyGpX6X1QYt5UZmrPMg39nBkWTtu3Tmpefxcm9EdbfdX+xvr9fbe4EjjlEIr4R+VubHAYg3qzNHimzWD4APurCCbAgb+cokthtOXr/DNLaqPPLn4o+GysmStZCISWtVUSJN89ksZF5Z4RxZskAMi6XNqFUcp0WxWS6lR2WgBmPd3W70o19zizMNMF9EIc3cyYslah6rtyKzuh60LJZLLoHJbCofokVXsKxLZX7lc4zTbDyZAbz2JYSSkntVA3DEUR5/ZtTtM5yDhoyRo2G5EcZyZIWyrCeTmQWs59PpNKwGWOkh6X6/P62NSVUhfGj1GcG7IAgGlapRlRvN5+jgSClcL0rW7xpbbHdUa6zToZ0g4AiF9CqNYCImORRSWYZtZdzQrBV8xAXZ7fbb7W6z0To6UkOFdpUSI/eiMcdO0Gaj0WhQeMJwth3Y+MMf/vBFwfHVV18FFVm19GsZJsousN+4AketpWm2yHIT+hcLGq0tDPjgcavVynA2yzMZxZWeUcJA0NCdg58LjgRMVOJ7URT5oshyqSGsBAtVeXiVgyP/rvTuNXCMtYxzSXAPsjgyCvLMOlPdKpTVFXcsryf7A5HkHcJ5XCz0dfA50p+awtTqPGVFIkiOzLOFBWRKYPQPdSBgQ4qoteILSkeUCq8cvMxaJqi34nYjSmgpRmK1dbTFrgRvqBmO+9L9odDA0uq3EDl9yqwIhagfDK4ks9adxrLCVb6BE+iILEJp1vR6u9me79b2DekzxQGUtFFFzlWHbb9XEhFuXLqt8bvX76FaoJvdi9ZhVWj5qbqMbXb79Vb11UWiE/lV7aYz4T9x7VeTNbBa7iRQtOEhtRJzixXmQpbmiPC5d9vFrBYp8JfrzWQ2X6425c0mOeu3pt9K2RDZIh9PJ1qK7U392wm1K3BM82IWarkGGTN0PMWiwsayWdt0WhYDr/iJ7G4fWN+j/vw+HQAAIABJREFU0QgJjuHjdeYYK4CpfOrhQB6wMAyNQ14Z1KENXJydTqf0DxhE8iA2NchI96ux+saoK5YZ1wPi1A6gJAgCdi7TAQo9Kh3Y6Pel/eYpJ4xdG1TT4SksYh7HBicIEwTBwcGBALFmWXfbbdyOamAdKA7TsGYJHRu8yYcffvhFwfGXv/wlYbKrH6z6aZEjODjGSWb4qKhJoV5r0B+p8ADHtUhWmCgoV7g3h+QqPICOksyzyWQCwNVRb70SOEq5XSzNH67ZCDgy/xwcWattLquohISRy1UWJ76DcNO6HRBDgHzJON1Iy5YkWaHSVaoaIG+WlXTEdPVrmys8jhLHeu1reTKYrqAPrA1qZihZouI1RAPdtrtdZo28rAqHVRGrw562RWwtFQdw1LFd2wVwPLchJ6Yl89WRURkutVIXdI4VcxQP3EP6nBqrgo7kqPLoFQsVDCaWVf4u69VCeSALV6LIrWZ9RyvRibTxlnYPvy6z4z1u4wfPecHRudlsOPNFofo0tCVg2mx3+/P95fnF5VbgeI6qlIO371hGY/ixynOtP+fGQHfrdbmQeIYCWtqtSpYti2IZRbGpzdbk/9Fmo7zXoq5W1JPptKpVouzA8lTY3PIJP51NoYrMTGa1wNEk32meRUkymU2TVBnTLilDHFK/6LCdQUPnKFTlcYgkny8Mw4o86m8sHU+5Qf3dwWBAAAfFDxGCsBroJYMgmFvtcSCS+Ayxl9JMPjtrtVog45l1YYVFCiBtEHo+OTkB7Ki148EWR0BpbqzamIMj9jVGtzNHp4QOoHgzCfu0220Hx3Y1OkYeQcbPgiMf9/vf//5/BhwxHHAjXqm0MlX/TrPFaDKL0yzJcm6GjMVmt11vN8pnq0ZRFMq0Vz7csqZqVFo+c8vBkSk1Go343PqzejOr9a2XLRaY1ePxmGMT2asNMNcr7sistgu7nMuFfPhcinClimWooKS8A9kCkXn1+NVfh0v1wIlSwNGQkXZ0ojBEMMRlNvrX2E222+79XRwLHB3YQBxnXWANlavrm2fL2hymHifR0L2N/j6AI//u92Wm8zVwRPgCzloNCFmdRuflqeAS5VIsbcmsQHUwn8/JrYR5ras+txYw06KIWb1cLjkAUxBqU0elSEkZpBKlXRQWIBKK7234QgWJ5tfJssypOq5MVNzV+2vBMPerfI4W5Zeim2dr96qJu8jXvpT4D1HZBpqrRVHM53NCcLWpdH2z7snx6eQbTOAwDJnbCxt5NRwcwziahXPAEZhLbNCpCeIMbobm6U+q9Gqg05ER4BuNRoAjum6QEdxjzzAMB4MBwDevRt3zyPt0Oh32mZhBPbLhUHhmnWdardZ4PCaWMrAEGNIKedbBEY6G1YxJ6zgI9jWbTdyFAF/Hhr/qzFC4/mDHpOYIG90wPzmRzzEIAqBWYGqEESv+rNeDOaIfYrdWq/Xb3/72i4Lja6+9Vq3/5W/r4Fip/IuBWvot4jTjRr7v0vKoFktltjFWq5UZCKo5CgWwe9V/ZPYQJ+HKpBSob2NTl9hn0tuVmKPAsSiKyWTCwsusYiLzEs37aolfFUv0mXwcoF0dnS6nalsXG6XOTcOhGmVwzI2lYnNvhtu6KJbmyZJZjdKbiDB6Roces4J3JkLWp2D0wVX53AtrYH9+frla7XCorcxMXW3KIuRuxhraqgWYVOUJAsYKPq1LCaomP5nWViwqI60Ur6aeqq0N9ah9kiTuZPCzYRtaLVBxrpTdWCbYgSnWelbBHtO5y/XqFdrBO8GhZb9c2Lh9qXqUup1fFMXKKg+VO/pCBZKCa9vtFuub88ZXZT04t4EzNJPL4lxQKwkU6S5Xp8W2xDEXuRIugfXq59bPwfj/BY7r9XURD/PEmeN8Pq8zR2yvOnMM42gehcovNa5Nbit+RhrPMf+TRF1fiMCwXOFRjWNFwgHB+XwOOMY2UGVENngt2h2PPk9s1Cxx7Qom0ryBrMGhDeAP4EMHHgQBFrRXYBzYAC4hmI1Gw8XkTgZ7PYnGgb9Wq3V8fGywFvgO1M7p2Oj3+01LMQTR3HAGT4MgaDab3W731HKrT2w0bBwfHh4fHB7eOjh44NbRweHBwcEDDzxAhiIZ1oeHh++///6n9x73VXji9ddf9+gz0kV5FbmpgojI42A4yvJFnKRmWevKk39ou1Ftx5WuPm7LYjWbhfLByC8pjpcXRWY9ZxwfNZnsuSxbWM6yTHJ86iCjZl4FjoS9i6IgfRDw9unoaz2TFROY78JTdbcUJiRXC4neVNOzelNCPZRuZY6E+LAk6xBGUqHlC7NilHbZK7aLC9LqAO62G12Z5AU6OOrcGFUxlFRqzWazX6922aLIi2WSLbJFkWQLOdjtGqi4QOlfT+J0Mla9fr/UHZW41EtwscqJ0Ea8mJiTwCLHwKlA58ip8CC+AEsyF6uTZpk/XvmcoNbWHKPb810VDFdyHowJ8AIZb98u6+7cvm3FfS1+vVyuzf8gcLywEPZnmSP5Nvw0EHZopkfDKQqnZCHTDFhGpng7L7kCSCl11nm2Mj1jCYj+u2PCcx7m8zkbzvt8LrGxWCycFTpb9A2faWEYfiaBQusyOdf0B5Yk0X7fzGrEOVuEGwKFaZpOp1Og0Jjllc8RhyOMD6njNUCEGM4tQZCgNttTU96xs987OKKyHI2UL4i+B+zze7rEnJkyESjkqWvgCAj2bfRs9C3rxt2IRJCBORAQ4TeYeHp6enJycnh4eGzj8PDw1q1bBzaOqkISzWbzgQceOLSKErxWMWtT8LRVLrwNEruaxw353/zmN5/ee9wXOL755pt4x4Ee3Zet7VWgTFE5KzlHV0KLG2qBRLjLhecyHfXhDRXNxqzwKYLtrFljw8FxOp3TiqYWcDSfkIHjclEgEWKmIpJgTw6VT6+OQbzOcdafKg3DazIdK9WHdIN+3CqRb0WxAEcrpKhaYYAjQhmPGOCesyiBkoIUkc9UXycxrRnNZgE7/D5AXpoqS3KRr5bFRpoOFdzRZ0osYjF/LlTr+SmJqKqorspeDnwdaJevBC7VXq+VW10GZMraaGo65iTRfYt5nuMGrRgZ6FoqkwT9JlfC6ryCngocTX6kgMx+L+5Ge4bzc2X13K6K7tzWuALHolCRtHMzgQn+eIybBzkC+jv6MVeHtROm7qXlpHEgfljVF7ZxBYvllnyOeba0gso6fKDW1yoHxGvgWBjFZr3hfrHQiuVoeG2Dn2CxWEjyVhvQwMVCpSW4JVkmgXZlMgN/qeLVClj7ihjH8XQ6hVHWwRF66MwR6Tg8cW7qRVAvDEMAkSAyT3mEmn24d3AclGEWFWr0bSxrsUgjdEjBP5c5wvuOjo5aFkRuWDmJ46Pjk2MrjyMgO202micnp1/9ygONRrPdClrKo27JMG40W82y7UHHkqwPDg6gky0b7dpgh1ar5Za1P+KUE88mbbaw4oWeQfDee+99eu9xv+Doq1mJjwaO+dLBMZuMZ3VwdPk0F60H+4rFMpxHsRSw5U2Z+Va57nOZ42wa1sERkiX+WIEjfv48z/GC+RzlOP1fDgNwpGEm09fhBjrA1W6sR/mO2KFeXwMlMHSy3n9RKQfjGSJbTfIoicIkidMsLZOClL2n9HC11Q7nEv3Q1LgMvq9WgEhZa2e1W693aabQ/2q9lWxJZO1q6PBMB4DZTrK2B2QcDuoQs92qGs1d6nTAo7oHhrbb7b3AEeepKaVFb+8FjjBHROCQR/hgHRwvbRC/PrdWM1tVThScOTjWvwXHGMex89nqqK/+WoBF/sT7BEcTXWltcHB0Es2UoLA8J52Z6ROGBwHH+prtk802Sh96kqRxpAIUblBj1iRZSoQ6ydJ5HE1nsyiOozgKIxX75oqog2NowWVk4YAjZjgmBeZwGIaYw15rZ26pL/P5HOBzM5n959UgPREi6SSRiIeHUEwT0+q2O42T09Pjk3YreOArXzk+ODw9Pmmc6OYg2LJyD4HFjo+OjsCxs77kjYP+Wb/b63d70jxW9RlPThq9bt/l3Z1WIGWixZ27NkjlBvIC8yryWbwzj2Avg4Ydc0p2uypFQVYMSN1oNKggCTK2Wq133nnn3th4fyXL3nzzTSdlMLtKxiilq35dy5axGu5q1pokKaVxfB2GQxmBWsylXJDMNU7VPzKzVZSp4+E5K2JoTTOsoEOWiSa5sSy7OM2UuG8uT0qDhmHIeltyz0ophiJPeGrFdahxgmXt6zPuG59tkWJ8KSp3fR2rB4CSzpMgIc9kUCyX6zhKeMRj1loPFiuqIWy358tivbFqLvN5RE0zyoxjysGyqx54u/Vql2R5nGbLChyds1QUcuWhcJSJBCvqmILhWRFAVZq5W8pjsZG9KFu1zw7ltofvASwQqAIdZddsNrvZbOa0UTvI0VdmRa63W6nBLyTWyfNc+Tbn+teZo9nOsrMvLiQ+V5G69XVw5KPrX4dqIBwMBJl08n01qGpMshC1hdiNN/FI1Mr6Au52F+u1st3Nj1GipE/XoijiOAYl6xMP+ANGF4tlHKWkKtjyqZIrDKOH8ipRMyWKEitEoDmOia15nuvCsfssSuLRZBwaiDppgELWiafrwCMbeNhDo4ShDXyOURSNbUwmk9lshpdwaAPFTKtVpiEHNohRDKpBUKXdbnc6HZyD/X5/OByOBoPxcDQaDC0RsD88GyCU6XUM5EzRDZLiOnRpN+ZzvydM7Hd7YJ/yrC1FutPpNZuBtquEllKZaKmHvBZJkMdeQMl2bQRBQIEfGCLYh1MSC5pA0IkVLmObZ99+++0vCo6//vWvPdaBiXANHC1xcF4mzBisAI5urWBWL/IiSxdKZopjwJH3EXmsBhQ1SxU1wecopmbVXjG9S8PEkFGwmAoorVryVY9g7AXWRXSt6F1ZUekmjKcGWHRjp5zdhfioHW1OjyQoJFeCqdaFUQZ/EiOurdZOLsef+CayEjrVYYSWbsr1tiiWJBqu12tOEYyPi9ku7LKoqopZqSbWBoEmlNk9ANvt7mJ/QQeFNF2s18K1+jivBlyMbB8PnWPGAkCOoQTrCQr7W9XByB+kTzecC9R2Tsd77vWpl5SbvNjftk5hZUUJQ0Yh8oWG3LLL5WZZyAx35six89F86GajEJCzY1APE9t3UB2wKm/HBVL+Ha/AkdKWm/1qpYgWCn8C0ysbYKKDo6+1dZJo63SRiuGVM8GfZX8rTaVS0NQKy9XEVQNj2cAxk72diyLM40hZhlaVZx6Fs0iJ0bPZDOBjMk+n016vZxUl+gzZtqahKcHLnIP0BQQWp9MpVHFqo57u4iSRjMCZpfzWdxhZV9WJ1bDAhzg8G4wGkoAb7xP163d7zdPGmSCv27H8lp6Vk+j1eiBy34qPNZtNbXS7llXTG/bPBsqW0V7cTk4aQdDpdVSWghQaSRTbgmZwtt/vn1YdYAjIdEwUeQ0Ej46OnDNe22DPZlM1H3lPdnjrrbe+KDi+9dZbDo4liJUJMCVzjJRbGkK1UORz5bvnReCSLUTBkkzlNi0hy/6TcVGslhU2ysmSpkoCBWonE5mr83npMcFM0HSZktQtX3YcSdFKCgGQ50fLBhIfn5e2JnuLTsPBBW1vFPYBhtbFerva5pYCtlR9IIlysYLdvuVa4t4YsJrDlB7J6jm/6mB29NdmzfD8HOIPDj08qzyNJKOWrXVokiXuURdwxDxr+zBM1qvr4OigBjrstuqkqBi6CSTtvvxArG8LB0n65+BYfweqmblfst4lnC/qLNLB8fJC+Tar5eby4kEzlz8fHK3p2Ha13F1cqMQk9x6QAdk5h0Sr/aiAPwAa0EQ8RKDJd7PsGkSg+u7WAcISLtfnq6UibLaYqRyjn14HRzgjM9OXz9KtpMVTxaJqWvFS/MQ0s9w/re5xlI6G46maE4SA1MjGcDwajsfDyXik26TT605ms8lsOp4qwW8ym87NFgYfCVV7sAWZDjtEyuXV1RHamNjgKT4OoOTCYRvIm1t8BgAFQ30fkBEZ40i5L5J5D8+ubvDHfrfXbrXU3qUvsAOyQUaiNKBbo9EQHnVKcNSe3a6MaAPHbrcvT2MjcHA08U23V5XqAcsI2kAWYY6gm4Mg/VfrT6GXZIc6OLLdarWCIPjVr3716b3Hffkc3377bUxOeJate4pQZ4siSqTdSTMZywJHiQ0EbVojVeRT1RspB+KpS4OzkZVR0rI2Go34Of0n5GeOFZvN4igdj6dpmptcAU/LVe62DqMaXk7CmSCTWGuz5ZCxnmOYW4qOhJaa4ZS0KLGxrCulC75Yr4t1GqV5ki+Vxy2jHmzi4nESB3WSY1TNSWSmWTSmzFdxQAEc0cA7oHixGcAFKgQ46rqy7slQVF5OWACuZ1RLeBLOk3Or++/wWt+AZO3M54gAsCpyIX5WPrsTtgI07pDlWR50+OY41+t1kiQACt8FrSg4Wx6e5RKqTVipM5dlfXlZplSzjx64uL1Z7zZW7pZP5E0c3UDt5XKZJAlLAgXT6js4keSn4RfxkwCMbkzVX0bP4nStDkUbClXUg9T80Lj2MGJAHwDIrRAjXNPpdD4eT2ezcDye4sUDocwPqKkHes5nkfmv1W+aCSkAVcBaN/aSAQxhjMJZqJst4QpJ4y/CLRjZABzd28ix8RQh5tBeDh8k1sxlRcExpI7+jfxLhVbaB7gcDoetVqvE8c8Dx9Fg2O92g0bzrNfD4j6rxqAqWEtU+uTkRJ7DTucu5qiiE2KO5P+dHJ86OKomhZIFS+ZInUePQXc6XUM32f1m+otldjrdIGh7QAafAPd4G60MTxAE7YODw47eu2vFHptvvvnmvbHx/nyO77zzThRF8HzO+GgyHY4no8lsMp1PZioPNzgbTqfz4XA8Gk2Gw7FqkmixVCsfbcsjrPrD81k0GU9DGdbSZ4VhiJiLXxraaLp/ccw4TkejSaYK22rUS+TOaaAv5gD3bDZznuhPuZeHABGp1mGoDFwPs9gFc5VpC6HbraXZy+KsDo44m7h+HOC4FOmCgGvVMiv0hiCjAwqclBAnbIh9AD6nP3i+WFc8yu/gyDUvYBO0yc83m0Xnu0teBbLwtraDY8h5HKe7rfrnWXNEwWJ9AH/n5+eeF8hh780pubNUPL4p21idaBI4LXzZCvUuLva3Ly9uF4uVqrFd3L56vBLr7PeCS1rrLItSsM23A+zYZqlYrVZpmiJdBOw4A47agHud/bENXK5WK9W7kzdcHmSZI1E2r3qTugEb2pjbIApcOnlME8rKWhHDNEvzKEym0zmJ2KzBLNY2jbNq3V3NpvP1SmU4mN7s4zoNsqrH0wmCR/c52hKuaU+iURTFpmGMIl06KtzNVppqnzhWGgxIOh6PnTniQYK01r8dqdN8cXyUU5P1gK00QgiCgBqReCPNrB6MlUJtcRVjig888AAWNI2nRTANSd1Z2ev1Dg8PgyDoqYWgak9gj/c63RIE291eu9c8lUFt7kulYOsmOC0TCg3aWqenzaDVDgKFavBXtttWVqLd7Xb7nbakjoF5KuGPbUNNtoMgCNTItWdlcUVbjTgGb7zxxhcFx3fffZffg18iTSVmlJ4xy8MoUbEJm3BJks2tbNx8FqoIY2Irp7kOFbeNsyQWWE3VFlIZTiykEEBwrTZ7JA9CIWRzWgTQeSvb3GPwpmlKhow/eE0b5M7E1Uqpb1GUmGhGDiMzrLjwr+536916uVmkiyzJ1yrUqOBjPV5JKNbZkxokZCKPwJl1dBB+OiUEvNzTz1vxIODiYOrgSOpL9Yb69DqcGRipQEYUJpu12hnC8qBa4MgVPm5Vo5CcSMkVlRN0fXAAmNX+JiAU78w2OkogHh5ULidGP/d7Qd7lZVnPYqFCvMpXAbV5FsA1ZFQxn91ub8JDsVdOl29wkjk/aZrWNO2ll9o8MLrq4Xez2TxSmnIWx4n17VGXHvU0kkmwwReMXoJK8oVl5ZdLaS7hrhL2F4siX+SJfvoiL/I0XxWFiuyYawWINFtb1H42k5qCeEtlxuiv3sxmfp4Xo+HY+neXWdIEA92PBNqOx2PoXv1NShi1XfNMzvrYKvaYx0mgCcMAGdGERVFEA2uYrHMakJETNZvN+v3+xAYK8ImFbuStms3GVpSMeuDj8Ri8E+T1FYQxt+NAMRmzog8ODhwcz2zAFtk+s70ODw8V27FoDDGZvnHDshRF0O0E3eZJ0GkFUiMK8FScAuaoF1p5x5bizkHH0LBlEBkEHb8JHDs9wNFN77aBo72lHuv1VAvy5KRB3YpWq93pdF5//fUvCo7vv/++VitbnUoyn6j2RJSkAscoiaJkNJrgbQytsiaxXfiUuc+EdISzx8YceR9WZp8EnwXH8Xhqk6y8GHB7e9yZGYbJPJ0qiZVHgEgHxGsbIgWxqk0RYKmDI3xQV9JyI0xcrO4FjmqiZNo37OtKlFgWPKcSBHSvzhwxD7nagU5wx5CtrIf2ueAImAIxsDBLfxbuxFG6LNQ/EZJlHEpAd26jYmE7uikoqcZk6pvN1lyWSibZbqVeJH2Q0rlW9Wen9Ed5UTdk4+Fy5VtHkcq+kRGAWbrdbsE7sG9/eXt3fqHiGevtbn9xfnEhnc7ty6pTwx71qEk+VU0Hq5A5RrYcVz5TgkfoXcPZc84IkayY4yqKku12v1qWca1aKGxlx7taFiqhRC+Pu5zIhonIZos8X6TLPFks8+Uiy5eLRZbK4+wrriGawHEyUQF8lRKo1BFsLBbKs+Q2HIysaGkJjv6NmKVM/vF4zCV2L3BMEmlCkIoDjn5+roHj2dmZDP5KxDO38VlwZAd6cgGL3AOag8EgCIKRFbKFOVJnbDQYjJQf01cw6Ozs6Oioa87Bfr+PNc3O9mR5R8VGgZ1RQgt2K2w96KuCWbfd7QbdxnELKU+33QmarW673e9pdGxUAKf3CKzvoCA0MOT0NtbCyqDVapkFL8pJdDsItF9bwqCeyj6eNuGbJjRqv/baa18UHD/44ANAR5atBUzwM8ZpRmPJKE5HQ4EjMRnzeFg7DHXCkFwZxZ9+2jibTudmUl95D4HIumECbUzTfDyeGoSVERsWeaZpbgNAzPOcOvLMLRbn+tSv46MZLBJTLEpOIRADnrB8dfktN7v1rsiXWZKvFis1FRYJKXMc8T/CJcHT1Bo5qGTL3ZW1yLQhT4aaZnQB5IPc2+UEExC0L6iADA2pTTCkz4HcGeWDjklYkySZeTmNGVno3OUpgKkM9u2OMkhez3Gl7Gc13iKpcaNI+mq3PU+TXE8ZVgKj9m4qHcIZACDKNdJKS/DzYcb6KVKKfZoPx0oqTVJlrtAtgARLJRpS+9K8tJY1pHPgRNWNYj8hBMRYkzjnrD2gPxR+sSjUv0wCHTkQdORVHx7EAyir4ihV3QgrhuIfZAmmKt1kBZ/yNMqTMM1TOQWVBFYVAOULyktjnSbH4yng6EY3G0VRlsrP82J4N3OsEwKmK/IyBzuuMu5rD6p86mQ8rS4xrSbYXpjVEM8wDPv9PgwROTeMEnAEKKfTKWb1xDol+IPY1KMqAkN/waEN8cczEUYgEuaI/LBnoRiA0Nik7s4sbcbwrddoNASgCsJcGc5nPckerdKiwLF5Im2jq3nEH0tEk4cR05igthq0trsqX9Y763b67UBtEiCDTRttq2Th/JEU744s9BIcm2UvGr3zL37xi0/vPe4rIPPBBx+wrPmih2PZhIqx+UriwXAcJ1dYifA1Tb39riASpw9xbeAPQTUZI4AjCy/PRmE8HI7rzBFA9Hs4I4jJ2guI42rkYq7DItskqHKROzwBjn6pLBfCxzzJ0zgr8qWDo79b/SpdrVZEq5G21csOCnrM02e8bL0sJCw36FF4FBL0uQQT2ZNrg5wuOROkNtd1cLSPs08Uk8SPae+vxl4U+6hQQ7nS5PxgcsrDUKzCeYR/gBayKnWdF0mccQlhvcZxjBmIXwyRDbhmwK27ze58t7+Ik2x3fmFd+tbLzfr84sJqZUhKBDhi4xtddatdnPfqfSyJxVkbiMY64SsKlNlscHUoAhwrgqwQGchYnkxrp2PnXvjIDyq3SZ5bwlWxyPIsSdMoj8O0yJQBVuSLhZXhqM8odSTOi8l4tiyrnJXkEfS0mY8QQtXsLdXK56Yo5NU/tsWJrcOiexKrBwWO4/EUX3ykhlkCR2gjHlIK6pydnc0teD23eDRBAgdHENB9jjwLjBKKGZtZPRwOe73e0ByIAzRDFTiOBoNh/0wBbGOX18ARQJR2pxrXwJFgNFArcGzp1jiWvLyt3gbK9pPU0TDPvYctFRxrBUGnZU2rg1anY55HDGojg2KOpGk3LRcblMRfabAZHB+fHhwcHVm711u3Dr761a+++OKL98bG+wvI/Pa3v+VncO8vPSfplxZK1h8PRmN14LUO5ZGkjsJPGBw2iIOjmGOkMrguqLbtcsZcA8fB2dBax+hZj/Sxj9+zMRqN6juAm45l9Q1WYyYx7NJBCptRDy6WGwPHJEwWakWt96tTUVo86/KygZ1OZNkCMuJxoo0GBni7zH5XzXAraKZKFiAy936FY1bnuUiQARYF0AQFCFNsz01F+s5zFSiUdU5+CJ/itIiTE8e6rmTcpTIG52ofkihVyeRU+ECsyNw6CmN7Q2uNa5pN87WKWTthzzJhJaeR2mUOZ2bK626zPV+uN1le7PYXammwV/uEu24mrFHXwPU2UzFzCYkc0EFK4M8/2gUD186bn7rlUmb1Ut19S9mA9X7ZINkBHKXYj1OrNVr+drgyPVtfDsc0y5NFOIuX+TJXfnu2sPT/OjhiEk0ms2KxNLtBU4xlu9oQOGbmK9RSVxtcRyzhPBxbVLrCwfIvwFc9aOA4knjD8LH0OfolCVYSicZABvhAQ8CXFQ5lOLQRAxxwnFgBHu6v1dcRMTQ/4+BMjQSl6Db461bDW8ogKUdtrhdVnWSwvnumFaf1IAEZwLF1qsJlLSGfRmBGb2VNK+DiIH2cAAARgElEQVQSBMHJSYNeg81G0Gi0Go0mKYPH1bh1ePBvX/l/Do6ODo+Pbh0aCp6cIH4UOLYUkjk6OT06OW202o1W0Gg1X37l5U/vPe6LOf7ud78DHGGOiiZbQ95KqJjMwrDbH+ANBx8JsDjFYybBHCfqDHlXCorNIcXy2N9CNPJR4so0h46W5WvDDRmmFwEZMNRR0pkgGMHVBWoz0XFjgUdcKyDgIiuKfJmnizRKdYVkZVV9T82uA+Vyqcsjict8CfgjoR4KIFoidqkPj8LEiveUwjoOo/7RHHNRrMw1Jqm54Z04Ds5Wg3VdeEmSSX4/mSVxWdBfiT2mgvIrsVwDFtqZ1O/ykFaCDCBVGeKV0Sspu6WQL4vSf4pn1tGWN/RgLsrQvUm4Ly4u9hbdFjju9quN+peq5OK5HI53IaPJwM/PVbhst9sncebgCD6CdzhkOSHYB6worh51Cgn7BhxN9amKvK7Gr4PjaqX1Kc8laHVfgbYKqxBqdZRlR2fL+TSUxJUSIIsr4GOh1XqZL2azubkXbfEUvyw3FrnaJZmQTG171S+mGvw0TEgmalEU9IepcFB/gUuuO7vXJUURb/AxnCtLVb+4jQr+orP+MJyTtDaZWgyapwjOINw5M/W4608mNsbjsUmUxljW4F6/GiAdLNKRsWOj15Pq21yAPbbdBQn1azQa5vWTJQtKCgJbgTIRj06bJ82Tw8axZV0fHBwcHx+f2Diywb+Hh4f/9m9fOTo6OT1ttlpti8mUVXw4hk6n0wxa//aVrzRazVY7aMr9KCVjq9WiRbWw1MDx1uHxSaN5cto4bTZefOkLM8cPP/wQJuhkkDa7lh+azKNoOp/3ByO5IJPyxqroc8XN51IEXjUahD/CHP16Ft/MlDuoaKBJJSz2V39e24Ajj7rPsZqB5V/mMfcgo3L+bcBqubYdQz36vMyXRVZksTp61MHRL6eKHZQfVCZCUKnNKk14tEeEpVgX1mm2KFZUfvRrw513GEGYP3ZvvZBEy2N7idyd4KNBuXBjp8iDeq5WQCyPp+SYimyXgzi7BW1V/MKitDqY0gdnfFMgYrfVcm1Lkbyp5odVnAfr3z+dLw5t5FdYr02muNdw5rg7329353m+2Evdvd/udmLR/rQ2SmTcbffzeQS6uW2ummfrzfl2t11v1svVdr1ZLiQeUHHQpap5khUKhvJV+e2853h9wfPflw1bfVNmhT/lqx02xyIrQoHjciHLusCvwknghbwJnSx9UvmqXI9WK9H+M+DIy91PBXJBAx0imRvsk6bSIZmgUoAot36U4eU3bNSdgWDc7w/mM2mMwEGPYjs99EISE/TG03IAjs4ch8Mh1bbNYacmgsClRzzc5hXStdWk5fT0tGnFGdk4OTlpWL0Jyk8cHR2dnp42Go1yn+OT5ulp87QJONLnoNFoEFSBLfpHGElstJoGi61O0FKMRYBoHxfYaAbBV2/dOmmcNlpNvUtVQ5eN06YaXzdawdHJaTPonDSazaD1whc3q//whz84OJaam0wJofQDCuN4Op8PR5MwTsNYyp5QQopSfMNUo6sqZHA2VaKhpWDr4qpud2Gf/NkW3Z5MVM+CliB37VGBIx9Ea1YQx+HSoZlj4F9HJX+Wq90vldJ2K9ZFVsRhkkSpKGTFHLkMCA5U8KpEw9hUnHypxFqPzSXqjU3bpA2bzRJvzmehfaOSSvBxHIOfNB1bls+m01Jcki9khKv1iSqZ6yaL3GIa1mCrNOetblDFmK5MT8MO+TrTNAcHrZ2DPJJAUlmnsvLuJclVpfQ6+oBBMEfCx5zM3U75LYLGz4zFYnF5eek2ch0byVehMOV8HuEeJQatOBI29kqwCDiuFps8XWyWm81qrZuVRHOXMQY4Oi1/sM52HQRd0uC/OE/592K2FFkxn8xNqH1PcMyyzMHRV2Wfpc4cme3XdnBzmCtrbsFltJCAowRz5pviX66g4XCMJsQaCpbxawdH4WMY93tn00loyYfKQYQ8svSChgh0RpZ/MRgMJpPJcDiELQ6HQ7Cv0+k0Go3jYzVmaTQap6enx9XgEfx63sOgY/ETiCHc0NllYInP2Mh1ezloNINGs9UI2s120OicnopdmnOw6SFm3hYCeHLcICaD1LHd7vStKKQzx6DTPjZUhjx6JAdrHebYandFHFtBM2ifNhs/u3Pn03uP+zKr//jHPxpTSC1Sbb7kRZ7Q9SLL4iSZzuejyXQeyZcoCWQqj7Yyni0knC8keKx8JalkBpZOE1sjLsDRlGIq0ZXLuVNGb2ZTNQOSzVi5xuj25uBSFAVktihWLKpY7qS+SOm9UKgE3sqD9IZNrEoKMRnvROgYqnmcqcvSXE3alPkThqUG3vW0+K2nBvRRqGmKDE1KNKvH4+k3opCWaqZH8mUUxpk0c+XgGJwFVw+rgm80D7cqh7k0dNDGFlzQvaLM3NQUpbKRK4djGXwH+wwFFDxVJNrKUFp/Z0EWCOr1usnAAxwd0aBggBGAQgLJfD7HE0JRRYBvv99f2MALmaYptctcIu74SEBJYZP1djYLOVQ+VOC41e3i/PwaOK4NHHeG4+jVYXwO3HQ0rdNGth0cAUF287MNJeS3YIdlvpxP50VWKIU0yV0R6RjKxLOEAuGh+3NqG0oxBMssZ+zKBQ/wAWoOiFRrBjQjG2RJlOCYlYaU5aEls6kSZyzVQuVp3eyYWSJGrzscDEZn5vIDX7rdLmjV6/UCKxDbarXObAwt6oJl7RCJqJu0aF7Iztz3zOcIKpUyRsuqNjlhj2dxL8I6aZZQB9C26i02davAEVVQS3rGu8CRT8HnCDia9vEM56ZDuQIv7fbRyQnIGCi6Iw8mwNput1UFLeg0g/bBkczqTrfX7nbufHFw/OijjyDwJTNSOREta/x4YahqdKPJNErU1482MnGaKpZtrslEIsWFVTOUDpxoAAXLKtoo/oiDxh8BxXypZB0WLIqSyr3ttoxNzVxFw6KUcj5EEnnPsppOquRuVZOMEmWumhAMpGPRxrTweYamjJQe+2i5RJnHfDT/6ijEKxUHCOeqMeTeVYnMLUxbWJ4i0YCiWKGQr1+WleUrjxXoo/t8EU5nu81WDSGKpUIVqpSw2VY3kLEshiY7Wl47aKP52q6Yo0jmZmueiqzcQToeDbjVarWCslGBEdC56/XVP85wfQJ44oqDI0Ty4uJit9sR4HJz26XpBp3WPtvCMrHEiarI6GmIOzOrt2sdIrd1sc2SbKvMJS0LGNF14ENZBanne105SRwaa5WZHOj9t+CXZaFaZIv5ZG7J9QaONuXqKxmWh1tUeTWAPFOhqxjfIlepEcCRl4CkQB4mMy8ZjUYeZZ5OpxMbg0GZczIajQdnw06nN1SWylhyw7OJ3Q+HQ5VcJCsmnEfj8XQ8mmnqWswa8hhWqYF4FembWv8IPnE4HI7H44lpwufzeb/f500crN24YTXiDPuKeHl5+ZCNRx999Otf//o3bDz22GMPP/zwt7/97e985zvf/e53v/e97z3++OM/+MEPfvD44z/6wQ+f+NETT/74yaeefPpHP/rRM8888xMbzz333M9+9rM7d+688MILL7300ssvv/zKK6+88vIrr77681/+8rXXX3/j/2i8+etf//qtt956++2333333ffee++99zU++O0Hv/vd7z788MM//OEPH3300Z/+9Kc///nPH3/88SeffPLXv/71b3/723/913/94x//+O9//vNf//rXvVmjnrkv5vinP/35XuDIOhkniYGjotWAo0keE69Y5+BIEuFnzWp4JXDGNjb4cDgG3eJIoQZiuKkyC5VtMzPjwRQMs+FAOYuTyWw41OwZj6fK7FcS/3wiNJyTxWgRDP3igDs/tv/kfB1NX8t4wZOoAzBRpltkblCrcqpsauWPSwRj8g44I6YuOWT4H3lENTesyBAXs1+2/KuL3sYiy6fjiVrbGVtcL5cb2Zjrcym2N9uNYtPEGcj2cSJZgYkMbzcw1+vNwgI4SK9VmdzSUZyvAY7UCqKWGofhh8fF4Awrsnr6MEewdVeN8/PzvQ1qiO0sc2a3k7/xOjhapfTtVqmNdXAUbK/XJSbKjaD6EKvFJo3T7Vq+SNWXr76d7avGL0RyyC5dmqO0rtTxLwL1o278ojZcSVY6XuJ0Pg0X2UINcdRCXE3W4MgXNiRpv32b+wcffPBrX/vaQw899Mgjjzz88MOPPPLIo48++o1vfPMb33jsm9947Jvf/Najj3z929/+9re+9a3HHnvsW9/6FjDx/e9///HHH3/CxpNPPvnEE088/fTTzz333PM2QIc7d+68+OKLL7300iuvvPrqq6++8sqrP//5L1577fU33vg/b7zx5ptv/upXv/rVr3/967dtvPvuuyVEvPf+Bx988Nvf/vb3v//9NZj4y1/+8vHHH3/yySf/+Z//eYUU//3f//znP4UHN6N2Bu4LHP/yl79QUMeCoWmaqE0ao1yvomgwGitVJsnCOJ1HyTwKoyS2wq+qTmbJqYW9MJtaoR2wD9GWRdxUtILsGu5n03A8moxGk+lkTr42C+ZYdUtmLG6UIEuSZD4LB2dqOJkoXJsqiheVBRmxa2qcN7eKJyU4uoeIhZ8DNYeaiu3ptVZEA38CnII9gQmq5uSZ2AGFGsHHOhqCiY6VYRjT1QDm4hctb7iqRp5mk9Go6iMmiNyuq9QW8SXpezCiZ7OQ/rEVLApVQL3qzVar1XqxUHNnIjbWzkE5kYIhk0M6OOKpgPHVjVPgpigKDhhUgSReXl4++uijIMLXv/71b9mAKYAI3/nOdx5//PEf/vCHP/jBD5544okf//jHTz755FNPPf3vT//HU089/R///syPf/zkM8888+yzz/7kJz/5qY3nf/r8nZ/97IU7d164c+fFF1546cUXX37xlRdfePHnr/78Fz//+Wu/1Hjttddef/31N94Qj3jzzTchESDFu++++/777//GxgcfiEoAE3+08ZGNOkzcxSkMKf71/0UrPr0Z/9vPwH2B48cffwy4gDhmOapdemzDAm0EZBIlFMbJPIxnobjZPAqncyl84G7j8XQwGJnDWPxuMBjB7wZn2phOZvKkWHEKCOZ0OldKgOXVCPUknRRgKbhhujDuZd3PIxngelxyMENJRfeAXV6IYa7W7/LXRPiMQLo8z2scQptWUkWSQPigg6PvVsKHBXk363Oa89HJ5GJ/efvyQWMSDz/00CMPP/zoo498/Rtf/6aRiMceeeTRxx779veqAWr86Ec/euKJJ5608dRTTz399NNPPfnkD3/wg58888xzP3n2p88997Pnn3eYeOnFl15+6eVXX/05txdffOmXv/jlazI3RCgMKK7YxDvvvAOhkNVREYrf/U6E4sMPP/zjH//40Ucf/fnPf64jhXOKv//97//4xz/+eR8GyP/2y+Tm+30Zz8B9geMnn3yisnNjeepm03CkWnSjsf0/GmljNBr3+oNZGI2ns8lMdXoiU0Ur73+13OyUxru3xvYXF5fbze7y8sEHb3/toa89/OCDDz388KPf+MZjX3/0G9967Nvf+c73vvvd733729/9/vcf1+17j3/nO9/70Y+eePLJp5588umnn/r3p5/W7Sc/efbZZ5995plnnnvuuZ/+9Kd37ty587M7zz//s5defOkVeSdeffXVn//iF7+AWxizkAHy68pD8dZbb7/zzjvvvffeb37zG6wPd1IAFuankPVh9scnN7Tiy3hl3HznL/0ZuE9w/E/Hi/+Us+LGW/Glnzg3J+DmDPxvPwP3BY7/20/Czfe7OQM3Z+DmDFw/AzfgeP2M3Px/cwZuzsDNGbhfKc/Nmbo5Azdn4OYMfNnOwA1z/LL94jff9+YM3JyB+zoDN+B4X6fpZqebM3BzBr5sZ+AGHL9sv/jN9705Azdn4L7OwA043tdputnp5gzcnIEv2xm4Accv2y9+831vzsDNGbivM3ADjvd1mm52ujkDN2fgy3YG/l9286+yDda7DQAAAABJRU5ErkJggg==;" vertex="1" parent="1">
                    <mxGeometry x="90" y="80" width="436" height="259" as="geometry"/>
                </mxCell>
            </root>
        </mxGraphModel>
    </diagram>
</mxfile>